<svg width="1125" height="676" viewBox="0 0 1125 676" fill="none" xmlns="http://www.w3.org/2000/svg">
<path d="M488.111 327.29C492.553 328.771 495.884 330.834 498.104 333.477C500.325 336.121 501.436 338.923 501.436 341.885C501.436 344.846 500.22 347.596 497.788 350.133C495.355 352.671 491.706 354.469 486.842 355.527C478.805 355.739 470.715 355.897 462.572 356.003C454.429 356.109 446.339 356.161 438.302 356.161C431.11 356.373 423.179 356.478 414.507 356.478C405.835 356.478 397.798 356.69 390.395 357.113C380.877 356.055 375.59 351.19 374.532 342.519C374.532 328.56 374.585 314.812 374.691 301.276C374.797 287.739 374.85 273.991 374.85 260.031C375.061 246.072 375.167 232.218 375.167 218.47V176.909C376.224 172.679 378.128 169.454 380.877 167.233C383.627 165.012 386.799 163.902 390.395 163.902C393.991 163.902 397.217 164.906 400.071 166.916C402.927 168.925 405.095 171.94 406.575 175.958C406.575 189.071 406.523 202.079 406.417 214.98C406.311 227.882 406.258 240.679 406.258 253.369C406.047 266.271 405.941 278.803 405.941 290.964V328.56C412.498 328.136 419.002 327.978 425.452 328.084C431.904 328.19 438.407 328.136 444.964 327.925C451.944 327.925 459.029 327.872 466.22 327.766C473.411 327.66 480.708 327.502 488.111 327.29Z" fill="#BD498B"/>
<path d="M630.56 315.552C633.944 314.283 637.064 313.754 639.92 313.966C642.775 314.177 645.207 314.918 647.216 316.187C649.226 317.456 650.812 319.095 651.975 321.104C653.139 323.113 653.72 325.281 653.72 327.608C653.72 329.934 652.98 332.208 651.5 334.429C650.019 336.65 647.692 338.712 644.52 340.616C635.637 345.903 626.066 350.398 615.808 354.099C605.55 357.8 595.239 359.651 584.875 359.651C578.741 359.651 572.502 358.752 566.157 356.954C559.811 355.157 553.89 352.354 548.39 348.547C539.507 341.99 532.581 333.371 527.61 322.691C522.639 312.009 520.154 301.064 520.154 289.854C520.154 278.856 522.322 268.28 526.658 258.128C530.994 247.976 537.92 239.727 547.438 233.381C555.053 228.094 563.301 223.864 572.185 220.691C581.068 217.519 590.268 215.933 599.786 215.933C604.862 215.933 609.833 216.461 614.698 217.519C619.351 218.576 623.686 220.427 627.705 223.071C631.724 225.715 635.214 228.887 638.175 232.589C641.136 236.29 643.462 240.361 645.155 244.803C646.846 249.245 647.692 253.686 647.692 258.128C647.692 261.089 647.376 263.944 646.741 266.694C646.106 269.443 644.943 272.087 643.251 274.626C640.078 279.701 635.743 284.09 630.244 287.792C624.744 291.493 618.716 294.718 612.159 297.468C605.603 300.218 598.835 302.545 591.855 304.448C584.875 306.351 578.318 308.044 572.185 309.524C565.628 311.216 561.451 312.273 559.653 312.697C557.856 313.119 556.745 313.331 556.321 313.331C559.283 319.465 563.513 324.33 569.013 327.925C574.512 331.52 581.28 333.001 589.317 332.367C596.085 331.944 603.117 329.987 610.414 326.497C617.712 323.007 624.427 319.359 630.56 315.552ZM572.185 251.782C565.205 255.378 560.023 260.19 556.639 266.219C553.255 272.246 551.352 278.961 550.928 286.364C550.928 286.364 551.087 286.311 551.404 286.205C551.722 286.099 552.673 285.835 554.26 285.412C555.846 284.989 558.226 284.302 561.398 283.35C564.57 282.398 569.118 281.076 575.04 279.385C577.155 278.75 580.328 277.851 584.558 276.687C588.788 275.524 593.071 274.15 597.407 272.563C601.743 270.977 605.761 269.126 609.463 267.011C613.164 264.896 615.649 262.57 616.918 260.031C617.342 253.898 615.967 249.667 612.794 247.341C609.621 245.014 605.815 243.851 601.372 243.851C596.508 243.851 591.326 244.75 585.827 246.548C580.328 248.346 575.781 250.091 572.185 251.782Z" fill="#BD498B"/>
<path d="M802.832 339.663C804.101 342.837 804.366 345.851 803.626 348.705C802.886 351.561 801.405 353.888 799.184 355.685C796.963 357.483 794.161 358.541 790.777 358.858C787.392 359.175 783.797 358.382 779.99 356.479C778.297 354.786 776.658 353.041 775.072 351.244C773.486 349.445 772.164 347.701 771.107 346.009C763.492 351.72 756.354 355.368 749.692 356.954C743.029 358.541 735.785 359.333 727.959 359.333C722.249 359.333 716.696 358.752 711.303 357.589C705.91 356.425 700.464 354.046 694.964 350.45C686.927 344.74 681.216 337.972 677.832 330.146C674.448 322.32 672.756 314.072 672.756 305.4C672.756 296.517 674.078 288.109 676.722 280.177C679.365 272.246 683.014 264.844 687.667 257.97C692.321 251.096 697.661 244.803 703.689 239.092C709.717 233.381 716.221 228.306 723.2 223.864C724.681 223.018 726.743 222.066 729.387 221.009C732.031 219.951 735.045 218.946 738.429 217.994C741.813 217.043 745.303 216.303 748.898 215.774C752.494 215.245 755.984 214.98 759.368 214.98C765.925 214.98 771.794 215.774 776.976 217.36C782.158 218.946 785.912 222.807 788.239 228.94V244.803C788.239 249.033 788.185 252.576 788.08 255.431C787.974 258.286 787.921 260.666 787.921 262.57V267.963C787.921 275.366 788.133 283.033 788.555 290.964C788.979 298.896 789.719 306.669 790.777 314.283C791.199 316.609 792.204 319.359 793.79 322.531C795.377 325.705 797.016 328.56 798.708 331.098H798.391C799.872 333.424 801.087 335.328 802.039 336.808C802.991 338.289 803.256 339.241 802.832 339.663ZM760.002 317.138C758.311 309.735 757.253 302.068 756.83 294.137C756.407 286.205 756.195 278.327 756.195 270.501C756.195 265.002 756.301 260.031 756.512 255.59C756.724 251.148 756.83 246.813 756.83 242.582C753.234 243.005 749.586 243.957 745.884 245.438C742.183 246.918 739.592 247.976 738.111 248.61C732.401 251.148 727.272 254.744 722.724 259.397C718.177 264.05 714.423 269.232 711.462 274.942C708.501 280.654 706.333 286.629 704.958 292.868C703.583 299.107 703.424 305.188 704.482 311.11C705.117 315.763 706.756 319.623 709.399 322.691C712.043 325.757 715.163 328.084 718.759 329.67C722.354 331.256 726.214 332.049 730.338 332.049C734.463 332.049 738.429 331.415 742.236 330.146C746.889 327.396 752.811 323.061 760.002 317.138Z" fill="#BD498B"/>
<path d="M832.02 246.072C828.001 243.745 825.199 241.472 823.613 239.251C822.027 237.03 821.233 234.651 821.233 232.113C821.233 228.517 822.661 225.45 825.517 222.912C828.372 220.374 832.126 219.105 836.779 219.105C839.952 219.105 843.6 219.951 847.725 221.643C851.849 223.335 855.286 225.344 858.035 227.671C864.593 222.383 871.201 218.154 877.865 214.98C884.527 211.808 891.559 210.221 898.962 210.221C901.077 210.221 904.303 210.751 908.638 211.808C912.974 212.866 917.205 214.505 921.329 216.725C925.453 218.946 929.102 221.802 932.274 225.292C935.447 228.782 937.033 232.853 937.033 237.506C937.033 241.314 935.606 244.433 932.75 246.865C929.895 249.298 926.458 250.514 922.44 250.514C919.478 250.514 917.046 249.879 915.142 248.61C913.239 247.341 911.335 245.861 909.432 244.169C907.951 242.688 906.206 241.26 904.197 239.885C902.188 238.51 900.337 237.824 898.645 237.824C896.318 237.824 893.569 238.67 890.396 240.361C887.223 242.054 884.051 244.063 880.879 246.389C877.705 248.716 874.586 251.307 871.519 254.162C868.452 257.017 865.862 259.503 863.746 261.618V344.74C863.535 350.027 861.79 353.94 858.511 356.479C855.233 359.017 851.796 360.286 848.201 360.286C844.393 360.286 841.009 359.069 838.049 356.637C835.087 354.204 833.29 350.556 832.655 345.691V246.389L832.02 246.072Z" fill="#BD498B"/>
<path d="M479.635 321.294C484.072 322.773 487.4 324.834 489.619 327.475C491.837 330.116 492.947 332.916 492.947 335.875C492.947 338.833 491.732 341.58 489.302 344.115C486.872 346.651 483.227 348.447 478.367 349.504C470.338 349.715 462.255 349.873 454.12 349.979C445.984 350.085 437.902 350.137 429.873 350.137C422.688 350.349 414.764 350.454 406.101 350.454C397.438 350.454 389.408 350.666 382.012 351.088C372.503 350.031 367.221 345.171 366.164 336.508C366.164 322.562 366.217 308.827 366.323 295.304C366.428 281.78 366.482 268.045 366.482 254.099C366.692 240.153 366.798 226.313 366.798 212.578V171.057C367.854 166.831 369.757 163.608 372.503 161.39C375.25 159.171 378.42 158.062 382.012 158.062C385.604 158.062 388.827 159.065 391.679 161.072C394.532 163.08 396.697 166.092 398.177 170.106C398.177 183.207 398.124 196.202 398.019 209.091C397.913 221.981 397.86 234.765 397.86 247.443C397.649 260.333 397.543 272.853 397.543 285.003V322.562C404.093 322.139 410.591 321.981 417.036 322.087C423.481 322.192 429.979 322.139 436.529 321.928C443.502 321.928 450.581 321.875 457.764 321.769C464.949 321.664 472.239 321.506 479.635 321.294Z" fill="#A3D9FF"/>
<path d="M621.948 309.567C625.329 308.299 628.446 307.771 631.299 307.982C634.151 308.193 636.581 308.933 638.588 310.201C640.596 311.469 642.18 313.106 643.343 315.114C644.505 317.121 645.086 319.287 645.086 321.611C645.086 323.936 644.347 326.207 642.867 328.425C641.388 330.645 639.063 332.704 635.894 334.607C627.02 339.889 617.458 344.379 607.209 348.077C596.961 351.775 586.66 353.624 576.307 353.624C570.179 353.624 563.945 352.725 557.606 350.93C551.266 349.134 545.351 346.333 539.856 342.531C530.982 335.98 524.062 327.369 519.096 316.699C514.13 306.028 511.647 295.093 511.647 283.894C511.647 272.905 513.813 262.34 518.145 252.198C522.477 242.055 529.397 233.814 538.905 227.475C546.513 222.193 554.753 217.967 563.628 214.797C572.503 211.627 581.695 210.043 591.203 210.043C596.274 210.043 601.24 210.571 606.1 211.627C610.749 212.684 615.081 214.533 619.096 217.174C623.11 219.816 626.597 222.985 629.555 226.683C632.513 230.38 634.838 234.448 636.528 238.886C638.218 243.323 639.063 247.76 639.063 252.198C639.063 255.156 638.747 258.009 638.113 260.756C637.479 263.502 636.317 266.144 634.626 268.68C631.457 273.75 627.125 278.135 621.632 281.833C616.137 285.531 610.115 288.753 603.565 291.5C597.014 294.248 590.253 296.572 583.28 298.473C576.307 300.375 569.756 302.066 563.628 303.545C557.077 305.235 552.905 306.292 551.108 306.714C549.313 307.137 548.203 307.348 547.78 307.348C550.739 313.476 554.964 318.336 560.459 321.928C565.953 325.52 572.714 326.999 580.744 326.366C587.505 325.943 594.531 323.988 601.821 320.502C609.112 317.015 615.821 313.37 621.948 309.567ZM563.628 245.858C556.655 249.45 551.478 254.258 548.097 260.281C544.716 266.302 542.815 273.011 542.392 280.407C542.392 280.407 542.551 280.354 542.867 280.248C543.184 280.142 544.135 279.879 545.72 279.456C547.305 279.034 549.682 278.347 552.852 277.396C556.021 276.445 560.564 275.124 566.481 273.434C568.593 272.8 571.764 271.901 575.989 270.739C580.215 269.577 584.494 268.204 588.826 266.619C593.158 265.034 597.173 263.185 600.871 261.072C604.569 258.959 607.051 256.635 608.319 254.099C608.742 247.972 607.368 243.745 604.199 241.421C601.029 239.097 597.226 237.934 592.788 237.934C587.928 237.934 582.751 238.833 577.257 240.629C571.764 242.425 567.221 244.168 563.628 245.858Z" fill="#A3D9FF"/>
<path d="M794.055 333.655C795.323 336.825 795.587 339.837 794.848 342.689C794.109 345.542 792.629 347.866 790.411 349.662C788.192 351.458 785.392 352.515 782.011 352.831C778.63 353.148 775.038 352.356 771.235 350.454C769.544 348.763 767.906 347.02 766.322 345.225C764.737 343.428 763.417 341.685 762.36 339.995C754.753 345.7 747.621 349.345 740.966 350.93C734.309 352.515 727.072 353.306 719.254 353.306C713.549 353.306 708.002 352.725 702.614 351.563C697.226 350.401 691.784 348.024 686.29 344.432C678.26 338.727 672.555 331.965 669.174 324.147C665.794 316.328 664.104 308.088 664.104 299.424C664.104 290.55 665.424 282.15 668.065 274.226C670.706 266.302 674.352 258.907 679 252.04C683.649 245.172 688.985 238.886 695.006 233.18C701.029 227.475 707.526 222.404 714.499 217.967C715.979 217.121 718.038 216.17 720.68 215.114C723.321 214.057 726.333 213.053 729.713 212.103C733.094 211.152 736.581 210.413 740.173 209.884C743.765 209.356 747.252 209.091 750.633 209.091C757.183 209.091 763.046 209.884 768.223 211.469C773.401 213.053 777.151 216.91 779.476 223.038V238.886C779.476 243.112 779.422 246.651 779.317 249.504C779.211 252.356 779.158 254.734 779.158 256.635V262.023C779.158 269.419 779.37 277.079 779.792 285.003C780.215 292.926 780.954 300.692 782.011 308.299C782.434 310.623 783.438 313.37 785.022 316.54C786.607 319.71 788.244 322.562 789.935 325.098H789.618C791.097 327.422 792.312 329.324 793.263 330.803C794.213 332.282 794.478 333.233 794.055 333.655ZM751.266 311.152C749.576 303.756 748.52 296.096 748.097 288.172C747.674 280.248 747.462 272.378 747.462 264.559C747.462 259.065 747.568 254.099 747.78 249.662C747.991 245.225 748.097 240.893 748.097 236.667C744.505 237.089 740.86 238.04 737.162 239.519C733.464 240.999 730.876 242.055 729.396 242.689C723.691 245.225 718.567 248.817 714.024 253.466C709.481 258.114 705.73 263.291 702.772 268.996C699.814 274.702 697.648 280.671 696.274 286.904C694.901 293.138 694.742 299.213 695.799 305.129C696.433 309.778 698.071 313.634 700.711 316.699C703.353 319.762 706.47 322.087 710.062 323.672C713.654 325.256 717.51 326.049 721.631 326.049C725.751 326.049 729.713 325.415 733.517 324.147C738.166 321.4 744.082 317.068 751.266 311.152Z" fill="#A3D9FF"/>
<path d="M823.216 240.153C819.2 237.829 816.401 235.558 814.816 233.339C813.231 231.12 812.439 228.743 812.439 226.208C812.439 222.615 813.865 219.551 816.718 217.015C819.571 214.48 823.321 213.212 827.97 213.212C831.139 213.212 834.784 214.057 838.905 215.748C843.025 217.438 846.459 219.445 849.206 221.77C855.756 216.487 862.359 212.262 869.016 209.091C875.672 205.922 882.697 204.337 890.093 204.337C892.206 204.337 895.429 204.866 899.76 205.922C904.092 206.978 908.318 208.616 912.439 210.835C916.559 213.053 920.204 215.906 923.374 219.393C926.543 222.879 928.128 226.947 928.128 231.596C928.128 235.399 926.702 238.516 923.849 240.946C920.997 243.376 917.563 244.591 913.548 244.591C910.59 244.591 908.159 243.957 906.258 242.689C904.357 241.421 902.454 239.942 900.553 238.252C899.074 236.772 897.33 235.346 895.323 233.973C893.316 232.599 891.467 231.913 889.776 231.913C887.452 231.913 884.705 232.758 881.535 234.448C878.366 236.139 875.196 238.146 872.027 240.47C868.857 242.795 865.74 245.383 862.676 248.236C859.613 251.088 857.024 253.571 854.911 255.684V338.727C854.7 344.009 852.957 347.918 849.681 350.454C846.406 352.99 842.973 354.258 839.38 354.258C835.577 354.258 832.196 353.043 829.238 350.612C826.279 348.182 824.483 344.538 823.849 339.678V240.47L823.216 240.153Z" fill="#A3D9FF"/>
<path fill-rule="evenodd" clip-rule="evenodd" d="M457.186 531.14C460.536 528.514 464.38 527.2 468.716 527.2C472.461 527.2 475.664 528.326 478.325 530.577C480.986 532.829 482.316 535.737 482.316 539.302C482.316 540.616 481.824 542.68 480.838 545.495C477.487 550.373 473.742 555.158 469.603 559.848C465.464 564.54 460.881 568.667 455.855 572.232C450.829 575.797 445.261 578.659 439.15 580.817C433.04 582.974 426.339 584.054 419.046 584.054C408.205 584.054 398.251 581.99 389.185 577.861C380.118 573.734 372.332 568.058 365.828 560.834C359.323 553.61 354.297 545.166 350.749 535.503C347.201 525.84 345.427 515.473 345.427 504.402C345.427 496.71 346.511 489.485 348.68 482.731C351.636 473.724 355.085 465.843 359.028 459.088C362.97 452.334 367.7 446.377 373.219 441.216C378.738 436.056 385.045 431.459 392.141 427.425C399.237 423.39 407.417 419.591 416.681 416.026H416.385C422.298 413.587 427.768 411.711 432.794 410.397C437.82 409.083 442.895 408.427 448.02 408.427C455.51 408.427 462.212 410.397 468.125 414.337C474.038 418.277 479.557 425.033 484.682 434.602C485.076 436.103 485.273 437.604 485.273 439.105C485.273 442.671 483.942 445.579 481.282 447.83C478.621 450.082 475.418 451.208 471.673 451.208C466.942 451.208 462.606 449.331 458.664 445.579C455.904 441.075 453.736 437.886 452.159 436.01C450.583 434.133 448.809 433.195 446.838 433.195C445.655 433.195 443.881 433.57 441.516 434.321C439.15 435.071 436.588 435.915 433.829 436.854L429.098 438.542C421.805 441.169 414.907 444.453 408.402 448.393C401.898 452.334 396.132 457.072 391.106 462.607C386.08 468.142 382.089 474.521 379.132 481.746C376.176 488.969 374.697 497.272 374.697 506.654C374.697 513.221 375.683 519.648 377.654 525.934C379.625 532.22 382.532 537.849 386.376 542.821C390.219 547.793 394.901 551.781 400.419 554.783C405.938 557.785 412.246 559.286 419.341 559.286C423.481 559.286 427.373 558.441 431.02 556.753C434.666 555.064 438.017 552.907 441.072 550.279C444.127 547.653 446.985 544.697 449.646 541.414C452.307 538.13 454.623 534.799 456.594 531.422L457.186 531.14Z" fill="#BD498B"/>
<path fill-rule="evenodd" clip-rule="evenodd" d="M694.207 483.078C689.277 482.327 685.587 480.826 683.117 478.574C680.657 476.323 679.427 473.696 679.427 470.694C679.427 467.692 680.757 464.877 683.417 462.25C686.077 459.624 690.067 458.31 695.387 458.31H708.987V415.247C709.977 411.307 711.797 408.352 714.457 406.381C717.117 404.412 720.127 403.427 723.477 403.427C726.627 403.427 729.587 404.318 732.347 406.101C735.107 407.883 736.977 410.65 737.967 414.403V458.31H763.977C768.317 459.435 771.517 461.124 773.587 463.376C775.657 465.628 776.697 468.067 776.697 470.694C776.697 476.698 772.157 480.826 763.097 483.078H737.967V534.865C737.967 540.682 738.017 546.499 738.107 552.315C738.207 558.132 738.257 563.949 738.257 569.766C738.257 574.456 736.677 577.928 733.527 580.179C730.377 582.431 727.127 583.557 723.767 583.557C720.417 583.557 717.317 582.525 714.457 580.461C711.597 578.397 709.877 575.207 709.287 570.891C709.287 563.761 709.237 556.396 709.137 548.797C709.037 541.198 708.987 533.645 708.987 526.14V483.078H694.207Z" fill="#BD498B"/>
<path fill-rule="evenodd" clip-rule="evenodd" d="M450.759 524.713C454.109 522.087 457.953 520.773 462.289 520.773C466.034 520.773 469.237 521.899 471.898 524.151C474.559 526.402 475.889 529.31 475.889 532.876C475.889 534.189 475.397 536.253 474.411 539.068C471.06 543.947 467.315 548.731 463.176 553.422C459.037 558.113 454.454 562.241 449.428 565.806C444.402 569.371 438.834 572.232 432.723 574.391C426.613 576.548 419.912 577.627 412.619 577.627C401.778 577.627 391.824 575.563 382.758 571.435C373.691 567.307 365.905 561.631 359.401 554.407C352.896 547.184 347.87 538.74 344.322 529.076C340.774 519.413 339 509.046 339 497.976C339 490.283 340.084 483.059 342.253 476.304C345.209 467.298 348.658 459.417 352.601 452.661C356.543 445.907 361.273 439.95 366.792 434.789C372.311 429.63 378.618 425.033 385.714 420.998C392.81 416.964 400.99 413.165 410.254 409.6H409.958C415.871 407.161 421.341 405.284 426.367 403.971C431.393 402.657 436.468 402 441.593 402C449.083 402 455.785 403.971 461.698 407.911C467.611 411.851 473.13 418.606 478.255 428.175C478.649 429.676 478.846 431.178 478.846 432.679C478.846 436.244 477.515 439.152 474.855 441.404C472.194 443.655 468.991 444.781 465.246 444.781C460.515 444.781 456.179 442.905 452.237 439.152C449.477 434.648 447.309 431.459 445.732 429.583C444.156 427.707 442.382 426.768 440.411 426.768C439.228 426.768 437.454 427.143 435.089 427.894C432.723 428.644 430.161 429.489 427.402 430.427L422.671 432.115C415.378 434.743 408.48 438.026 401.975 441.966C395.471 445.907 389.705 450.645 384.679 456.18C379.653 461.716 375.662 468.095 372.705 475.319C369.749 482.543 368.27 490.846 368.27 500.227C368.27 506.795 369.256 513.221 371.227 519.507C373.198 525.793 376.105 531.422 379.949 536.394C383.792 541.366 388.474 545.354 393.992 548.356C399.511 551.358 405.819 552.859 412.914 552.859C417.054 552.859 420.946 552.015 424.593 550.326C428.239 548.637 431.59 546.48 434.645 543.853C437.7 541.226 440.558 538.27 443.219 534.987C445.88 531.704 448.196 528.373 450.167 524.995L450.759 524.713Z" fill="#A3D9FF"/>
<path fill-rule="evenodd" clip-rule="evenodd" d="M687.78 476.652C682.85 475.9 679.16 474.399 676.69 472.148C674.23 469.896 673 467.269 673 464.267C673 461.265 674.33 458.45 676.99 455.824C679.65 453.197 683.64 451.883 688.96 451.883H702.56V408.821C703.55 404.88 705.37 401.925 708.03 399.955C710.69 397.985 713.7 397 717.05 397C720.2 397 723.16 397.891 725.92 399.674C728.68 401.456 730.55 404.223 731.54 407.976V451.883H757.55C761.89 453.009 765.09 454.697 767.16 456.95C769.23 459.201 770.27 461.64 770.27 464.267C770.27 470.272 765.73 474.399 756.67 476.652H731.54V528.438C731.54 534.256 731.59 540.072 731.68 545.889C731.78 551.705 731.83 557.523 731.83 563.339C731.83 568.029 730.25 571.501 727.1 573.753C723.95 576.004 720.7 577.13 717.34 577.13C713.99 577.13 710.89 576.098 708.03 574.034C705.17 571.97 703.45 568.78 702.86 564.464C702.86 557.334 702.81 549.97 702.71 542.37C702.61 534.772 702.56 527.219 702.56 519.714V476.652H687.78Z" fill="#A3D9FF"/>
<path d="M219.756 320.554C219.756 320.554 234.192 314.62 234.767 314.552" stroke="black" stroke-width="17.4417" stroke-miterlimit="1.22093" stroke-linecap="round" stroke-linejoin="round"/>
<path d="M219.921 307.231C219.793 307.073 233.58 308.256 233.08 308.318" stroke="black" stroke-width="15.5039" stroke-miterlimit="1.22093" stroke-linecap="round" stroke-linejoin="round"/>
<path fill-rule="evenodd" clip-rule="evenodd" d="M192.084 236.176C197.9 243.42 202.89 238.828 203.395 237.566C203.828 236.679 211.397 221.594 227.441 211.998C233.151 208.582 241.293 204.689 249.088 203.6C261.246 201.901 270.255 202.356 278.462 203.753C282.907 204.509 279.774 205.895 283.116 207.362C286.243 212.647 290.913 216.594 293.844 223.521C297.506 232.176 300.814 237.647 302.07 241.68C304.948 250.929 303.783 252.044 304.642 255.659C306.885 265.113 307.029 277.918 305.305 285.008C302.913 294.839 302.696 295.92 299.188 297.61C293.962 300.126 295.797 285.91 295.797 285.91C295.942 285.225 293.953 266.511 289.943 267.151C285.934 267.792 275.266 280.561 275.266 280.561C270.007 277.208 256.909 280.226 257.104 279.933C257.299 279.64 247.367 262.263 244.696 264.464C242.025 266.665 240.557 285.91 240.557 285.91C240.557 285.91 227.589 297.875 226.97 307.684C226.345 317.595 229.2 325.796 233.123 328.324C241.581 335.786 267.662 340.179 288.632 335.645C289.84 335.297 304.783 329.251 307.936 328.225C307.936 328.225 319.036 327.335 321.474 330.125C323.872 332.869 301.525 347.506 301.839 345.999C293.694 352.98 255.611 353.744 235.997 341.415C219.141 330.821 176.981 302.09 192.084 236.176Z" fill="#D4B6C7"/>
<path fill-rule="evenodd" clip-rule="evenodd" d="M185.296 308.564C184.615 305.922 186.206 303.223 188.849 302.541C191.491 301.859 194.19 303.451 194.872 306.094C200.423 327.609 224.33 343.955 242.374 351.177C262.229 359.125 277.623 359.645 287.664 357.228C293.076 355.926 296.76 354.007 298.084 351.872C299.522 349.553 302.572 348.837 304.892 350.276C307.211 351.714 307.926 354.765 306.488 357.084C304.79 359.821 301.167 362.918 295.484 365.133C284.568 369.388 265.058 370.909 238.699 360.358C218.202 352.154 191.602 333.005 185.296 308.564Z" fill="#BD498B"/>
<mask id="mask0_0_1" style="mask-type:luminance" maskUnits="userSpaceOnUse" x="129" y="135" width="211" height="239">
<path d="M297.006 373.844L129.884 339.19L172.118 135.512L339.24 170.166L297.006 373.844Z" fill="white"/>
</mask>
<g mask="url(#mask0_0_1)">
<path fill-rule="evenodd" clip-rule="evenodd" d="M342.261 313.487C316.458 351.125 263.953 360.049 225.084 333.402C186.215 306.755 175.607 254.565 201.409 216.927C227.212 179.289 279.055 171.061 317.924 197.708C356.793 224.354 368.064 275.849 342.261 313.487Z" stroke="#A3D9FF" stroke-width="26.3898" stroke-miterlimit="1.5" stroke-linecap="round" stroke-linejoin="round"/>
</g>
<path fill-rule="evenodd" clip-rule="evenodd" d="M243.43 279.933C243.619 279.399 244.999 275.514 245.395 273.132C245.539 272.266 245.434 272.166 244.585 271.923C245.092 271.925 245.562 271.629 246.066 271.57C247.872 271.359 249.081 272.346 249.29 272.516C253.469 275.927 253.263 276.111 257.104 279.933C257.82 279.864 270.813 277.722 275.266 280.561C274.91 280.594 274.947 280.65 270.957 281.772C281.644 278.325 280.72 276.709 282.648 274.891L283.054 274.299C283.758 282.054 276.088 280.137 276.03 279.933C275.846 279.281 280.256 276.243 280.037 272.172C278.753 248.294 271.024 244.699 267.783 242.858C262.146 239.655 251.76 241.178 249.29 242.858C247.672 243.958 242.752 249.543 241.596 254.628C239.437 264.122 243.117 279.649 243.43 279.933Z" fill="white"/>
<path d="M279.094 312.982C279.081 313.031 288.674 311.864 291.268 313.072" stroke="black" stroke-width="17.4417" stroke-miterlimit="1.22093" stroke-linecap="round" stroke-linejoin="round"/>
<path d="M276.092 318.455C276.092 318.455 280.032 319.349 287.962 325.324" stroke="black" stroke-width="17.4417" stroke-miterlimit="1.22093" stroke-linecap="round" stroke-linejoin="round"/>
<path d="M276.516 202.111C287.226 211.922 297.763 233.217 300.876 248.66C305.474 271.46 305.741 298.08 298.971 303.927" stroke="#BD498B" stroke-width="7.00121" stroke-miterlimit="1.22093" stroke-linecap="round" stroke-linejoin="round"/>
<path d="M245.42 282.963C243.859 284.022 233.157 291.815 228.625 300.449C226.594 304.319 226.38 311.345 226.465 313.311C226.816 321.462 237.679 328.663 241.468 328.55" stroke="white" stroke-width="6.97911" stroke-miterlimit="1.5" stroke-linecap="round" stroke-linejoin="round"/>
<path fill-rule="evenodd" clip-rule="evenodd" d="M202.332 250.936C202.315 238.712 223.856 183.192 287.169 188.503C308.245 190.271 325.549 198.384 332.885 207.08C341.486 217.272 344.79 234.167 342.11 235.515C340.014 236.569 338.073 236.171 337.72 236.138C333.761 235.76 327.297 228.477 325.205 227.064C316.849 221.415 307.065 206.953 282.762 203.68C275.255 202.669 247.837 201.149 228.454 217.132C215.811 227.557 208.885 244.857 202.332 250.936Z" fill="#BD498B" stroke="#BD498B" stroke-width="0.999952" stroke-miterlimit="2" stroke-linejoin="round"/>
<path d="M242.324 285.91C242.528 286.117 242.54 268.281 244.591 265.451C246.629 262.637 257.299 279.64 257.104 279.933C256.96 280.149 259.465 279.449 265.295 279.933C267.393 280.107 272.58 281.19 274.025 281.224C274.904 281.532 286.116 267.855 289.943 267.151C293.937 266.416 295.195 285.567 295.797 285.91C299.112 287.798 308.431 294.899 310.137 310.219C310.609 314.453 310.446 318.37 309.862 320.882C309.037 324.417 305.622 327.43 303.964 328.9C298.484 333.763 291.013 334.96 288.632 335.645" stroke="#BD498B" stroke-width="4.62704" stroke-miterlimit="1.5" stroke-linecap="round" stroke-linejoin="round"/>
<path fill-rule="evenodd" clip-rule="evenodd" d="M241.795 287.584C241.795 287.584 241.792 266.965 244.463 264.764C247.134 262.563 257.299 279.64 257.104 279.933C256.909 280.226 269.742 280.033 275.001 283.385C275.001 283.385 285.934 267.792 289.943 267.151C293.953 266.511 296.936 285.16 297.259 285.78C297.582 286.399 305.459 291.662 309.076 310.369C310.158 315.973 307.655 322.157 305.744 324.81C301.319 330.953 292.012 334.254 289.943 335.276C288.037 336.218 277.854 339.154 261.54 337.488C238.1 335.092 232.8 327.874 231.106 325.788C230.416 324.941 230.042 324.332 229.319 323.529C227.551 321.57 226.415 318.852 226.125 314.744C226.004 313.041 226.03 311.099 226.216 308.873C226.461 305.948 227.608 302.737 229.097 299.672C232.593 292.477 241.795 287.584 241.795 287.584Z" fill="white"/>
<path fill-rule="evenodd" clip-rule="evenodd" d="M236.83 286.969C236.83 286.969 237.801 285.6 238.437 284.526C240.12 281.688 239.264 275.994 240.347 270.473C241.086 266.709 242.524 264.261 243.419 263.523C244.072 262.986 245.259 263.637 246.679 264.934C251.069 268.944 257.676 279.123 257.529 279.344C257.423 279.502 260.724 279.082 264.613 279.188C267.929 279.279 271.673 279.753 274.095 281.296C274.095 281.296 286.71 267.21 290.72 266.569C294.729 265.929 297.044 284.841 297.404 285.647C297.689 286.284 306.13 291.442 310.765 309.922C303.24 315.828 295.585 315.655 294.844 315.748C288.927 316.489 277.987 315.558 272.675 313.847C256.681 308.697 255.244 298.45 254.838 296.198C252.226 300.589 248.124 307.268 237.704 308.967C232.841 309.76 227.871 310.317 225.744 309.922C225.786 308.328 226.009 306.731 226.382 305.161C227.33 301.176 229.038 297.255 231.419 294.132C233.55 291.337 236.636 287.312 236.83 286.969Z" fill="#BD498B"/>
<path d="M241 302.829C242.268 303.138 243.303 303.361 243.311 303.326C243.32 303.29 242.299 303.011 241.031 302.701C239.763 302.392 238.729 302.169 238.72 302.204C238.712 302.239 239.732 302.519 241 302.829Z" fill="#D4B6C7" stroke="#D4B6C7" stroke-width="0.63751" stroke-miterlimit="1.22093" stroke-linecap="round" stroke-linejoin="round"/>
<path d="M269.653 309.175C271.578 309.671 273.152 310.025 273.167 309.965C273.182 309.905 271.634 309.454 269.709 308.958C267.784 308.461 266.21 308.108 266.195 308.168C266.179 308.228 267.728 308.679 269.653 309.175Z" fill="#D4B6C7" stroke="#D4B6C7" stroke-width="0.675508" stroke-miterlimit="1.22093" stroke-linecap="round" stroke-linejoin="round"/>
<path fill-rule="evenodd" clip-rule="evenodd" d="M247.868 308.701C248.278 308.535 248.813 308.283 249.234 307.955C249.685 307.604 250.299 307.549 250.805 307.814C251.198 308.02 251.47 308.39 251.557 308.812C251.701 308.945 252.181 309.371 252.616 309.597C253.516 310.064 254.731 310.418 255.761 309.91C256.482 309.554 257.357 309.851 257.713 310.572C258.069 311.294 257.772 312.169 257.05 312.524C254.629 313.719 251.603 312.641 250.039 311.388C249.922 311.294 249.814 311.199 249.714 311.101C249.024 311.464 248.383 311.68 247.894 311.774C247.606 311.83 247.353 311.847 247.147 311.841L246.535 311.735L246.128 311.538L245.832 311.289L245.61 310.99L245.457 310.627L245.397 310.181L245.493 309.636L245.675 309.261L245.977 308.88C246.483 308.355 247.29 308.292 247.868 308.701Z" fill="#D4B6C7"/>
<path fill-rule="evenodd" clip-rule="evenodd" d="M249.926 315.574C250.112 315.481 250.318 315.357 250.537 315.186C251.307 314.588 252.207 313.469 253.07 311.396C253.378 310.653 254.232 310.301 254.975 310.61C255.718 310.919 256.07 311.773 255.761 312.516C254.618 315.265 253.346 316.696 252.324 317.489C251.241 318.33 250.398 318.492 250.102 318.605L249.672 318.709L249.245 318.703L248.807 318.585L248.329 318.308C247.888 317.969 247.321 317.152 246.943 315.947C246.526 314.621 246.261 312.763 246.467 310.79C246.551 309.99 247.268 309.408 248.069 309.492C248.869 309.575 249.45 310.293 249.367 311.093C249.214 312.557 249.388 313.94 249.688 314.954C249.749 315.161 249.84 315.384 249.926 315.574ZM249.24 315.829C249.181 315.842 249.122 315.859 249.063 315.881C249.105 315.865 249.165 315.849 249.24 315.829Z" fill="#D4B6C7"/>
<path fill-rule="evenodd" clip-rule="evenodd" d="M304.373 329.997C304.378 329.977 304.383 329.959 304.388 329.941L304.75 329.034L305.29 328.266L306.284 327.492L306.288 327.49C306.67 326.871 307.332 325.883 307.877 325.508L309.305 324.879L310.859 324.806C312.661 325.035 317.106 324.132 321.072 324.379C324.811 324.611 328.125 325.834 329.951 328.409C334.146 334.327 331.332 340.614 325.197 345.463C319.87 349.672 312.153 352.743 306.96 353.398C303.834 353.792 301.409 353.204 300.121 352.194C298.752 351.12 297.845 348.848 298.121 345.804C298.513 341.489 300.962 335.104 302.537 332.243C302.973 331.451 303.383 330.869 303.686 330.528L304.373 329.997ZM307.119 327.235L307.582 327.092C307.436 327.109 307.278 327.162 307.119 327.235ZM307.554 329.5L308.148 329.789C307.941 329.653 307.743 329.561 307.554 329.5ZM308.722 333.257L308.282 333.392C308.425 333.376 308.574 333.327 308.722 333.257ZM304.473 347.127C305.071 347.146 305.999 347.147 306.747 347.025C309.975 346.499 314.166 344.943 317.847 342.798C320.729 341.119 323.323 339.1 324.723 336.844C325.666 335.326 325.924 333.687 324.781 332.075C324.373 331.5 323.689 331.24 322.946 331.041C321.711 330.71 320.291 330.646 318.879 330.669C316.09 330.715 313.317 331.064 311.455 331.128C311.212 331.535 310.922 331.983 310.696 332.211L310.342 332.475C310.254 332.913 310.14 333.404 310.035 333.64L309.529 334.47L308.883 335.09L308.067 335.508C307.284 337.183 305.505 341.157 304.827 344.077C304.601 345.052 304.509 346.374 304.473 347.127ZM305.453 335.468L304.674 335.09C304.919 335.251 305.179 335.379 305.453 335.468Z" fill="#BD498B"/>
<path fill-rule="evenodd" clip-rule="evenodd" d="M307.669 329.126C308.358 328.672 308.923 328.546 309.298 328.676C312.273 329.708 323.262 326.176 325.711 333.288C326.424 335.358 326.751 336.739 325.711 338.569C320.555 347.642 306.106 352.118 302.076 349.7C299.246 348.002 297.103 334.465 297.158 334.461C298.403 334.368 305.453 330.584 307.669 329.126Z" fill="#A3D9FF"/>
<path fill-rule="evenodd" clip-rule="evenodd" d="M332.65 193.311C333.182 193.236 333.497 193.234 333.702 193.356C335.957 194.696 346.727 203.011 345.845 210.149C344.804 218.584 339.542 213.743 332.65 207.3C329.436 204.295 325.886 200.317 322.209 197.785C320.253 196.439 329.634 195.263 329.668 195.237C330.567 194.554 331.367 193.492 332.65 193.311Z" fill="#A3D9FF"/>
<path d="M295.429 336.628C295.429 336.628 302.546 337.09 305.066 338.343C315.872 343.718 303.048 360.837 295.429 362.199" stroke="#BD498B" stroke-width="5.14435" stroke-miterlimit="1.22093" stroke-linecap="round" stroke-linejoin="round"/>
<path fill-rule="evenodd" clip-rule="evenodd" d="M279.531 339.074C281.518 337.335 288.806 336.43 295.042 336.907C298.882 337.201 302.373 338.444 303.835 339.074C305.224 339.673 305.763 340.525 306.445 341.804C308.152 345.005 306.407 348.571 303.835 352.772C301.555 356.498 296.652 359.946 294.227 359.787C289.287 359.464 262.977 347.296 279.531 339.074Z" fill="#A3D9FF"/>
</svg>
