<?xml version="1.0" encoding="UTF-8" standalone="no"?>
<!DOCTYPE svg PUBLIC "-//W3C//DTD SVG 1.1//EN" "http://www.w3.org/Graphics/SVG/1.1/DTD/svg11.dtd">
<svg width="100%" height="100%" viewBox="0 0 1125 676" version="1.1" xmlns="http://www.w3.org/2000/svg" xmlns:xlink="http://www.w3.org/1999/xlink" xml:space="preserve" xmlns:serif="http://www.serif.com/" style="fill-rule:evenodd;clip-rule:evenodd;stroke-linecap:round;stroke-linejoin:round;stroke-miterlimit:1.22093;">
    <g transform="matrix(0.795684,0,0,0.795684,231.17,29.3028)">
        <path d="M322.919,374.505C328.501,376.366 332.687,378.958 335.478,382.28C338.269,385.603 339.665,389.125 339.665,392.847C339.665,396.568 338.137,400.024 335.08,403.213C332.023,406.403 327.437,408.663 321.324,409.992C311.223,410.258 301.055,410.457 290.821,410.59C280.587,410.723 270.42,410.789 260.319,410.789C251.281,411.055 241.313,411.188 230.414,411.188C219.516,411.188 209.415,411.454 200.111,411.985C188.149,410.656 181.504,404.542 180.175,393.644C180.175,376.1 180.241,358.822 180.374,341.81C180.507,324.797 180.574,307.519 180.574,289.975C180.839,272.431 180.972,255.02 180.972,237.742L180.972,185.509C182.301,180.193 184.694,176.139 188.149,173.348C191.605,170.557 195.592,169.162 200.111,169.162C204.63,169.162 208.684,170.424 212.272,172.949C215.861,175.475 218.585,179.263 220.446,184.313C220.446,200.794 220.38,217.142 220.247,233.356C220.114,249.571 220.047,265.653 220.047,281.602C219.782,297.817 219.649,313.567 219.649,328.851L219.649,376.1C227.889,375.568 236.063,375.369 244.17,375.502C252.278,375.635 260.452,375.568 268.692,375.303C277.464,375.303 286.369,375.236 295.406,375.103C304.444,374.97 313.615,374.771 322.919,374.505Z" style="fill:rgb(189,73,139);fill-rule:nonzero;"/>
        <path d="M501.946,359.752C506.199,358.157 510.12,357.493 513.709,357.759C517.297,358.024 520.354,358.955 522.879,360.55C525.405,362.145 527.398,364.205 528.86,366.73C530.322,369.255 531.053,371.98 531.053,374.904C531.053,377.828 530.123,380.685 528.262,383.476C526.401,386.268 523.477,388.859 519.49,391.252C508.326,397.897 496.298,403.546 483.405,408.197C470.513,412.849 457.555,415.175 444.53,415.175C436.821,415.175 428.979,414.045 421.005,411.786C413.03,409.527 405.588,406.004 398.676,401.22C387.512,392.979 378.807,382.147 372.56,368.724C366.313,355.3 363.19,341.544 363.19,327.456C363.19,313.633 365.914,300.342 371.364,287.583C376.813,274.824 385.518,264.457 397.48,256.482C407.05,249.837 417.416,244.521 428.581,240.533C439.745,236.546 451.308,234.553 463.27,234.553C469.649,234.553 475.896,235.217 482.01,236.546C487.858,237.875 493.307,240.201 498.358,243.524C503.408,246.847 507.794,250.834 511.516,255.486C515.237,260.137 518.161,265.254 520.288,270.837C522.414,276.419 523.477,282.001 523.477,287.583C523.477,291.304 523.079,294.893 522.281,298.349C521.484,301.804 520.022,305.127 517.895,308.317C513.908,314.696 508.459,320.212 501.548,324.864C494.636,329.516 487.06,333.569 478.82,337.025C470.58,340.481 462.074,343.405 453.302,345.797C444.53,348.189 436.289,350.316 428.581,352.177C420.34,354.303 415.091,355.632 412.831,356.164C410.572,356.695 409.176,356.961 408.644,356.961C412.366,364.67 417.682,370.784 424.594,375.303C431.505,379.821 440.011,381.682 450.112,380.885C458.618,380.353 467.456,377.894 476.627,373.508C485.798,369.122 494.238,364.537 501.946,359.752ZM428.581,279.608C419.809,284.127 413.296,290.175 409.043,297.751C404.79,305.326 402.398,313.766 401.866,323.07C401.866,323.07 402.066,323.003 402.464,322.87C402.863,322.737 404.059,322.405 406.053,321.873C408.046,321.342 411.037,320.478 415.024,319.282C419.011,318.085 424.726,316.424 432.169,314.298C434.827,313.5 438.815,312.37 444.131,310.908C449.447,309.446 454.83,307.719 460.279,305.725C465.729,303.731 470.779,301.405 475.431,298.747C480.083,296.089 483.206,293.165 484.801,289.975C485.333,282.267 483.605,276.95 479.618,274.026C475.63,271.102 470.846,269.64 465.263,269.64C459.15,269.64 452.637,270.77 445.726,273.03C438.815,275.289 433.1,277.482 428.581,279.608Z" style="fill:rgb(189,73,139);fill-rule:nonzero;"/>
        <path d="M718.454,390.055C720.049,394.043 720.381,397.831 719.451,401.419C718.521,405.008 716.66,407.932 713.869,410.191C711.078,412.451 707.556,413.78 703.303,414.178C699.049,414.577 694.531,413.58 689.746,411.188C687.619,409.061 685.559,406.868 683.566,404.609C681.572,402.349 679.911,400.156 678.582,398.03C669.012,405.207 660.041,409.792 651.668,411.786C643.294,413.78 634.19,414.776 624.355,414.776C617.178,414.776 610.2,414.045 603.422,412.583C596.644,411.121 589.799,408.131 582.887,403.612C572.786,396.435 565.609,387.929 561.356,378.094C557.103,368.258 554.977,357.892 554.977,346.993C554.977,335.829 556.638,325.263 559.961,315.294C563.283,305.326 567.869,296.023 573.717,287.384C579.565,278.745 586.277,270.837 593.852,263.659C601.428,256.482 609.602,250.103 618.374,244.521C620.235,243.457 622.826,242.261 626.149,240.932C629.472,239.603 633.26,238.34 637.513,237.144C641.766,235.948 646.152,235.018 650.671,234.353C655.19,233.689 659.576,233.356 663.829,233.356C672.069,233.356 679.445,234.353 685.958,236.347C692.471,238.34 697.189,243.192 700.113,250.9L700.113,270.837C700.113,276.153 700.046,280.605 699.913,284.194C699.78,287.782 699.714,290.773 699.714,293.165L699.714,299.943C699.714,309.247 699.98,318.883 700.511,328.851C701.043,338.819 701.973,348.588 703.303,358.157C703.834,361.081 705.097,364.537 707.09,368.524C709.084,372.512 711.144,376.1 713.271,379.29L712.872,379.29C714.733,382.214 716.261,384.606 717.457,386.467C718.653,388.328 718.986,389.524 718.454,390.055ZM664.626,361.746C662.5,352.442 661.171,342.806 660.639,332.838C660.107,322.87 659.841,312.969 659.841,303.133C659.841,296.222 659.974,289.975 660.24,284.393C660.506,278.811 660.639,273.362 660.639,268.045C656.12,268.577 651.535,269.773 646.883,271.634C642.231,273.495 638.975,274.824 637.114,275.621C629.937,278.811 623.491,283.33 617.776,289.178C612.061,295.026 607.343,301.538 603.621,308.715C599.9,315.893 597.175,323.402 595.447,331.243C593.72,339.085 593.52,346.727 594.849,354.17C595.647,360.018 597.707,364.869 601.029,368.724C604.352,372.578 608.273,375.502 612.792,377.496C617.311,379.489 622.162,380.486 627.345,380.486C632.529,380.486 637.513,379.689 642.298,378.094C648.146,374.638 655.588,369.189 664.626,361.746Z" style="fill:rgb(189,73,139);fill-rule:nonzero;"/>
        <path d="M755.137,272.431C750.086,269.507 746.564,266.65 744.571,263.859C742.577,261.068 741.58,258.077 741.58,254.888C741.58,250.369 743.374,246.514 746.963,243.324C750.552,240.135 755.27,238.54 761.118,238.54C765.105,238.54 769.69,239.603 774.874,241.73C780.057,243.856 784.377,246.381 787.832,249.305C796.073,242.66 804.379,237.344 812.753,233.356C821.126,229.369 829.964,227.375 839.268,227.375C841.926,227.375 845.98,228.04 851.429,229.369C856.878,230.698 862.195,232.758 867.378,235.549C872.561,238.34 877.147,241.929 881.134,246.315C885.121,250.701 887.115,255.818 887.115,261.666C887.115,266.451 885.321,270.371 881.732,273.428C878.144,276.485 873.824,278.014 868.774,278.014C865.052,278.014 861.995,277.216 859.603,275.621C857.211,274.026 854.818,272.166 852.426,270.039C850.565,268.178 848.372,266.384 845.847,264.656C843.322,262.928 840.996,262.065 838.869,262.065C835.945,262.065 832.49,263.128 828.502,265.254C824.515,267.381 820.528,269.906 816.541,272.83C812.553,275.754 808.632,279.01 804.778,282.599C800.924,286.187 797.668,289.311 795.009,291.969L795.009,396.435C794.744,403.08 792.551,407.998 788.43,411.188C784.31,414.378 779.991,415.973 775.472,415.973C770.687,415.973 766.434,414.444 762.713,411.387C758.991,408.33 756.732,403.745 755.934,397.631L755.934,272.83L755.137,272.431Z" style="fill:rgb(189,73,139);fill-rule:nonzero;"/>
    </g>
    <g transform="matrix(0.794924,0,0,0.794924,222.939,23.5911)">
        <path d="M322.919,374.505C328.501,376.366 332.687,378.958 335.478,382.28C338.269,385.603 339.665,389.125 339.665,392.847C339.665,396.568 338.137,400.024 335.08,403.213C332.023,406.403 327.437,408.663 321.324,409.992C311.223,410.258 301.055,410.457 290.821,410.59C280.587,410.723 270.42,410.789 260.319,410.789C251.281,411.055 241.313,411.188 230.414,411.188C219.516,411.188 209.415,411.454 200.111,411.985C188.149,410.656 181.504,404.542 180.175,393.644C180.175,376.1 180.241,358.822 180.374,341.81C180.507,324.797 180.574,307.519 180.574,289.975C180.839,272.431 180.972,255.02 180.972,237.742L180.972,185.509C182.301,180.193 184.694,176.139 188.149,173.348C191.605,170.557 195.592,169.162 200.111,169.162C204.63,169.162 208.684,170.424 212.272,172.949C215.861,175.475 218.585,179.263 220.446,184.313C220.446,200.794 220.38,217.142 220.247,233.356C220.114,249.571 220.047,265.653 220.047,281.602C219.782,297.817 219.649,313.567 219.649,328.851L219.649,376.1C227.889,375.568 236.063,375.369 244.17,375.502C252.278,375.635 260.452,375.568 268.692,375.303C277.464,375.303 286.369,375.236 295.406,375.103C304.444,374.97 313.615,374.771 322.919,374.505Z" style="fill:rgb(163,217,255);fill-rule:nonzero;"/>
        <path d="M501.946,359.752C506.199,358.157 510.12,357.493 513.709,357.759C517.297,358.024 520.354,358.955 522.879,360.55C525.405,362.145 527.398,364.205 528.86,366.73C530.322,369.255 531.053,371.98 531.053,374.904C531.053,377.828 530.123,380.685 528.262,383.476C526.401,386.268 523.477,388.859 519.49,391.252C508.326,397.897 496.298,403.546 483.405,408.197C470.513,412.849 457.555,415.175 444.53,415.175C436.821,415.175 428.979,414.045 421.005,411.786C413.03,409.527 405.588,406.004 398.676,401.22C387.512,392.979 378.807,382.147 372.56,368.724C366.313,355.3 363.19,341.544 363.19,327.456C363.19,313.633 365.914,300.342 371.364,287.583C376.813,274.824 385.518,264.457 397.48,256.482C407.05,249.837 417.416,244.521 428.581,240.533C439.745,236.546 451.308,234.553 463.27,234.553C469.649,234.553 475.896,235.217 482.01,236.546C487.858,237.875 493.307,240.201 498.358,243.524C503.408,246.847 507.794,250.834 511.516,255.486C515.237,260.137 518.161,265.254 520.288,270.837C522.414,276.419 523.477,282.001 523.477,287.583C523.477,291.304 523.079,294.893 522.281,298.349C521.484,301.804 520.022,305.127 517.895,308.317C513.908,314.696 508.459,320.212 501.548,324.864C494.636,329.516 487.06,333.569 478.82,337.025C470.58,340.481 462.074,343.405 453.302,345.797C444.53,348.189 436.289,350.316 428.581,352.177C420.34,354.303 415.091,355.632 412.831,356.164C410.572,356.695 409.176,356.961 408.644,356.961C412.366,364.67 417.682,370.784 424.594,375.303C431.505,379.821 440.011,381.682 450.112,380.885C458.618,380.353 467.456,377.894 476.627,373.508C485.798,369.122 494.238,364.537 501.946,359.752ZM428.581,279.608C419.809,284.127 413.296,290.175 409.043,297.751C404.79,305.326 402.398,313.766 401.866,323.07C401.866,323.07 402.066,323.003 402.464,322.87C402.863,322.737 404.059,322.405 406.053,321.873C408.046,321.342 411.037,320.478 415.024,319.282C419.011,318.085 424.726,316.424 432.169,314.298C434.827,313.5 438.815,312.37 444.131,310.908C449.447,309.446 454.83,307.719 460.279,305.725C465.729,303.731 470.779,301.405 475.431,298.747C480.083,296.089 483.206,293.165 484.801,289.975C485.333,282.267 483.605,276.95 479.618,274.026C475.63,271.102 470.846,269.64 465.263,269.64C459.15,269.64 452.637,270.77 445.726,273.03C438.815,275.289 433.1,277.482 428.581,279.608Z" style="fill:rgb(163,217,255);fill-rule:nonzero;"/>
        <path d="M718.454,390.055C720.049,394.043 720.381,397.831 719.451,401.419C718.521,405.008 716.66,407.932 713.869,410.191C711.078,412.451 707.556,413.78 703.303,414.178C699.049,414.577 694.531,413.58 689.746,411.188C687.619,409.061 685.559,406.868 683.566,404.609C681.572,402.349 679.911,400.156 678.582,398.03C669.012,405.207 660.041,409.792 651.668,411.786C643.294,413.78 634.19,414.776 624.355,414.776C617.178,414.776 610.2,414.045 603.422,412.583C596.644,411.121 589.799,408.131 582.887,403.612C572.786,396.435 565.609,387.929 561.356,378.094C557.103,368.258 554.977,357.892 554.977,346.993C554.977,335.829 556.638,325.263 559.961,315.294C563.283,305.326 567.869,296.023 573.717,287.384C579.565,278.745 586.277,270.837 593.852,263.659C601.428,256.482 609.602,250.103 618.374,244.521C620.235,243.457 622.826,242.261 626.149,240.932C629.472,239.603 633.26,238.34 637.513,237.144C641.766,235.948 646.152,235.018 650.671,234.353C655.19,233.689 659.576,233.356 663.829,233.356C672.069,233.356 679.445,234.353 685.958,236.347C692.471,238.34 697.189,243.192 700.113,250.9L700.113,270.837C700.113,276.153 700.046,280.605 699.913,284.194C699.78,287.782 699.714,290.773 699.714,293.165L699.714,299.943C699.714,309.247 699.98,318.883 700.511,328.851C701.043,338.819 701.973,348.588 703.303,358.157C703.834,361.081 705.097,364.537 707.09,368.524C709.084,372.512 711.144,376.1 713.271,379.29L712.872,379.29C714.733,382.214 716.261,384.606 717.457,386.467C718.653,388.328 718.986,389.524 718.454,390.055ZM664.626,361.746C662.5,352.442 661.171,342.806 660.639,332.838C660.107,322.87 659.841,312.969 659.841,303.133C659.841,296.222 659.974,289.975 660.24,284.393C660.506,278.811 660.639,273.362 660.639,268.045C656.12,268.577 651.535,269.773 646.883,271.634C642.231,273.495 638.975,274.824 637.114,275.621C629.937,278.811 623.491,283.33 617.776,289.178C612.061,295.026 607.343,301.538 603.621,308.715C599.9,315.893 597.175,323.402 595.447,331.243C593.72,339.085 593.52,346.727 594.849,354.17C595.647,360.018 597.707,364.869 601.029,368.724C604.352,372.578 608.273,375.502 612.792,377.496C617.311,379.489 622.162,380.486 627.345,380.486C632.529,380.486 637.513,379.689 642.298,378.094C648.146,374.638 655.588,369.189 664.626,361.746Z" style="fill:rgb(163,217,255);fill-rule:nonzero;"/>
        <path d="M755.137,272.431C750.086,269.507 746.564,266.65 744.571,263.859C742.577,261.068 741.58,258.077 741.58,254.888C741.58,250.369 743.374,246.514 746.963,243.324C750.552,240.135 755.27,238.54 761.118,238.54C765.105,238.54 769.69,239.603 774.874,241.73C780.057,243.856 784.377,246.381 787.832,249.305C796.073,242.66 804.379,237.344 812.753,233.356C821.126,229.369 829.964,227.375 839.268,227.375C841.926,227.375 845.98,228.04 851.429,229.369C856.878,230.698 862.195,232.758 867.378,235.549C872.561,238.34 877.147,241.929 881.134,246.315C885.121,250.701 887.115,255.818 887.115,261.666C887.115,266.451 885.321,270.371 881.732,273.428C878.144,276.485 873.824,278.014 868.774,278.014C865.052,278.014 861.995,277.216 859.603,275.621C857.211,274.026 854.818,272.166 852.426,270.039C850.565,268.178 848.372,266.384 845.847,264.656C843.322,262.928 840.996,262.065 838.869,262.065C835.945,262.065 832.49,263.128 828.502,265.254C824.515,267.381 820.528,269.906 816.541,272.83C812.553,275.754 808.632,279.01 804.778,282.599C800.924,286.187 797.668,289.311 795.009,291.969L795.009,396.435C794.744,403.08 792.551,407.998 788.43,411.188C784.31,414.378 779.991,415.973 775.472,415.973C770.687,415.973 766.434,414.444 762.713,411.387C758.991,408.33 756.732,403.745 755.934,397.631L755.934,272.83L755.137,272.431Z" style="fill:rgb(163,217,255);fill-rule:nonzero;"/>
    </g>
    <g transform="matrix(1,0,0,0.951961,-448.198,-55.8153)">
        <path d="M959.173,616.994C962.523,614.235 966.367,612.855 970.703,612.855C974.448,612.855 977.651,614.038 980.312,616.403C982.973,618.768 984.303,621.823 984.303,625.568C984.303,626.948 983.811,629.116 982.825,632.073C979.474,637.198 975.729,642.224 971.59,647.151C967.451,652.079 962.868,656.415 957.842,660.16C952.816,663.905 947.248,666.911 941.137,669.178C935.027,671.444 928.326,672.578 921.033,672.578C910.192,672.578 900.238,670.41 891.172,666.073C882.105,661.737 874.319,655.775 867.815,648.186C861.31,640.598 856.284,631.728 852.736,621.577C849.188,611.426 847.414,600.536 847.414,588.907C847.414,580.826 848.498,573.237 850.667,566.142C853.623,556.681 857.072,548.402 861.015,541.306C864.957,534.211 869.687,527.953 875.206,522.532C880.725,517.112 887.032,512.283 894.128,508.045C901.224,503.807 909.404,499.816 918.668,496.071L918.372,496.071C924.285,493.509 929.755,491.538 934.781,490.158C939.807,488.778 944.882,488.088 950.007,488.088C957.497,488.088 964.199,490.158 970.112,494.297C976.025,498.436 981.544,505.532 986.669,515.584C987.063,517.161 987.26,518.738 987.26,520.315C987.26,524.06 985.929,527.115 983.269,529.48C980.608,531.845 977.405,533.028 973.66,533.028C968.929,533.028 964.593,531.057 960.651,527.115C957.891,522.384 955.723,519.034 954.146,517.063C952.57,515.092 950.796,514.106 948.825,514.106C947.642,514.106 945.868,514.5 943.503,515.289C941.137,516.077 938.575,516.964 935.816,517.95L931.085,519.723C923.792,522.483 916.894,525.932 910.389,530.071C903.885,534.211 898.119,539.188 893.093,545.002C888.067,550.817 884.076,557.518 881.119,565.107C878.163,572.695 876.684,581.417 876.684,591.272C876.684,598.171 877.67,604.922 879.641,611.525C881.612,618.128 884.519,624.041 888.363,629.264C892.206,634.487 896.888,638.676 902.406,641.83C907.925,644.983 914.233,646.56 921.328,646.56C925.468,646.56 929.36,645.673 933.007,643.899C936.653,642.125 940.004,639.859 943.059,637.099C946.114,634.34 948.972,631.235 951.633,627.786C954.294,624.337 956.61,620.838 958.581,617.29L959.173,616.994Z" style="fill:rgb(189,73,139);"/>
        <path d="M1153.42,564.368C1148.49,563.579 1144.8,562.002 1142.33,559.637C1139.87,557.272 1138.64,554.512 1138.64,551.359C1138.64,548.205 1139.97,545.248 1142.63,542.489C1145.29,539.73 1149.28,538.35 1154.6,538.35L1168.2,538.35L1168.2,493.114C1169.19,488.975 1171.01,485.871 1173.67,483.801C1176.33,481.732 1179.34,480.697 1182.69,480.697C1185.84,480.697 1188.8,481.633 1191.56,483.506C1194.32,485.378 1196.19,488.285 1197.18,492.227L1197.18,538.35L1223.19,538.35C1227.53,539.532 1230.73,541.306 1232.8,543.672C1234.87,546.037 1235.91,548.599 1235.91,551.359C1235.91,557.666 1231.37,562.002 1222.31,564.368L1197.18,564.368L1197.18,618.768C1197.18,624.879 1197.23,630.989 1197.32,637.099C1197.42,643.209 1197.47,649.32 1197.47,655.43C1197.47,660.357 1195.89,664.004 1192.74,666.369C1189.59,668.734 1186.34,669.917 1182.98,669.917C1179.63,669.917 1176.53,668.833 1173.67,666.665C1170.81,664.497 1169.09,661.146 1168.5,656.612C1168.5,649.122 1168.45,641.386 1168.35,633.403C1168.25,625.421 1168.2,617.487 1168.2,609.603L1168.2,564.368L1153.42,564.368Z" style="fill:rgb(189,73,139);"/>
    </g>
    <g transform="matrix(1,0,0,0.951961,-454.625,-62.2419)">
        <path d="M959.173,616.994C962.523,614.235 966.367,612.855 970.703,612.855C974.448,612.855 977.651,614.038 980.312,616.403C982.973,618.768 984.303,621.823 984.303,625.568C984.303,626.948 983.811,629.116 982.825,632.073C979.474,637.198 975.729,642.224 971.59,647.151C967.451,652.079 962.868,656.415 957.842,660.16C952.816,663.905 947.248,666.911 941.137,669.178C935.027,671.444 928.326,672.578 921.033,672.578C910.192,672.578 900.238,670.41 891.172,666.073C882.105,661.737 874.319,655.775 867.815,648.186C861.31,640.598 856.284,631.728 852.736,621.577C849.188,611.426 847.414,600.536 847.414,588.907C847.414,580.826 848.498,573.237 850.667,566.142C853.623,556.681 857.072,548.402 861.015,541.306C864.957,534.211 869.687,527.953 875.206,522.532C880.725,517.112 887.032,512.283 894.128,508.045C901.224,503.807 909.404,499.816 918.668,496.071L918.372,496.071C924.285,493.509 929.755,491.538 934.781,490.158C939.807,488.778 944.882,488.088 950.007,488.088C957.497,488.088 964.199,490.158 970.112,494.297C976.025,498.436 981.544,505.532 986.669,515.584C987.063,517.161 987.26,518.738 987.26,520.315C987.26,524.06 985.929,527.115 983.269,529.48C980.608,531.845 977.405,533.028 973.66,533.028C968.929,533.028 964.593,531.057 960.651,527.115C957.891,522.384 955.723,519.034 954.146,517.063C952.57,515.092 950.796,514.106 948.825,514.106C947.642,514.106 945.868,514.5 943.503,515.289C941.137,516.077 938.575,516.964 935.816,517.95L931.085,519.723C923.792,522.483 916.894,525.932 910.389,530.071C903.885,534.211 898.119,539.188 893.093,545.002C888.067,550.817 884.076,557.518 881.119,565.107C878.163,572.695 876.684,581.417 876.684,591.272C876.684,598.171 877.67,604.922 879.641,611.525C881.612,618.128 884.519,624.041 888.363,629.264C892.206,634.487 896.888,638.676 902.406,641.83C907.925,644.983 914.233,646.56 921.328,646.56C925.468,646.56 929.36,645.673 933.007,643.899C936.653,642.125 940.004,639.859 943.059,637.099C946.114,634.34 948.972,631.235 951.633,627.786C954.294,624.337 956.61,620.838 958.581,617.29L959.173,616.994Z" style="fill:rgb(163,217,255);"/>
        <path d="M1153.42,564.368C1148.49,563.579 1144.8,562.002 1142.33,559.637C1139.87,557.272 1138.64,554.512 1138.64,551.359C1138.64,548.205 1139.97,545.248 1142.63,542.489C1145.29,539.73 1149.28,538.35 1154.6,538.35L1168.2,538.35L1168.2,493.114C1169.19,488.975 1171.01,485.871 1173.67,483.801C1176.33,481.732 1179.34,480.697 1182.69,480.697C1185.84,480.697 1188.8,481.633 1191.56,483.506C1194.32,485.378 1196.19,488.285 1197.18,492.227L1197.18,538.35L1223.19,538.35C1227.53,539.532 1230.73,541.306 1232.8,543.672C1234.87,546.037 1235.91,548.599 1235.91,551.359C1235.91,557.666 1231.37,562.002 1222.31,564.368L1197.18,564.368L1197.18,618.768C1197.18,624.879 1197.23,630.989 1197.32,637.099C1197.42,643.209 1197.47,649.32 1197.47,655.43C1197.47,660.357 1195.89,664.004 1192.74,666.369C1189.59,668.734 1186.34,669.917 1182.98,669.917C1179.63,669.917 1176.53,668.833 1173.67,666.665C1170.81,664.497 1169.09,661.146 1168.5,656.612C1168.5,649.122 1168.45,641.386 1168.35,633.403C1168.25,625.421 1168.2,617.487 1168.2,609.603L1168.2,564.368L1153.42,564.368Z" style="fill:rgb(163,217,255);"/>
    </g>
    <g id="图层1">
        <g transform="matrix(0.155272,0,0,0.155272,150.821,162.669)">
            <path d="M443.965,1016.83C443.965,1016.83 536.935,978.614 540.637,978.174" style="fill:none;stroke:black;stroke-width:112.33px;"/>
        </g>
        <g transform="matrix(0.155272,0,0,0.155272,150.821,162.669)">
            <path d="M445.028,931.025C444.203,930.006 532.993,937.627 529.775,938.028" style="fill:none;stroke:black;stroke-width:99.85px;"/>
        </g>
        <g transform="matrix(0.155272,0,0,0.155272,150.821,162.669)">
            <path d="M265.744,473.409C303.201,520.06 335.343,490.486 338.593,482.36C341.38,476.648 390.128,379.498 493.456,317.691C530.233,295.693 582.671,270.623 632.868,263.608C711.171,252.664 769.193,255.599 822.045,264.591C850.673,269.462 830.5,278.392 852.023,287.84C872.163,321.877 902.238,347.292 921.113,391.904C944.698,447.648 966.004,482.883 974.089,508.858C992.629,568.425 985.126,575.603 990.652,598.883C1005.1,659.771 1006.03,742.238 994.922,787.899C979.519,851.216 978.123,858.176 955.528,869.06C921.874,885.269 933.691,793.712 933.691,793.712C934.627,789.299 921.815,668.772 895.992,672.898C870.169,677.024 801.465,759.26 801.465,759.26C767.596,737.67 683.237,757.104 684.494,755.218C685.751,753.331 621.788,641.418 604.585,655.592C587.381,669.766 577.925,793.712 577.925,793.712C577.925,793.712 494.408,870.77 490.423,933.944C486.396,997.774 504.787,1050.59 530.051,1066.87C584.52,1114.93 752.49,1143.22 887.547,1114.02C895.323,1111.78 991.562,1072.84 1011.87,1066.23C1011.87,1066.23 1083.36,1060.5 1099.06,1078.47C1114.5,1096.14 970.579,1190.41 972.602,1180.7C920.149,1225.66 674.88,1230.58 548.563,1151.18C440.002,1082.95 168.478,897.912 265.744,473.409Z" style="fill:rgb(212,182,199);"/>
        </g>
        <path d="M185.296,308.564C184.615,305.922 186.206,303.223 188.849,302.541C191.491,301.859 194.19,303.451 194.872,306.094C200.423,327.609 224.33,343.955 242.374,351.177C262.229,359.125 277.623,359.645 287.664,357.228C293.076,355.926 296.76,354.007 298.084,351.872C299.522,349.553 302.572,348.837 304.892,350.276C307.211,351.714 307.926,354.765 306.488,357.084C304.79,359.821 301.167,362.918 295.484,365.133C284.568,369.388 265.058,370.909 238.699,360.358C218.202,352.154 191.602,333.005 185.296,308.564Z" style="fill:rgb(189,73,139);"/>
        <g transform="matrix(-0.0801628,0.116933,-0.120758,-0.0827854,271.835,265.207)">
            <clipPath id="_clip1">
                <path d="M531.629,-561.351L996.558,513.951L-356.827,1062.63L-821.756,-12.676L531.629,-561.351Z"/>
            </clipPath>
            <g clip-path="url(#_clip1)">
                <path d="M0,-583.199C321.877,-583.199 583.199,-321.877 583.199,0C583.199,321.877 321.877,583.199 0,583.199C-321.877,583.199 -576.51,322.917 -576.51,1.041C-576.51,-320.836 -321.877,-583.199 0,-583.199Z" style="fill:none;stroke:rgb(163,217,255);stroke-width:183.17px;stroke-miterlimit:1.5;"/>
            </g>
        </g>
        <g transform="matrix(0.155272,0,0,0.155272,150.821,162.669)">
            <path d="M596.43,755.218C597.65,751.78 606.536,726.758 609.089,711.413C610.016,705.842 609.339,705.196 603.867,703.632C607.136,703.642 610.16,701.737 613.407,701.357C625.038,699.996 632.827,706.354 634.168,707.448C661.082,729.417 659.76,730.602 684.494,755.218C689.108,754.774 772.787,740.979 801.465,759.26C799.169,759.477 799.412,759.837 773.712,767.061C842.542,744.859 836.592,734.455 849.005,722.747L851.62,718.929C856.156,768.878 806.757,756.533 806.385,755.218C805.197,751.019 833.6,731.451 832.19,705.231C823.921,551.453 774.144,528.299 753.27,516.44C716.967,495.816 650.078,505.625 634.168,516.44C623.748,523.524 592.064,559.497 584.617,592.246C570.715,653.387 594.413,753.387 596.43,755.218Z" style="fill:white;"/>
        </g>
        <g transform="matrix(0.155272,0,0,0.155272,150.821,162.669)">
            <path d="M826.119,968.065C826.035,968.38 887.819,960.865 904.522,968.645" style="fill:none;stroke:black;stroke-width:112.33px;"/>
        </g>
        <g transform="matrix(0.155272,0,0,0.155272,150.821,162.669)">
            <path d="M806.782,1003.31C806.782,1003.31 832.162,1009.07 883.229,1047.55" style="fill:none;stroke:black;stroke-width:112.33px;"/>
        </g>
        <g transform="matrix(0.155272,0,0,0.155272,140.378,160.544)">
            <path d="M876.771,267.703C945.746,330.893 1013.61,468.038 1033.66,567.495C1063.27,714.333 1064.99,885.776 1021.39,923.432" style="fill:none;stroke:rgb(189,73,139);stroke-width:45.09px;"/>
        </g>
        <g transform="matrix(0.155272,0,0,0.174245,150.821,147.539)">
            <path d="M609.247,777.206C599.195,783.28 530.27,828.008 501.083,877.556C488,899.766 486.623,940.093 487.168,951.371C489.43,998.153 559.392,1039.48 583.794,1038.83" style="fill:none;stroke:white;stroke-width:42.43px;stroke-miterlimit:1.5;"/>
        </g>
        <g transform="matrix(0.155272,0,0,0.155272,150.821,162.669)">
            <path d="M331.745,568.467C331.637,489.738 470.365,132.173 878.122,166.377C1013.86,177.763 1125.3,230.013 1172.55,286.018C1227.94,351.66 1249.22,460.471 1231.96,469.153C1218.46,475.94 1205.96,473.379 1203.69,473.163C1178.19,470.732 1136.56,423.826 1123.09,414.722C1069.27,378.342 1006.26,285.202 849.74,264.123C801.391,257.612 624.814,247.821 499.981,350.757C418.558,417.896 373.953,529.318 331.745,568.467Z" style="fill:rgb(189,73,139);stroke:rgb(189,73,139);stroke-width:6.44px;stroke-linecap:butt;stroke-miterlimit:2;"/>
        </g>
        <g transform="matrix(0.153,0,0,0.155272,152.096,162.669)">
            <path d="M589.725,793.712C591.057,795.045 591.135,680.176 604.541,661.945C617.862,643.827 687.6,753.331 686.324,755.218C685.386,756.605 701.758,752.1 739.862,755.218C753.578,756.34 787.474,763.31 796.923,763.532C802.67,765.512 875.945,677.433 900.964,672.898C927.068,668.166 935.287,791.504 939.223,793.712C960.892,805.867 1021.8,851.6 1032.95,950.271C1036.03,977.536 1034.97,1002.76 1031.15,1018.94C1025.76,1041.71 1003.44,1061.11 992.602,1070.58C956.784,1101.9 907.954,1109.61 892.393,1114.02" style="fill:none;stroke:rgb(189,73,139);stroke-width:30.02px;stroke-miterlimit:1.5;"/>
        </g>
        <g transform="matrix(0.155272,0,0,0.155272,150.821,162.669)">
            <path d="M585.902,804.491C585.902,804.491 585.88,671.697 603.083,657.523C620.286,643.35 685.751,753.331 684.494,755.218C683.237,757.104 765.891,755.859 799.76,777.449C799.76,777.449 870.169,677.024 895.992,672.898C921.815,668.772 941.025,788.883 943.107,792.872C945.188,796.861 995.92,830.758 1019.21,951.233C1026.18,987.328 1010.06,1027.15 997.754,1044.24C969.255,1083.8 909.313,1105.06 895.992,1111.64C883.716,1117.71 818.133,1136.62 713.068,1125.89C562.106,1110.46 527.972,1063.97 517.058,1050.54C512.619,1045.08 510.21,1041.16 505.554,1035.99C494.168,1023.37 486.847,1005.87 484.979,979.411C484.205,968.443 484.368,955.937 485.567,941.601C487.143,922.764 494.533,902.084 504.123,882.343C526.635,836.003 585.902,804.491 585.902,804.491Z" style="fill:white;"/>
        </g>
        <g transform="matrix(0.155272,0,0,0.155272,150.821,162.669)">
            <path d="M553.927,800.53C553.927,800.53 560.177,791.716 564.277,784.798C575.112,766.522 569.6,729.849 576.577,694.294C581.334,670.047 590.599,654.283 596.363,649.533C600.566,646.071 608.213,650.268 617.353,658.617C645.626,684.444 688.18,749.997 687.23,751.423C686.552,752.441 707.812,749.735 732.853,750.42C754.214,751.005 778.327,754.058 793.92,763.997C793.92,763.997 875.169,673.276 900.991,669.15C926.814,665.024 941.722,786.825 944.039,792.014C945.873,796.122 1000.24,829.336 1030.09,948.356C981.626,986.39 932.328,985.279 927.556,985.877C889.448,990.648 818.987,984.651 784.78,973.635C681.773,940.463 672.515,874.473 669.9,859.968C653.081,888.248 626.661,931.263 559.555,942.206C528.232,947.313 496.225,950.896 482.528,948.356C482.796,938.09 484.231,927.804 486.635,917.696C492.741,892.027 503.745,866.778 519.078,846.662C532.8,828.659 552.675,802.742 553.927,800.53Z" style="fill:rgb(189,73,139);"/>
        </g>
        <g transform="matrix(0.373331,0.0911778,-0.00146431,0.00599569,15.6572,242.058)">
            <ellipse cx="607.142" cy="892.141" rx="6.149" ry="10.625" style="fill:rgb(212,182,199);stroke:rgb(212,182,199);stroke-width:13.09px;"/>
        </g>
        <g transform="matrix(0.566941,0.146116,-0.00263612,0.0102284,-72.181,211.228)">
            <ellipse cx="607.142" cy="892.141" rx="6.149" ry="10.625" style="fill:rgb(212,182,199);stroke:rgb(212,182,199);stroke-width:8.59px;"/>
        </g>
        <path d="M247.868,308.701C248.278,308.535 248.813,308.283 249.234,307.955C249.685,307.604 250.299,307.549 250.805,307.814C251.198,308.02 251.47,308.39 251.557,308.812C251.701,308.945 252.181,309.371 252.616,309.597C253.516,310.064 254.731,310.418 255.761,309.91C256.482,309.554 257.357,309.851 257.713,310.572C258.069,311.294 257.772,312.169 257.05,312.524C254.629,313.719 251.603,312.641 250.039,311.388C249.922,311.294 249.814,311.199 249.714,311.101C249.024,311.464 248.383,311.68 247.894,311.774C247.606,311.83 247.353,311.847 247.147,311.841L246.535,311.735L246.128,311.538L245.832,311.289L245.61,310.99L245.457,310.627L245.397,310.181L245.493,309.636L245.675,309.261L245.977,308.88C246.483,308.355 247.29,308.292 247.868,308.701Z" style="fill:rgb(212,182,199);"/>
        <path d="M249.926,315.574C250.112,315.481 250.318,315.357 250.537,315.186C251.307,314.588 252.207,313.469 253.07,311.396C253.378,310.653 254.232,310.301 254.975,310.61C255.718,310.919 256.07,311.773 255.761,312.516C254.618,315.265 253.346,316.696 252.324,317.489C251.241,318.33 250.398,318.492 250.102,318.605L249.672,318.709L249.245,318.703L248.807,318.585L248.329,318.308C247.888,317.969 247.321,317.152 246.943,315.947C246.526,314.621 246.261,312.763 246.467,310.79C246.551,309.99 247.268,309.408 248.069,309.492C248.869,309.575 249.45,310.293 249.367,311.093C249.214,312.557 249.388,313.94 249.688,314.954C249.749,315.161 249.84,315.384 249.926,315.574ZM249.24,315.829C249.181,315.842 249.122,315.859 249.063,315.881C249.105,315.865 249.165,315.849 249.24,315.829Z" style="fill:rgb(212,182,199);"/>
        <path d="M304.373,329.997C304.378,329.977 304.383,329.959 304.388,329.941L304.75,329.034L305.29,328.266L306.284,327.492L306.288,327.49C306.67,326.871 307.332,325.883 307.877,325.508L309.305,324.879L310.859,324.806C312.661,325.035 317.106,324.132 321.072,324.379C324.811,324.611 328.125,325.834 329.951,328.409C334.146,334.327 331.332,340.614 325.197,345.463C319.87,349.672 312.153,352.743 306.96,353.398C303.834,353.792 301.409,353.204 300.121,352.194C298.752,351.12 297.845,348.848 298.121,345.804C298.513,341.489 300.962,335.104 302.537,332.243C302.973,331.451 303.383,330.869 303.686,330.528L304.373,329.997ZM307.119,327.235L307.582,327.092C307.436,327.109 307.278,327.162 307.119,327.235ZM307.554,329.5L308.148,329.789C307.941,329.653 307.743,329.561 307.554,329.5ZM308.722,333.257L308.282,333.392C308.425,333.376 308.574,333.327 308.722,333.257ZM304.473,347.127C305.071,347.146 305.999,347.147 306.747,347.025C309.975,346.499 314.166,344.943 317.847,342.798C320.729,341.119 323.323,339.1 324.723,336.844C325.666,335.326 325.924,333.687 324.781,332.075C324.373,331.5 323.689,331.24 322.946,331.041C321.711,330.71 320.291,330.646 318.879,330.669C316.09,330.715 313.317,331.064 311.455,331.128C311.212,331.535 310.922,331.983 310.696,332.211L310.342,332.475C310.254,332.913 310.14,333.404 310.035,333.64L309.529,334.47L308.883,335.09L308.067,335.508C307.284,337.183 305.505,341.157 304.827,344.077C304.601,345.052 304.509,346.374 304.473,347.127ZM305.453,335.468L304.674,335.09C304.919,335.251 305.179,335.379 305.453,335.468Z" style="fill:rgb(189,73,139);"/>
        <path d="M307.669,329.126C308.358,328.672 308.923,328.546 309.298,328.676C312.273,329.708 323.262,326.176 325.711,333.288C326.424,335.358 326.751,336.739 325.711,338.569C320.555,347.642 306.106,352.118 302.076,349.7C299.246,348.002 297.103,334.465 297.158,334.461C298.403,334.368 305.453,330.584 307.669,329.126Z" style="fill:rgb(163,217,255);"/>
        <g transform="matrix(0.545305,0.247778,-0.362351,0.797455,284.136,-145.386)">
            <path d="M307.669,329.126C308.426,328.797 308.902,328.646 309.298,328.676C313.652,329.004 335.765,332.56 339.355,340.396C343.598,349.655 332.256,347.108 317.33,343.666C310.37,342.061 302.226,339.603 294.889,338.708C290.985,338.232 304.432,332.58 304.466,332.536C305.361,331.402 305.844,329.92 307.669,329.126Z" style="fill:rgb(163,217,255);"/>
        </g>
        <g transform="matrix(0.159482,0,0,0.147072,146.555,173.019)">
            <path d="M933.487,1112.44C933.487,1112.44 978.111,1115.58 993.909,1124.1C1061.67,1160.65 981.259,1277.05 933.487,1286.31" style="fill:none;stroke:rgb(189,73,139);stroke-width:33.59px;"/>
        </g>
        <g transform="matrix(1.15231,0,0,0.867584,-47.7888,46.6854)">
            <path d="M284.055,337.015C285.78,335.01 292.104,333.967 297.516,334.517C300.849,334.856 303.878,336.289 305.147,337.015C306.352,337.705 306.82,338.687 307.412,340.162C308.893,343.851 307.379,347.961 305.147,352.803C303.168,357.098 298.913,361.072 296.809,360.889C292.522,360.517 269.689,346.492 284.055,337.015Z" style="fill:rgb(163,217,255);"/>
        </g>
        <path d="M295.765,333.788C285.935,353.905 297.548,358.556 297.548,358.556" style="fill:none;"/>
    </g>
</svg>
