<svg width="1125" height="676" viewBox="0 0 1125 676" fill="none" xmlns="http://www.w3.org/2000/svg">
<path d="M385.368 347.939V181.869C385.368 178.131 394.961 176.262 414.148 176.262C433.053 176.262 442.647 178.131 442.647 181.869V312.696H486.099C489.485 312.696 491.743 316.968 493.154 325.245C493.718 329.25 494 333.522 494 337.794C494 342.066 493.718 346.337 493.154 350.876C491.743 359.42 489.203 363.692 485.817 363.692H398.912C394.679 363.692 391.575 362.09 389.036 358.886C386.496 355.682 385.368 351.944 385.368 347.939Z" fill="#BD498B"/>
<path d="M625.212 349.308C613.93 355.663 599.424 358.713 581.695 358.713C563.966 358.713 548.924 352.867 536.836 341.429C524.748 330.245 518.569 314.231 518.569 293.897C518.569 273.816 524.479 257.548 536.298 245.093C547.849 232.639 562.623 226.538 580.621 226.538C598.619 226.538 612.318 230.859 622.257 239.501C631.928 248.144 636.763 258.565 636.763 271.02C636.763 298.472 620.108 312.198 586.799 312.198H568.264C568.264 317.281 569.876 320.84 572.831 322.619C575.786 324.653 580.084 325.669 585.725 325.669C598.35 325.669 610.169 322.873 621.451 317.536C621.451 317.536 622.526 318.552 623.869 321.094C628.167 328.465 630.316 334.566 630.316 339.395C630.316 344.479 628.704 347.783 625.212 349.308ZM591.634 275.85C591.634 268.732 587.874 265.174 580.621 265.174C577.129 265.174 574.443 266.191 572.025 267.97C569.607 270.003 568.264 272.799 568.264 276.612V284.492H582.77C588.68 284.492 591.634 281.696 591.634 275.85Z" fill="#BD498B"/>
<path d="M686.917 267.567C681.888 259.302 679.505 252.289 679.505 247.029C679.505 241.77 681.094 238.513 684.005 237.011C694.064 232.753 707.828 230.749 725.562 230.749C743.032 230.749 755.472 234.506 762.619 242.27C769.766 250.285 773.471 261.556 773.471 276.835V316.408H782.471C785.383 316.408 787.765 318.161 789.618 321.418C791.206 324.674 792 329.432 792 335.193C792 340.954 790.412 346.715 787.5 352.475C784.324 358.236 780.089 360.991 774.795 360.991C765.266 360.991 757.59 358.486 751.767 353.728C749.12 351.724 747.002 349.219 745.679 346.464C737.473 356.232 725.033 360.991 707.828 360.991C694.858 360.991 684.005 356.733 675.27 347.967C666.535 339.201 662.036 328.932 662.036 317.16C662.036 289.859 679.241 276.334 713.651 276.334H728.209V273.829C728.209 269.571 727.415 266.566 726.091 265.313C724.503 264.061 721.062 263.56 715.504 263.56C708.886 263.56 699.357 264.812 686.917 267.567ZM708.092 313.653C708.092 317.41 709.151 320.165 711.269 321.918C713.386 323.922 716.033 324.924 719.474 324.924C722.65 324.924 725.562 323.672 728.209 321.167V301.881H720.798C712.327 301.881 708.092 305.889 708.092 313.653Z" fill="#BD498B"/>
<path d="M879.575 360.088C879.575 361.519 870.499 362.092 852.043 362.092C833.587 361.805 824.51 360.947 824.51 359.801V264.752H816.341C813.013 264.752 810.592 262.748 808.777 259.026C806.659 255.304 805.751 250.723 805.751 245.284C805.751 224.671 812.105 214.364 825.115 214.364C834.192 214.364 841.756 216.941 847.807 222.094C853.858 227.534 856.884 233.546 856.884 240.131C861.119 232.401 866.868 226.102 874.129 221.235C881.088 216.654 888.349 214.364 895.913 214.364C907.713 214.364 914.672 217.227 917.092 222.953C917.697 224.384 918 226.675 918 229.538C918 232.687 917.092 237.84 915.277 245.57C913.159 253.3 911.344 258.74 909.226 262.175C907.108 265.611 905.595 267.328 905.595 267.328C905.595 267.328 903.477 266.47 900.149 265.038C896.821 263.607 893.795 263.034 891.072 263.034C883.509 263.034 879.575 268.76 879.575 280.212V360.088Z" fill="#BD498B"/>
<path d="M379 340.531V175.206C379 171.485 388.55 169.624 407.651 169.624C426.472 169.624 436.022 171.485 436.022 175.206V305.446H479.28C482.651 305.446 484.898 309.699 486.303 317.939C486.864 321.926 487.145 326.178 487.145 330.431C487.145 334.684 486.864 338.937 486.303 343.455C484.898 351.961 482.37 356.213 478.999 356.213H392.483C388.27 356.213 385.18 354.619 382.652 351.429C380.124 348.239 379 344.518 379 340.531Z" fill="#A3D9FF"/>
<path d="M618.165 342.219C606.933 348.545 592.493 351.582 574.843 351.582C557.194 351.582 542.218 345.762 530.184 334.375C518.151 323.241 512 307.3 512 287.056C512 267.066 517.883 250.871 529.65 238.472C541.149 226.073 555.856 220 573.773 220C591.69 220 605.329 224.302 615.223 232.905C624.85 241.509 629.664 251.883 629.664 264.282C629.664 291.611 613.084 305.275 579.924 305.275H561.472C561.472 310.336 563.077 313.879 566.018 315.65C568.96 317.674 573.239 318.686 578.854 318.686C591.423 318.686 603.189 315.903 614.421 310.589C614.421 310.589 615.491 311.601 616.828 314.132C621.106 321.47 623.246 327.543 623.246 332.351C623.246 337.412 621.641 340.701 618.165 342.219ZM584.738 269.09C584.738 262.005 580.994 258.462 573.773 258.462C570.297 258.462 567.623 259.475 565.216 261.246C562.809 263.27 561.472 266.054 561.472 269.849V277.694H575.913C581.796 277.694 584.738 274.91 584.738 269.09Z" fill="#A3D9FF"/>
<path d="M679.77 260.96C674.763 252.732 672.391 245.75 672.391 240.514C672.391 235.278 673.972 232.036 676.871 230.54C686.884 226.301 700.587 224.307 718.242 224.307C735.633 224.307 748.018 228.047 755.133 235.776C762.247 243.755 765.936 254.976 765.936 270.185V309.581H774.896C777.794 309.581 780.166 311.327 782.01 314.568C783.591 317.81 784.382 322.547 784.382 328.282C784.382 334.017 782.801 339.752 779.902 345.487C776.74 351.221 772.524 353.964 767.254 353.964C757.768 353.964 750.126 351.471 744.329 346.733C741.694 344.738 739.586 342.245 738.268 339.502C730.099 349.227 717.715 353.964 700.587 353.964C687.675 353.964 676.871 349.725 668.175 340.998C659.48 332.271 655 322.048 655 310.329C655 283.151 672.128 269.687 706.384 269.687H720.877V267.193C720.877 262.955 720.086 259.962 718.769 258.716C717.188 257.469 713.762 256.97 708.228 256.97C701.641 256.97 692.154 258.217 679.77 260.96ZM700.85 306.839C700.85 310.579 701.904 313.321 704.012 315.067C706.12 317.062 708.755 318.059 712.181 318.059C715.343 318.059 718.242 316.812 720.877 314.319V295.12H713.498C705.066 295.12 700.85 299.109 700.85 306.839Z" fill="#A3D9FF"/>
<path d="M870.493 352.07C870.493 353.495 861.457 354.065 843.084 354.065C824.71 353.78 815.674 352.925 815.674 351.785V257.162H807.542C804.229 257.162 801.819 255.167 800.012 251.461C797.904 247.756 797 243.196 797 237.781C797 217.26 803.325 207 816.277 207C825.313 207 832.843 209.565 838.867 214.695C844.891 220.11 847.903 226.096 847.903 232.651C852.12 224.956 857.842 218.685 865.071 213.84C871.999 209.28 879.228 207 886.758 207C898.505 207 905.432 209.85 907.842 215.55C908.444 216.975 908.745 219.255 908.745 222.105C908.745 225.241 907.842 230.371 906.035 238.066C903.926 245.761 902.119 251.176 900.011 254.596C897.902 258.017 896.396 259.727 896.396 259.727C896.396 259.727 894.288 258.872 890.975 257.447C887.661 256.022 884.649 255.452 881.939 255.452C874.409 255.452 870.493 261.152 870.493 272.552V352.07Z" fill="#A3D9FF"/>
<path d="M444.581 419.712C457.229 419.712 468.328 421.432 477.879 424.627C487.43 428.067 492.076 432.736 492.076 438.388C492.076 444.039 489.753 451.165 485.365 459.52C480.718 468.12 476.847 472.298 473.749 472.298C472.975 472.298 471.942 471.806 470.91 470.823C469.619 470.086 467.038 469.103 463.166 467.875C459.036 466.892 455.422 466.4 452.583 466.4C442.516 466.4 434.514 469.841 428.577 476.475C422.382 483.11 419.284 493.43 419.284 507.191C419.284 521.197 422.382 531.518 428.835 538.152C435.03 544.787 443.032 548.227 452.583 548.227C456.455 548.227 461.101 547.736 466.005 546.507C470.91 545.524 474.265 544.05 476.33 542.084C476.33 542.084 477.363 541.592 478.395 541.592C479.428 541.592 481.235 543.313 484.332 546.998C487.172 550.93 489.753 555.599 492.076 561.496C494.399 567.639 495.69 572.308 495.69 575.503C495.69 581.892 490.527 587.052 480.202 590.738C469.877 594.424 457.745 596.389 443.548 596.389C420.833 596.389 402.248 588.772 387.535 573.537C372.822 558.302 365.594 536.678 365.594 508.911C365.594 481.144 373.08 459.52 388.309 443.548C403.281 427.576 422.124 419.712 444.581 419.712Z" fill="#BD498B"/>
<path d="M771.935 592.871C771.935 595.073 763.837 596.174 747.642 596.174C728.265 595.348 718.721 594.247 718.721 592.595V495.135H703.972C700.212 495.135 698.188 488.802 698.188 476.138C698.188 472.834 698.477 468.705 699.345 464.024C699.923 459.344 701.369 456.866 703.393 456.866H718.721V432.639C718.721 429.06 726.819 427.133 743.304 427.133C759.499 427.133 767.597 428.509 767.597 431.538V449.158L767.886 456.866H792.469C795.65 456.866 797.385 463.198 797.385 476.138C797.385 489.078 795.65 495.41 792.469 495.41H771.935V592.871Z" fill="#BD498B"/>
<path d="M442.304 413C454.843 413 465.847 414.705 475.315 417.872C484.783 421.283 489.389 425.911 489.389 431.514C489.389 437.117 487.086 444.181 482.736 452.464C478.13 460.99 474.292 465.131 471.221 465.131C470.453 465.131 469.429 464.644 468.406 463.67C467.126 462.939 464.567 461.964 460.729 460.746C456.635 459.772 453.052 459.285 450.237 459.285C440.257 459.285 432.324 462.695 426.439 469.273C420.297 475.85 417.227 486.081 417.227 499.723C417.227 513.608 420.297 523.84 426.695 530.417C432.836 536.994 440.769 540.405 450.237 540.405C454.076 540.405 458.682 539.918 463.544 538.7C468.406 537.725 471.733 536.264 473.78 534.315C473.78 534.315 474.803 533.828 475.827 533.828C476.851 533.828 478.642 535.533 481.713 539.187C484.527 543.084 487.086 547.713 489.389 553.559C491.693 559.65 492.972 564.278 492.972 567.445C492.972 573.779 487.854 578.894 477.618 582.548C467.382 586.202 455.355 588.151 441.281 588.151C418.762 588.151 400.337 580.599 385.751 565.496C371.165 550.393 364 528.955 364 501.428C364 473.901 371.421 452.464 386.519 436.63C401.361 420.795 420.041 413 442.304 413Z" fill="#A3D9FF"/>
<path d="M766.474 584.088C766.474 586.277 758.474 587.372 742.474 587.372C723.331 586.551 713.902 585.456 713.902 583.815V486.955H699.331C695.617 486.955 693.617 480.662 693.617 468.075C693.617 464.792 693.902 460.688 694.76 456.036C695.331 451.385 696.76 448.922 698.76 448.922H713.902V424.844C713.902 421.287 721.902 419.372 738.188 419.372C754.188 419.372 762.188 420.74 762.188 423.75V441.261L762.474 448.922H786.76C789.902 448.922 791.617 455.215 791.617 468.075C791.617 480.935 789.902 487.228 786.76 487.228H766.474V584.088Z" fill="#A3D9FF"/>
<path d="M204.785 322.531C204.785 322.531 218.676 316.821 219.229 316.755" stroke="black" stroke-width="17.4418" stroke-miterlimit="1.22093" stroke-linecap="round" stroke-linejoin="round"/>
<path d="M204.944 309.711C204.821 309.559 218.087 310.697 217.606 310.757" stroke="black" stroke-width="15.504" stroke-miterlimit="1.22093" stroke-linecap="round" stroke-linejoin="round"/>
<path fill-rule="evenodd" clip-rule="evenodd" d="M178.158 241.34C183.754 248.31 188.556 243.891 189.042 242.677C189.458 241.823 196.742 227.309 212.18 218.074C217.675 214.787 225.509 211.042 233.009 209.994C244.708 208.359 253.377 208.797 261.273 210.141C265.551 210.868 262.537 212.203 265.752 213.614C268.761 218.7 273.255 222.497 276.075 229.162C279.599 237.491 282.782 242.755 283.99 246.636C286.76 255.536 285.639 256.608 286.465 260.086C288.623 269.183 288.762 281.505 287.103 288.327C284.801 297.787 284.593 298.827 281.217 300.453C276.189 302.875 277.954 289.195 277.954 289.195C278.094 288.536 276.18 270.528 272.322 271.145C268.464 271.761 258.199 284.048 258.199 284.048C253.138 280.822 240.534 283.726 240.722 283.444C240.91 283.162 231.354 266.441 228.783 268.559C226.213 270.677 224.8 289.195 224.8 289.195C224.8 289.195 212.322 300.708 211.727 310.147C211.125 319.684 213.873 327.575 217.647 330.007C225.785 337.188 250.881 341.414 271.06 337.052C272.222 336.717 286.601 330.899 289.635 329.911C289.635 329.911 300.316 329.055 302.662 331.74C304.968 334.38 283.466 348.465 283.768 347.014C275.931 353.732 239.286 354.467 220.413 342.604C204.193 332.41 163.626 304.764 178.158 241.34Z" fill="#D4B6C7"/>
<path fill-rule="evenodd" clip-rule="evenodd" d="M165.025 312.397C164.343 309.754 165.935 307.055 168.577 306.374C171.22 305.692 173.919 307.283 174.601 309.926C179.956 330.684 203.18 353.15 220.541 360.233C241.995 368.986 260.891 368.749 270.71 365.037C272.954 364.19 275.201 362.84 276.825 361.549C277.466 361.04 278.039 360.646 278.24 360.266C279.516 357.852 282.51 356.93 284.922 358.205C287.335 359.48 288.258 362.475 286.983 364.887C285.658 367.394 280.036 372.085 274.207 374.288C262.983 378.531 241.33 379.396 216.805 369.389C197.182 361.384 171.078 335.859 165.025 312.397Z" fill="#BD498B"/>
<mask id="mask0_0_1" style="mask-type:luminance" maskUnits="userSpaceOnUse" x="111" y="103" width="222" height="288">
<path d="M276.064 390.968L111.709 359.095L167.971 103.967L332.326 135.84L276.064 390.968Z" fill="white"/>
</mask>
<g mask="url(#mask0_0_1)">
<path fill-rule="evenodd" clip-rule="evenodd" d="M326.285 310.35C300.561 347.873 249.322 357.527 211.934 331.896C174.545 306.264 165.075 254.991 190.799 217.467C216.523 179.944 258.436 167.118 300.788 194.379C342.822 221.435 352.009 272.827 326.285 310.35Z" stroke="#A3D9FF" stroke-width="46.6417" stroke-miterlimit="1.5" stroke-linecap="round" stroke-linejoin="round"/>
</g>
<path fill-rule="evenodd" clip-rule="evenodd" d="M227.565 283.444C227.747 282.93 229.075 279.192 229.456 276.899C229.595 276.067 229.494 275.97 228.676 275.737C229.164 275.738 229.616 275.453 230.101 275.397C231.839 275.193 233.003 276.143 233.203 276.307C237.224 279.589 237.027 279.766 240.722 283.444C241.412 283.378 253.914 281.317 258.199 284.048C257.856 284.08 257.892 284.134 254.052 285.213C264.336 281.896 263.447 280.342 265.301 278.593L265.692 278.022C266.37 285.485 258.989 283.64 258.934 283.444C258.756 282.817 261.876 280.956 262.019 277.036C262.723 257.697 254.59 250.428 250.998 247.769C245.984 244.057 235.331 247.349 233.307 248.44C231.58 249.371 226.913 254.202 225.8 259.095C223.723 268.23 227.264 283.17 227.565 283.444Z" fill="white"/>
<path d="M261.882 315.245C261.87 315.292 271.101 314.169 273.596 315.332" stroke="black" stroke-width="17.4418" stroke-miterlimit="1.22093" stroke-linecap="round" stroke-linejoin="round"/>
<path d="M258.993 320.511C258.993 320.511 262.785 321.371 270.415 327.121" stroke="black" stroke-width="17.4418" stroke-miterlimit="1.22093" stroke-linecap="round" stroke-linejoin="round"/>
<path d="M259.401 208.561C269.707 218.002 279.846 238.492 282.842 253.352C287.266 275.291 287.523 300.906 281.009 306.532" stroke="#BD498B" stroke-width="7.00124" stroke-miterlimit="1.22093" stroke-linecap="round" stroke-linejoin="round"/>
<path fill-rule="evenodd" clip-rule="evenodd" d="M296.242 216.383C296.242 216.383 316.751 240.038 290.731 312.73C286.271 294.948 279.672 289.666 279.361 289.07C279.361 289.07 279.619 289.308 279.978 283.739C280.336 278.169 281.521 267.838 282.698 260.88C283.47 256.323 284.903 244.988 288.459 232.847C289.157 230.465 289.848 228.025 290.808 225.654C295.085 215.079 296.059 217.12 296.242 216.383Z" fill="#C4DEE1"/>
<path fill-rule="evenodd" clip-rule="evenodd" d="M290.731 312.73C315.025 244.857 298.756 219.735 296.493 216.702C299.623 217.395 309.606 225.523 317.906 234.299C325.15 241.958 325.527 244.614 328.36 252.456C342.137 296.148 305.27 335.567 305.213 327.649C304.861 327.391 307.583 323.548 298.729 327.466C291.67 330.588 288.616 329.392 288.335 328.733C291.078 324.96 292.503 319.797 290.731 312.73Z" fill="#A2D0E4"/>
<path d="M229.48 286.36C227.978 287.378 217.68 294.877 213.319 303.185C211.365 306.908 211.159 313.67 211.24 315.561C211.578 323.404 222.031 330.333 225.677 330.224" stroke="white" stroke-width="6.97824" stroke-miterlimit="1.5" stroke-linecap="round" stroke-linejoin="round"/>
<path d="M226.501 289.195C226.697 289.394 226.708 272.232 228.682 269.508C230.643 266.801 240.91 283.162 240.722 283.444C240.584 283.651 242.994 282.978 248.604 283.444C250.623 283.612 255.614 284.653 257.005 284.686C257.851 284.982 268.638 271.822 272.322 271.145C276.165 270.438 277.375 288.865 277.954 289.195C281.144 291.011 290.111 297.844 291.753 312.586C292.206 316.66 292.05 320.429 291.488 322.846C290.694 326.248 287.408 329.147 285.813 330.561C280.54 335.241 273.351 336.393 271.06 337.052" stroke="#BD498B" stroke-width="4.62729" stroke-miterlimit="1.5" stroke-linecap="round" stroke-linejoin="round"/>
<path fill-rule="evenodd" clip-rule="evenodd" d="M225.992 290.806C225.992 290.806 225.989 270.965 228.559 268.848C231.129 266.73 240.91 283.162 240.722 283.444C240.534 283.726 252.884 283.54 257.944 286.765C257.944 286.765 268.464 271.761 272.322 271.145C276.18 270.528 279.05 288.474 279.361 289.07C279.672 289.666 287.252 294.73 290.731 312.73C291.773 318.123 289.364 324.073 287.526 326.626C283.268 332.537 274.312 335.713 272.322 336.696C270.488 337.603 260.689 340.428 244.991 338.825C222.437 336.52 217.337 329.574 215.706 327.567C215.043 326.752 214.683 326.166 213.987 325.393C212.286 323.508 211.192 320.893 210.913 316.94C210.798 315.301 210.822 313.433 211.001 311.291C211.237 308.477 212.341 305.387 213.773 302.437C217.137 295.514 225.992 290.806 225.992 290.806Z" fill="white"/>
<path fill-rule="evenodd" clip-rule="evenodd" d="M221.215 290.214C221.215 290.214 222.148 288.897 222.761 287.863C224.38 285.133 223.556 279.654 224.599 274.341C225.309 270.719 226.694 268.364 227.555 267.654C228.183 267.137 229.325 267.764 230.691 269.011C234.915 272.87 241.273 282.664 241.131 282.877C241.03 283.029 244.206 282.625 247.947 282.727C251.139 282.815 254.742 283.271 257.071 284.756C257.071 284.756 269.211 271.201 273.069 270.585C276.927 269.968 279.154 288.166 279.5 288.942C279.774 289.555 287.897 294.518 292.357 312.3C285.116 317.983 277.751 317.817 277.038 317.906C271.344 318.619 260.817 317.723 255.706 316.077C240.316 311.121 238.933 301.262 238.542 299.094C236.029 303.32 232.082 309.746 222.055 311.381C217.376 312.144 212.593 312.68 210.547 312.3C210.587 310.766 210.801 309.23 211.161 307.719C212.073 303.884 213.717 300.112 216.008 297.106C218.058 294.417 221.028 290.544 221.215 290.214Z" fill="#BD498B"/>
<path fill-rule="evenodd" clip-rule="evenodd" d="M286.1 331.551C286.102 331.544 286.104 331.537 286.105 331.53L286.464 330.633L287 329.87L287.96 329.123C288.337 328.517 288.981 327.563 289.511 327.199L290.925 326.575L292.462 326.504C294.195 326.723 298.469 325.854 302.282 326.092C305.919 326.318 309.139 327.515 310.915 330.02C314.991 335.768 312.278 341.882 306.318 346.592C301.175 350.657 293.724 353.62 288.71 354.252C285.662 354.637 283.297 354.054 282.041 353.07C280.7 352.018 279.801 349.796 280.071 346.816C280.449 342.65 282.813 336.483 284.335 333.72C284.76 332.948 285.16 332.381 285.456 332.048L286.1 331.551ZM288.813 328.847L289.282 328.703C289.133 328.72 288.974 328.773 288.813 328.847ZM289.302 331.023L289.905 331.317C289.694 331.179 289.493 331.085 289.302 331.023ZM287.212 336.996L286.43 336.618C286.676 336.778 286.937 336.907 287.212 336.996ZM286.425 347.987C286.988 348 287.805 347.992 288.471 347.884C291.566 347.379 295.582 345.888 299.112 343.831C301.866 342.225 304.348 340.298 305.687 338.143C306.567 336.723 306.813 335.193 305.745 333.686C305.369 333.155 304.733 332.921 304.047 332.737C302.869 332.421 301.513 332.362 300.166 332.384C297.517 332.426 294.884 332.753 293.089 332.821C292.858 333.206 292.588 333.617 292.376 333.831L292.058 334.069C291.972 334.487 291.863 334.947 291.763 335.171L291.261 335.996L290.617 336.614L289.848 337.007C289.097 338.62 287.406 342.407 286.76 345.192C286.555 346.076 286.463 347.262 286.425 347.987Z" fill="#BD498B"/>
<path fill-rule="evenodd" clip-rule="evenodd" d="M289.378 330.779C290.041 330.342 290.584 330.221 290.945 330.346C293.808 331.339 304.382 327.94 306.738 334.784C307.424 336.775 307.739 338.104 306.738 339.865C301.777 348.595 287.384 351.31 283.506 348.983C280.783 347.349 279.211 335.916 279.264 335.912C280.462 335.823 287.245 332.182 289.378 330.779Z" fill="#A3D9FF"/>
<path fill-rule="evenodd" clip-rule="evenodd" d="M302.981 187.23C298.784 182.363 307.715 171.61 313.244 174.823C329.004 183.979 341.255 200.499 334.464 218.733C329.343 232.486 324.417 224.828 313.793 214.534C308.839 209.734 305.613 201.71 299.963 197.613C291.222 191.273 292.447 183.395 303.123 191.173C304.226 191.976 304.312 188.775 302.981 187.23Z" fill="#A3D9FF"/>
<path fill-rule="evenodd" clip-rule="evenodd" d="M277.42 196.005C275.361 195.902 273.772 194.146 273.875 192.087C273.978 190.027 275.733 188.439 277.793 188.542C292.085 189.257 309.537 200.624 324.73 213.574C326.3 214.912 326.487 217.271 325.15 218.841C323.812 220.41 321.452 220.598 319.882 219.26C306.055 207.474 290.428 196.655 277.42 196.005Z" fill="#A3D9FF"/>
<path fill-rule="evenodd" clip-rule="evenodd" d="M200.441 260.031C200.425 248.269 208.73 190.356 269.652 195.467C289.932 197.168 311.843 208.589 318.904 216.957C327.178 226.764 325.097 239.407 322.518 240.704C320.501 241.718 318.633 241.335 318.294 241.303C314.484 240.94 308.264 233.931 306.252 232.571C298.211 227.136 288.797 213.22 265.411 210.071C258.188 209.098 234.576 210.772 217.49 227.873C209.296 236.073 205.656 250.035 200.441 260.031Z" fill="#BD498B" stroke="#BD498B" stroke-width="0.999536" stroke-miterlimit="2" stroke-linejoin="round"/>
<path d="M277.6 337.997C277.6 337.997 284.427 338.478 286.873 339.647C297.681 344.815 292.179 356.893 283.725 365.31C281.121 367.903 271.982 372.935 269.212 371.714" stroke="#BD498B" stroke-width="5.14458" stroke-miterlimit="1.22093" stroke-linecap="round" stroke-linejoin="round"/>
<path fill-rule="evenodd" clip-rule="evenodd" d="M262.302 340.351C264.215 338.677 271.227 337.807 277.228 338.266C280.923 338.549 284.282 339.745 285.689 340.351C287.025 340.927 288.92 343.635 289.576 344.865C291.218 347.945 290.51 350.625 288.869 354.961C288.072 357.068 285.773 360.323 282.776 362.961C279.534 365.816 275.924 368.059 273.661 368.42C268.656 369.22 246.373 348.263 262.302 340.351Z" fill="#A3D9FF"/>
<path d="M236.933 312.029C236.958 311.994 236.983 311.96 237.008 311.926" stroke="#D53F77" stroke-width="3.42554" stroke-miterlimit="1.5" stroke-linecap="round" stroke-linejoin="round"/>
<path d="M223.96 308.764L223.971 308.787" stroke="#A3D9FF" stroke-width="3.42554" stroke-miterlimit="1.5" stroke-linecap="round" stroke-linejoin="round"/>
<path d="M223.944 308.702C224.075 308.608 224.206 308.515 224.337 308.42" stroke="#A3D9FF" stroke-width="8.7563" stroke-miterlimit="1.5" stroke-linecap="round" stroke-linejoin="round"/>
<path d="M251.726 310.378L251.604 310.368" stroke="#A3D9FF" stroke-width="9.02573" stroke-miterlimit="1.5" stroke-linecap="round" stroke-linejoin="round"/>
</svg>
