<?xml version="1.0" encoding="UTF-8" standalone="no"?>
<!DOCTYPE svg PUBLIC "-//W3C//DTD SVG 1.1//EN" "http://www.w3.org/Graphics/SVG/1.1/DTD/svg11.dtd">
<svg width="100%" height="100%" viewBox="0 0 1125 676" version="1.1" xmlns="http://www.w3.org/2000/svg" xmlns:xlink="http://www.w3.org/1999/xlink" xml:space="preserve" xmlns:serif="http://www.serif.com/" style="fill-rule:evenodd;clip-rule:evenodd;stroke-linecap:round;stroke-linejoin:round;stroke-miterlimit:1.22093;">
    <g id="图层1">
        <g transform="matrix(0.155272,0,0,0.155272,150.821,162.669)">
            <path d="M443.965,1016.83C443.965,1016.83 536.935,978.614 540.637,978.174" style="fill:none;stroke:black;stroke-width:112.33px;"/>
        </g>
        <g transform="matrix(0.155272,0,0,0.155272,150.821,162.669)">
            <path d="M445.028,931.025C444.203,930.006 532.993,937.627 529.775,938.028" style="fill:none;stroke:black;stroke-width:99.85px;"/>
        </g>
        <g transform="matrix(0.155272,0,0,0.155272,150.821,162.669)">
            <path d="M265.744,473.409C303.201,520.06 335.343,490.486 338.593,482.36C341.38,476.648 390.128,379.498 493.456,317.691C530.233,295.693 582.671,270.623 632.868,263.608C711.171,252.664 769.193,255.599 822.045,264.591C850.673,269.462 830.5,278.392 852.023,287.84C872.163,321.877 902.238,347.292 921.113,391.904C944.698,447.648 966.004,482.883 974.089,508.858C992.629,568.425 985.126,575.603 990.652,598.883C1005.1,659.771 1006.03,742.238 994.922,787.899C979.519,851.216 978.123,858.176 955.528,869.06C921.874,885.269 933.691,793.712 933.691,793.712C934.627,789.299 921.815,668.772 895.992,672.898C870.169,677.024 801.465,759.26 801.465,759.26C767.596,737.67 683.237,757.104 684.494,755.218C685.751,753.331 621.788,641.418 604.585,655.592C587.381,669.766 577.925,793.712 577.925,793.712C577.925,793.712 494.408,870.77 490.423,933.944C486.396,997.774 504.787,1050.59 530.051,1066.87C584.52,1114.93 752.49,1143.22 887.547,1114.02C895.323,1111.78 991.562,1072.84 1011.87,1066.23C1011.87,1066.23 1083.36,1060.5 1099.06,1078.47C1114.5,1096.14 970.579,1190.41 972.602,1180.7C920.149,1225.66 674.88,1230.58 548.563,1151.18C440.002,1082.95 168.478,897.912 265.744,473.409Z" style="fill:rgb(212,182,199);"/>
        </g>
        <path d="M185.296,308.564C184.615,305.922 186.206,303.223 188.849,302.541C191.491,301.859 194.19,303.451 194.872,306.094C200.423,327.609 224.33,343.955 242.374,351.177C262.229,359.125 277.623,359.645 287.664,357.228C293.076,355.926 296.76,354.007 298.084,351.872C299.522,349.553 302.572,348.837 304.892,350.276C307.211,351.714 307.926,354.765 306.488,357.084C304.79,359.821 301.167,362.918 295.484,365.133C284.568,369.388 265.058,370.909 238.699,360.358C218.202,352.154 191.602,333.005 185.296,308.564Z" style="fill:rgb(189,73,139);"/>
        <g transform="matrix(-0.0801628,0.116933,-0.120758,-0.0827854,271.835,265.207)">
            <clipPath id="_clip1">
                <path d="M531.629,-561.351L996.558,513.951L-356.827,1062.63L-821.756,-12.676L531.629,-561.351Z"/>
            </clipPath>
            <g clip-path="url(#_clip1)">
                <path d="M0,-583.199C321.877,-583.199 583.199,-321.877 583.199,0C583.199,321.877 321.877,583.199 0,583.199C-321.877,583.199 -576.51,322.917 -576.51,1.041C-576.51,-320.836 -321.877,-583.199 0,-583.199Z" style="fill:none;stroke:rgb(163,217,255);stroke-width:183.17px;stroke-miterlimit:1.5;"/>
            </g>
        </g>
        <g transform="matrix(0.155272,0,0,0.155272,150.821,162.669)">
            <path d="M596.43,755.218C597.65,751.78 606.536,726.758 609.089,711.413C610.016,705.842 609.339,705.196 603.867,703.632C607.136,703.642 610.16,701.737 613.407,701.357C625.038,699.996 632.827,706.354 634.168,707.448C661.082,729.417 659.76,730.602 684.494,755.218C689.108,754.774 772.787,740.979 801.465,759.26C799.169,759.477 799.412,759.837 773.712,767.061C842.542,744.859 836.592,734.455 849.005,722.747L851.62,718.929C856.156,768.878 806.757,756.533 806.385,755.218C805.197,751.019 833.6,731.451 832.19,705.231C823.921,551.453 774.144,528.299 753.27,516.44C716.967,495.816 650.078,505.625 634.168,516.44C623.748,523.524 592.064,559.497 584.617,592.246C570.715,653.387 594.413,753.387 596.43,755.218Z" style="fill:white;"/>
        </g>
        <g transform="matrix(0.155272,0,0,0.155272,150.821,162.669)">
            <path d="M826.119,968.065C826.035,968.38 887.819,960.865 904.522,968.645" style="fill:none;stroke:black;stroke-width:112.33px;"/>
        </g>
        <g transform="matrix(0.155272,0,0,0.155272,150.821,162.669)">
            <path d="M806.782,1003.31C806.782,1003.31 832.162,1009.07 883.229,1047.55" style="fill:none;stroke:black;stroke-width:112.33px;"/>
        </g>
        <g transform="matrix(0.155272,0,0,0.155272,140.378,160.544)">
            <path d="M876.771,267.703C945.746,330.893 1013.61,468.038 1033.66,567.495C1063.27,714.333 1064.99,885.776 1021.39,923.432" style="fill:none;stroke:rgb(189,73,139);stroke-width:45.09px;"/>
        </g>
        <g transform="matrix(0.155272,0,0,0.174245,150.821,147.539)">
            <path d="M609.247,777.206C599.195,783.28 530.27,828.008 501.083,877.556C488,899.766 486.623,940.093 487.168,951.371C489.43,998.153 559.392,1039.48 583.794,1038.83" style="fill:none;stroke:white;stroke-width:42.43px;stroke-miterlimit:1.5;"/>
        </g>
        <g transform="matrix(0.155272,0,0,0.155272,150.821,162.669)">
            <path d="M331.745,568.467C331.637,489.738 470.365,132.173 878.122,166.377C1013.86,177.763 1125.3,230.013 1172.55,286.018C1227.94,351.66 1249.22,460.471 1231.96,469.153C1218.46,475.94 1205.96,473.379 1203.69,473.163C1178.19,470.732 1136.56,423.826 1123.09,414.722C1069.27,378.342 1006.26,285.202 849.74,264.123C801.391,257.612 624.814,247.821 499.981,350.757C418.558,417.896 373.953,529.318 331.745,568.467Z" style="fill:rgb(189,73,139);stroke:rgb(189,73,139);stroke-width:6.44px;stroke-linecap:butt;stroke-miterlimit:2;"/>
        </g>
        <g transform="matrix(0.153,0,0,0.155272,152.096,162.669)">
            <path d="M589.725,793.712C591.057,795.045 591.135,680.176 604.541,661.945C617.862,643.827 687.6,753.331 686.324,755.218C685.386,756.605 701.758,752.1 739.862,755.218C753.578,756.34 787.474,763.31 796.923,763.532C802.67,765.512 875.945,677.433 900.964,672.898C927.068,668.166 935.287,791.504 939.223,793.712C960.892,805.867 1021.8,851.6 1032.95,950.271C1036.03,977.536 1034.97,1002.76 1031.15,1018.94C1025.76,1041.71 1003.44,1061.11 992.602,1070.58C956.784,1101.9 907.954,1109.61 892.393,1114.02" style="fill:none;stroke:rgb(189,73,139);stroke-width:30.02px;stroke-miterlimit:1.5;"/>
        </g>
        <g transform="matrix(0.155272,0,0,0.155272,150.821,162.669)">
            <path d="M585.902,804.491C585.902,804.491 585.88,671.697 603.083,657.523C620.286,643.35 685.751,753.331 684.494,755.218C683.237,757.104 765.891,755.859 799.76,777.449C799.76,777.449 870.169,677.024 895.992,672.898C921.815,668.772 941.025,788.883 943.107,792.872C945.188,796.861 995.92,830.758 1019.21,951.233C1026.18,987.328 1010.06,1027.15 997.754,1044.24C969.255,1083.8 909.313,1105.06 895.992,1111.64C883.716,1117.71 818.133,1136.62 713.068,1125.89C562.106,1110.46 527.972,1063.97 517.058,1050.54C512.619,1045.08 510.21,1041.16 505.554,1035.99C494.168,1023.37 486.847,1005.87 484.979,979.411C484.205,968.443 484.368,955.937 485.567,941.601C487.143,922.764 494.533,902.084 504.123,882.343C526.635,836.003 585.902,804.491 585.902,804.491Z" style="fill:white;"/>
        </g>
        <g transform="matrix(0.155272,0,0,0.155272,150.821,162.669)">
            <path d="M553.927,800.53C553.927,800.53 560.177,791.716 564.277,784.798C575.112,766.522 569.6,729.849 576.577,694.294C581.334,670.047 590.599,654.283 596.363,649.533C600.566,646.071 608.213,650.268 617.353,658.617C645.626,684.444 688.18,749.997 687.23,751.423C686.552,752.441 707.812,749.735 732.853,750.42C754.214,751.005 778.327,754.058 793.92,763.997C793.92,763.997 875.169,673.276 900.991,669.15C926.814,665.024 941.722,786.825 944.039,792.014C945.873,796.122 1000.24,829.336 1030.09,948.356C981.626,986.39 932.328,985.279 927.556,985.877C889.448,990.648 818.987,984.651 784.78,973.635C681.773,940.463 672.515,874.473 669.9,859.968C653.081,888.248 626.661,931.263 559.555,942.206C528.232,947.313 496.225,950.896 482.528,948.356C482.796,938.09 484.231,927.804 486.635,917.696C492.741,892.027 503.745,866.778 519.078,846.662C532.8,828.659 552.675,802.742 553.927,800.53Z" style="fill:rgb(189,73,139);"/>
        </g>
        <path d="M304.373,329.997C304.378,329.977 304.383,329.959 304.388,329.941L304.75,329.034L305.29,328.266L306.284,327.492L306.288,327.49C306.67,326.871 307.332,325.883 307.877,325.508L309.305,324.879L310.859,324.806C312.661,325.035 317.106,324.132 321.072,324.379C324.811,324.611 328.125,325.834 329.951,328.409C334.146,334.327 331.332,340.614 325.197,345.463C319.87,349.672 312.153,352.743 306.96,353.398C303.834,353.792 301.409,353.204 300.121,352.194C298.752,351.12 297.845,348.848 298.121,345.804C298.513,341.489 300.962,335.104 302.537,332.243C302.973,331.451 303.383,330.869 303.686,330.528L304.373,329.997ZM307.119,327.235L307.582,327.092C307.436,327.109 307.278,327.162 307.119,327.235ZM307.554,329.5L308.148,329.789C307.941,329.653 307.743,329.561 307.554,329.5ZM308.722,333.257L308.282,333.392C308.425,333.376 308.574,333.327 308.722,333.257ZM304.473,347.127C305.071,347.146 305.999,347.147 306.747,347.025C309.975,346.499 314.166,344.943 317.847,342.798C320.729,341.119 323.323,339.1 324.723,336.844C325.666,335.326 325.924,333.687 324.781,332.075C324.373,331.5 323.689,331.24 322.946,331.041C321.711,330.71 320.291,330.646 318.879,330.669C316.09,330.715 313.317,331.064 311.455,331.128C311.212,331.535 310.922,331.983 310.696,332.211L310.342,332.475C310.254,332.913 310.14,333.404 310.035,333.64L309.529,334.47L308.883,335.09L308.067,335.508C307.284,337.183 305.505,341.157 304.827,344.077C304.601,345.052 304.509,346.374 304.473,347.127ZM305.453,335.468L304.674,335.09C304.919,335.251 305.179,335.379 305.453,335.468Z" style="fill:rgb(189,73,139);"/>
        <path d="M307.669,329.126C308.358,328.672 308.923,328.546 309.298,328.676C312.273,329.708 323.262,326.176 325.711,333.288C326.424,335.358 326.751,336.739 325.711,338.569C320.555,347.642 306.106,352.118 302.076,349.7C299.246,348.002 297.103,334.465 297.158,334.461C298.403,334.368 305.453,330.584 307.669,329.126Z" style="fill:rgb(163,217,255);"/>
        <g transform="matrix(0.545305,0.247778,-0.362351,0.797455,284.136,-145.386)">
            <path d="M307.669,329.126C308.426,328.797 308.902,328.646 309.298,328.676C313.652,329.004 335.765,332.56 339.355,340.396C343.598,349.655 332.256,347.108 317.33,343.666C310.37,342.061 302.226,339.603 294.889,338.708C290.985,338.232 304.432,332.58 304.466,332.536C305.361,331.402 305.844,329.92 307.669,329.126Z" style="fill:rgb(163,217,255);"/>
        </g>
        <path d="M295.249,188.915C293.19,188.812 291.602,187.057 291.704,184.998C291.807,182.938 293.563,181.35 295.622,181.453C310.451,182.194 328.551,193.996 344.314,207.432C345.883,208.77 346.071,211.13 344.733,212.699C343.396,214.268 341.036,214.456 339.467,213.119C325.069,200.846 308.793,189.593 295.249,188.915Z" style="fill:rgb(163,217,255);"/>
        <g transform="matrix(0.159482,0,0,0.147072,146.555,173.019)">
            <path d="M933.487,1112.44C933.487,1112.44 978.111,1115.58 993.909,1124.1C1061.67,1160.65 981.259,1277.05 933.487,1286.31" style="fill:none;stroke:rgb(189,73,139);stroke-width:33.59px;"/>
        </g>
        <g transform="matrix(1.15231,0,0,0.867584,-47.7888,46.6854)">
            <path d="M284.055,337.015C285.78,335.01 292.104,333.967 297.516,334.517C300.849,334.856 303.878,336.289 305.147,337.015C306.352,337.705 306.82,338.687 307.412,340.162C308.893,343.851 307.379,347.961 305.147,352.803C303.168,357.098 298.913,361.072 296.809,360.889C292.522,360.517 269.689,346.492 284.055,337.015Z" style="fill:rgb(163,217,255);"/>
        </g>
        <path d="M295.765,333.788C285.935,353.905 297.548,358.556 297.548,358.556" style="fill:none;"/>
        <path d="M253.166,309.64C253.192,309.604 253.218,309.569 253.244,309.533" style="fill:none;stroke:rgb(213,63,119);stroke-width:3.42px;stroke-miterlimit:1.5;"/>
        <path d="M239.684,306.247L239.695,306.27" style="fill:none;stroke:rgb(163,217,255);stroke-width:3.42px;stroke-miterlimit:1.5;"/>
        <path d="M239.667,306.183C239.803,306.085 239.939,305.988 240.075,305.89" style="fill:none;stroke:rgb(163,217,255);stroke-width:8.75px;stroke-miterlimit:1.5;"/>
        <path d="M268.539,307.925L268.413,307.914" style="fill:none;stroke:rgb(163,217,255);stroke-width:9.03px;stroke-miterlimit:1.5;"/>
    </g>
    <g transform="matrix(1.38306,0,0,1.37476,-139.008,-233.73)">
        <g transform="matrix(171.82,0,0,163.566,354.426,429.93)">
            <path d="M0.04,-0.059L0.04,-0.681C0.04,-0.695 0.074,-0.702 0.142,-0.702C0.209,-0.702 0.243,-0.695 0.243,-0.681L0.243,-0.191L0.397,-0.191C0.409,-0.191 0.417,-0.175 0.422,-0.144C0.424,-0.129 0.425,-0.113 0.425,-0.097C0.425,-0.081 0.424,-0.065 0.422,-0.048C0.417,-0.016 0.408,-0 0.396,-0L0.088,-0C0.073,-0 0.062,-0.006 0.053,-0.018C0.044,-0.03 0.04,-0.044 0.04,-0.059Z" style="fill:rgb(189,73,139);fill-rule:nonzero;"/>
        </g>
        <g transform="matrix(171.82,0,0,163.566,429.167,429.93)">
            <path d="M0.423,-0.027C0.381,-0.002 0.327,0.01 0.261,0.01C0.195,0.01 0.139,-0.013 0.094,-0.058C0.049,-0.102 0.026,-0.165 0.026,-0.245C0.026,-0.324 0.048,-0.388 0.092,-0.437C0.135,-0.486 0.19,-0.51 0.257,-0.51C0.324,-0.51 0.375,-0.493 0.412,-0.459C0.448,-0.425 0.466,-0.384 0.466,-0.335C0.466,-0.227 0.404,-0.173 0.28,-0.173L0.211,-0.173C0.211,-0.153 0.217,-0.139 0.228,-0.132C0.239,-0.124 0.255,-0.12 0.276,-0.12C0.323,-0.12 0.367,-0.131 0.409,-0.152C0.41,-0.153 0.413,-0.148 0.418,-0.138C0.434,-0.109 0.442,-0.085 0.442,-0.066C0.442,-0.046 0.436,-0.033 0.423,-0.027ZM0.298,-0.316C0.298,-0.344 0.284,-0.358 0.257,-0.358C0.244,-0.358 0.234,-0.354 0.225,-0.347C0.216,-0.339 0.211,-0.328 0.211,-0.313L0.211,-0.282L0.265,-0.282C0.287,-0.282 0.298,-0.293 0.298,-0.316Z" style="fill:rgb(189,73,139);fill-rule:nonzero;"/>
        </g>
        <g transform="matrix(171.82,0,0,163.566,512.672,429.93)">
            <path d="M0.108,-0.363C0.089,-0.396 0.08,-0.424 0.08,-0.445C0.08,-0.466 0.086,-0.479 0.097,-0.485C0.135,-0.502 0.187,-0.51 0.254,-0.51C0.32,-0.51 0.367,-0.495 0.394,-0.464C0.421,-0.432 0.435,-0.387 0.435,-0.326L0.435,-0.168L0.469,-0.168C0.48,-0.168 0.489,-0.161 0.496,-0.148C0.502,-0.135 0.505,-0.116 0.505,-0.093C0.505,-0.07 0.499,-0.047 0.488,-0.024C0.476,-0.001 0.46,0.01 0.44,0.01C0.404,0.01 0.375,0 0.353,-0.019C0.343,-0.027 0.335,-0.037 0.33,-0.048C0.299,-0.009 0.252,0.01 0.187,0.01C0.138,0.01 0.097,-0.007 0.064,-0.042C0.031,-0.077 0.014,-0.118 0.014,-0.165C0.014,-0.274 0.079,-0.328 0.209,-0.328L0.264,-0.328L0.264,-0.338C0.264,-0.355 0.261,-0.367 0.256,-0.372C0.25,-0.377 0.237,-0.379 0.216,-0.379C0.191,-0.379 0.155,-0.374 0.108,-0.363ZM0.188,-0.179C0.188,-0.164 0.192,-0.153 0.2,-0.146C0.208,-0.138 0.218,-0.134 0.231,-0.134C0.243,-0.134 0.254,-0.139 0.264,-0.149L0.264,-0.226L0.236,-0.226C0.204,-0.226 0.188,-0.21 0.188,-0.179Z" style="fill:rgb(189,73,139);fill-rule:nonzero;"/>
        </g>
        <g transform="matrix(171.82,0,0,163.566,601.502,429.93)">
            <path d="M0.264,-0.001C0.264,0.004 0.234,0.006 0.173,0.006C0.112,0.005 0.082,0.002 0.082,-0.002L0.082,-0.334L0.055,-0.334C0.044,-0.334 0.036,-0.341 0.03,-0.354C0.023,-0.367 0.02,-0.383 0.02,-0.402C0.02,-0.474 0.041,-0.51 0.084,-0.51C0.114,-0.51 0.139,-0.501 0.159,-0.483C0.179,-0.464 0.189,-0.443 0.189,-0.42C0.203,-0.447 0.222,-0.469 0.246,-0.486C0.269,-0.502 0.293,-0.51 0.318,-0.51C0.357,-0.51 0.38,-0.5 0.388,-0.48C0.39,-0.475 0.391,-0.467 0.391,-0.457C0.391,-0.446 0.388,-0.428 0.382,-0.401C0.375,-0.374 0.369,-0.355 0.362,-0.343C0.355,-0.331 0.351,-0.325 0.35,-0.325C0.349,-0.325 0.343,-0.328 0.332,-0.333C0.321,-0.338 0.311,-0.34 0.302,-0.34C0.277,-0.34 0.264,-0.32 0.264,-0.28L0.264,-0.001Z" style="fill:rgb(189,73,139);fill-rule:nonzero;"/>
        </g>
    </g>
    <g transform="matrix(1.37686,0,0,1.36859,-142.131,-237.376)">
        <g transform="matrix(171.82,0,0,163.566,354.426,429.93)">
            <path d="M0.04,-0.059L0.04,-0.681C0.04,-0.695 0.074,-0.702 0.142,-0.702C0.209,-0.702 0.243,-0.695 0.243,-0.681L0.243,-0.191L0.397,-0.191C0.409,-0.191 0.417,-0.175 0.422,-0.144C0.424,-0.129 0.425,-0.113 0.425,-0.097C0.425,-0.081 0.424,-0.065 0.422,-0.048C0.417,-0.016 0.408,-0 0.396,-0L0.088,-0C0.073,-0 0.062,-0.006 0.053,-0.018C0.044,-0.03 0.04,-0.044 0.04,-0.059Z" style="fill:rgb(163,217,255);fill-rule:nonzero;"/>
        </g>
        <g transform="matrix(171.82,0,0,163.566,429.167,429.93)">
            <path d="M0.423,-0.027C0.381,-0.002 0.327,0.01 0.261,0.01C0.195,0.01 0.139,-0.013 0.094,-0.058C0.049,-0.102 0.026,-0.165 0.026,-0.245C0.026,-0.324 0.048,-0.388 0.092,-0.437C0.135,-0.486 0.19,-0.51 0.257,-0.51C0.324,-0.51 0.375,-0.493 0.412,-0.459C0.448,-0.425 0.466,-0.384 0.466,-0.335C0.466,-0.227 0.404,-0.173 0.28,-0.173L0.211,-0.173C0.211,-0.153 0.217,-0.139 0.228,-0.132C0.239,-0.124 0.255,-0.12 0.276,-0.12C0.323,-0.12 0.367,-0.131 0.409,-0.152C0.41,-0.153 0.413,-0.148 0.418,-0.138C0.434,-0.109 0.442,-0.085 0.442,-0.066C0.442,-0.046 0.436,-0.033 0.423,-0.027ZM0.298,-0.316C0.298,-0.344 0.284,-0.358 0.257,-0.358C0.244,-0.358 0.234,-0.354 0.225,-0.347C0.216,-0.339 0.211,-0.328 0.211,-0.313L0.211,-0.282L0.265,-0.282C0.287,-0.282 0.298,-0.293 0.298,-0.316Z" style="fill:rgb(163,217,255);fill-rule:nonzero;"/>
        </g>
        <g transform="matrix(171.82,0,0,163.566,512.672,429.93)">
            <path d="M0.108,-0.363C0.089,-0.396 0.08,-0.424 0.08,-0.445C0.08,-0.466 0.086,-0.479 0.097,-0.485C0.135,-0.502 0.187,-0.51 0.254,-0.51C0.32,-0.51 0.367,-0.495 0.394,-0.464C0.421,-0.432 0.435,-0.387 0.435,-0.326L0.435,-0.168L0.469,-0.168C0.48,-0.168 0.489,-0.161 0.496,-0.148C0.502,-0.135 0.505,-0.116 0.505,-0.093C0.505,-0.07 0.499,-0.047 0.488,-0.024C0.476,-0.001 0.46,0.01 0.44,0.01C0.404,0.01 0.375,0 0.353,-0.019C0.343,-0.027 0.335,-0.037 0.33,-0.048C0.299,-0.009 0.252,0.01 0.187,0.01C0.138,0.01 0.097,-0.007 0.064,-0.042C0.031,-0.077 0.014,-0.118 0.014,-0.165C0.014,-0.274 0.079,-0.328 0.209,-0.328L0.264,-0.328L0.264,-0.338C0.264,-0.355 0.261,-0.367 0.256,-0.372C0.25,-0.377 0.237,-0.379 0.216,-0.379C0.191,-0.379 0.155,-0.374 0.108,-0.363ZM0.188,-0.179C0.188,-0.164 0.192,-0.153 0.2,-0.146C0.208,-0.138 0.218,-0.134 0.231,-0.134C0.243,-0.134 0.254,-0.139 0.264,-0.149L0.264,-0.226L0.236,-0.226C0.204,-0.226 0.188,-0.21 0.188,-0.179Z" style="fill:rgb(163,217,255);fill-rule:nonzero;"/>
        </g>
        <g transform="matrix(171.82,0,0,163.566,601.502,429.93)">
            <path d="M0.264,-0.001C0.264,0.004 0.234,0.006 0.173,0.006C0.112,0.005 0.082,0.002 0.082,-0.002L0.082,-0.334L0.055,-0.334C0.044,-0.334 0.036,-0.341 0.03,-0.354C0.023,-0.367 0.02,-0.383 0.02,-0.402C0.02,-0.474 0.041,-0.51 0.084,-0.51C0.114,-0.51 0.139,-0.501 0.159,-0.483C0.179,-0.464 0.189,-0.443 0.189,-0.42C0.203,-0.447 0.222,-0.469 0.246,-0.486C0.269,-0.502 0.293,-0.51 0.318,-0.51C0.357,-0.51 0.38,-0.5 0.388,-0.48C0.39,-0.475 0.391,-0.467 0.391,-0.457C0.391,-0.446 0.388,-0.428 0.382,-0.401C0.375,-0.374 0.369,-0.355 0.362,-0.343C0.355,-0.331 0.351,-0.325 0.35,-0.325C0.349,-0.325 0.343,-0.328 0.332,-0.333C0.321,-0.338 0.311,-0.34 0.302,-0.34C0.277,-0.34 0.264,-0.32 0.264,-0.28L0.264,-0.001Z" style="fill:rgb(163,217,255);fill-rule:nonzero;"/>
        </g>
    </g>
    <g transform="matrix(1,0,0,1,-71.6493,-23.2376)">
        <g transform="matrix(258.126,0,0,245.726,390.883,619.798)">
            <path d="M0.336,-0.709C0.385,-0.709 0.428,-0.702 0.465,-0.689C0.502,-0.675 0.52,-0.656 0.52,-0.633C0.52,-0.61 0.511,-0.581 0.494,-0.547C0.476,-0.512 0.461,-0.495 0.449,-0.495C0.446,-0.495 0.442,-0.497 0.438,-0.501C0.433,-0.504 0.423,-0.508 0.408,-0.513C0.392,-0.517 0.378,-0.519 0.367,-0.519C0.328,-0.519 0.297,-0.505 0.274,-0.478C0.25,-0.451 0.238,-0.409 0.238,-0.353C0.238,-0.296 0.25,-0.254 0.275,-0.227C0.299,-0.2 0.33,-0.186 0.367,-0.186C0.382,-0.186 0.4,-0.188 0.419,-0.193C0.438,-0.197 0.451,-0.203 0.459,-0.211C0.46,-0.212 0.463,-0.213 0.467,-0.213C0.471,-0.213 0.478,-0.206 0.49,-0.191C0.501,-0.175 0.511,-0.156 0.52,-0.132C0.529,-0.107 0.534,-0.088 0.534,-0.075C0.534,-0.049 0.514,-0.028 0.474,-0.013C0.434,0.002 0.387,0.01 0.332,0.01C0.244,0.01 0.172,-0.021 0.115,-0.083C0.058,-0.145 0.03,-0.233 0.03,-0.346C0.03,-0.459 0.059,-0.547 0.118,-0.612C0.176,-0.677 0.249,-0.709 0.336,-0.709Z" style="fill:rgb(189,73,139);fill-rule:nonzero;"/>
        </g>
        <g transform="matrix(258.126,0,0,245.726,681.275,619.798)">
            <path d="M0.275,-0.006C0.275,0.002 0.247,0.006 0.191,0.006C0.124,0.003 0.091,-0.001 0.091,-0.007L0.091,-0.361L0.04,-0.361C0.027,-0.361 0.02,-0.384 0.02,-0.43C0.02,-0.442 0.021,-0.457 0.024,-0.474C0.026,-0.491 0.031,-0.5 0.038,-0.5L0.091,-0.5L0.091,-0.588C0.091,-0.601 0.119,-0.608 0.176,-0.608C0.232,-0.608 0.26,-0.603 0.26,-0.592L0.26,-0.528L0.261,-0.5L0.346,-0.5C0.357,-0.5 0.363,-0.477 0.363,-0.43C0.363,-0.383 0.357,-0.36 0.346,-0.36L0.275,-0.36L0.275,-0.006Z" style="fill:rgb(189,73,139);fill-rule:nonzero;"/>
        </g>
    </g>
    <g transform="matrix(0.991364,0,0,0.991364,-69.801,-26.102)">
        <g transform="matrix(258.126,0,0,245.726,390.883,619.798)">
            <path d="M0.336,-0.709C0.385,-0.709 0.428,-0.702 0.465,-0.689C0.502,-0.675 0.52,-0.656 0.52,-0.633C0.52,-0.61 0.511,-0.581 0.494,-0.547C0.476,-0.512 0.461,-0.495 0.449,-0.495C0.446,-0.495 0.442,-0.497 0.438,-0.501C0.433,-0.504 0.423,-0.508 0.408,-0.513C0.392,-0.517 0.378,-0.519 0.367,-0.519C0.328,-0.519 0.297,-0.505 0.274,-0.478C0.25,-0.451 0.238,-0.409 0.238,-0.353C0.238,-0.296 0.25,-0.254 0.275,-0.227C0.299,-0.2 0.33,-0.186 0.367,-0.186C0.382,-0.186 0.4,-0.188 0.419,-0.193C0.438,-0.197 0.451,-0.203 0.459,-0.211C0.46,-0.212 0.463,-0.213 0.467,-0.213C0.471,-0.213 0.478,-0.206 0.49,-0.191C0.501,-0.175 0.511,-0.156 0.52,-0.132C0.529,-0.107 0.534,-0.088 0.534,-0.075C0.534,-0.049 0.514,-0.028 0.474,-0.013C0.434,0.002 0.387,0.01 0.332,0.01C0.244,0.01 0.172,-0.021 0.115,-0.083C0.058,-0.145 0.03,-0.233 0.03,-0.346C0.03,-0.459 0.059,-0.547 0.118,-0.612C0.176,-0.677 0.249,-0.709 0.336,-0.709Z" style="fill:rgb(163,217,255);fill-rule:nonzero;"/>
        </g>
        <g transform="matrix(258.126,0,0,245.726,681.275,619.798)">
            <path d="M0.275,-0.006C0.275,0.002 0.247,0.006 0.191,0.006C0.124,0.003 0.091,-0.001 0.091,-0.007L0.091,-0.361L0.04,-0.361C0.027,-0.361 0.02,-0.384 0.02,-0.43C0.02,-0.442 0.021,-0.457 0.024,-0.474C0.026,-0.491 0.031,-0.5 0.038,-0.5L0.091,-0.5L0.091,-0.588C0.091,-0.601 0.119,-0.608 0.176,-0.608C0.232,-0.608 0.26,-0.603 0.26,-0.592L0.26,-0.528L0.261,-0.5L0.346,-0.5C0.357,-0.5 0.363,-0.477 0.363,-0.43C0.363,-0.383 0.357,-0.36 0.346,-0.36L0.275,-0.36L0.275,-0.006Z" style="fill:rgb(163,217,255);fill-rule:nonzero;"/>
        </g>
    </g>
</svg>
