<svg width="1125" height="676" viewBox="0 0 1125 676" fill="none" xmlns="http://www.w3.org/2000/svg">
<path d="M223.389 320.744C223.389 320.744 237.609 314.31 238.181 314.222" stroke="black" stroke-width="17.4417" stroke-miterlimit="1.22093" stroke-linecap="round" stroke-linejoin="round"/>
<path d="M223.089 307.424C222.956 307.27 236.775 307.971 236.278 308.051" stroke="black" stroke-width="15.5039" stroke-miterlimit="1.22093" stroke-linecap="round" stroke-linejoin="round"/>
<path fill-rule="evenodd" clip-rule="evenodd" d="M192.789 237.383C198.854 244.42 203.681 239.656 204.142 238.378C204.543 237.476 211.581 222.137 227.281 211.986C232.868 208.373 240.87 204.198 248.621 202.838C260.713 200.715 269.732 200.856 277.983 201.965C282.451 202.566 279.369 204.061 282.76 205.41C286.07 210.583 290.875 214.364 294.046 221.184C298.007 229.707 301.505 235.059 302.9 239.046C306.1 248.189 304.974 249.343 305.958 252.926C308.53 262.296 309.121 275.088 307.645 282.234C305.598 292.143 305.419 293.23 301.972 295.042C296.837 297.739 298.175 283.468 298.175 283.468C298.296 282.778 295.655 264.144 291.67 264.924C287.685 265.705 277.47 278.838 277.47 278.838C272.097 275.671 259.112 279.144 259.296 278.845C259.481 278.545 248.949 261.525 246.356 263.818C243.764 266.111 242.968 285.395 242.968 285.395C242.968 285.395 230.425 297.806 230.149 307.63C229.87 317.557 233.011 325.653 237.019 328.043C245.732 335.206 271.95 338.685 292.75 333.422C293.944 333.033 308.668 326.468 311.783 325.333C311.783 325.333 322.846 324.056 325.379 326.76C327.871 329.418 306.049 344.826 306.31 343.309C298.414 350.57 260.38 352.662 240.349 341.026C223.133 331.026 179.996 303.784 192.789 237.383Z" fill="#D4B6C7"/>
<path fill-rule="evenodd" clip-rule="evenodd" d="M188.532 309.964C187.759 307.347 189.255 304.594 191.872 303.821C194.489 303.047 197.242 304.544 198.016 307.161C204.314 328.469 228.777 343.971 247.062 350.559C267.182 357.809 282.585 357.792 292.536 355.026C297.899 353.536 301.514 351.489 302.762 349.309C304.118 346.942 307.142 346.12 309.51 347.477C311.878 348.833 312.699 351.857 311.343 354.225C309.742 357.02 306.229 360.241 300.627 362.653C289.866 367.286 270.421 369.487 243.71 359.863C222.939 352.379 195.687 334.17 188.532 309.964Z" fill="#BD498B"/>
<mask id="mask0_0_1" style="mask-type:luminance" maskUnits="userSpaceOnUse" x="134" y="137" width="204" height="235">
<path d="M302.452 371.305L134.223 342.505L169.322 137.477L337.552 166.278L302.452 371.305Z" fill="white"/>
</mask>
<g mask="url(#mask0_0_1)">
<path fill-rule="evenodd" clip-rule="evenodd" d="M345.573 309.406C321.099 347.922 268.938 358.672 229.162 333.399C189.387 308.125 176.963 256.336 201.437 217.82C225.91 179.305 277.435 169.273 317.21 194.547C356.985 219.821 370.046 270.891 345.573 309.406Z" stroke="#A3D9FF" stroke-width="26.3898" stroke-miterlimit="1.5" stroke-linecap="round" stroke-linejoin="round"/>
</g>
<path fill-rule="evenodd" clip-rule="evenodd" d="M245.631 279.322C245.802 278.782 247.045 274.851 247.358 272.456C247.472 271.586 247.363 271.49 246.505 271.277C247.013 271.26 247.472 270.948 247.973 270.872C249.771 270.598 251.014 271.542 251.228 271.704C255.524 274.968 255.325 275.159 259.296 278.845C260.01 278.751 272.92 276.157 277.47 278.838C277.114 278.884 277.154 278.939 273.205 280.199C283.766 276.381 282.786 274.798 284.649 272.914L285.034 272.308C286.008 280.034 278.276 278.386 278.211 278.184C278.004 277.539 282.305 274.348 281.945 270.287C279.828 246.469 271.978 243.146 268.675 241.419C262.93 238.415 252.603 240.3 250.193 242.064C248.614 243.22 243.893 248.974 242.915 254.096C241.089 263.659 245.308 279.049 245.631 279.322Z" fill="white"/>
<path d="M282.427 311.106C282.415 311.156 291.962 309.655 294.596 310.771" stroke="black" stroke-width="17.4417" stroke-miterlimit="1.22093" stroke-linecap="round" stroke-linejoin="round"/>
<path d="M279.617 316.68C279.617 316.68 283.587 317.437 291.72 323.131" stroke="black" stroke-width="17.4417" stroke-miterlimit="1.22093" stroke-linecap="round" stroke-linejoin="round"/>
<path d="M275.981 200.392C287.027 209.824 298.301 230.738 301.951 246.063C307.342 268.688 308.537 295.283 301.976 301.363" stroke="#BD498B" stroke-width="7.00121" stroke-miterlimit="1.22093" stroke-linecap="round" stroke-linejoin="round"/>
<path d="M247.725 282.281C246.203 283.393 235.779 291.555 231.551 300.342C229.656 304.28 229.688 311.31 229.841 313.271C230.476 321.405 241.584 328.223 245.367 327.977" stroke="white" stroke-width="6.97911" stroke-miterlimit="1.5" stroke-linecap="round" stroke-linejoin="round"/>
<path fill-rule="evenodd" clip-rule="evenodd" d="M203.546 251.777C203.102 239.56 222.692 183.322 286.152 186.421C307.277 187.452 324.853 194.956 332.489 203.391C341.44 213.277 345.332 230.046 342.701 231.487C340.642 232.613 338.689 232.284 338.335 232.263C334.365 232.024 327.651 224.97 325.511 223.631C316.963 218.277 306.68 204.165 282.278 201.742C274.74 200.994 247.286 200.431 228.472 217.081C216.201 227.941 209.883 245.473 203.546 251.777Z" fill="#BD498B" stroke="#BD498B" stroke-width="0.999952" stroke-miterlimit="2" stroke-linejoin="round"/>
<path d="M244.734 285.334C244.945 285.534 244.334 267.708 246.286 264.807C248.224 261.925 259.481 278.545 259.296 278.845C259.16 279.065 261.639 278.278 267.483 278.559C269.586 278.66 274.807 279.56 276.253 279.544C277.142 279.821 287.869 265.762 291.67 264.924C295.636 264.051 297.561 283.146 298.175 283.468C301.554 285.238 311.115 292.01 313.355 307.262C313.973 311.476 313.948 315.396 313.452 317.927C312.751 321.489 309.443 324.619 307.837 326.146C302.53 331.198 295.105 332.655 292.75 333.422" stroke="#BD498B" stroke-width="4.62704" stroke-miterlimit="1.5" stroke-linecap="round" stroke-linejoin="round"/>
<path fill-rule="evenodd" clip-rule="evenodd" d="M244.264 287.025C244.264 287.025 243.541 266.418 246.134 264.126C248.727 261.833 259.481 278.545 259.296 278.845C259.112 279.144 271.931 278.503 277.304 281.67C277.304 281.67 287.685 265.704 291.67 264.924C295.655 264.144 299.287 282.679 299.631 283.286C299.976 283.894 308.032 288.879 312.299 307.448C313.576 313.011 311.29 319.278 309.473 321.997C305.265 328.29 296.079 331.914 294.048 333.007C292.175 334.016 282.101 337.305 265.739 336.21C242.23 334.633 236.681 327.604 234.914 325.579C234.196 324.756 233.801 324.161 233.05 323.384C231.215 321.487 229.984 318.811 229.551 314.715C229.371 313.018 229.329 311.076 229.437 308.845C229.58 305.913 230.615 302.664 231.996 299.549C235.238 292.236 244.264 287.025 244.264 287.025Z" fill="white"/>
<path fill-rule="evenodd" clip-rule="evenodd" d="M239.281 286.584C239.281 286.584 240.203 285.182 240.802 284.086C242.384 281.191 241.33 275.531 242.22 269.975C242.827 266.187 244.179 263.691 245.048 262.922C245.681 262.362 246.891 262.972 248.354 264.218C252.881 268.073 259.84 278.014 259.7 278.241C259.601 278.403 262.885 277.867 266.775 277.838C270.093 277.813 273.851 278.156 276.324 279.614C276.324 279.614 288.441 265.096 292.425 264.316C296.41 263.535 299.384 282.355 299.771 283.148C300.078 283.776 308.695 288.635 313.972 306.942C306.657 313.107 299.001 313.202 298.264 313.321C292.376 314.267 281.41 313.719 276.042 312.195C259.878 307.605 258.084 297.415 257.599 295.179C255.143 299.658 251.276 306.476 240.922 308.538C236.089 309.5 231.142 310.23 229.002 309.91C228.988 308.315 229.155 306.711 229.474 305.13C230.282 301.113 231.853 297.136 234.123 293.931C236.155 291.063 239.099 286.934 239.281 286.584Z" fill="#BD498B"/>
<path fill-rule="evenodd" clip-rule="evenodd" d="M308.284 327.228C308.288 327.208 308.293 327.19 308.297 327.172L308.627 326.253L309.14 325.466L310.106 324.658L310.11 324.656C310.471 324.024 311.098 323.013 311.629 322.62L313.034 321.941L314.585 321.814C316.394 321.98 320.805 320.922 324.777 321.031C328.522 321.132 331.876 322.239 333.791 324.749C338.19 330.517 335.597 336.898 329.635 341.958C324.458 346.35 316.853 349.689 311.686 350.525C308.576 351.028 306.132 350.525 304.809 349.56C303.404 348.535 302.418 346.296 302.587 343.244C302.829 338.918 305.053 332.451 306.528 329.537C306.936 328.73 307.325 328.134 307.616 327.783L308.284 327.228ZM310.932 324.372L311.39 324.213C311.244 324.235 311.088 324.294 310.932 324.372ZM311.446 326.621L312.049 326.889C311.838 326.76 311.637 326.675 311.446 326.621ZM312.744 330.334L312.309 330.485C312.451 330.464 312.599 330.41 312.744 330.334ZM308.982 344.344C309.58 344.342 310.508 344.311 311.251 344.163C314.459 343.525 318.593 341.823 322.197 339.551C325.018 337.773 327.54 335.664 328.861 333.361C329.75 331.811 329.951 330.164 328.752 328.593C328.324 328.032 327.632 327.796 326.882 327.623C325.636 327.336 324.215 327.321 322.805 327.394C320.019 327.537 317.26 327.982 315.401 328.111C315.173 328.527 314.898 328.984 314.68 329.22L314.336 329.496C314.263 329.937 314.166 330.432 314.07 330.671L313.593 331.519L312.969 332.161L312.168 332.607C311.444 334.308 309.805 338.342 309.229 341.284C309.037 342.266 308.991 343.591 308.982 344.344ZM309.554 332.658L308.763 332.308C309.013 332.46 309.277 332.579 309.554 332.658Z" fill="#BD498B"/>
<path fill-rule="evenodd" clip-rule="evenodd" d="M311.548 326.243C312.22 325.765 312.781 325.619 313.16 325.736C316.169 326.664 327.028 322.75 329.724 329.773C330.509 331.816 330.884 333.185 329.908 335.05C325.072 344.298 310.788 349.275 306.676 346.999C303.789 345.401 301.174 331.947 301.229 331.941C302.47 331.805 309.384 327.777 311.548 326.243Z" fill="#A3D9FF"/>
<path fill-rule="evenodd" clip-rule="evenodd" d="M331.774 189.638C332.303 189.545 332.617 189.532 332.826 189.646C335.127 190.907 346.18 198.841 345.548 206.006C344.802 214.472 339.374 209.817 332.262 203.619C328.945 200.728 325.258 196.877 321.495 194.475C319.493 193.197 328.827 191.695 328.861 191.667C329.735 190.954 330.498 189.864 331.774 189.638Z" fill="#A3D9FF"/>
<path fill-rule="evenodd" clip-rule="evenodd" d="M294.242 186.551C292.181 186.52 290.532 184.821 290.562 182.76C290.593 180.697 292.293 179.049 294.354 179.08C309.2 179.303 327.701 190.466 343.923 203.344C345.538 204.626 345.808 206.978 344.526 208.593C343.244 210.208 340.892 210.478 339.278 209.197C324.46 197.434 307.801 186.755 294.242 186.551Z" fill="#A3D9FF"/>
<path d="M299.577 334.167C299.577 334.167 306.706 334.38 309.267 335.545C320.255 340.54 308.036 358.096 300.47 359.723" stroke="#BD498B" stroke-width="5.14435" stroke-miterlimit="1.22093" stroke-linecap="round" stroke-linejoin="round"/>
<path fill-rule="evenodd" clip-rule="evenodd" d="M283.774 337.167C285.699 335.359 292.951 334.2 299.2 334.46C303.048 334.62 306.58 335.74 308.063 336.319C309.472 336.868 310.041 337.701 310.767 338.956C312.584 342.095 310.965 345.72 308.541 350.008C306.392 353.811 301.613 357.428 299.184 357.354C294.236 357.204 267.517 345.962 283.774 337.167Z" fill="#A3D9FF"/>
<path d="M256.398 308.671C256.423 308.634 256.447 308.598 256.472 308.561" stroke="#D53F77" stroke-width="3.42" stroke-miterlimit="1.5" stroke-linecap="round" stroke-linejoin="round"/>
<path d="M242.806 305.75L242.817 305.773" stroke="#A3D9FF" stroke-width="3.42" stroke-miterlimit="1.5" stroke-linecap="round" stroke-linejoin="round"/>
<path d="M242.786 305.687C242.919 305.584 243.051 305.483 243.184 305.38" stroke="#A3D9FF" stroke-width="8.75" stroke-miterlimit="1.5" stroke-linecap="round" stroke-linejoin="round"/>
<path d="M271.702 306.42L271.575 306.414" stroke="#A3D9FF" stroke-width="9.03" stroke-miterlimit="1.5" stroke-linecap="round" stroke-linejoin="round"/>
<path d="M385.368 347.939V181.869C385.368 178.131 394.961 176.262 414.148 176.262C433.053 176.262 442.647 178.131 442.647 181.869V312.696H486.099C489.485 312.696 491.743 316.968 493.154 325.245C493.718 329.25 494 333.522 494 337.794C494 342.066 493.718 346.337 493.154 350.876C491.743 359.42 489.203 363.692 485.817 363.692H398.912C394.679 363.692 391.575 362.09 389.036 358.886C386.496 355.682 385.368 351.944 385.368 347.939Z" fill="#BD498B"/>
<path d="M625.212 349.308C613.93 355.663 599.424 358.713 581.695 358.713C563.966 358.713 548.924 352.867 536.836 341.429C524.748 330.245 518.569 314.231 518.569 293.897C518.569 273.816 524.479 257.548 536.298 245.093C547.849 232.639 562.623 226.538 580.621 226.538C598.619 226.538 612.318 230.859 622.257 239.501C631.928 248.144 636.763 258.565 636.763 271.02C636.763 298.472 620.108 312.198 586.799 312.198H568.264C568.264 317.281 569.876 320.84 572.831 322.619C575.786 324.653 580.084 325.669 585.725 325.669C598.35 325.669 610.169 322.873 621.451 317.536C621.451 317.536 622.526 318.552 623.869 321.094C628.167 328.465 630.316 334.566 630.316 339.395C630.316 344.479 628.704 347.783 625.212 349.308ZM591.634 275.85C591.634 268.732 587.874 265.174 580.621 265.174C577.129 265.174 574.443 266.191 572.025 267.97C569.607 270.003 568.264 272.799 568.264 276.612V284.492H582.77C588.68 284.492 591.634 281.696 591.634 275.85Z" fill="#BD498B"/>
<path d="M686.917 267.567C681.888 259.302 679.505 252.289 679.505 247.029C679.505 241.77 681.094 238.513 684.005 237.011C694.064 232.753 707.828 230.749 725.562 230.749C743.032 230.749 755.472 234.506 762.619 242.27C769.766 250.285 773.471 261.556 773.471 276.835V316.408H782.471C785.383 316.408 787.765 318.161 789.618 321.418C791.206 324.674 792 329.432 792 335.193C792 340.954 790.412 346.715 787.5 352.475C784.324 358.236 780.089 360.991 774.795 360.991C765.266 360.991 757.59 358.486 751.767 353.728C749.12 351.724 747.002 349.219 745.679 346.464C737.473 356.232 725.033 360.991 707.828 360.991C694.858 360.991 684.005 356.733 675.27 347.967C666.535 339.201 662.036 328.932 662.036 317.16C662.036 289.859 679.241 276.334 713.651 276.334H728.209V273.829C728.209 269.571 727.415 266.566 726.091 265.313C724.503 264.061 721.062 263.56 715.504 263.56C708.886 263.56 699.357 264.812 686.917 267.567ZM708.092 313.653C708.092 317.41 709.151 320.165 711.269 321.918C713.386 323.922 716.033 324.924 719.474 324.924C722.65 324.924 725.562 323.672 728.209 321.167V301.881H720.798C712.327 301.881 708.092 305.889 708.092 313.653Z" fill="#BD498B"/>
<path d="M879.575 360.088C879.575 361.519 870.499 362.092 852.043 362.092C833.587 361.805 824.51 360.947 824.51 359.801V264.752H816.341C813.013 264.752 810.592 262.748 808.777 259.026C806.659 255.304 805.751 250.723 805.751 245.284C805.751 224.671 812.105 214.364 825.115 214.364C834.192 214.364 841.756 216.941 847.807 222.094C853.858 227.534 856.884 233.546 856.884 240.131C861.119 232.401 866.868 226.102 874.129 221.235C881.088 216.654 888.349 214.364 895.913 214.364C907.713 214.364 914.672 217.227 917.092 222.953C917.697 224.384 918 226.675 918 229.538C918 232.687 917.092 237.84 915.277 245.57C913.159 253.3 911.344 258.74 909.226 262.175C907.108 265.611 905.595 267.328 905.595 267.328C905.595 267.328 903.477 266.47 900.149 265.038C896.821 263.607 893.795 263.034 891.072 263.034C883.509 263.034 879.575 268.76 879.575 280.212V360.088Z" fill="#BD498B"/>
<path d="M379 340.531V175.206C379 171.485 388.55 169.624 407.651 169.624C426.472 169.624 436.022 171.485 436.022 175.206V305.446H479.28C482.651 305.446 484.898 309.699 486.303 317.939C486.864 321.926 487.145 326.178 487.145 330.431C487.145 334.684 486.864 338.937 486.303 343.455C484.898 351.961 482.37 356.213 478.999 356.213H392.483C388.27 356.213 385.18 354.619 382.652 351.429C380.124 348.239 379 344.518 379 340.531Z" fill="#A3D9FF"/>
<path d="M618.165 342.219C606.933 348.545 592.493 351.582 574.843 351.582C557.194 351.582 542.218 345.762 530.184 334.375C518.151 323.241 512 307.3 512 287.056C512 267.066 517.883 250.871 529.65 238.472C541.149 226.073 555.856 220 573.773 220C591.69 220 605.329 224.302 615.223 232.905C624.85 241.509 629.664 251.883 629.664 264.282C629.664 291.611 613.084 305.275 579.924 305.275H561.472C561.472 310.336 563.077 313.879 566.018 315.65C568.96 317.674 573.239 318.686 578.854 318.686C591.423 318.686 603.189 315.903 614.421 310.589C614.421 310.589 615.491 311.601 616.828 314.132C621.106 321.47 623.246 327.543 623.246 332.351C623.246 337.412 621.641 340.701 618.165 342.219ZM584.738 269.09C584.738 262.005 580.994 258.462 573.773 258.462C570.297 258.462 567.623 259.475 565.216 261.246C562.809 263.27 561.472 266.054 561.472 269.849V277.694H575.913C581.796 277.694 584.738 274.91 584.738 269.09Z" fill="#A3D9FF"/>
<path d="M679.77 260.96C674.763 252.732 672.391 245.75 672.391 240.514C672.391 235.278 673.972 232.036 676.871 230.54C686.884 226.301 700.587 224.307 718.242 224.307C735.633 224.307 748.018 228.047 755.133 235.776C762.247 243.755 765.936 254.976 765.936 270.185V309.581H774.896C777.794 309.581 780.166 311.327 782.01 314.568C783.591 317.81 784.382 322.547 784.382 328.282C784.382 334.017 782.801 339.752 779.902 345.487C776.74 351.221 772.524 353.964 767.254 353.964C757.768 353.964 750.126 351.471 744.329 346.733C741.694 344.738 739.586 342.245 738.268 339.502C730.099 349.227 717.715 353.964 700.587 353.964C687.675 353.964 676.871 349.725 668.175 340.998C659.48 332.271 655 322.048 655 310.329C655 283.151 672.128 269.687 706.384 269.687H720.877V267.193C720.877 262.955 720.086 259.962 718.769 258.716C717.188 257.469 713.762 256.97 708.228 256.97C701.641 256.97 692.154 258.217 679.77 260.96ZM700.85 306.839C700.85 310.579 701.904 313.321 704.012 315.067C706.12 317.062 708.755 318.059 712.181 318.059C715.343 318.059 718.242 316.812 720.877 314.319V295.12H713.498C705.066 295.12 700.85 299.109 700.85 306.839Z" fill="#A3D9FF"/>
<path d="M870.493 352.07C870.493 353.495 861.457 354.065 843.084 354.065C824.71 353.78 815.674 352.925 815.674 351.785V257.162H807.542C804.229 257.162 801.819 255.167 800.012 251.461C797.904 247.756 797 243.196 797 237.781C797 217.26 803.325 207 816.277 207C825.313 207 832.843 209.565 838.867 214.695C844.891 220.11 847.903 226.096 847.903 232.651C852.12 224.956 857.842 218.685 865.071 213.84C871.999 209.28 879.228 207 886.758 207C898.505 207 905.432 209.85 907.842 215.55C908.444 216.975 908.745 219.255 908.745 222.105C908.745 225.241 907.842 230.371 906.035 238.066C903.926 245.761 902.119 251.176 900.011 254.596C897.902 258.017 896.396 259.727 896.396 259.727C896.396 259.727 894.288 258.872 890.975 257.447C887.661 256.022 884.649 255.452 881.939 255.452C874.408 255.452 870.493 261.152 870.493 272.552V352.07Z" fill="#A3D9FF"/>
<path d="M444.581 419.712C457.229 419.712 468.328 421.432 477.879 424.627C487.43 428.067 492.076 432.736 492.076 438.388C492.076 444.039 489.753 451.165 485.365 459.52C480.718 468.12 476.847 472.298 473.749 472.298C472.975 472.298 471.942 471.806 470.91 470.823C469.619 470.086 467.038 469.103 463.166 467.875C459.036 466.892 455.422 466.4 452.583 466.4C442.516 466.4 434.514 469.841 428.577 476.475C422.382 483.11 419.284 493.43 419.284 507.191C419.284 521.197 422.382 531.518 428.835 538.152C435.03 544.787 443.032 548.227 452.583 548.227C456.455 548.227 461.101 547.736 466.005 546.507C470.91 545.524 474.265 544.05 476.33 542.084C476.33 542.084 477.363 541.592 478.395 541.592C479.428 541.592 481.235 543.313 484.332 546.998C487.172 550.93 489.753 555.599 492.076 561.496C494.399 567.639 495.69 572.308 495.69 575.503C495.69 581.892 490.527 587.052 480.202 590.738C469.877 594.424 457.745 596.389 443.548 596.389C420.833 596.389 402.248 588.772 387.535 573.537C372.822 558.302 365.594 536.678 365.594 508.911C365.594 481.144 373.08 459.52 388.309 443.548C403.281 427.576 422.124 419.712 444.581 419.712Z" fill="#BD498B"/>
<path d="M771.935 592.871C771.935 595.073 763.837 596.174 747.642 596.174C728.265 595.348 718.721 594.247 718.721 592.595V495.135H703.972C700.212 495.135 698.188 488.802 698.188 476.138C698.188 472.834 698.477 468.705 699.345 464.024C699.923 459.344 701.369 456.866 703.393 456.866H718.721V432.639C718.721 429.06 726.819 427.133 743.304 427.133C759.499 427.133 767.597 428.509 767.597 431.538V449.158L767.886 456.866H792.469C795.65 456.866 797.385 463.198 797.385 476.138C797.385 489.078 795.65 495.41 792.469 495.41H771.935V592.871Z" fill="#BD498B"/>
<path d="M442.304 413C454.843 413 465.847 414.705 475.315 417.872C484.783 421.283 489.389 425.911 489.389 431.514C489.389 437.117 487.086 444.181 482.736 452.464C478.13 460.99 474.292 465.131 471.221 465.131C470.453 465.131 469.429 464.644 468.406 463.67C467.126 462.939 464.567 461.964 460.729 460.746C456.635 459.772 453.052 459.285 450.237 459.285C440.257 459.285 432.324 462.695 426.439 469.273C420.297 475.85 417.227 486.081 417.227 499.723C417.227 513.608 420.297 523.84 426.695 530.417C432.836 536.994 440.769 540.405 450.237 540.405C454.076 540.405 458.682 539.918 463.544 538.7C468.406 537.725 471.733 536.264 473.78 534.315C473.78 534.315 474.803 533.828 475.827 533.828C476.85 533.828 478.642 535.533 481.713 539.187C484.527 543.084 487.086 547.713 489.389 553.559C491.693 559.65 492.972 564.278 492.972 567.445C492.972 573.779 487.854 578.894 477.618 582.548C467.382 586.202 455.355 588.151 441.281 588.151C418.762 588.151 400.337 580.599 385.751 565.496C371.165 550.393 364 528.955 364 501.428C364 473.901 371.421 452.464 386.519 436.63C401.361 420.795 420.041 413 442.304 413Z" fill="#A3D9FF"/>
<path d="M766.474 584.088C766.474 586.277 758.474 587.372 742.474 587.372C723.331 586.551 713.902 585.456 713.902 583.815V486.955H699.331C695.617 486.955 693.617 480.662 693.617 468.075C693.617 464.792 693.902 460.688 694.76 456.036C695.331 451.385 696.76 448.922 698.76 448.922H713.902V424.844C713.902 421.287 721.902 419.372 738.188 419.372C754.188 419.372 762.188 420.74 762.188 423.75V441.261L762.474 448.922H786.76C789.902 448.922 791.617 455.215 791.617 468.075C791.617 480.935 789.902 487.228 786.76 487.228H766.474V584.088Z" fill="#A3D9FF"/>
</svg>
