<?xml version="1.0" standalone="no"?>
<!DOCTYPE svg PUBLIC "-//W3C//DTD SVG 20010904//EN"
 "http://www.w3.org/TR/2001/REC-SVG-20010904/DTD/svg10.dtd">
<svg version="1.0" xmlns="http://www.w3.org/2000/svg"
 viewBox="0 0 2600.000000 2600.000000"
 preserveAspectRatio="xMidYMid meet">
<metadata>
Created by potrace 1.15, written by Peter Selinger 2001-2017
</metadata>
<g transform="translate(0.000000,2600.000000) scale(0.100000,-0.100000)"
fill="#000000" stroke="none">
<path d="M14890 18359 c-1544 -116 -2977 -875 -3948 -2092 -1188 -1489 -1533
-3471 -918 -5273 85 -249 159 -426 278 -668 54 -109 97 -200 96 -201 -10 -7
-155 -27 -263 -36 -534 -46 -1089 154 -1483 535 -167 161 -263 293 -398 547
-185 348 -341 566 -571 795 -826 825 -2069 1092 -3153 679 -81 -31 -249 -102
-258 -110 -3 -2 446 -926 453 -933 2 -2 36 11 77 29 117 51 261 97 397 126
118 26 143 28 376 28 222 0 263 -3 365 -23 376 -76 711 -250 979 -507 171
-164 275 -308 413 -570 103 -196 182 -323 292 -469 387 -511 925 -879 1553
-1061 243 -71 463 -105 734 -112 363 -10 656 32 1001 143 l108 35 32 -38 c97
-112 243 -265 384 -403 1466 -1430 3622 -1931 5583 -1298 1188 383 2223 1166
2924 2211 465 693 764 1471 886 2307 70 473 73 1014 11 1505 -90 702 -333
1431 -679 2035 -942 1641 -2593 2683 -4466 2820 -164 12 -639 11 -805 -1z
m-2200 -2944 c-1185 -1185 -2155 -2153 -2156 -2152 -2 1 4 55 12 118 57 468
185 930 375 1354 555 1244 1608 2194 2904 2620 258 84 574 155 875 195 74 10
137 19 140 19 3 1 -965 -969 -2150 -2154z m3407 2105 c159 -27 282 -54 443
-96 135 -36 446 -136 458 -148 3 -4 -1384 -1397 -3083 -3096 -1962 -1962
-3092 -3085 -3096 -3077 -4 6 -32 86 -62 177 -84 254 -156 553 -196 820 l-9
65 2686 2688 c2225 2225 2692 2687 2713 2687 15 0 80 -9 146 -20z m1808 -705
c201 -130 351 -244 546 -411 l95 -83 -3380 -3380 c-1860 -1860 -3386 -3381
-3391 -3380 -6 0 -41 36 -79 80 -158 183 -313 392 -440 592 l-69 109 3283
3283 c2995 2995 3286 3283 3304 3273 12 -6 71 -44 131 -83z m1254 -1175 c355
-473 640 -1067 790 -1650 96 -369 138 -677 147 -1060 l6 -245 -1023 1022
-1024 1023 510 510 c380 380 513 507 520 498 6 -7 39 -51 74 -98z m-420 -2704
l1234 -1234 -38 -149 c-46 -183 -136 -447 -213 -630 -62 -145 -192 -413 -202
-413 -3 0 -644 639 -1425 1420 l-1420 1420 410 410 c225 225 412 410 415 410
3 0 560 -555 1239 -1234z m-1130 -1620 l1474 -1474 -43 -54 c-206 -250 -476
-520 -728 -727 l-54 -44 -1479 1479 -1479 1479 407 407 c225 225 412 408 418
408 5 0 673 -663 1484 -1474z m-72 -2770 c-69 -39 -327 -158 -452 -208 -150
-60 -374 -133 -542 -177 l-150 -39 -1232 1232 c-677 677 -1231 1236 -1231
1241 0 5 183 193 407 417 l408 408 1422 -1422 1422 -1422 -52 -30z m-2179
-547 c-61 -9 -433 8 -590 26 -647 75 -1255 273 -1818 593 -139 79 -428 268
-528 347 l-74 58 508 508 509 509 1018 -1017 1017 -1018 -42 -6z"/>
</g>
</svg>
