<svg width="1727" height="552" viewBox="0 0 1727 552" fill="none" xmlns="http://www.w3.org/2000/svg">
<path d="M297 413.595C298.978 402.502 318.57 391.06 328.153 381.792C354.988 355.84 390.356 334.766 425.04 312.069C449.426 296.111 475.662 277.835 504.481 264.364C519.275 257.449 535.235 256.702 551.522 251.783C601.954 236.551 608.439 272.278 596.695 291.1C576.413 323.604 536.828 354.472 508.842 385.286C490.946 404.991 470.835 422.242 470.835 445.048C470.835 458.633 504.248 448.766 515.696 445.048C589.157 421.193 630.124 362.02 668.347 323.078C699.418 291.423 734.331 261.106 765.546 229.59C779.69 215.309 798.361 206 826.918 206C864.362 206 857.759 248.973 857.759 260.869C857.759 291.976 857.061 322.362 852.463 353.308C850.536 366.283 847.887 384.673 860.875 396.12C901.044 431.527 957.912 383.888 975.519 364.841C1003.37 334.708 1021.07 301.4 1054.03 272.752C1062.01 265.807 1081.69 250.603 1098.89 250.035C1116.96 249.439 1126.17 251.97 1126.92 263.316C1128.34 284.799 1126.92 306.48 1126.92 327.971C1126.92 346.38 1124.61 364.542 1132.53 382.316C1136.45 391.097 1158.89 419.221 1180.2 416.565C1189.77 415.372 1195.39 400.563 1199.82 396.12C1214.08 381.838 1224.36 366.478 1239.08 352.26C1264.78 327.43 1275.09 298.689 1300.45 273.8C1311.85 262.605 1321.42 254.696 1344.37 250.734C1358.93 248.222 1378.62 247.604 1379.27 257.025C1380.6 276.534 1380.95 299.655 1386.12 319.233C1391.02 337.779 1386.02 361.908 1400.45 378.996C1420.66 402.927 1470.77 398.831 1498.27 378.996C1539.5 349.26 1568.76 315.473 1626 294.07" stroke="#FBE3BF" stroke-opacity="0.9" stroke-width="200" stroke-linecap="round"/>
<path d="M7.5001 246C11.8765 255.378 20.1678 253.473 29.5 249C38.6989 244.591 46 228.75 46 228.75C46 228.75 62.9723 252.135 78.5001 261C88.2647 266.575 105.5 271 105.5 271C105.5 271 91.0001 305 93.5001 316C95.707 325.711 110.24 320.735 119 316C137.5 306 144.889 299.884 156 284.5C169 266.5 172.486 256.883 186 241.5C196.026 230.088 214 214.5 214 214.5C214 214.5 210.563 236.246 220 241.5C226.142 244.919 231.886 244.969 238 241.5C245.695 237.134 246.168 229.341 246.5 220.5C246.832 211.659 238.911 199.865 243.5 196C253 188 290.5 162.5 300.5 162.5C310.5 162.5 332.185 166.302 336 153.5C337.283 149.196 334.323 142.905 329.5 139C319 130.5 303 125.5 303 125.5C303 125.5 312.5 109 303 94.5C293.5 80 350 81.5 336 66C322 50.5 303 49.8113 295 48C279.765 44.5505 260.338 43.4327 238 44C209.279 44.7294 184.5 50.008 165.5 55.5C146.5 60.992 94.5001 88 78.5001 102.5C62.5 117 39.125 145 29.5 162.5C12.9445 192.601 0.500163 231 7.5001 246Z" fill="#FBE3BF"/>
<path d="M62.5 208.5L46 228.75M46 228.75C46 228.75 38.6989 244.591 29.5 249C20.1678 253.473 11.8765 255.378 7.5001 246C0.500163 231 12.9445 192.601 29.5 162.5C39.125 145 62.5 117 78.5001 102.5C94.5001 88 146.5 60.992 165.5 55.5C184.5 50.008 209.279 44.7294 238 44C260.338 43.4327 279.765 44.5505 295 48C303 49.8113 322 50.5 336 66C350 81.5 293.5 80 303 94.5C312.5 109 303 125.5 303 125.5C303 125.5 319 130.5 329.5 139C334.323 142.905 337.283 149.196 336 153.5C332.185 166.302 310.5 162.5 300.5 162.5C290.5 162.5 253 188 243.5 196C238.911 199.865 246.832 211.659 246.5 220.5C246.168 229.341 245.695 237.134 238 241.5C231.886 244.969 226.142 244.919 220 241.5C210.563 236.246 214 214.5 214 214.5C214 214.5 196.026 230.088 186 241.5C172.486 256.883 169 266.5 156 284.5C144.889 299.884 137.5 306 119 316C110.24 320.735 95.707 325.711 93.5001 316C91.0001 305 105.5 271 105.5 271C105.5 271 88.2647 266.575 78.5001 261C62.9723 252.135 46 228.75 46 228.75Z" stroke="#654747" stroke-width="10" stroke-linejoin="round"/>
<path d="M183.5 18.5C195.9 22.1 204 47 206.5 59" stroke="#654747" stroke-width="10" stroke-linejoin="round"/>
<path d="M183.5 18.5C195.9 22.1 204 47 206.5 59" stroke="#654747" stroke-width="10" stroke-linecap="round" stroke-linejoin="round"/>
<path d="M217.5 5C230 25 228.696 40.6667 230 54" stroke="#654747" stroke-width="10" stroke-linecap="round" stroke-linejoin="round"/>
<path d="M271 180.5C276 186.5 276.852 199.469 278 206M286 174C291 180 295.852 191.469 297 198" stroke="#654747" stroke-width="10" stroke-linecap="round" stroke-linejoin="round"/>
<path d="M157 106.834C174.2 100.434 197.5 111.911 202.5 123.834C209 139.334 205.076 161.021 197.5 167.334C188.5 174.834 171 171.334 174 158.834C174 158.834 176.133 151.216 177.5 146.334M177.5 131.834C177.5 131.834 181 139.834 177.5 146.334M177.5 146.334C165.5 139.334 150 146.334 150 146.334" stroke="#654747" stroke-width="10" stroke-linecap="round" stroke-linejoin="round"/>
<path d="M241.427 99.4957H236.427C236.427 101.229 237.325 102.838 238.799 103.749C240.273 104.66 242.113 104.743 243.663 103.968L241.427 99.4957ZM249.621 79.9889L245.202 82.3284L249.621 79.9889ZM250.573 90.456L255.142 92.4867L250.573 90.456ZM246.427 99.4957C246.427 99.4848 246.427 99.474 246.427 99.4631C246.427 99.4523 246.427 99.4415 246.427 99.4306C246.427 99.4198 246.427 99.4089 246.427 99.3981C246.427 99.3872 246.427 99.3764 246.427 99.3656C246.427 99.3547 246.427 99.3439 246.427 99.333C246.427 99.3222 246.427 99.3114 246.427 99.3005C246.427 99.2897 246.427 99.2788 246.427 99.268C246.427 99.2572 246.427 99.2463 246.427 99.2355C246.427 99.2246 246.427 99.2138 246.427 99.2029C246.427 99.1921 246.427 99.1813 246.427 99.1704C246.427 99.1596 246.427 99.1487 246.427 99.1379C246.427 99.1271 246.427 99.1162 246.427 99.1054C246.427 99.0945 246.427 99.0837 246.427 99.0729C246.427 99.062 246.427 99.0512 246.427 99.0403C246.427 99.0295 246.427 99.0186 246.427 99.0078C246.427 98.997 246.427 98.9861 246.427 98.9753C246.427 98.9644 246.427 98.9536 246.427 98.9428C246.427 98.9319 246.427 98.9211 246.427 98.9102C246.427 98.8994 246.427 98.8886 246.427 98.8777C246.427 98.8669 246.427 98.856 246.427 98.8452C246.427 98.8343 246.427 98.8235 246.427 98.8127C246.427 98.8018 246.427 98.791 246.427 98.7801C246.427 98.7693 246.427 98.7585 246.427 98.7476C246.427 98.7368 246.427 98.7259 246.427 98.7151C246.427 98.7043 246.427 98.6934 246.427 98.6826C246.427 98.6717 246.427 98.6609 246.427 98.65C246.427 98.6392 246.427 98.6284 246.427 98.6175C246.427 98.6067 246.427 98.5958 246.427 98.585C246.427 98.5742 246.427 98.5633 246.427 98.5525C246.427 98.5416 246.427 98.5308 246.427 98.52C246.427 98.5091 246.427 98.4983 246.427 98.4874C246.427 98.4766 246.427 98.4657 246.427 98.4549C246.427 98.4441 246.427 98.4332 246.427 98.4224C246.427 98.4115 246.427 98.4007 246.427 98.3899C246.427 98.379 246.427 98.3682 246.427 98.3573C246.427 98.3465 246.427 98.3357 246.427 98.3248C246.427 98.314 246.427 98.3031 246.427 98.2923C246.427 98.2814 246.427 98.2706 246.427 98.2598C246.427 98.2489 246.427 98.2381 246.427 98.2272C246.427 98.2164 246.427 98.2056 246.427 98.1947C246.427 98.1839 246.427 98.173 246.427 98.1622C246.427 98.1514 246.427 98.1405 246.427 98.1297C246.427 98.1188 246.427 98.108 246.427 98.0971C246.427 98.0863 246.427 98.0755 246.427 98.0646C246.427 98.0538 246.427 98.0429 246.427 98.0321C246.427 98.0213 246.427 98.0104 246.427 97.9996C246.427 97.9887 246.427 97.9779 246.427 97.9671C246.427 97.9562 246.427 97.9454 246.427 97.9345C246.427 97.9237 246.427 97.9128 246.427 97.902C246.427 97.8912 246.427 97.8803 246.427 97.8695C246.427 97.8586 246.427 97.8478 246.427 97.837C246.427 97.8261 246.427 97.8153 246.427 97.8044C246.427 97.7936 246.427 97.7827 246.427 97.7719C246.427 97.7611 246.427 97.7502 246.427 97.7394C246.427 97.7285 246.427 97.7177 246.427 97.7069C246.427 97.696 246.427 97.6852 246.427 97.6743C246.427 97.6635 246.427 97.6527 246.427 97.6418C246.427 97.631 246.427 97.6201 246.427 97.6093C246.427 97.5984 246.427 97.5876 246.427 97.5768C246.427 97.5659 246.427 97.5551 246.427 97.5442C246.427 97.5334 246.427 97.5226 246.427 97.5117C246.427 97.5009 246.427 97.49 246.427 97.4792C246.427 97.4684 246.427 97.4575 246.427 97.4467C246.427 97.4358 246.427 97.425 246.427 97.4141C246.427 97.4033 246.427 97.3925 246.427 97.3816C246.427 97.3708 246.427 97.3599 246.427 97.3491C246.427 97.3383 246.427 97.3274 246.427 97.3166C246.427 97.3057 246.427 97.2949 246.427 97.2841C246.427 97.2732 246.427 97.2624 246.427 97.2515C246.427 97.2407 246.427 97.2298 246.427 97.219C246.427 97.2082 246.427 97.1973 246.427 97.1865C246.427 97.1756 246.427 97.1648 246.427 97.154C246.427 97.1431 246.427 97.1323 246.427 97.1214C246.427 97.1106 246.427 97.0998 246.427 97.0889C246.427 97.0781 246.427 97.0672 246.427 97.0564C246.427 97.0455 246.427 97.0347 246.427 97.0239C246.427 97.013 246.427 97.0022 246.427 96.9913C246.427 96.9805 246.427 96.9697 246.427 96.9588C246.427 96.948 246.427 96.9371 246.427 96.9263C246.427 96.9155 246.427 96.9046 246.427 96.8938C246.427 96.8829 246.427 96.8721 246.427 96.8612C246.427 96.8504 246.427 96.8396 246.427 96.8287C246.427 96.8179 246.427 96.807 246.427 96.7962C246.427 96.7854 246.427 96.7745 246.427 96.7637C246.427 96.7528 246.427 96.742 246.427 96.7312C246.427 96.7203 246.427 96.7095 246.427 96.6986C246.427 96.6878 246.427 96.6769 246.427 96.6661C246.427 96.6553 246.427 96.6444 246.427 96.6336C246.427 96.6227 246.427 96.6119 246.427 96.6011C246.427 96.5902 246.427 96.5794 246.427 96.5685C246.427 96.5577 246.427 96.5469 246.427 96.536C246.427 96.5252 246.427 96.5143 246.427 96.5035C246.427 96.4926 246.427 96.4818 246.427 96.471C246.427 96.4601 246.427 96.4493 246.427 96.4384C246.427 96.4276 246.427 96.4168 246.427 96.4059C246.427 96.3951 246.427 96.3842 246.427 96.3734C246.427 96.3626 246.427 96.3517 246.427 96.3409C246.427 96.33 246.427 96.3192 246.427 96.3083C246.427 96.2975 246.427 96.2867 246.427 96.2758C246.427 96.265 246.427 96.2541 246.427 96.2433C246.427 96.2325 246.427 96.2216 246.427 96.2108C246.427 96.1999 246.427 96.1891 246.427 96.1783C246.427 96.1674 246.427 96.1566 246.427 96.1457C246.427 96.1349 246.427 96.124 246.427 96.1132C246.427 96.1024 246.427 96.0915 246.427 96.0807C246.427 96.0698 246.427 96.059 246.427 96.0482C246.427 96.0373 246.427 96.0265 246.427 96.0156C246.427 96.0048 246.427 95.994 246.427 95.9831C246.427 95.9723 246.427 95.9614 246.427 95.9506C246.427 95.9397 246.427 95.9289 246.427 95.9181C246.427 95.9072 246.427 95.8964 246.427 95.8855C246.427 95.8747 246.427 95.8639 246.427 95.853C246.427 95.8422 246.427 95.8313 246.427 95.8205C246.427 95.8097 246.427 95.7988 246.427 95.788C246.427 95.7771 246.427 95.7663 246.427 95.7554C246.427 95.7446 246.427 95.7338 246.427 95.7229C246.427 95.7121 246.427 95.7012 246.427 95.6904C246.427 95.6796 246.427 95.6687 246.427 95.6579C246.427 95.647 246.427 95.6362 246.427 95.6254C246.427 95.6145 246.427 95.6037 246.427 95.5928C246.427 95.582 246.427 95.5711 246.427 95.5603C246.427 95.5495 246.427 95.5386 246.427 95.5278C246.427 95.5169 246.427 95.5061 246.427 95.4953C246.427 95.4844 246.427 95.4736 246.427 95.4627C246.427 95.4519 246.427 95.4411 246.427 95.4302C246.427 95.4194 246.427 95.4085 246.427 95.3977C246.427 95.3868 246.427 95.376 246.427 95.3652C246.427 95.3543 246.427 95.3435 246.427 95.3326C246.427 95.3218 246.427 95.311 246.427 95.3001C246.427 95.2893 246.427 95.2784 246.427 95.2676C246.427 95.2568 246.427 95.2459 246.427 95.2351C246.427 95.2242 246.427 95.2134 246.427 95.2025C246.427 95.1917 246.427 95.1809 246.427 95.17C246.427 95.1592 246.427 95.1483 246.427 95.1375C246.427 95.1267 246.427 95.1158 246.427 95.105C246.427 95.0941 246.427 95.0833 246.427 95.0725C246.427 95.0616 246.427 95.0508 246.427 95.0399C246.427 95.0291 246.427 95.0182 246.427 95.0074C246.427 94.9966 246.427 94.9857 246.427 94.9749C246.427 94.964 246.427 94.9532 246.427 94.9424C246.427 94.9315 246.427 94.9207 246.427 94.9098C246.427 94.899 246.427 94.8881 246.427 94.8773C246.427 94.8665 246.427 94.8556 246.427 94.8448C246.427 94.8339 246.427 94.8231 246.427 94.8123C246.427 94.8014 246.427 94.7906 246.427 94.7797C246.427 94.7689 246.427 94.7581 246.427 94.7472C246.427 94.7364 246.427 94.7255 246.427 94.7147C246.427 94.7038 246.427 94.693 246.427 94.6822C246.427 94.6713 246.427 94.6605 246.427 94.6496C246.427 94.6388 246.427 94.628 246.427 94.6171C246.427 94.6063 246.427 94.5954 246.427 94.5846C246.427 94.5738 246.427 94.5629 246.427 94.5521C246.427 94.5412 246.427 94.5304 246.427 94.5195C246.427 94.5087 246.427 94.4979 246.427 94.487C246.427 94.4762 246.427 94.4653 246.427 94.4545C246.427 94.4437 246.427 94.4328 246.427 94.422C246.427 94.4111 246.427 94.4003 246.427 94.3895C246.427 94.3786 246.427 94.3678 246.427 94.3569C246.427 94.3461 246.427 94.3352 246.427 94.3244C246.427 94.3136 246.427 94.3027 246.427 94.2919C246.427 94.281 246.427 94.2702 246.427 94.2594C246.427 94.2485 246.427 94.2377 246.427 94.2268C246.427 94.216 246.427 94.2052 246.427 94.1943C246.427 94.1835 246.427 94.1726 246.427 94.1618C246.427 94.1509 246.427 94.1401 246.427 94.1293C246.427 94.1184 246.427 94.1076 246.427 94.0967C246.427 94.0859 246.427 94.0751 246.427 94.0642C246.427 94.0534 246.427 94.0425 246.427 94.0317C246.427 94.0209 246.427 94.01 246.427 93.9992C246.427 93.9883 246.427 93.9775 246.427 93.9666C246.427 93.9558 246.427 93.945 246.427 93.9341C246.427 93.9233 246.427 93.9124 246.427 93.9016C246.427 93.8908 246.427 93.8799 246.427 93.8691C246.427 93.8582 246.427 93.8474 246.427 93.8366C246.427 93.8257 246.427 93.8149 246.427 93.804C246.427 93.7932 246.427 93.7823 246.427 93.7715C246.427 93.7607 246.427 93.7498 246.427 93.739C246.427 93.7281 246.427 93.7173 246.427 93.7065C246.427 93.6956 246.427 93.6848 246.427 93.6739C246.427 93.6631 246.427 93.6523 246.427 93.6414C246.427 93.6306 246.427 93.6197 246.427 93.6089C246.427 93.598 246.427 93.5872 246.427 93.5764C246.427 93.5655 246.427 93.5547 246.427 93.5438C246.427 93.533 246.427 93.5222 246.427 93.5113C246.427 93.5005 246.427 93.4896 246.427 93.4788C246.427 93.468 246.427 93.4571 246.427 93.4463C246.427 93.4354 246.427 93.4246 246.427 93.4137C246.427 93.4029 246.427 93.3921 246.427 93.3812C246.427 93.3704 246.427 93.3595 246.427 93.3487C246.427 93.3379 246.427 93.327 246.427 93.3162C246.427 93.3053 246.427 93.2945 246.427 93.2837C246.427 93.2728 246.427 93.262 246.427 93.2511C246.427 93.2403 246.427 93.2294 246.427 93.2186C246.427 93.2078 246.427 93.1969 246.427 93.1861C246.427 93.1752 246.427 93.1644 246.427 93.1536C246.427 93.1427 246.427 93.1319 246.427 93.121C246.427 93.1102 246.427 93.0994 246.427 93.0885C246.427 93.0777 246.427 93.0668 246.427 93.056C246.427 93.0451 246.427 93.0343 246.427 93.0235C246.427 93.0126 246.427 93.0018 246.427 92.9909C246.427 92.9801 246.427 92.9693 246.427 92.9584C246.427 92.9476 246.427 92.9367 246.427 92.9259C246.427 92.9151 246.427 92.9042 246.427 92.8934C246.427 92.8825 246.427 92.8717 246.427 92.8608C246.427 92.85 246.427 92.8392 246.427 92.8283C246.427 92.8175 246.427 92.8066 246.427 92.7958C246.427 92.785 246.427 92.7741 246.427 92.7633C246.427 92.7524 246.427 92.7416 246.427 92.7308C246.427 92.7199 246.427 92.7091 246.427 92.6982C246.427 92.6874 246.427 92.6765 246.427 92.6657C246.427 92.6549 246.427 92.644 246.427 92.6332C246.427 92.6223 246.427 92.6115 246.427 92.6007C246.427 92.5898 246.427 92.579 246.427 92.5681C246.427 92.5573 246.427 92.5465 246.427 92.5356C246.427 92.5248 246.427 92.5139 246.427 92.5031C246.427 92.4922 246.427 92.4814 246.427 92.4706C246.427 92.4597 246.427 92.4489 246.427 92.438C246.427 92.4272 246.427 92.4164 246.427 92.4055C246.427 92.3947 246.427 92.3838 246.427 92.373C246.427 92.3622 246.427 92.3513 246.427 92.3405C246.427 92.3296 246.427 92.3188 246.427 92.3079C246.427 92.2971 246.427 92.2863 246.427 92.2754C246.427 92.2646 246.427 92.2537 246.427 92.2429C246.427 92.2321 246.427 92.2212 246.427 92.2104C246.427 92.1995 246.427 92.1887 246.427 92.1779C246.427 92.167 246.427 92.1562 246.427 92.1453C246.427 92.1345 246.427 92.1236 246.427 92.1128C246.427 92.102 246.427 92.0911 246.427 92.0803C246.427 92.0694 246.427 92.0586 246.427 92.0478C246.427 92.0369 246.427 92.0261 246.427 92.0152C246.427 92.0044 246.427 91.9936 246.427 91.9827C246.427 91.9719 246.427 91.961 246.427 91.9502C246.427 91.9393 246.427 91.9285 246.427 91.9177C246.427 91.9068 246.427 91.896 246.427 91.8851C246.427 91.8743 246.427 91.8635 246.427 91.8526C246.427 91.8418 246.427 91.8309 246.427 91.8201C246.427 91.8092 246.427 91.7984 246.427 91.7876C246.427 91.7767 246.427 91.7659 246.427 91.755C246.427 91.7442 246.427 91.7334 246.427 91.7225C246.427 91.7117 246.427 91.7008 246.427 91.69C246.427 91.6792 246.427 91.6683 246.427 91.6575C246.427 91.6466 246.427 91.6358 246.427 91.6249C246.427 91.6141 246.427 91.6033 246.427 91.5924C246.427 91.5816 246.427 91.5707 246.427 91.5599C246.427 91.5491 246.427 91.5382 246.427 91.5274C246.427 91.5165 246.427 91.5057 246.427 91.4949C246.427 91.484 246.427 91.4732 246.427 91.4623C246.427 91.4515 246.427 91.4406 246.427 91.4298C246.427 91.419 246.427 91.4081 246.427 91.3973C246.427 91.3864 246.427 91.3756 246.427 91.3648C246.427 91.3539 246.427 91.3431 246.427 91.3322C246.427 91.3214 246.427 91.3106 246.427 91.2997C246.427 91.2889 246.427 91.278 246.427 91.2672C246.427 91.2563 246.427 91.2455 246.427 91.2347C246.427 91.2238 246.427 91.213 246.427 91.2021C246.427 91.1913 246.427 91.1805 246.427 91.1696C246.427 91.1588 246.427 91.1479 246.427 91.1371C246.427 91.1263 246.427 91.1154 246.427 91.1046C246.427 91.0937 246.427 91.0829 246.427 91.072C246.427 91.0612 246.427 91.0504 246.427 91.0395C246.427 91.0287 246.427 91.0178 246.427 91.007C246.427 90.9962 246.427 90.9853 246.427 90.9745C246.427 90.9636 246.427 90.9528 246.427 90.942C246.427 90.9311 246.427 90.9203 246.427 90.9094C246.427 90.8986 246.427 90.8877 246.427 90.8769C246.427 90.8661 246.427 90.8552 246.427 90.8444C246.427 90.8335 246.427 90.8227 246.427 90.8119C246.427 90.801 246.427 90.7902 246.427 90.7793C246.427 90.7685 246.427 90.7577 246.427 90.7468C246.427 90.736 246.427 90.7251 246.427 90.7143C246.427 90.7034 246.427 90.6926 246.427 90.6818C246.427 90.6709 246.427 90.6601 246.427 90.6492C246.427 90.6384 246.427 90.6276 246.427 90.6167C246.427 90.6059 246.427 90.595 246.427 90.5842C246.427 90.5734 246.427 90.5625 246.427 90.5517C246.427 90.5408 246.427 90.53 246.427 90.5191C246.427 90.5083 246.427 90.4975 246.427 90.4866C246.427 90.4758 246.427 90.4649 246.427 90.4541C246.427 90.4433 246.427 90.4324 246.427 90.4216C246.427 90.4107 246.427 90.3999 246.427 90.3891C246.427 90.3782 246.427 90.3674 246.427 90.3565C246.427 90.3457 246.427 90.3348 246.427 90.324C246.427 90.3132 246.427 90.3023 246.427 90.2915C246.427 90.2806 246.427 90.2698 246.427 90.259C246.427 90.2481 246.427 90.2373 246.427 90.2264C246.427 90.2156 246.427 90.2048 246.427 90.1939C246.427 90.1831 246.427 90.1722 246.427 90.1614C246.427 90.1505 246.427 90.1397 246.427 90.1289C246.427 90.118 246.427 90.1072 246.427 90.0963C246.427 90.0855 246.427 90.0747 246.427 90.0638C246.427 90.053 246.427 90.0421 246.427 90.0313C246.427 90.0205 246.427 90.0096 246.427 89.9988C246.427 89.9879 246.427 89.9771 246.427 89.9662C246.427 89.9554 246.427 89.9446 246.427 89.9337C246.427 89.9229 246.427 89.912 246.427 89.9012C246.427 89.8904 246.427 89.8795 246.427 89.8687C246.427 89.8578 246.427 89.847 246.427 89.8362C246.427 89.8253 246.427 89.8145 246.427 89.8036C246.427 89.7928 246.427 89.7819 246.427 89.7711C246.427 89.7603 246.427 89.7494 246.427 89.7386C246.427 89.7277 246.427 89.7169 246.427 89.7061C246.427 89.6952 246.427 89.6844 246.427 89.6735C246.427 89.6627 246.427 89.6519 246.427 89.641C246.427 89.6302 246.427 89.6193 246.427 89.6085C246.427 89.5976 246.427 89.5868 246.427 89.576C246.427 89.5651 246.427 89.5543 246.427 89.5434C246.427 89.5326 246.427 89.5218 246.427 89.5109C246.427 89.5001 246.427 89.4892 246.427 89.4784C246.427 89.4676 246.427 89.4567 246.427 89.4459C246.427 89.435 246.427 89.4242 246.427 89.4133C246.427 89.4025 246.427 89.3917 246.427 89.3808C246.427 89.37 246.427 89.3591 246.427 89.3483C246.427 89.3375 246.427 89.3266 246.427 89.3158C246.427 89.3049 246.427 89.2941 246.427 89.2833C246.427 89.2724 246.427 89.2616 246.427 89.2507C246.427 89.2399 246.427 89.229 246.427 89.2182C246.427 89.2074 246.427 89.1965 246.427 89.1857C246.427 89.1748 246.427 89.164 246.427 89.1532C246.427 89.1423 246.427 89.1315 246.427 89.1206C246.427 89.1098 246.427 89.099 246.427 89.0881C246.427 89.0773 246.427 89.0664 246.427 89.0556C246.427 89.0447 246.427 89.0339 246.427 89.0231C246.427 89.0122 246.427 89.0014 246.427 88.9905C246.427 88.9797 246.427 88.9689 246.427 88.958C246.427 88.9472 246.427 88.9363 246.427 88.9255C246.427 88.9147 246.427 88.9038 246.427 88.893C246.427 88.8821 246.427 88.8713 246.427 88.8604C246.427 88.8496 246.427 88.8388 246.427 88.8279C246.427 88.8171 246.427 88.8062 246.427 88.7954C246.427 88.7846 246.427 88.7737 246.427 88.7629C246.427 88.752 246.427 88.7412 246.427 88.7303C246.427 88.7195 246.427 88.7087 246.427 88.6978C246.427 88.687 246.427 88.6761 246.427 88.6653C246.427 88.6545 246.427 88.6436 246.427 88.6328C246.427 88.6219 246.427 88.6111 246.427 88.6003C246.427 88.5894 246.427 88.5786 246.427 88.5677C246.427 88.5569 246.427 88.546 246.427 88.5352C246.427 88.5244 246.427 88.5135 246.427 88.5027C246.427 88.4918 246.427 88.481 246.427 88.4702C246.427 88.4593 246.427 88.4485 246.427 88.4376C246.427 88.4268 246.427 88.416 246.427 88.4051C246.427 88.3943 246.427 88.3834 246.427 88.3726C246.427 88.3617 246.427 88.3509 246.427 88.3401C246.427 88.3292 246.427 88.3184 246.427 88.3075C246.427 88.2967 246.427 88.2859 246.427 88.275C246.427 88.2642 246.427 88.2533 246.427 88.2425C246.427 88.2317 246.427 88.2208 246.427 88.21C246.427 88.1991 246.427 88.1883 246.427 88.1774C246.427 88.1666 246.427 88.1558 246.427 88.1449C246.427 88.1341 246.427 88.1232 246.427 88.1124C246.427 88.1016 246.427 88.0907 246.427 88.0799C246.427 88.069 246.427 88.0582 246.427 88.0474C246.427 88.0365 246.427 88.0257 246.427 88.0148C246.427 88.004 246.427 87.9931 246.427 87.9823C246.427 87.9715 246.427 87.9606 246.427 87.9498C246.427 87.9389 246.427 87.9281 246.427 87.9173C246.427 87.9064 246.427 87.8956 246.427 87.8847C246.427 87.8739 246.427 87.8631 246.427 87.8522C246.427 87.8414 246.427 87.8305 246.427 87.8197C246.427 87.8088 246.427 87.798 246.427 87.7872C246.427 87.7763 246.427 87.7655 246.427 87.7546C246.427 87.7438 246.427 87.733 246.427 87.7221C246.427 87.7113 246.427 87.7004 246.427 87.6896C246.427 87.6788 246.427 87.6679 246.427 87.6571C246.427 87.6462 246.427 87.6354 246.427 87.6245C246.427 87.6137 246.427 87.6029 246.427 87.592C246.427 87.5812 246.427 87.5703 246.427 87.5595C246.427 87.5487 246.427 87.5378 246.427 87.527C246.427 87.5161 246.427 87.5053 246.427 87.4945C246.427 87.4836 246.427 87.4728 246.427 87.4619C246.427 87.4511 246.427 87.4402 246.427 87.4294C246.427 87.4186 246.427 87.4077 246.427 87.3969C246.427 87.386 246.427 87.3752 246.427 87.3644C246.427 87.3535 246.427 87.3427 246.427 87.3318C246.427 87.321 246.427 87.3102 246.427 87.2993C246.427 87.2885 246.427 87.2776 246.427 87.2668C246.427 87.2559 246.427 87.2451 246.427 87.2343C246.427 87.2234 246.427 87.2126 246.427 87.2017C246.427 87.1909 246.427 87.1801 246.427 87.1692C246.427 87.1584 246.427 87.1475 246.427 87.1367C246.427 87.1259 246.427 87.115 246.427 87.1042C246.427 87.0933 246.427 87.0825 246.427 87.0716C246.427 87.0608 246.427 87.05 246.427 87.0391C246.427 87.0283 246.427 87.0174 246.427 87.0066C246.427 86.9958 246.427 86.9849 246.427 86.9741C246.427 86.9632 246.427 86.9524 246.427 86.9416C246.427 86.9307 246.427 86.9199 246.427 86.909C246.427 86.8982 246.427 86.8873 246.427 86.8765C246.427 86.8657 246.427 86.8548 246.427 86.844C246.427 86.8331 246.427 86.8223 246.427 86.8115C246.427 86.8006 246.427 86.7898 246.427 86.7789C246.427 86.7681 246.427 86.7573 246.427 86.7464C246.427 86.7356 246.427 86.7247 246.427 86.7139C246.427 86.703 246.427 86.6922 246.427 86.6814C246.427 86.6705 246.427 86.6597 246.427 86.6488C246.427 86.638 246.427 86.6272 246.427 86.6163C246.427 86.6055 246.427 86.5946 246.427 86.5838C246.427 86.573 246.427 86.5621 246.427 86.5513C246.427 86.5404 246.427 86.5296 246.427 86.5187C246.427 86.5079 246.427 86.4971 246.427 86.4862C246.427 86.4754 246.427 86.4645 246.427 86.4537C246.427 86.4429 246.427 86.432 246.427 86.4212C246.427 86.4103 246.427 86.3995 246.427 86.3887C246.427 86.3778 246.427 86.367 246.427 86.3561C246.427 86.3453 246.427 86.3344 246.427 86.3236C246.427 86.3128 246.427 86.3019 246.427 86.2911C246.427 86.2802 246.427 86.2694 246.427 86.2586C246.427 86.2477 246.427 86.2369 246.427 86.226C246.427 86.2152 246.427 86.2044 246.427 86.1935C246.427 86.1827 246.427 86.1718 246.427 86.161C246.427 86.1501 246.427 86.1393 246.427 86.1285C246.427 86.1176 246.427 86.1068 246.427 86.0959C246.427 86.0851 246.427 86.0743 246.427 86.0634C246.427 86.0526 246.427 86.0417 246.427 86.0309C246.427 86.0201 246.427 86.0092 246.427 85.9984C246.427 85.9875 246.427 85.9767 246.427 85.9658C246.427 85.955 246.427 85.9442 246.427 85.9333C246.427 85.9225 246.427 85.9116 246.427 85.9008C246.427 85.89 246.427 85.8791 246.427 85.8683C246.427 85.8574 246.427 85.8466 246.427 85.8358C246.427 85.8249 246.427 85.8141 246.427 85.8032C246.427 85.7924 246.427 85.7815 246.427 85.7707C246.427 85.7599 246.427 85.749 246.427 85.7382C246.427 85.7273 246.427 85.7165 246.427 85.7057C246.427 85.6948 246.427 85.684 246.427 85.6731C246.427 85.6623 246.427 85.6514 246.427 85.6406C246.427 85.6298 246.427 85.6189 246.427 85.6081C246.427 85.5972 246.427 85.5864 246.427 85.5756C246.427 85.5647 246.427 85.5539 246.427 85.543C246.427 85.5322 246.427 85.5214 246.427 85.5105C246.427 85.4997 246.427 85.4888 246.427 85.478C246.427 85.4671 246.427 85.4563 246.427 85.4455C246.427 85.4346 246.427 85.4238 246.427 85.4129C246.427 85.4021 246.427 85.3913 246.427 85.3804C246.427 85.3696 246.427 85.3587 246.427 85.3479C246.427 85.3371 246.427 85.3262 246.427 85.3154C246.427 85.3045 246.427 85.2937 246.427 85.2828C246.427 85.272 246.427 85.2612 246.427 85.2503C246.427 85.2395 246.427 85.2286 246.427 85.2178C246.427 85.207 246.427 85.1961 246.427 85.1853C246.427 85.1744 246.427 85.1636 246.427 85.1528C246.427 85.1419 246.427 85.1311 246.427 85.1202C246.427 85.1094 246.427 85.0985 246.427 85.0877C246.427 85.0769 246.427 85.066 246.427 85.0552C246.427 85.0443 246.427 85.0335 246.427 85.0227C246.427 85.0118 246.427 85.001 246.427 84.9901C246.427 84.9793 246.427 84.9685 246.427 84.9576C246.427 84.9468 246.427 84.9359 246.427 84.9251C246.427 84.9142 246.427 84.9034 246.427 84.8926C246.427 84.8817 246.427 84.8709 246.427 84.86C246.427 84.8492 246.427 84.8384 246.427 84.8275C246.427 84.8167 246.427 84.8058 246.427 84.795C246.427 84.7842 246.427 84.7733 246.427 84.7625C246.427 84.7516 246.427 84.7408 246.427 84.7299C246.427 84.7191 246.427 84.7083 246.427 84.6974C246.427 84.6866 246.427 84.6757 246.427 84.6649C246.427 84.6541 246.427 84.6432 246.427 84.6324C246.427 84.6215 246.427 84.6107 246.427 84.5999C246.427 84.589 246.427 84.5782 246.427 84.5673C246.427 84.5565 246.427 84.5456 246.427 84.5348C246.427 84.524 246.427 84.5131 246.427 84.5023C246.427 84.4914 246.427 84.4806 246.427 84.4698C246.427 84.4589 246.427 84.4481 246.427 84.4372C246.427 84.4264 246.427 84.4156 246.427 84.4047C246.427 84.3939 246.427 84.383 246.427 84.3722C246.427 84.3613 246.427 84.3505 246.427 84.3397C246.427 84.3288 246.427 84.318 246.427 84.3071C246.427 84.2963 246.427 84.2855 246.427 84.2746C246.427 84.2638 246.427 84.2529 246.427 84.2421C246.427 84.2313 246.427 84.2204 246.427 84.2096C246.427 84.1987 246.427 84.1879 246.427 84.177C246.427 84.1662 246.427 84.1554 246.427 84.1445C246.427 84.1337 246.427 84.1228 246.427 84.112C246.427 84.1012 246.427 84.0903 246.427 84.0795C246.427 84.0686 246.427 84.0578 246.427 84.047C246.427 84.0361 246.427 84.0253 246.427 84.0144C246.427 84.0036 246.427 83.9927 246.427 83.9819C246.427 83.9711 246.427 83.9602 246.427 83.9494C246.427 83.9385 246.427 83.9277 246.427 83.9169C246.427 83.906 246.427 83.8952 246.427 83.8843C246.427 83.8735 246.427 83.8627 246.427 83.8518C246.427 83.841 246.427 83.8301 246.427 83.8193C246.427 83.8084 246.427 83.7976 246.427 83.7868C246.427 83.7759 246.427 83.7651 246.427 83.7542C246.427 83.7434 246.427 83.7326 246.427 83.7217C246.427 83.7109 246.427 83.7 246.427 83.6892C246.427 83.6784 246.427 83.6675 246.427 83.6567C246.427 83.6458 246.427 83.635 246.427 83.6241C246.427 83.6133 246.427 83.6025 246.427 83.5916C246.427 83.5808 246.427 83.5699 246.427 83.5591C246.427 83.5483 246.427 83.5374 246.427 83.5266C246.427 83.5157 246.427 83.5049 246.427 83.4941C246.427 83.4832 246.427 83.4724 246.427 83.4615C246.427 83.4507 246.427 83.4398 246.427 83.429C246.427 83.4182 246.427 83.4073 246.427 83.3965C246.427 83.3856 246.427 83.3748 246.427 83.364C246.427 83.3531 246.427 83.3423 246.427 83.3314C246.427 83.3206 246.427 83.3098 246.427 83.2989C246.427 83.2881 246.427 83.2772 246.427 83.2664C246.427 83.2555 246.427 83.2447 246.427 83.2339C246.427 83.223 246.427 83.2122 246.427 83.2013C246.427 83.1905 246.427 83.1797 246.427 83.1688C246.427 83.158 246.427 83.1471 246.427 83.1363C246.427 83.1255 246.427 83.1146 246.427 83.1038C246.427 83.0929 246.427 83.0821 246.427 83.0712C246.427 83.0604 246.427 83.0496 246.427 83.0387C246.427 83.0279 246.427 83.017 246.427 83.0062C246.427 82.9954 246.427 82.9845 246.427 82.9737C246.427 82.9628 246.427 82.952 246.427 82.9412C246.427 82.9303 246.427 82.9195 246.427 82.9086C246.427 82.8978 246.427 82.8869 246.427 82.8761C246.427 82.8653 246.427 82.8544 246.427 82.8436H236.427C236.427 82.8544 236.427 82.8653 236.427 82.8761C236.427 82.8869 236.427 82.8978 236.427 82.9086C236.427 82.9195 236.427 82.9303 236.427 82.9412C236.427 82.952 236.427 82.9628 236.427 82.9737C236.427 82.9845 236.427 82.9954 236.427 83.0062C236.427 83.017 236.427 83.0279 236.427 83.0387C236.427 83.0496 236.427 83.0604 236.427 83.0712C236.427 83.0821 236.427 83.0929 236.427 83.1038C236.427 83.1146 236.427 83.1255 236.427 83.1363C236.427 83.1471 236.427 83.158 236.427 83.1688C236.427 83.1797 236.427 83.1905 236.427 83.2013C236.427 83.2122 236.427 83.223 236.427 83.2339C236.427 83.2447 236.427 83.2555 236.427 83.2664C236.427 83.2772 236.427 83.2881 236.427 83.2989C236.427 83.3098 236.427 83.3206 236.427 83.3314C236.427 83.3423 236.427 83.3531 236.427 83.364C236.427 83.3748 236.427 83.3856 236.427 83.3965C236.427 83.4073 236.427 83.4182 236.427 83.429C236.427 83.4398 236.427 83.4507 236.427 83.4615C236.427 83.4724 236.427 83.4832 236.427 83.4941C236.427 83.5049 236.427 83.5157 236.427 83.5266C236.427 83.5374 236.427 83.5483 236.427 83.5591C236.427 83.5699 236.427 83.5808 236.427 83.5916C236.427 83.6025 236.427 83.6133 236.427 83.6241C236.427 83.635 236.427 83.6458 236.427 83.6567C236.427 83.6675 236.427 83.6784 236.427 83.6892C236.427 83.7 236.427 83.7109 236.427 83.7217C236.427 83.7326 236.427 83.7434 236.427 83.7542C236.427 83.7651 236.427 83.7759 236.427 83.7868C236.427 83.7976 236.427 83.8084 236.427 83.8193C236.427 83.8301 236.427 83.841 236.427 83.8518C236.427 83.8627 236.427 83.8735 236.427 83.8843C236.427 83.8952 236.427 83.906 236.427 83.9169C236.427 83.9277 236.427 83.9385 236.427 83.9494C236.427 83.9602 236.427 83.9711 236.427 83.9819C236.427 83.9927 236.427 84.0036 236.427 84.0144C236.427 84.0253 236.427 84.0361 236.427 84.047C236.427 84.0578 236.427 84.0686 236.427 84.0795C236.427 84.0903 236.427 84.1012 236.427 84.112C236.427 84.1228 236.427 84.1337 236.427 84.1445C236.427 84.1554 236.427 84.1662 236.427 84.177C236.427 84.1879 236.427 84.1987 236.427 84.2096C236.427 84.2204 236.427 84.2313 236.427 84.2421C236.427 84.2529 236.427 84.2638 236.427 84.2746C236.427 84.2855 236.427 84.2963 236.427 84.3071C236.427 84.318 236.427 84.3288 236.427 84.3397C236.427 84.3505 236.427 84.3613 236.427 84.3722C236.427 84.383 236.427 84.3939 236.427 84.4047C236.427 84.4156 236.427 84.4264 236.427 84.4372C236.427 84.4481 236.427 84.4589 236.427 84.4698C236.427 84.4806 236.427 84.4914 236.427 84.5023C236.427 84.5131 236.427 84.524 236.427 84.5348C236.427 84.5456 236.427 84.5565 236.427 84.5673C236.427 84.5782 236.427 84.589 236.427 84.5999C236.427 84.6107 236.427 84.6215 236.427 84.6324C236.427 84.6432 236.427 84.6541 236.427 84.6649C236.427 84.6757 236.427 84.6866 236.427 84.6974C236.427 84.7083 236.427 84.7191 236.427 84.7299C236.427 84.7408 236.427 84.7516 236.427 84.7625C236.427 84.7733 236.427 84.7842 236.427 84.795C236.427 84.8058 236.427 84.8167 236.427 84.8275C236.427 84.8384 236.427 84.8492 236.427 84.86C236.427 84.8709 236.427 84.8817 236.427 84.8926C236.427 84.9034 236.427 84.9142 236.427 84.9251C236.427 84.9359 236.427 84.9468 236.427 84.9576C236.427 84.9685 236.427 84.9793 236.427 84.9901C236.427 85.001 236.427 85.0118 236.427 85.0227C236.427 85.0335 236.427 85.0443 236.427 85.0552C236.427 85.066 236.427 85.0769 236.427 85.0877C236.427 85.0985 236.427 85.1094 236.427 85.1202C236.427 85.1311 236.427 85.1419 236.427 85.1528C236.427 85.1636 236.427 85.1744 236.427 85.1853C236.427 85.1961 236.427 85.207 236.427 85.2178C236.427 85.2286 236.427 85.2395 236.427 85.2503C236.427 85.2612 236.427 85.272 236.427 85.2828C236.427 85.2937 236.427 85.3045 236.427 85.3154C236.427 85.3262 236.427 85.3371 236.427 85.3479C236.427 85.3587 236.427 85.3696 236.427 85.3804C236.427 85.3913 236.427 85.4021 236.427 85.4129C236.427 85.4238 236.427 85.4346 236.427 85.4455C236.427 85.4563 236.427 85.4671 236.427 85.478C236.427 85.4888 236.427 85.4997 236.427 85.5105C236.427 85.5214 236.427 85.5322 236.427 85.543C236.427 85.5539 236.427 85.5647 236.427 85.5756C236.427 85.5864 236.427 85.5972 236.427 85.6081C236.427 85.6189 236.427 85.6298 236.427 85.6406C236.427 85.6514 236.427 85.6623 236.427 85.6731C236.427 85.684 236.427 85.6948 236.427 85.7057C236.427 85.7165 236.427 85.7273 236.427 85.7382C236.427 85.749 236.427 85.7599 236.427 85.7707C236.427 85.7815 236.427 85.7924 236.427 85.8032C236.427 85.8141 236.427 85.8249 236.427 85.8358C236.427 85.8466 236.427 85.8574 236.427 85.8683C236.427 85.8791 236.427 85.89 236.427 85.9008C236.427 85.9116 236.427 85.9225 236.427 85.9333C236.427 85.9442 236.427 85.955 236.427 85.9658C236.427 85.9767 236.427 85.9875 236.427 85.9984C236.427 86.0092 236.427 86.0201 236.427 86.0309C236.427 86.0417 236.427 86.0526 236.427 86.0634C236.427 86.0743 236.427 86.0851 236.427 86.0959C236.427 86.1068 236.427 86.1176 236.427 86.1285C236.427 86.1393 236.427 86.1501 236.427 86.161C236.427 86.1718 236.427 86.1827 236.427 86.1935C236.427 86.2044 236.427 86.2152 236.427 86.226C236.427 86.2369 236.427 86.2477 236.427 86.2586C236.427 86.2694 236.427 86.2802 236.427 86.2911C236.427 86.3019 236.427 86.3128 236.427 86.3236C236.427 86.3344 236.427 86.3453 236.427 86.3561C236.427 86.367 236.427 86.3778 236.427 86.3887C236.427 86.3995 236.427 86.4103 236.427 86.4212C236.427 86.432 236.427 86.4429 236.427 86.4537C236.427 86.4645 236.427 86.4754 236.427 86.4862C236.427 86.4971 236.427 86.5079 236.427 86.5187C236.427 86.5296 236.427 86.5404 236.427 86.5513C236.427 86.5621 236.427 86.573 236.427 86.5838C236.427 86.5946 236.427 86.6055 236.427 86.6163C236.427 86.6272 236.427 86.638 236.427 86.6488C236.427 86.6597 236.427 86.6705 236.427 86.6814C236.427 86.6922 236.427 86.703 236.427 86.7139C236.427 86.7247 236.427 86.7356 236.427 86.7464C236.427 86.7573 236.427 86.7681 236.427 86.7789C236.427 86.7898 236.427 86.8006 236.427 86.8115C236.427 86.8223 236.427 86.8331 236.427 86.844C236.427 86.8548 236.427 86.8657 236.427 86.8765C236.427 86.8873 236.427 86.8982 236.427 86.909C236.427 86.9199 236.427 86.9307 236.427 86.9416C236.427 86.9524 236.427 86.9632 236.427 86.9741C236.427 86.9849 236.427 86.9958 236.427 87.0066C236.427 87.0174 236.427 87.0283 236.427 87.0391C236.427 87.05 236.427 87.0608 236.427 87.0716C236.427 87.0825 236.427 87.0933 236.427 87.1042C236.427 87.115 236.427 87.1259 236.427 87.1367C236.427 87.1475 236.427 87.1584 236.427 87.1692C236.427 87.1801 236.427 87.1909 236.427 87.2017C236.427 87.2126 236.427 87.2234 236.427 87.2343C236.427 87.2451 236.427 87.2559 236.427 87.2668C236.427 87.2776 236.427 87.2885 236.427 87.2993C236.427 87.3102 236.427 87.321 236.427 87.3318C236.427 87.3427 236.427 87.3535 236.427 87.3644C236.427 87.3752 236.427 87.386 236.427 87.3969C236.427 87.4077 236.427 87.4186 236.427 87.4294C236.427 87.4402 236.427 87.4511 236.427 87.4619C236.427 87.4728 236.427 87.4836 236.427 87.4945C236.427 87.5053 236.427 87.5161 236.427 87.527C236.427 87.5378 236.427 87.5487 236.427 87.5595C236.427 87.5703 236.427 87.5812 236.427 87.592C236.427 87.6029 236.427 87.6137 236.427 87.6245C236.427 87.6354 236.427 87.6462 236.427 87.6571C236.427 87.6679 236.427 87.6788 236.427 87.6896C236.427 87.7004 236.427 87.7113 236.427 87.7221C236.427 87.733 236.427 87.7438 236.427 87.7546C236.427 87.7655 236.427 87.7763 236.427 87.7872C236.427 87.798 236.427 87.8088 236.427 87.8197C236.427 87.8305 236.427 87.8414 236.427 87.8522C236.427 87.8631 236.427 87.8739 236.427 87.8847C236.427 87.8956 236.427 87.9064 236.427 87.9173C236.427 87.9281 236.427 87.9389 236.427 87.9498C236.427 87.9606 236.427 87.9715 236.427 87.9823C236.427 87.9931 236.427 88.004 236.427 88.0148C236.427 88.0257 236.427 88.0365 236.427 88.0474C236.427 88.0582 236.427 88.069 236.427 88.0799C236.427 88.0907 236.427 88.1016 236.427 88.1124C236.427 88.1232 236.427 88.1341 236.427 88.1449C236.427 88.1558 236.427 88.1666 236.427 88.1774C236.427 88.1883 236.427 88.1991 236.427 88.21C236.427 88.2208 236.427 88.2317 236.427 88.2425C236.427 88.2533 236.427 88.2642 236.427 88.275C236.427 88.2859 236.427 88.2967 236.427 88.3075C236.427 88.3184 236.427 88.3292 236.427 88.3401C236.427 88.3509 236.427 88.3617 236.427 88.3726C236.427 88.3834 236.427 88.3943 236.427 88.4051C236.427 88.416 236.427 88.4268 236.427 88.4376C236.427 88.4485 236.427 88.4593 236.427 88.4702C236.427 88.481 236.427 88.4918 236.427 88.5027C236.427 88.5135 236.427 88.5244 236.427 88.5352C236.427 88.546 236.427 88.5569 236.427 88.5677C236.427 88.5786 236.427 88.5894 236.427 88.6003C236.427 88.6111 236.427 88.6219 236.427 88.6328C236.427 88.6436 236.427 88.6545 236.427 88.6653C236.427 88.6761 236.427 88.687 236.427 88.6978C236.427 88.7087 236.427 88.7195 236.427 88.7303C236.427 88.7412 236.427 88.752 236.427 88.7629C236.427 88.7737 236.427 88.7846 236.427 88.7954C236.427 88.8062 236.427 88.8171 236.427 88.8279C236.427 88.8388 236.427 88.8496 236.427 88.8604C236.427 88.8713 236.427 88.8821 236.427 88.893C236.427 88.9038 236.427 88.9147 236.427 88.9255C236.427 88.9363 236.427 88.9472 236.427 88.958C236.427 88.9689 236.427 88.9797 236.427 88.9905C236.427 89.0014 236.427 89.0122 236.427 89.0231C236.427 89.0339 236.427 89.0447 236.427 89.0556C236.427 89.0664 236.427 89.0773 236.427 89.0881C236.427 89.099 236.427 89.1098 236.427 89.1206C236.427 89.1315 236.427 89.1423 236.427 89.1532C236.427 89.164 236.427 89.1748 236.427 89.1857C236.427 89.1965 236.427 89.2074 236.427 89.2182C236.427 89.229 236.427 89.2399 236.427 89.2507C236.427 89.2616 236.427 89.2724 236.427 89.2833C236.427 89.2941 236.427 89.3049 236.427 89.3158C236.427 89.3266 236.427 89.3375 236.427 89.3483C236.427 89.3591 236.427 89.37 236.427 89.3808C236.427 89.3917 236.427 89.4025 236.427 89.4133C236.427 89.4242 236.427 89.435 236.427 89.4459C236.427 89.4567 236.427 89.4676 236.427 89.4784C236.427 89.4892 236.427 89.5001 236.427 89.5109C236.427 89.5218 236.427 89.5326 236.427 89.5434C236.427 89.5543 236.427 89.5651 236.427 89.576C236.427 89.5868 236.427 89.5976 236.427 89.6085C236.427 89.6193 236.427 89.6302 236.427 89.641C236.427 89.6519 236.427 89.6627 236.427 89.6735C236.427 89.6844 236.427 89.6952 236.427 89.7061C236.427 89.7169 236.427 89.7277 236.427 89.7386C236.427 89.7494 236.427 89.7603 236.427 89.7711C236.427 89.7819 236.427 89.7928 236.427 89.8036C236.427 89.8145 236.427 89.8253 236.427 89.8362C236.427 89.847 236.427 89.8578 236.427 89.8687C236.427 89.8795 236.427 89.8904 236.427 89.9012C236.427 89.912 236.427 89.9229 236.427 89.9337C236.427 89.9446 236.427 89.9554 236.427 89.9662C236.427 89.9771 236.427 89.9879 236.427 89.9988C236.427 90.0096 236.427 90.0205 236.427 90.0313C236.427 90.0421 236.427 90.053 236.427 90.0638C236.427 90.0747 236.427 90.0855 236.427 90.0963C236.427 90.1072 236.427 90.118 236.427 90.1289C236.427 90.1397 236.427 90.1505 236.427 90.1614C236.427 90.1722 236.427 90.1831 236.427 90.1939C236.427 90.2048 236.427 90.2156 236.427 90.2264C236.427 90.2373 236.427 90.2481 236.427 90.259C236.427 90.2698 236.427 90.2806 236.427 90.2915C236.427 90.3023 236.427 90.3132 236.427 90.324C236.427 90.3348 236.427 90.3457 236.427 90.3565C236.427 90.3674 236.427 90.3782 236.427 90.3891C236.427 90.3999 236.427 90.4107 236.427 90.4216C236.427 90.4324 236.427 90.4433 236.427 90.4541C236.427 90.4649 236.427 90.4758 236.427 90.4866C236.427 90.4975 236.427 90.5083 236.427 90.5191C236.427 90.53 236.427 90.5408 236.427 90.5517C236.427 90.5625 236.427 90.5734 236.427 90.5842C236.427 90.595 236.427 90.6059 236.427 90.6167C236.427 90.6276 236.427 90.6384 236.427 90.6492C236.427 90.6601 236.427 90.6709 236.427 90.6818C236.427 90.6926 236.427 90.7034 236.427 90.7143C236.427 90.7251 236.427 90.736 236.427 90.7468C236.427 90.7577 236.427 90.7685 236.427 90.7793C236.427 90.7902 236.427 90.801 236.427 90.8119C236.427 90.8227 236.427 90.8335 236.427 90.8444C236.427 90.8552 236.427 90.8661 236.427 90.8769C236.427 90.8877 236.427 90.8986 236.427 90.9094C236.427 90.9203 236.427 90.9311 236.427 90.942C236.427 90.9528 236.427 90.9636 236.427 90.9745C236.427 90.9853 236.427 90.9962 236.427 91.007C236.427 91.0178 236.427 91.0287 236.427 91.0395C236.427 91.0504 236.427 91.0612 236.427 91.072C236.427 91.0829 236.427 91.0937 236.427 91.1046C236.427 91.1154 236.427 91.1263 236.427 91.1371C236.427 91.1479 236.427 91.1588 236.427 91.1696C236.427 91.1805 236.427 91.1913 236.427 91.2021C236.427 91.213 236.427 91.2238 236.427 91.2347C236.427 91.2455 236.427 91.2563 236.427 91.2672C236.427 91.278 236.427 91.2889 236.427 91.2997C236.427 91.3106 236.427 91.3214 236.427 91.3322C236.427 91.3431 236.427 91.3539 236.427 91.3648C236.427 91.3756 236.427 91.3864 236.427 91.3973C236.427 91.4081 236.427 91.419 236.427 91.4298C236.427 91.4406 236.427 91.4515 236.427 91.4623C236.427 91.4732 236.427 91.484 236.427 91.4949C236.427 91.5057 236.427 91.5165 236.427 91.5274C236.427 91.5382 236.427 91.5491 236.427 91.5599C236.427 91.5707 236.427 91.5816 236.427 91.5924C236.427 91.6033 236.427 91.6141 236.427 91.6249C236.427 91.6358 236.427 91.6466 236.427 91.6575C236.427 91.6683 236.427 91.6792 236.427 91.69C236.427 91.7008 236.427 91.7117 236.427 91.7225C236.427 91.7334 236.427 91.7442 236.427 91.755C236.427 91.7659 236.427 91.7767 236.427 91.7876C236.427 91.7984 236.427 91.8092 236.427 91.8201C236.427 91.8309 236.427 91.8418 236.427 91.8526C236.427 91.8635 236.427 91.8743 236.427 91.8851C236.427 91.896 236.427 91.9068 236.427 91.9177C236.427 91.9285 236.427 91.9393 236.427 91.9502C236.427 91.961 236.427 91.9719 236.427 91.9827C236.427 91.9936 236.427 92.0044 236.427 92.0152C236.427 92.0261 236.427 92.0369 236.427 92.0478C236.427 92.0586 236.427 92.0694 236.427 92.0803C236.427 92.0911 236.427 92.102 236.427 92.1128C236.427 92.1236 236.427 92.1345 236.427 92.1453C236.427 92.1562 236.427 92.167 236.427 92.1779C236.427 92.1887 236.427 92.1995 236.427 92.2104C236.427 92.2212 236.427 92.2321 236.427 92.2429C236.427 92.2537 236.427 92.2646 236.427 92.2754C236.427 92.2863 236.427 92.2971 236.427 92.3079C236.427 92.3188 236.427 92.3296 236.427 92.3405C236.427 92.3513 236.427 92.3622 236.427 92.373C236.427 92.3838 236.427 92.3947 236.427 92.4055C236.427 92.4164 236.427 92.4272 236.427 92.438C236.427 92.4489 236.427 92.4597 236.427 92.4706C236.427 92.4814 236.427 92.4922 236.427 92.5031C236.427 92.5139 236.427 92.5248 236.427 92.5356C236.427 92.5465 236.427 92.5573 236.427 92.5681C236.427 92.579 236.427 92.5898 236.427 92.6007C236.427 92.6115 236.427 92.6223 236.427 92.6332C236.427 92.644 236.427 92.6549 236.427 92.6657C236.427 92.6765 236.427 92.6874 236.427 92.6982C236.427 92.7091 236.427 92.7199 236.427 92.7308C236.427 92.7416 236.427 92.7524 236.427 92.7633C236.427 92.7741 236.427 92.785 236.427 92.7958C236.427 92.8066 236.427 92.8175 236.427 92.8283C236.427 92.8392 236.427 92.85 236.427 92.8608C236.427 92.8717 236.427 92.8825 236.427 92.8934C236.427 92.9042 236.427 92.9151 236.427 92.9259C236.427 92.9367 236.427 92.9476 236.427 92.9584C236.427 92.9693 236.427 92.9801 236.427 92.9909C236.427 93.0018 236.427 93.0126 236.427 93.0235C236.427 93.0343 236.427 93.0451 236.427 93.056C236.427 93.0668 236.427 93.0777 236.427 93.0885C236.427 93.0994 236.427 93.1102 236.427 93.121C236.427 93.1319 236.427 93.1427 236.427 93.1536C236.427 93.1644 236.427 93.1752 236.427 93.1861C236.427 93.1969 236.427 93.2078 236.427 93.2186C236.427 93.2294 236.427 93.2403 236.427 93.2511C236.427 93.262 236.427 93.2728 236.427 93.2837C236.427 93.2945 236.427 93.3053 236.427 93.3162C236.427 93.327 236.427 93.3379 236.427 93.3487C236.427 93.3595 236.427 93.3704 236.427 93.3812C236.427 93.3921 236.427 93.4029 236.427 93.4137C236.427 93.4246 236.427 93.4354 236.427 93.4463C236.427 93.4571 236.427 93.468 236.427 93.4788C236.427 93.4896 236.427 93.5005 236.427 93.5113C236.427 93.5222 236.427 93.533 236.427 93.5438C236.427 93.5547 236.427 93.5655 236.427 93.5764C236.427 93.5872 236.427 93.598 236.427 93.6089C236.427 93.6197 236.427 93.6306 236.427 93.6414C236.427 93.6523 236.427 93.6631 236.427 93.6739C236.427 93.6848 236.427 93.6956 236.427 93.7065C236.427 93.7173 236.427 93.7281 236.427 93.739C236.427 93.7498 236.427 93.7607 236.427 93.7715C236.427 93.7823 236.427 93.7932 236.427 93.804C236.427 93.8149 236.427 93.8257 236.427 93.8366C236.427 93.8474 236.427 93.8582 236.427 93.8691C236.427 93.8799 236.427 93.8908 236.427 93.9016C236.427 93.9124 236.427 93.9233 236.427 93.9341C236.427 93.945 236.427 93.9558 236.427 93.9666C236.427 93.9775 236.427 93.9883 236.427 93.9992C236.427 94.01 236.427 94.0209 236.427 94.0317C236.427 94.0425 236.427 94.0534 236.427 94.0642C236.427 94.0751 236.427 94.0859 236.427 94.0967C236.427 94.1076 236.427 94.1184 236.427 94.1293C236.427 94.1401 236.427 94.1509 236.427 94.1618C236.427 94.1726 236.427 94.1835 236.427 94.1943C236.427 94.2052 236.427 94.216 236.427 94.2268C236.427 94.2377 236.427 94.2485 236.427 94.2594C236.427 94.2702 236.427 94.281 236.427 94.2919C236.427 94.3027 236.427 94.3136 236.427 94.3244C236.427 94.3352 236.427 94.3461 236.427 94.3569C236.427 94.3678 236.427 94.3786 236.427 94.3895C236.427 94.4003 236.427 94.4111 236.427 94.422C236.427 94.4328 236.427 94.4437 236.427 94.4545C236.427 94.4653 236.427 94.4762 236.427 94.487C236.427 94.4979 236.427 94.5087 236.427 94.5195C236.427 94.5304 236.427 94.5412 236.427 94.5521C236.427 94.5629 236.427 94.5738 236.427 94.5846C236.427 94.5954 236.427 94.6063 236.427 94.6171C236.427 94.628 236.427 94.6388 236.427 94.6496C236.427 94.6605 236.427 94.6713 236.427 94.6822C236.427 94.693 236.427 94.7038 236.427 94.7147C236.427 94.7255 236.427 94.7364 236.427 94.7472C236.427 94.7581 236.427 94.7689 236.427 94.7797C236.427 94.7906 236.427 94.8014 236.427 94.8123C236.427 94.8231 236.427 94.8339 236.427 94.8448C236.427 94.8556 236.427 94.8665 236.427 94.8773C236.427 94.8881 236.427 94.899 236.427 94.9098C236.427 94.9207 236.427 94.9315 236.427 94.9424C236.427 94.9532 236.427 94.964 236.427 94.9749C236.427 94.9857 236.427 94.9966 236.427 95.0074C236.427 95.0182 236.427 95.0291 236.427 95.0399C236.427 95.0508 236.427 95.0616 236.427 95.0725C236.427 95.0833 236.427 95.0941 236.427 95.105C236.427 95.1158 236.427 95.1267 236.427 95.1375C236.427 95.1483 236.427 95.1592 236.427 95.17C236.427 95.1809 236.427 95.1917 236.427 95.2025C236.427 95.2134 236.427 95.2242 236.427 95.2351C236.427 95.2459 236.427 95.2568 236.427 95.2676C236.427 95.2784 236.427 95.2893 236.427 95.3001C236.427 95.311 236.427 95.3218 236.427 95.3326C236.427 95.3435 236.427 95.3543 236.427 95.3652C236.427 95.376 236.427 95.3868 236.427 95.3977C236.427 95.4085 236.427 95.4194 236.427 95.4302C236.427 95.4411 236.427 95.4519 236.427 95.4627C236.427 95.4736 236.427 95.4844 236.427 95.4953C236.427 95.5061 236.427 95.5169 236.427 95.5278C236.427 95.5386 236.427 95.5495 236.427 95.5603C236.427 95.5711 236.427 95.582 236.427 95.5928C236.427 95.6037 236.427 95.6145 236.427 95.6254C236.427 95.6362 236.427 95.647 236.427 95.6579C236.427 95.6687 236.427 95.6796 236.427 95.6904C236.427 95.7012 236.427 95.7121 236.427 95.7229C236.427 95.7338 236.427 95.7446 236.427 95.7554C236.427 95.7663 236.427 95.7771 236.427 95.788C236.427 95.7988 236.427 95.8097 236.427 95.8205C236.427 95.8313 236.427 95.8422 236.427 95.853C236.427 95.8639 236.427 95.8747 236.427 95.8855C236.427 95.8964 236.427 95.9072 236.427 95.9181C236.427 95.9289 236.427 95.9397 236.427 95.9506C236.427 95.9614 236.427 95.9723 236.427 95.9831C236.427 95.994 236.427 96.0048 236.427 96.0156C236.427 96.0265 236.427 96.0373 236.427 96.0482C236.427 96.059 236.427 96.0698 236.427 96.0807C236.427 96.0915 236.427 96.1024 236.427 96.1132C236.427 96.124 236.427 96.1349 236.427 96.1457C236.427 96.1566 236.427 96.1674 236.427 96.1783C236.427 96.1891 236.427 96.1999 236.427 96.2108C236.427 96.2216 236.427 96.2325 236.427 96.2433C236.427 96.2541 236.427 96.265 236.427 96.2758C236.427 96.2867 236.427 96.2975 236.427 96.3083C236.427 96.3192 236.427 96.33 236.427 96.3409C236.427 96.3517 236.427 96.3626 236.427 96.3734C236.427 96.3842 236.427 96.3951 236.427 96.4059C236.427 96.4168 236.427 96.4276 236.427 96.4384C236.427 96.4493 236.427 96.4601 236.427 96.471C236.427 96.4818 236.427 96.4926 236.427 96.5035C236.427 96.5143 236.427 96.5252 236.427 96.536C236.427 96.5469 236.427 96.5577 236.427 96.5685C236.427 96.5794 236.427 96.5902 236.427 96.6011C236.427 96.6119 236.427 96.6227 236.427 96.6336C236.427 96.6444 236.427 96.6553 236.427 96.6661C236.427 96.6769 236.427 96.6878 236.427 96.6986C236.427 96.7095 236.427 96.7203 236.427 96.7312C236.427 96.742 236.427 96.7528 236.427 96.7637C236.427 96.7745 236.427 96.7854 236.427 96.7962C236.427 96.807 236.427 96.8179 236.427 96.8287C236.427 96.8396 236.427 96.8504 236.427 96.8612C236.427 96.8721 236.427 96.8829 236.427 96.8938C236.427 96.9046 236.427 96.9155 236.427 96.9263C236.427 96.9371 236.427 96.948 236.427 96.9588C236.427 96.9697 236.427 96.9805 236.427 96.9913C236.427 97.0022 236.427 97.013 236.427 97.0239C236.427 97.0347 236.427 97.0455 236.427 97.0564C236.427 97.0672 236.427 97.0781 236.427 97.0889C236.427 97.0998 236.427 97.1106 236.427 97.1214C236.427 97.1323 236.427 97.1431 236.427 97.154C236.427 97.1648 236.427 97.1756 236.427 97.1865C236.427 97.1973 236.427 97.2082 236.427 97.219C236.427 97.2298 236.427 97.2407 236.427 97.2515C236.427 97.2624 236.427 97.2732 236.427 97.2841C236.427 97.2949 236.427 97.3057 236.427 97.3166C236.427 97.3274 236.427 97.3383 236.427 97.3491C236.427 97.3599 236.427 97.3708 236.427 97.3816C236.427 97.3925 236.427 97.4033 236.427 97.4141C236.427 97.425 236.427 97.4358 236.427 97.4467C236.427 97.4575 236.427 97.4684 236.427 97.4792C236.427 97.49 236.427 97.5009 236.427 97.5117C236.427 97.5226 236.427 97.5334 236.427 97.5442C236.427 97.5551 236.427 97.5659 236.427 97.5768C236.427 97.5876 236.427 97.5984 236.427 97.6093C236.427 97.6201 236.427 97.631 236.427 97.6418C236.427 97.6527 236.427 97.6635 236.427 97.6743C236.427 97.6852 236.427 97.696 236.427 97.7069C236.427 97.7177 236.427 97.7285 236.427 97.7394C236.427 97.7502 236.427 97.7611 236.427 97.7719C236.427 97.7827 236.427 97.7936 236.427 97.8044C236.427 97.8153 236.427 97.8261 236.427 97.837C236.427 97.8478 236.427 97.8586 236.427 97.8695C236.427 97.8803 236.427 97.8912 236.427 97.902C236.427 97.9128 236.427 97.9237 236.427 97.9345C236.427 97.9454 236.427 97.9562 236.427 97.9671C236.427 97.9779 236.427 97.9887 236.427 97.9996C236.427 98.0104 236.427 98.0213 236.427 98.0321C236.427 98.0429 236.427 98.0538 236.427 98.0646C236.427 98.0755 236.427 98.0863 236.427 98.0971C236.427 98.108 236.427 98.1188 236.427 98.1297C236.427 98.1405 236.427 98.1514 236.427 98.1622C236.427 98.173 236.427 98.1839 236.427 98.1947C236.427 98.2056 236.427 98.2164 236.427 98.2272C236.427 98.2381 236.427 98.2489 236.427 98.2598C236.427 98.2706 236.427 98.2814 236.427 98.2923C236.427 98.3031 236.427 98.314 236.427 98.3248C236.427 98.3357 236.427 98.3465 236.427 98.3573C236.427 98.3682 236.427 98.379 236.427 98.3899C236.427 98.4007 236.427 98.4115 236.427 98.4224C236.427 98.4332 236.427 98.4441 236.427 98.4549C236.427 98.4657 236.427 98.4766 236.427 98.4874C236.427 98.4983 236.427 98.5091 236.427 98.52C236.427 98.5308 236.427 98.5416 236.427 98.5525C236.427 98.5633 236.427 98.5742 236.427 98.585C236.427 98.5958 236.427 98.6067 236.427 98.6175C236.427 98.6284 236.427 98.6392 236.427 98.65C236.427 98.6609 236.427 98.6717 236.427 98.6826C236.427 98.6934 236.427 98.7043 236.427 98.7151C236.427 98.7259 236.427 98.7368 236.427 98.7476C236.427 98.7585 236.427 98.7693 236.427 98.7801C236.427 98.791 236.427 98.8018 236.427 98.8127C236.427 98.8235 236.427 98.8343 236.427 98.8452C236.427 98.856 236.427 98.8669 236.427 98.8777C236.427 98.8886 236.427 98.8994 236.427 98.9102C236.427 98.9211 236.427 98.9319 236.427 98.9428C236.427 98.9536 236.427 98.9644 236.427 98.9753C236.427 98.9861 236.427 98.997 236.427 99.0078C236.427 99.0186 236.427 99.0295 236.427 99.0403C236.427 99.0512 236.427 99.062 236.427 99.0729C236.427 99.0837 236.427 99.0945 236.427 99.1054C236.427 99.1162 236.427 99.1271 236.427 99.1379C236.427 99.1487 236.427 99.1596 236.427 99.1704C236.427 99.1813 236.427 99.1921 236.427 99.2029C236.427 99.2138 236.427 99.2246 236.427 99.2355C236.427 99.2463 236.427 99.2572 236.427 99.268C236.427 99.2788 236.427 99.2897 236.427 99.3005C236.427 99.3114 236.427 99.3222 236.427 99.333C236.427 99.3439 236.427 99.3547 236.427 99.3656C236.427 99.3764 236.427 99.3872 236.427 99.3981C236.427 99.4089 236.427 99.4198 236.427 99.4306C236.427 99.4415 236.427 99.4523 236.427 99.4631C236.427 99.474 236.427 99.4848 236.427 99.4957H246.427ZM246.427 82.8436C246.427 82.3934 246.416 81.9936 246.407 81.6728C246.396 81.3218 246.389 81.13 246.388 80.9581C246.387 80.7895 246.394 80.8092 246.381 80.9192C246.368 81.032 246.316 81.3978 246.108 81.8638C245.877 82.3806 245.505 82.903 244.984 83.3288C244.494 83.7289 244.036 83.9097 243.788 83.987C243.554 84.0599 243.433 84.0635 243.519 84.0552C243.594 84.0478 243.763 84.0374 244.071 84.0374V74.0374C243.19 74.0374 241.979 74.0765 240.814 74.4394C239.347 74.8965 237.812 75.9194 236.978 77.7832C236.361 79.164 236.385 80.5432 236.388 81.0264C236.391 81.351 236.403 81.7125 236.411 81.9769C236.42 82.2714 236.427 82.5491 236.427 82.8436H246.427ZM244.071 84.0374C244.32 84.0374 244.59 84.0301 244.81 84.0238C245.052 84.0169 245.273 84.0101 245.511 84.0053C245.99 83.9957 246.406 83.9981 246.753 84.022C247.145 84.049 247.21 84.089 247.075 84.0439C246.992 84.0163 246.73 83.922 246.398 83.6925C246.052 83.4528 245.569 83.0211 245.202 82.3284L254.04 77.6495C252.982 75.6509 251.162 74.8655 250.24 74.558C249.211 74.2147 248.183 74.0967 247.44 74.0456C246.116 73.9545 244.207 74.0374 244.071 74.0374V84.0374ZM245.202 82.3284C245.55 82.9845 245.964 84.2574 246.131 85.7105C246.308 87.2453 246.118 88.1679 246.004 88.4253L255.142 92.4867C256.301 89.8793 256.333 86.8879 256.065 84.5651C255.788 82.1606 255.09 79.6324 254.04 77.6495L245.202 82.3284ZM246.004 88.4253C245.601 89.3312 244.664 90.641 243.265 92.0044C241.895 93.3408 240.397 94.4207 239.191 95.0235L243.663 103.968C245.977 102.811 248.3 101.062 250.247 99.1641C252.166 97.293 254.041 94.9627 255.142 92.4867L246.004 88.4253Z" fill="#654747"/>
<path d="M251.392 150.668C251.911 152.485 258.855 160.164 260.934 160.395C265.175 160.395 262.779 155.53 261.41 153.628C259.546 151.039 256.279 148.575 253.586 146.862C249.575 144.309 250.742 148.393 251.382 150.633L251.392 150.668Z" stroke="#654747" stroke-width="10" stroke-linecap="round"/>
<path d="M240 118.051C240 120.712 240 122.839 240 125.5C240 127.227 241.427 129.15 241.427 130.897" stroke="#654747" stroke-width="10" stroke-linecap="round"/>
<path d="M30.0837 293.5C32.0836 283.5 42.4999 258.5 57 243.5L74 258C71.5 260 69.3837 259.4 58.5837 281C45.0837 308 54.0837 332.5 76.5837 342.5C99.0837 352.5 99.5837 332 116.084 332.5C129.284 332.9 126.917 342.667 124.084 347.5C111.917 358.833 80.8837 374.3 54.0837 355.5C27.2837 336.7 30.0836 307.5 30.0837 293.5Z" fill="#FBE3BF" stroke="#654747" stroke-width="10" stroke-linecap="round" stroke-linejoin="round"/>
</svg>
