<?xml version="1.0" standalone="no"?>
<!DOCTYPE svg PUBLIC "-//W3C//DTD SVG 20010904//EN"
 "http://www.w3.org/TR/2001/REC-SVG-20010904/DTD/svg10.dtd">
<svg version="1.0" xmlns="http://www.w3.org/2000/svg"
 viewBox="0 0 2600.000000 2600.000000"
 preserveAspectRatio="xMidYMid meet">
<metadata>
Created by potrace 1.15, written by Peter Selinger 2001-2017
</metadata>
<g transform="translate(0.000000,2600.000000) scale(0.100000,-0.100000)"
fill="#000000" stroke="none">
<path d="M6855 22476 c-182 -37 -328 -117 -452 -249 -134 -144 -212 -336 -213
-524 0 -37 39 -765 86 -1616 l88 -1548 -107 -217 c-124 -252 -146 -305 -192
-465 -74 -252 -99 -429 -99 -697 0 -375 76 -706 243 -1045 246 -502 622 -879
1116 -1120 387 -189 678 -245 1273 -245 177 0 322 -2 322 -5 0 -3 -571 -1138
-1269 -2523 -1571 -3118 -1662 -3300 -1711 -3421 -241 -606 -250 -1291 -25
-1907 87 -240 269 -558 441 -774 241 -302 621 -594 978 -752 318 -140 617
-209 991 -229 135 -7 1901 -9 5410 -6 5648 3 5259 0 5530 52 587 114 1110 396
1525 822 460 471 731 1039 812 1703 16 136 16 505 0 640 -135 1087 -821 1977
-1827 2373 -325 128 -598 181 -1005 197 -341 13 -501 41 -745 128 -667 238
-1175 829 -1314 1527 -213 1073 456 2130 1518 2395 139 35 321 60 437 60 213
0 360 83 442 250 25 50 27 65 27 170 0 103 -3 121 -26 170 -55 116 -146 197
-262 232 -64 19 -85 20 -236 15 -731 -28 -1411 -326 -1931 -847 -260 -259
-465 -559 -607 -887 -347 -799 -319 -1696 77 -2473 139 -272 301 -492 535
-725 250 -250 473 -410 780 -560 389 -190 748 -275 1230 -290 313 -11 554 -55
777 -144 817 -325 1342 -1125 1305 -1991 -14 -308 -80 -567 -217 -840 -104
-207 -222 -370 -386 -534 -312 -310 -671 -494 -1129 -578 l-120 -22 -2014 -4
-2014 -3 24 30 c13 16 56 67 95 113 235 274 427 641 523 994 67 251 92 441 92
713 0 277 -29 486 -106 751 -74 253 30 41 -2008 4085 l-1053 2090 381 6 c446
7 582 23 831 94 854 246 1512 954 1695 1825 67 318 66 693 -2 1009 -47 217
-101 361 -244 657 l-102 211 89 1559 c51 898 86 1591 83 1634 -25 342 -264
630 -601 721 -121 33 -308 31 -427 -5 -194 -58 -228 -85 -717 -572 -234 -233
-428 -424 -432 -424 -4 0 -42 24 -85 54 -519 355 -1134 581 -1803 662 -183 23
-645 25 -830 6 -662 -72 -1273 -290 -1816 -649 -61 -40 -115 -73 -120 -73 -5
0 -196 187 -424 416 -228 229 -438 433 -466 454 -69 52 -178 106 -266 130 -96
27 -260 34 -353 16z m865 -1569 c0 -5 -35 -50 -78 -101 -177 -205 -354 -463
-483 -700 l-37 -69 -6 64 c-3 35 -22 352 -41 704 -19 352 -37 676 -41 720 l-6
80 346 -345 c190 -190 346 -349 346 -353z m6632 646 c-21 -362 -82 -1471 -83
-1491 0 -32 3 -37 -84 116 -123 217 -308 479 -459 652 l-66 75 348 348 c191
191 347 347 347 347 0 0 -1 -21 -3 -47z m-3372 -203 c963 -88 1784 -563 2333
-1352 101 -145 192 -310 414 -753 113 -225 324 -644 468 -930 144 -286 277
-560 295 -610 120 -336 123 -699 9 -1044 -41 -121 -131 -299 -205 -403 -74
-103 -234 -271 -327 -342 -225 -172 -510 -286 -792 -316 -81 -8 -752 -10
-2555 -8 l-2445 4 -100 22 c-502 115 -889 411 -1104 847 -195 394 -222 815
-79 1225 51 146 991 2010 1108 2198 219 348 539 685 873 915 265 183 593 339
899 428 192 56 480 109 668 122 110 8 435 6 540 -3z m1617 -8735 c2097 -4161
2056 -4078 2101 -4215 126 -384 130 -765 10 -1139 -192 -603 -681 -1069 -1285
-1226 -242 -63 -59 -59 -2638 -63 -1638 -2 -2391 0 -2485 8 -480 39 -894 237
-1214 582 -119 128 -203 248 -285 408 -269 523 -281 1086 -36 1620 29 63 737
1472 1573 3130 1021 2025 1516 3017 1508 3022 -6 4 369 7 833 5 l845 -2 1073
-2130z"/>
<path d="M8759 18429 c-206 -30 -375 -179 -434 -383 -22 -74 -22 -215 -1 -285
36 -122 115 -232 213 -297 217 -144 492 -118 673 64 165 165 206 398 105 607
-101 208 -326 328 -556 294z"/>
<path d="M12474 18430 c-211 -31 -385 -186 -439 -391 -19 -71 -19 -200 0 -274
34 -128 129 -253 246 -322 65 -39 191 -73 268 -73 219 1 429 149 502 355 30
82 36 220 15 302 -68 268 -325 443 -592 403z"/>
</g>
</svg>
