<svg width="184" height="222" viewBox="0 0 184 222" fill="none" xmlns="http://www.w3.org/2000/svg">
<path d="M149.04 169.04C149.246 169.04 149.135 169 149 169" stroke="#A2D0E4" stroke-width="10" stroke-linecap="round"/>
<path d="M51.7854 166.531C51.7854 166.531 65.6759 160.821 66.229 160.755" stroke="black" stroke-width="17.4418" stroke-miterlimit="1.22093" stroke-linecap="round" stroke-linejoin="round"/>
<path d="M51.9443 153.711C51.821 153.559 65.0869 154.697 64.6061 154.757" stroke="black" stroke-width="15.504" stroke-miterlimit="1.22093" stroke-linecap="round" stroke-linejoin="round"/>
<path fill-rule="evenodd" clip-rule="evenodd" d="M25.1579 85.3396C30.7542 92.3096 35.5565 87.891 36.0421 86.6769C36.4585 85.8235 43.7418 71.3086 59.1798 62.0741C64.6745 58.7875 72.5092 55.0418 80.009 53.9937C91.708 52.3586 100.377 52.7971 108.273 54.1406C112.551 54.8683 109.537 56.2026 112.752 57.6142C115.761 62.6995 120.255 66.4967 123.075 73.1621C126.599 81.4907 129.782 86.7551 130.99 90.6359C133.76 99.5357 132.639 100.608 133.465 104.086C135.623 113.183 135.762 125.505 134.103 132.327C131.801 141.787 131.593 142.827 128.217 144.453C123.189 146.875 124.954 133.195 124.954 133.195C125.094 132.536 123.18 114.528 119.322 115.145C115.464 115.761 105.199 128.048 105.199 128.048C100.138 124.822 87.5345 127.726 87.7223 127.444C87.9101 127.162 78.3535 110.441 75.7833 112.559C73.2129 114.677 71.8001 133.195 71.8001 133.195C71.8001 133.195 59.322 144.708 58.7266 154.147C58.1249 163.684 60.8727 171.575 64.6473 174.007C72.7854 181.188 97.8814 185.414 118.06 181.052C119.222 180.717 133.601 174.899 136.635 173.911C136.635 173.911 147.316 173.055 149.662 175.74C151.968 178.38 130.466 192.465 130.768 191.014C122.931 197.732 86.2859 198.467 67.4132 186.604C51.1933 176.41 10.6256 148.764 25.1579 85.3396Z" fill="#D4B6C7"/>
<path fill-rule="evenodd" clip-rule="evenodd" d="M12.0247 156.397C11.3434 153.754 12.9349 151.055 15.5772 150.374C18.2205 149.692 20.9186 151.283 21.6008 153.926C26.9556 174.684 50.18 197.15 67.5406 204.233C88.9955 212.986 107.891 212.749 117.71 209.037C119.954 208.19 122.201 206.84 123.825 205.549C124.466 205.04 125.039 204.646 125.24 204.266C126.516 201.852 129.51 200.93 131.922 202.205C134.335 203.48 135.258 206.475 133.983 208.887C132.658 211.394 127.036 216.085 121.207 218.288C109.983 222.531 88.3296 223.396 63.8052 213.389C44.1824 205.384 18.0781 179.859 12.0247 156.397Z" fill="#BD498B"/>
<mask id="mask0_1_2" style="mask-type:luminance" maskUnits="userSpaceOnUse" x="-42" y="-53" width="222" height="288">
<path d="M123.064 234.968L-41.2908 203.095L14.971 -52.0328L179.326 -20.1597L123.064 234.968Z" fill="white"/>
</mask>
<g mask="url(#mask0_1_2)">
<path fill-rule="evenodd" clip-rule="evenodd" d="M173.285 154.35C147.561 191.873 96.322 201.527 58.9335 175.896C21.545 150.264 12.075 98.9905 37.799 61.4673C63.5231 23.9441 105.436 11.1179 147.788 38.3787C189.822 65.4353 199.009 116.827 173.285 154.35Z" stroke="#A3D9FF" stroke-width="46.6417" stroke-miterlimit="1.5" stroke-linecap="round" stroke-linejoin="round"/>
</g>
<path fill-rule="evenodd" clip-rule="evenodd" d="M74.5649 127.444C74.7471 126.93 76.0748 123.192 76.4562 120.899C76.5947 120.067 76.4936 119.97 75.676 119.737C76.1644 119.738 76.6162 119.453 77.1013 119.397C78.8391 119.193 80.0028 120.143 80.2032 120.307C84.2244 123.589 84.0268 123.766 87.7223 127.444C88.4117 127.378 100.914 125.317 105.199 128.048C104.856 128.08 104.892 128.134 101.052 129.213C111.336 125.896 110.447 124.342 112.301 122.593L112.692 122.022C113.37 129.485 105.989 127.64 105.934 127.444C105.756 126.817 108.876 124.956 109.019 121.036C109.723 101.697 101.59 94.4276 97.9979 91.7687C92.9841 88.0571 82.3312 91.3489 80.3067 92.44C78.5803 93.3705 73.9125 98.2018 72.7999 103.095C70.7228 112.23 74.2635 127.17 74.5649 127.444Z" fill="white"/>
<path d="M108.882 159.245C108.87 159.292 118.101 158.169 120.596 159.332" stroke="black" stroke-width="17.4418" stroke-miterlimit="1.22093" stroke-linecap="round" stroke-linejoin="round"/>
<path d="M105.993 164.511C105.993 164.511 109.785 165.371 117.415 171.121" stroke="black" stroke-width="17.4418" stroke-miterlimit="1.22093" stroke-linecap="round" stroke-linejoin="round"/>
<path d="M106.401 52.5608C116.707 62.0019 126.846 82.4924 129.842 97.352C134.266 119.291 134.523 144.906 128.009 150.532" stroke="#BD498B" stroke-width="7.00124" stroke-miterlimit="1.22093" stroke-linecap="round" stroke-linejoin="round"/>
<path fill-rule="evenodd" clip-rule="evenodd" d="M143.242 60.3825C143.242 60.3825 163.751 84.0382 137.731 156.73C133.271 138.948 126.672 133.666 126.361 133.07C126.361 133.07 126.619 133.308 126.978 127.739C127.336 122.169 128.521 111.838 129.698 104.88C130.47 100.323 131.903 88.9884 135.459 76.8465C136.157 74.4652 136.848 72.0247 137.808 69.6545C142.085 59.0794 143.059 61.1205 143.242 60.3825Z" fill="#C4DEE1"/>
<path fill-rule="evenodd" clip-rule="evenodd" d="M137.731 156.73C162.025 88.8574 145.756 63.7345 143.493 60.7018C146.623 61.3954 156.606 69.5233 164.906 78.2989C172.15 85.9581 172.527 88.6135 175.36 96.4564C189.137 140.148 152.27 179.567 152.213 171.649C151.861 171.391 154.583 167.548 145.729 171.466C138.67 174.588 135.616 173.392 135.335 172.733C138.078 168.96 139.503 163.797 137.731 156.73Z" fill="#A2D0E4"/>
<path d="M76.4798 130.36C74.978 131.378 64.6801 138.877 60.3193 147.185C58.3646 150.908 58.1589 157.67 58.2403 159.561C58.5782 167.404 69.0311 174.333 72.6769 174.224" stroke="white" stroke-width="6.97824" stroke-miterlimit="1.5" stroke-linecap="round" stroke-linejoin="round"/>
<path d="M73.5007 133.195C73.6968 133.394 73.7082 116.232 75.6819 113.508C77.643 110.801 87.9099 127.162 87.7221 127.444C87.584 127.651 89.9943 126.978 95.604 127.444C97.6233 127.612 102.614 128.653 104.005 128.686C104.851 128.982 115.638 115.822 119.322 115.145C123.165 114.438 124.375 132.865 124.954 133.195C128.144 135.011 137.111 141.844 138.753 156.586C139.206 160.66 139.05 164.429 138.488 166.846C137.694 170.248 134.408 173.147 132.813 174.561C127.54 179.241 120.351 180.393 118.06 181.052" stroke="#BD498B" stroke-width="4.62729" stroke-miterlimit="1.5" stroke-linecap="round" stroke-linejoin="round"/>
<path fill-rule="evenodd" clip-rule="evenodd" d="M72.9919 134.806C72.9919 134.806 72.9886 114.965 75.5589 112.848C78.1291 110.73 87.9101 127.162 87.7223 127.444C87.5345 127.726 99.8836 127.54 104.944 130.765C104.944 130.765 115.464 115.761 119.322 115.145C123.18 114.528 126.05 132.474 126.361 133.07C126.672 133.666 134.252 138.73 137.731 156.73C138.773 162.123 136.364 168.073 134.526 170.626C130.268 176.537 121.312 179.713 119.322 180.696C117.488 181.603 107.689 184.428 91.9915 182.825C69.4366 180.52 64.3367 173.574 62.7061 171.567C62.0429 170.752 61.6829 170.166 60.9873 169.393C59.2861 167.508 58.1923 164.893 57.9132 160.94C57.7976 159.301 57.8219 157.433 58.0011 155.291C58.2366 152.477 59.3407 149.387 60.7735 146.437C64.137 139.514 72.9919 134.806 72.9919 134.806Z" fill="white"/>
<path fill-rule="evenodd" clip-rule="evenodd" d="M68.2146 134.214C68.2146 134.214 69.1484 132.897 69.7609 131.863C71.3798 129.133 70.5562 123.654 71.5987 118.341C72.3094 114.719 73.6936 112.364 74.5548 111.654C75.1828 111.137 76.3253 111.764 77.6909 113.011C81.9151 116.87 88.273 126.664 88.131 126.877C88.0297 127.029 91.2062 126.625 94.9475 126.727C98.139 126.815 101.742 127.271 104.071 128.756C104.071 128.756 116.211 115.201 120.069 114.585C123.927 113.968 126.154 132.166 126.5 132.942C126.774 133.555 134.897 138.518 139.357 156.3C132.116 161.983 124.751 161.817 124.038 161.906C118.344 162.619 107.817 161.723 102.706 160.077C87.3157 155.121 85.9325 145.262 85.5418 143.094C83.0289 147.32 79.0816 153.746 69.0554 155.381C64.3755 156.144 59.5935 156.68 57.547 156.3C57.5871 154.766 57.8015 153.23 58.1606 151.719C59.0729 147.884 60.717 144.112 63.0079 141.106C65.058 138.417 68.0275 134.544 68.2146 134.214Z" fill="#BD498B"/>
<path fill-rule="evenodd" clip-rule="evenodd" d="M133.1 175.551C133.102 175.544 133.104 175.537 133.105 175.53L133.464 174.633L134 173.87L134.96 173.123C135.337 172.517 135.981 171.563 136.511 171.199L137.925 170.575L139.462 170.504C141.195 170.723 145.469 169.854 149.282 170.092C152.919 170.318 156.139 171.515 157.915 174.02C161.991 179.768 159.278 185.882 153.318 190.592C148.175 194.657 140.724 197.62 135.71 198.252C132.662 198.637 130.297 198.054 129.041 197.07C127.7 196.018 126.801 193.796 127.071 190.816C127.449 186.65 129.813 180.483 131.335 177.72C131.76 176.948 132.16 176.381 132.456 176.048L133.1 175.551ZM135.813 172.847L136.282 172.703C136.133 172.72 135.974 172.773 135.813 172.847ZM136.302 175.023L136.905 175.317C136.694 175.179 136.493 175.085 136.302 175.023ZM134.212 180.996L133.43 180.618C133.676 180.778 133.937 180.907 134.212 180.996ZM133.425 191.987C133.988 192 134.805 191.992 135.471 191.884C138.566 191.379 142.582 189.888 146.112 187.831C148.866 186.225 151.348 184.298 152.687 182.143C153.567 180.723 153.813 179.193 152.745 177.686C152.369 177.155 151.733 176.921 151.047 176.737C149.869 176.421 148.513 176.362 147.166 176.384C144.517 176.426 141.884 176.753 140.089 176.821C139.858 177.206 139.588 177.617 139.376 177.831L139.058 178.069C138.972 178.487 138.863 178.947 138.763 179.171L138.261 179.996L137.617 180.614L136.848 181.007C136.097 182.62 134.406 186.407 133.76 189.192C133.555 190.076 133.463 191.262 133.425 191.987Z" fill="#BD498B"/>
<path fill-rule="evenodd" clip-rule="evenodd" d="M136.378 174.779C137.041 174.342 137.584 174.221 137.945 174.346C140.808 175.339 151.382 171.94 153.738 178.784C154.424 180.775 154.739 182.104 153.738 183.865C148.777 192.595 134.384 195.31 130.506 192.983C127.783 191.349 126.211 179.916 126.264 179.912C127.462 179.823 134.245 176.182 136.378 174.779Z" fill="#A3D9FF"/>
<path fill-rule="evenodd" clip-rule="evenodd" d="M149.981 31.2299C145.784 26.3626 154.715 15.6105 160.244 18.823C176.004 27.9787 188.255 44.4994 181.464 62.7328C176.343 76.4863 171.417 68.8277 160.793 58.5336C155.839 53.7335 152.613 45.7096 146.963 41.613C138.222 35.2734 139.447 27.3946 150.123 35.1728C151.226 35.9758 151.312 32.7749 149.981 31.2299Z" fill="#A3D9FF"/>
<path fill-rule="evenodd" clip-rule="evenodd" d="M124.42 40.0049C122.361 39.9019 120.772 38.1458 120.875 36.0867C120.978 34.0275 122.733 32.4388 124.793 32.5418C139.085 33.2567 156.536 44.6236 171.73 57.5742C173.3 58.9117 173.487 61.2711 172.15 62.8405C170.812 64.4099 168.452 64.5976 166.882 63.2601C153.055 51.4737 137.428 40.6553 124.42 40.0049Z" fill="#A3D9FF"/>
<path fill-rule="evenodd" clip-rule="evenodd" d="M47.4408 104.031C47.4247 92.2686 55.7298 34.3563 116.652 39.4667C136.932 41.1678 158.843 52.5891 165.904 60.9567C174.178 70.7641 172.097 83.4065 169.518 84.7037C167.501 85.7177 165.633 85.3351 165.294 85.3028C161.484 84.9396 155.264 77.9315 153.252 76.5713C145.211 71.1358 135.797 57.22 112.411 54.0707C105.188 53.0979 81.5764 54.7721 64.4896 71.8727C56.296 80.0729 52.6565 94.0349 47.4408 104.031Z" fill="#BD498B" stroke="#BD498B" stroke-width="0.999536" stroke-miterlimit="2" stroke-linejoin="round"/>
<path d="M124.6 181.997C124.6 181.997 131.427 182.478 133.873 183.647C144.681 188.815 139.179 200.893 130.725 209.31C128.121 211.903 118.982 216.935 116.212 215.714" stroke="#BD498B" stroke-width="5.14458" stroke-miterlimit="1.22093" stroke-linecap="round" stroke-linejoin="round"/>
<path fill-rule="evenodd" clip-rule="evenodd" d="M109.302 184.351C111.215 182.677 118.227 181.807 124.228 182.266C127.923 182.549 131.282 183.745 132.689 184.351C134.025 184.927 135.92 187.635 136.576 188.865C138.218 191.945 137.51 194.625 135.869 198.961C135.072 201.068 132.773 204.323 129.776 206.961C126.534 209.816 122.924 212.059 120.661 212.42C115.656 213.22 93.3733 192.263 109.302 184.351Z" fill="#A3D9FF"/>
<path d="M83.9333 156.029C83.9583 155.994 83.9833 155.96 84.0083 155.926" stroke="#D53F77" stroke-width="3.42554" stroke-miterlimit="1.5" stroke-linecap="round" stroke-linejoin="round"/>
<path d="M70.9605 152.764L70.9715 152.787" stroke="#A3D9FF" stroke-width="3.42554" stroke-miterlimit="1.5" stroke-linecap="round" stroke-linejoin="round"/>
<path d="M70.9441 152.702C71.075 152.608 71.2058 152.515 71.3367 152.42" stroke="#A3D9FF" stroke-width="8.7563" stroke-miterlimit="1.5" stroke-linecap="round" stroke-linejoin="round"/>
<path d="M98.7256 154.378L98.6044 154.368" stroke="#A3D9FF" stroke-width="9.02573" stroke-miterlimit="1.5" stroke-linecap="round" stroke-linejoin="round"/>
<path d="M147.438 161.328C147.333 161.494 147.034 161.469 146.543 161.252C146.338 161.163 146.125 161.048 145.9 160.906C145.675 160.763 145.457 160.59 145.244 160.386C144.851 160.014 144.72 159.725 144.85 159.52L148.289 154.106C148.666 153.511 149.453 153.47 150.647 153.982C150.906 154.092 151.089 154.181 151.196 154.249L154.216 160.972C154.216 160.972 155.929 158.275 155.935 158.265C156.071 158.051 156.401 158.048 156.925 158.258C157.174 158.361 157.421 158.49 157.665 158.646C157.908 158.8 158.148 158.994 158.384 159.226C158.804 159.643 158.942 159.963 158.8 160.188L155.185 165.88C155.129 165.967 154.733 165.938 153.997 165.793C153.262 165.647 152.821 165.528 152.674 165.434C152.528 165.342 152.445 165.268 152.424 165.214L149.288 158.417L147.438 161.328Z" fill="#E4E3DE"/>
<path d="M158.832 157.739C158.531 157.593 158.223 157.335 157.908 156.963C157.593 156.593 157.414 156.268 157.369 155.99C157.852 155.736 158.191 155.405 158.387 155L158.544 154.479C158.649 153.837 158.343 153.329 157.625 152.955L153.648 151.028L153.043 152.276C152.957 152.453 152.674 152.47 152.191 152.326C151.957 152.251 151.726 152.158 151.497 152.048C151.268 151.937 151.053 151.813 150.849 151.676C150.438 151.387 150.274 151.153 150.36 150.977L152.159 147.264C152.259 147.056 152.395 146.929 152.565 146.883C152.734 146.837 152.903 146.854 153.069 146.934L160.432 150.501C161.451 150.995 162.061 151.711 162.261 152.649C162.462 153.587 162.331 154.532 161.87 155.484C161.41 156.435 160.91 157.108 160.372 157.502C159.835 157.897 159.321 157.976 158.832 157.739Z" fill="#E4E3DE"/>
<path d="M155.249 140.338C155.036 140.248 155.174 139.625 155.665 138.471C156.154 137.317 156.506 136.786 156.719 136.876L164.042 139.986C165.127 140.447 165.847 141.212 166.203 142.279C166.559 143.347 166.447 144.564 165.867 145.931C165.286 147.298 164.46 148.259 163.39 148.815C162.318 149.37 161.182 149.393 159.98 148.882L152.913 145.88C152.7 145.79 152.839 145.168 153.329 144.014C153.819 142.86 154.171 142.328 154.383 142.418L161.579 145.474C161.791 145.565 162.009 145.526 162.231 145.356C162.458 145.177 162.626 144.959 162.734 144.704C162.843 144.449 162.883 144.193 162.854 143.935C162.825 143.678 162.693 143.5 162.459 143.4L155.249 140.338Z" fill="#E4E3DE"/>
<path d="M165.482 131.853L164.042 138.546C163.998 138.749 163.803 138.861 163.456 138.881C163.277 138.89 163.108 138.877 162.95 138.843C162.792 138.809 162.633 138.751 162.473 138.669C162.165 138.509 162.033 138.327 162.077 138.123L163.516 131.43C163.56 131.226 163.755 131.115 164.102 131.094C164.281 131.086 164.45 131.099 164.608 131.133C164.766 131.167 164.925 131.224 165.085 131.306C165.393 131.467 165.525 131.649 165.482 131.853Z" fill="#E4E3DE"/>
<path d="M157.911 124.353C158.001 123.515 158.199 122.789 158.503 122.177C158.807 121.565 159.161 121.281 159.563 121.324C159.965 121.368 160.445 121.574 161.004 121.942C161.563 122.31 161.831 122.598 161.809 122.805C161.802 122.862 161.764 122.924 161.692 122.992C161.621 123.06 161.534 123.225 161.43 123.487C161.326 123.749 161.264 123.978 161.243 124.173C161.171 124.839 161.348 125.402 161.775 125.86C162.202 126.319 162.901 126.601 163.872 126.706C164.843 126.811 165.586 126.679 166.103 126.31C166.619 125.941 166.912 125.436 166.981 124.793C167.01 124.528 167.004 124.228 166.965 123.893C166.926 123.557 166.844 123.313 166.722 123.161C166.701 123.135 166.695 123.088 166.702 123.019C166.709 122.95 166.853 122.835 167.132 122.673C167.41 122.511 167.769 122.373 168.205 122.257C168.642 122.141 168.975 122.096 169.205 122.121C169.653 122.169 169.972 122.552 170.162 123.27C170.351 123.988 170.396 124.818 170.294 125.76C170.13 127.277 169.462 128.466 168.287 129.327C167.113 130.188 165.553 130.514 163.606 130.303C161.658 130.093 160.182 129.425 159.176 128.299C158.17 127.174 157.748 125.859 157.911 124.353Z" fill="#E4E3DE"/>
<path d="M170.499 117.45C170.603 117.451 170.651 117.934 170.643 118.899C170.636 119.863 170.551 120.345 170.39 120.344L158.516 120.249C158.435 120.249 158.379 120.069 158.347 119.711C158.315 119.352 158.3 119.052 158.302 118.809C158.31 117.839 158.418 117.354 158.626 117.355L162.093 117.383C161.901 116.734 161.807 116.243 161.81 115.908C161.817 115.029 162.056 114.338 162.528 113.833C163 113.329 163.872 113.081 165.143 113.091L170.516 113.134C170.62 113.135 170.668 113.586 170.661 114.487C170.618 115.504 170.556 116.012 170.476 116.011L165.38 115.971C164.814 115.966 164.529 116.149 164.526 116.518C164.524 116.772 164.643 117.069 164.883 117.406L170.499 117.45Z" fill="#E4E3DE"/>
<path d="M170.373 108.588C170.466 108.582 170.547 109.106 170.619 110.161C170.69 111.216 170.686 111.746 170.605 111.751L162.114 112.328C162.034 112.334 161.958 111.809 161.886 110.754C161.814 109.699 161.813 109.169 161.882 109.165L170.373 108.588ZM160.862 109.234C160.942 109.229 161.019 109.754 161.091 110.809C161.162 111.864 161.163 112.393 161.094 112.398L158.604 112.567C158.488 112.575 158.395 112.051 158.323 110.996C158.252 109.941 158.251 109.411 158.319 109.407L160.862 109.234Z" fill="#E4E3DE"/>
<path d="M169.523 102.887C169.603 102.875 169.707 103.28 169.834 104.102C169.978 105.249 170.004 105.83 169.913 105.844L164.364 106.707L164.432 107.152C164.479 107.45 164.258 107.683 163.77 107.852C163.625 107.898 163.478 107.932 163.33 107.956C162.976 108.011 162.611 107.997 162.236 107.916C161.702 107.788 161.401 107.507 161.333 107.074C161.266 106.64 161.308 106.236 161.46 105.861C161.613 105.486 161.782 105.226 161.97 105.08C161.242 104.457 160.8 103.648 160.646 102.655C160.491 101.661 160.647 100.9 161.115 100.372C161.582 99.8427 162.427 99.483 163.648 99.2933L168.787 98.4934C168.924 98.4722 169.068 98.9499 169.22 99.926C169.372 100.902 169.379 101.401 169.242 101.422L164.292 102.192C163.721 102.281 163.467 102.525 163.529 102.925C163.547 103.039 163.621 103.192 163.75 103.382C163.878 103.573 163.97 103.693 164.025 103.742L169.523 102.887Z" fill="#E4E3DE"/>
<path d="M162.146 97.3142C161.685 97.7909 161.281 98.0815 160.933 98.1868C160.584 98.2916 160.332 98.2652 160.176 98.107C159.709 97.5598 159.31 96.7357 158.978 95.6349C158.646 94.534 158.669 93.6792 159.046 93.0709C159.424 92.4621 160.116 92.0062 161.123 91.7025L163.745 90.9115L163.575 90.3474C163.518 90.1596 163.585 89.9794 163.774 89.8074C163.964 89.636 164.252 89.4915 164.64 89.375C165.027 89.2579 165.438 89.2401 165.872 89.3199C166.307 89.4003 166.574 89.6064 166.674 89.9383C166.855 90.536 166.839 91.0651 166.629 91.5268C166.546 91.7328 166.424 91.9085 166.262 92.0539C167.057 92.3695 167.616 93.0638 167.94 94.1368C168.184 94.9445 168.101 95.7115 167.692 96.4385C167.284 97.1648 166.687 97.6465 165.902 97.8835C164.098 98.4274 162.871 97.6205 162.221 95.4632L161.946 94.5501L161.779 94.6C161.492 94.6868 161.321 94.7901 161.266 94.9086C161.212 95.0277 161.236 95.2586 161.34 95.6019C161.466 96.0226 161.735 96.5934 162.146 97.3142ZM164.798 95.0659C165.042 94.9925 165.207 94.8701 165.294 94.6995C165.382 94.5282 165.394 94.34 165.333 94.1357C165.271 93.9308 165.132 93.7707 164.916 93.6544L163.638 94.0398L163.779 94.5042C163.938 95.0353 164.279 95.2227 164.798 95.0659Z" fill="#E4E3DE"/>
</svg>
