<svg width="849" height="222" viewBox="0 0 849 222" fill="none" xmlns="http://www.w3.org/2000/svg">
<g clip-path="url(#clip0_6_2)">
<path d="M51.7862 166.551C51.7862 166.551 65.6767 160.841 66.2298 160.775" stroke="black" stroke-width="17.4419" stroke-miterlimit="1.22093" stroke-linecap="round" stroke-linejoin="round"/>
<path d="M51.945 153.731C51.8218 153.578 65.0877 154.717 64.6069 154.777" stroke="black" stroke-width="15.5041" stroke-miterlimit="1.22093" stroke-linecap="round" stroke-linejoin="round"/>
<path fill-rule="evenodd" clip-rule="evenodd" d="M22.5475 78.7826C23.7931 77.9315 29.5358 74.89 30.0215 73.6759C27.6653 66.4728 32.186 57.0642 45.8522 47.8736C48.0787 46.3763 55.9227 41.6372 56.5783 41.3175C59.135 40.0705 73.6501 43.1008 76.2235 41.9714C77.0906 41.591 69.0942 50.2299 70.0189 47.0904C75.3005 29.1561 74.705 41.6278 94.5212 52.7234C97.3861 54.3276 102.074 57.0416 104.378 58.5821C105.516 59.3425 109.491 63.3118 110.024 63.8149C113.107 66.7255 125.43 76.2313 126.506 92.0709C127.115 101.05 128.251 93.0734 132.183 95.7885C147.073 106.071 135.866 140.46 128.679 144.08C126.714 145.069 126.127 145.006 125.43 142.921C124.483 140.091 124.814 131.785 124.955 133.215C125.198 132.069 122.457 114.579 119.374 115.263C115.85 116.045 103.518 129.52 105.2 128.068C103.41 126.927 101.009 126.749 100.629 126.721C93.7114 126.211 88.4693 127.392 87.7232 127.464C81.8317 118.03 82.2466 117.741 78.7602 114.089C77.0217 112.268 76.1388 111.388 75.0712 113.665C73.5469 116.916 71.216 137.459 71.8009 133.215C71.7879 133.233 58.9172 145.119 58.6467 155.907C58.4492 163.792 61.5136 172.007 64.6482 174.027C72.7863 181.208 97.8823 185.434 118.061 181.072C119.223 180.737 133.602 174.919 136.636 173.931C142.959 174.09 147.284 176.4 147.304 177.368C147.354 179.996 130.461 192.512 130.769 191.034C125.033 195.951 79.1128 202.83 51.8443 182.519C31.2483 167.177 5.93619 131.463 22.5475 78.7826Z" fill="#8C8C8C" stroke="#8C8C8C" stroke-width="0.999539" stroke-miterlimit="2" stroke-linejoin="round"/>
<mask id="mask0_6_2" style="mask-type:luminance" maskUnits="userSpaceOnUse" x="25" y="125" width="117" height="96">
<path d="M121.443 125.027L141.681 191.949L46.1782 220.831L25.9406 153.908L121.443 125.027Z" fill="white"/>
</mask>
<g mask="url(#mask0_6_2)">
<path fill-rule="evenodd" clip-rule="evenodd" d="M6.88265 137.474C6.20139 134.831 7.79292 132.132 10.4352 131.451C13.0785 130.769 15.7765 132.361 16.4588 135.004C18.5603 143.149 24.6858 151.689 32.224 159.542C43.9824 171.792 59.2992 182.296 69.9242 186.631C86.0714 193.218 101.59 190.972 112.172 189.715C115.582 189.309 118.535 188.625 120.917 187.724C123.161 186.876 125.407 185.526 127.032 184.236C127.672 183.727 128.245 183.333 128.446 182.952C129.722 180.539 132.716 179.616 135.129 180.892C137.541 182.167 138.464 185.162 137.189 187.574C135.864 190.081 130.243 194.772 124.413 196.975C121.394 198.116 117.661 199.021 113.339 199.535C101.524 200.938 84.2191 203.144 66.1888 195.788C54.6228 191.069 37.8877 179.724 25.09 166.391C16.2577 157.19 9.345 147.016 6.88265 137.474Z" fill="#654747"/>
</g>
<path fill-rule="evenodd" clip-rule="evenodd" d="M173.84 165.191C155.415 192.066 124.637 205.449 94.3894 202.912C79.8893 201.696 65.5112 196.821 52.674 188.02C13.0574 160.861 3.02293 106.533 30.2799 66.7733C57.5368 27.0141 101.947 13.4235 146.823 42.3089C191.362 70.9778 201.097 125.431 173.84 165.191Z" stroke="black" stroke-width="6.16961" stroke-miterlimit="1.5" stroke-linecap="round" stroke-linejoin="round"/>
<path fill-rule="evenodd" clip-rule="evenodd" d="M74.5657 127.464C74.748 126.95 76.0756 123.212 76.4571 120.919C76.5956 120.087 76.4944 119.99 75.6769 119.756C76.1653 119.758 76.6171 119.473 77.1022 119.416C78.84 119.213 80.0037 120.163 80.2041 120.326C84.2253 123.609 84.0277 123.786 87.7232 127.464C88.4126 127.397 100.915 125.336 105.2 128.068C104.857 128.1 104.893 128.154 101.053 129.233C111.337 125.916 110.448 124.362 112.302 122.612L112.693 122.042C113.371 129.505 105.99 127.66 105.935 127.464C105.757 126.836 108.877 124.976 109.02 121.055C109.724 101.717 101.492 95.5251 97.9 92.8662C92.8861 89.1547 81.9997 90.9021 80.3076 92.4596C76.7008 95.7798 75.3137 98.9954 74.2012 103.888C72.1241 113.023 74.2644 127.19 74.5657 127.464Z" fill="white"/>
<path d="M108.883 159.265C108.871 159.312 118.102 158.189 120.597 159.351" stroke="black" stroke-width="17.4419" stroke-miterlimit="1.22093" stroke-linecap="round" stroke-linejoin="round"/>
<path d="M105.994 164.531C105.994 164.531 109.786 165.391 117.416 171.14" stroke="black" stroke-width="17.4419" stroke-miterlimit="1.22093" stroke-linecap="round" stroke-linejoin="round"/>
<path d="M82.8352 47.34C103.609 47.8045 133.673 82.2379 128.218 104.08C127.524 106.855 127.858 107.141 127.652 109.972C126.234 129.289 127.669 147.07 121.987 151.977" stroke="#363636" stroke-width="3.73072" stroke-miterlimit="1.22093" stroke-linecap="round" stroke-linejoin="round"/>
<path fill-rule="evenodd" clip-rule="evenodd" d="M147.913 65.8837C150.547 67.0561 176.776 91.4036 137.732 156.75C133.272 138.967 126.673 133.686 126.362 133.09C126.363 133.084 127.185 132.505 126.754 131.142C125.584 127.44 123.34 126.051 123.418 119.027C123.553 106.82 138.336 68.627 138.744 67.8909C143.001 60.2197 147.741 66.5738 147.913 65.8837Z" fill="#C4DEE1"/>
<path fill-rule="evenodd" clip-rule="evenodd" d="M137.732 156.75C141.752 145.52 147.348 135.572 149.394 126.589C159.713 81.2796 145.384 63.2523 143.494 60.7214C146.624 61.4149 156.607 69.5429 164.907 78.3185C172.152 85.9777 172.528 88.6332 175.361 96.476C189.138 140.168 159.501 170.378 151.726 173.268C149.803 174.923 150.638 173.419 141.784 177.336C134.725 180.459 135.617 173.411 135.336 172.753C138.079 168.98 139.504 163.817 137.732 156.75Z" fill="#A2D0E4"/>
<path d="M76.4807 130.379C74.9788 131.398 65.2585 139.004 60.8979 147.311C58.9432 151.035 58.1597 157.689 58.2411 159.58C58.5791 167.424 69.0319 174.353 72.6778 174.244" stroke="white" stroke-width="6.97826" stroke-miterlimit="1.5" stroke-linecap="round" stroke-linejoin="round"/>
<path d="M138.404 71.565C133.516 78.523 120.88 112.68 122.176 121.028" stroke="#654747" stroke-width="2.41" stroke-miterlimit="1.5" stroke-linecap="round" stroke-linejoin="round"/>
<path d="M73.5016 133.215C73.6977 133.414 73.7092 116.252 75.6828 113.528C77.644 110.821 87.9109 127.182 87.723 127.464C87.5849 127.671 89.9952 126.998 95.6049 127.464C97.6242 127.631 102.614 128.673 104.005 128.706C104.852 129.002 115.639 115.842 119.323 115.164C123.166 114.457 126.379 134.107 126.959 134.437C130.149 136.253 137.112 141.864 138.754 156.606C139.207 160.68 139.051 164.448 138.489 166.866C137.695 170.268 134.409 173.166 132.814 174.581C127.54 179.261 120.352 180.413 118.061 181.072" stroke="#654747" stroke-width="4.62729" stroke-miterlimit="1.5" stroke-linecap="round" stroke-linejoin="round"/>
<path fill-rule="evenodd" clip-rule="evenodd" d="M72.9927 134.826C72.9927 134.826 72.9895 114.985 75.5597 112.867C78.13 110.75 87.911 127.182 87.7232 127.464C87.5354 127.746 99.8846 127.559 104.945 130.785C104.945 130.785 115.465 115.781 119.323 115.164C123.181 114.548 126.051 132.494 126.362 133.09C126.673 133.686 134.253 138.75 137.732 156.75C138.774 162.143 136.365 168.093 134.527 170.646C130.269 176.556 121.313 179.733 119.323 180.716C117.489 181.623 107.69 184.448 91.9924 182.845C69.4374 180.54 64.3375 173.594 62.7069 171.587C62.0437 170.771 61.6838 170.186 60.9881 169.413C59.287 167.528 58.1931 164.913 57.914 160.96C57.7984 159.321 57.8228 157.453 58.0019 155.311C58.2374 152.496 59.3415 149.407 60.7743 146.457C64.1378 139.534 72.9927 134.826 72.9927 134.826Z" fill="white"/>
<path fill-rule="evenodd" clip-rule="evenodd" d="M68.2154 134.234C68.2154 134.234 69.1492 132.917 69.7618 131.883C71.3806 129.153 70.5571 123.673 71.5995 118.361C72.3103 114.738 73.6945 112.383 74.5557 111.674C75.1837 111.156 76.3262 111.783 77.6918 113.031C81.916 116.89 88.2739 126.684 88.132 126.897C88.0307 127.049 91.2071 126.645 94.9484 126.747C98.1399 126.834 101.743 127.29 104.072 128.775C104.072 128.775 116.212 115.221 120.07 114.604C123.928 113.988 125.837 132.433 126.501 132.961C127.814 134.006 136.087 141.522 138.112 158.268C130.372 162.67 127.194 162.359 124.09 162.528C118.361 162.842 107.818 161.743 102.707 160.097C87.3166 155.141 85.9334 145.281 85.5427 143.114C83.0298 147.339 79.0825 153.766 69.0563 155.401C64.3764 156.164 59.5943 156.7 57.5479 156.32C57.5879 154.786 57.8023 153.249 58.1615 151.739C59.0738 147.904 60.7178 144.132 63.0087 141.126C65.0589 138.436 68.0284 134.564 68.2154 134.234Z" fill="#E4E3DE"/>
<path fill-rule="evenodd" clip-rule="evenodd" d="M134.344 176.331C134.373 176.177 134.403 176.033 134.434 175.925L134.68 175.305L135.023 174.816L135.636 174.338L135.924 174.251C136.076 173.965 136.439 173.305 136.716 172.981L137.121 172.582L137.657 172.225L138.302 171.978L138.997 171.878C138.98 171.879 138.941 171.883 138.941 171.883C138.941 171.883 139.821 171.634 140.481 171.491C141.698 171.226 143.204 171.111 144.762 171.685C146.262 172.238 147.865 173.43 149.234 175.956C153.341 183.527 147.796 189.163 141.765 191.427C139.435 192.301 137.066 192.645 135.265 192.444C133.649 192.263 132.423 191.625 131.722 190.728C130.732 189.46 130.389 187.399 130.612 185.169C130.896 182.324 132.008 179.214 132.857 177.778C133.069 177.419 133.277 177.139 133.46 176.942L133.835 176.602L134.222 176.369L134.344 176.331ZM135.92 176.375L136.15 176.49C136.07 176.438 135.994 176.401 135.92 176.375ZM134.568 179.669L134.188 179.483C134.309 179.563 134.436 179.625 134.568 179.669ZM139.368 175.432C139.253 175.649 139.007 176.101 138.859 176.327L138.407 176.89L137.928 177.27L137.815 177.324C137.767 177.641 137.697 178.064 137.633 178.277L137.323 178.965L136.798 179.525L136.197 179.832L135.795 179.891C135.683 180.098 135.561 180.341 135.465 180.565C134.966 181.743 134.47 183.37 134.243 184.957C134.126 185.772 134.078 186.574 134.157 187.288C134.21 187.773 134.3 188.213 134.544 188.524C134.753 188.793 135.18 188.832 135.663 188.887C137.007 189.037 138.768 188.728 140.509 188.076C144.656 186.519 148.913 182.868 146.089 177.662C145.338 176.279 144.543 175.493 143.718 175.123C142.53 174.589 141.375 174.937 140.59 175.151C140.102 175.284 139.685 175.388 139.368 175.432Z" fill="#654747"/>
<path fill-rule="evenodd" clip-rule="evenodd" d="M136.18 175.191C136.844 174.754 138.554 174.114 139.515 174.255C142.799 174.733 143.031 173.798 146.965 177.605C148.327 178.922 148.035 184.048 146.534 185.409C139.846 191.476 133.221 193.534 130.507 193.003C127.391 192.393 128.148 180.753 128.202 180.75C129.4 180.66 134.049 176.594 136.18 175.191Z" fill="#808080"/>
<path fill-rule="evenodd" clip-rule="evenodd" d="M22.4645 89.5464C26.4928 76.292 43.6718 45.9666 73.1308 33.8113C86.4694 28.3075 99.8971 27.5787 116.659 30.6234C142.264 35.2744 160.9 51.3513 163.197 65.1176C165.483 78.8201 155.802 91.2843 144.698 79.6765C138.041 72.7167 125.38 56.7627 117.152 53.252C109.295 49.9 104.493 45.6257 81.6806 48.6651C55.6174 52.1376 48.0799 61.8625 46.9517 62.6297C41.5521 66.3026 27.7753 79.5117 22.4645 89.5464Z" fill="#363636" stroke="#363636" stroke-width="0.999537" stroke-miterlimit="2" stroke-linejoin="round"/>
<path d="M124.601 182.017C124.601 182.017 131.652 182.164 133.873 183.667C144.316 190.733 133.698 197.881 127.303 198.535C123.969 198.876 108.797 195.292 105.673 193.619" stroke="#654747" stroke-width="5.14457" stroke-miterlimit="1.22093" stroke-linecap="round" stroke-linejoin="round"/>
<path fill-rule="evenodd" clip-rule="evenodd" d="M110.677 183.314C112.496 182.442 119.166 181.988 124.873 182.227C128.388 182.375 131.583 182.999 132.921 183.314C134.192 183.615 136.103 185.01 136.619 185.668C138.188 187.668 136.83 190.492 136.463 191.036C135.369 192.66 135.016 194.004 133.021 195.948C129.198 199.673 126.25 197.509 119.622 195.994C117.512 195.512 114.776 196.635 110.504 196.447C101.207 196.037 82.2662 190.711 78.7617 189.464C66.3709 185.056 87.5563 186.039 110.677 183.314Z" fill="#8C8C8C"/>
<path d="M83.9342 156.048C83.9592 156.014 83.9842 155.98 84.0092 155.945" stroke="#808080" stroke-width="3.42554" stroke-miterlimit="1.5" stroke-linecap="round" stroke-linejoin="round"/>
<path d="M70.9614 152.783L70.9724 152.806" stroke="#A3D9FF" stroke-width="3.42554" stroke-miterlimit="1.5" stroke-linecap="round" stroke-linejoin="round"/>
<path d="M70.945 152.722C71.0759 152.627 71.2067 152.534 71.3376 152.44" stroke="#A2D0E4" stroke-width="8.7563" stroke-miterlimit="1.5" stroke-linecap="round" stroke-linejoin="round"/>
<path d="M98.7265 154.398L98.6053 154.387" stroke="#A2D0E4" stroke-width="9.02573" stroke-miterlimit="1.5" stroke-linecap="round" stroke-linejoin="round"/>
<path d="M147.746 163.638C147.63 163.796 147.333 163.749 146.858 163.499C146.66 163.397 146.455 163.267 146.241 163.109C146.027 162.951 145.821 162.763 145.623 162.545C145.257 162.146 145.146 161.849 145.29 161.653L149.098 156.493C149.516 155.925 150.304 155.939 151.459 156.533C151.71 156.661 151.886 156.762 151.988 156.838L154.532 163.755C154.532 163.755 156.429 161.184 156.436 161.175C156.587 160.97 156.916 160.99 157.424 161.237C157.665 161.357 157.902 161.503 158.135 161.675C158.367 161.846 158.593 162.056 158.812 162.304C159.202 162.749 159.317 163.079 159.16 163.292L155.156 168.718C155.095 168.802 154.702 168.745 153.978 168.549C153.254 168.352 152.822 168.202 152.683 168.099C152.544 167.996 152.465 167.917 152.449 167.862L149.794 160.862L147.746 163.638Z" fill="#E4E3DE"/>
<path d="M159.363 160.852C159.072 160.685 158.783 160.406 158.495 160.014C158.207 159.622 158.05 159.286 158.025 159.005C158.524 158.785 158.886 158.479 159.11 158.088L159.302 157.58C159.452 156.946 159.182 156.418 158.492 155.996L154.659 153.796L153.968 154.998C153.871 155.169 153.587 155.166 153.115 154.989C152.887 154.898 152.663 154.789 152.443 154.663C152.222 154.536 152.016 154.397 151.822 154.247C151.432 153.929 151.285 153.685 151.383 153.515L153.436 149.937C153.551 149.736 153.695 149.619 153.868 149.585C154.04 149.551 154.207 149.58 154.367 149.672L161.463 153.743C162.445 154.307 163.004 155.064 163.138 156.014C163.273 156.963 163.077 157.897 162.551 158.814C162.025 159.731 161.48 160.367 160.916 160.723C160.352 161.079 159.834 161.122 159.363 160.852Z" fill="#E4E3DE"/>
<path d="M157.002 143.243C156.795 143.138 156.977 142.527 157.547 141.41C158.116 140.293 158.504 139.787 158.71 139.892L165.798 143.506C166.848 144.041 167.513 144.854 167.794 145.944C168.075 147.034 167.878 148.24 167.204 149.563C166.53 150.886 165.638 151.787 164.531 152.267C163.424 152.747 162.289 152.69 161.126 152.097L154.285 148.609C154.079 148.504 154.261 147.894 154.83 146.777C155.4 145.66 155.788 145.153 155.993 145.258L162.958 148.809C163.163 148.914 163.383 148.89 163.617 148.737C163.856 148.573 164.039 148.368 164.165 148.121C164.291 147.874 164.348 147.621 164.337 147.362C164.326 147.104 164.208 146.917 163.981 146.801L157.002 143.243Z" fill="#E4E3DE"/>
<path d="M167.802 135.492L165.899 142.069C165.841 142.269 165.639 142.366 165.291 142.363C165.112 142.359 164.944 142.334 164.789 142.29C164.633 142.244 164.479 142.176 164.325 142.083C164.029 141.901 163.909 141.71 163.968 141.51L165.87 134.933C165.928 134.734 166.131 134.636 166.478 134.64C166.658 134.644 166.825 134.668 166.981 134.714C167.136 134.758 167.291 134.827 167.444 134.92C167.74 135.101 167.859 135.293 167.802 135.492Z" fill="#E4E3DE"/>
<path d="M160.772 127.483C160.921 126.654 161.168 125.943 161.515 125.354C161.861 124.764 162.234 124.505 162.632 124.577C163.029 124.648 163.495 124.887 164.026 125.293C164.558 125.7 164.806 126.005 164.769 126.21C164.759 126.267 164.716 126.327 164.64 126.389C164.564 126.452 164.465 126.611 164.343 126.865C164.222 127.119 164.143 127.343 164.109 127.536C163.99 128.196 164.128 128.769 164.522 129.256C164.916 129.744 165.594 130.074 166.555 130.246C167.516 130.418 168.267 130.339 168.808 130.007C169.349 129.675 169.676 129.191 169.79 128.554C169.837 128.293 169.853 127.993 169.837 127.655C169.821 127.318 169.757 127.069 169.645 126.908C169.626 126.881 169.623 126.834 169.635 126.765C169.647 126.697 169.799 126.592 170.088 126.45C170.377 126.308 170.744 126.195 171.188 126.11C171.632 126.025 171.967 126.003 172.195 126.044C172.638 126.124 172.93 126.528 173.069 127.257C173.208 127.987 173.195 128.818 173.027 129.751C172.758 131.252 172.008 132.391 170.777 133.168C169.546 133.946 167.966 134.162 166.038 133.816C164.11 133.471 162.684 132.701 161.759 131.508C160.834 130.316 160.505 128.974 160.772 127.483Z" fill="#E4E3DE"/>
<path d="M173.811 121.475C173.915 121.483 173.929 121.968 173.854 122.93C173.78 123.892 173.661 124.367 173.5 124.354L161.662 123.432C161.582 123.426 161.538 123.242 161.531 122.883C161.525 122.523 161.531 122.222 161.55 121.98C161.625 121.012 161.767 120.536 161.974 120.552L165.43 120.822C165.284 120.161 165.225 119.664 165.251 119.33C165.319 118.454 165.606 117.782 166.112 117.311C166.618 116.841 167.505 116.654 168.772 116.753L174.129 117.171C174.233 117.179 174.25 117.632 174.18 118.531C174.066 119.542 173.969 120.044 173.889 120.038L168.808 119.642C168.243 119.598 167.947 119.761 167.918 120.129C167.898 120.382 167.996 120.686 168.212 121.039L173.811 121.475Z" fill="#E4E3DE"/>
<path d="M174.304 112.625C174.397 112.626 174.441 113.155 174.44 114.212C174.437 115.27 174.396 115.798 174.315 115.798L165.804 115.781C165.724 115.781 165.684 115.252 165.686 114.195C165.688 113.137 165.724 112.609 165.793 112.609L174.304 112.625ZM164.771 112.607C164.852 112.607 164.891 113.136 164.889 114.193C164.887 115.251 164.851 115.779 164.782 115.779L162.286 115.774C162.17 115.774 162.114 115.245 162.115 114.188C162.118 113.13 162.154 112.602 162.222 112.602L164.771 112.607Z" fill="#E4E3DE"/>
<path d="M173.854 106.879C173.934 106.873 174.01 107.284 174.08 108.113C174.143 109.267 174.128 109.848 174.036 109.856L168.44 110.331L168.478 110.779C168.504 111.079 168.267 111.296 167.768 111.431C167.62 111.467 167.472 111.491 167.322 111.504C166.965 111.534 166.602 111.495 166.234 111.387C165.709 111.223 165.429 110.922 165.392 110.484C165.355 110.047 165.425 109.647 165.603 109.284C165.781 108.92 165.969 108.673 166.166 108.54C165.483 107.868 165.099 107.03 165.014 106.028C164.929 105.026 165.138 104.278 165.641 103.784C166.145 103.288 167.012 102.989 168.244 102.885L173.425 102.445C173.564 102.433 173.674 102.92 173.758 103.904C173.841 104.889 173.814 105.387 173.676 105.399L168.684 105.821C168.109 105.87 167.838 106.096 167.872 106.499C167.882 106.614 167.944 106.771 168.06 106.97C168.175 107.17 168.259 107.296 168.309 107.349L173.854 106.879Z" fill="#E4E3DE"/>
<path d="M166.883 100.806C166.391 101.249 165.967 101.511 165.612 101.591C165.257 101.672 165.007 101.628 164.863 101.459C164.435 100.88 164.094 100.031 163.84 98.9093C163.586 97.7879 163.668 96.9367 164.087 96.3564C164.507 95.7753 165.229 95.3688 166.255 95.1362L168.926 94.5299L168.795 93.9554C168.751 93.7641 168.83 93.5889 169.031 93.4306C169.233 93.2729 169.53 93.1488 169.925 93.0596C170.32 92.9698 170.731 92.9807 171.158 93.0906C171.586 93.2011 171.839 93.4254 171.915 93.7634C172.053 94.3722 172.001 94.899 171.759 95.3449C171.662 95.5446 171.528 95.7114 171.356 95.8451C172.128 96.2155 172.637 96.9471 172.885 98.04C173.072 98.8627 172.936 99.6221 172.477 100.319C172.019 101.015 171.39 101.454 170.59 101.635C168.753 102.052 167.585 101.162 167.087 98.9642L166.876 98.0342L166.707 98.0723C166.414 98.1389 166.237 98.23 166.174 98.3444C166.111 98.4594 166.119 98.6915 166.198 99.0411C166.295 99.4696 166.524 100.058 166.883 100.806ZM169.686 98.7477C169.934 98.6915 170.108 98.5809 170.207 98.4168C170.305 98.252 170.331 98.0652 170.284 97.8571C170.237 97.6483 170.11 97.479 169.902 97.3478L168.6 97.6432L168.708 98.1162C168.83 98.6572 169.157 98.8679 169.686 98.7477Z" fill="#E4E3DE"/>
<path d="M33.9362 134.092C33.8118 132.67 33.9026 131.401 34.2077 130.284C34.5132 129.169 35.0064 128.581 35.688 128.522C36.37 128.462 37.2353 128.647 38.2836 129.076C39.3323 129.505 39.8717 129.895 39.902 130.245C39.9104 130.343 39.8663 130.46 39.7705 130.595C39.6743 130.732 39.5829 131.034 39.4961 131.502C39.4089 131.971 39.3804 132.372 39.409 132.703C39.5078 133.832 39.986 134.709 40.845 135.331C41.704 135.953 42.9567 136.192 44.603 136.048C46.2493 135.905 47.441 135.443 48.1773 134.662C48.9144 133.882 49.2352 132.946 49.1402 131.855C49.1011 131.407 48.994 130.911 48.8197 130.366C48.6442 129.823 48.4302 129.443 48.1754 129.23C48.1336 129.194 48.107 129.118 48.0968 129.001C48.0864 128.884 48.2867 128.647 48.6967 128.287C49.1074 127.927 49.6563 127.58 50.3436 127.245C51.031 126.911 51.5692 126.726 51.9593 126.692C52.7185 126.626 53.3738 127.158 53.9236 128.288C54.4735 129.418 54.8178 130.781 54.957 132.379C55.1811 134.95 54.4595 137.143 52.7921 138.957C51.1243 140.77 48.6394 141.821 45.3376 142.109C42.0348 142.397 39.365 141.771 37.3268 140.23C35.2882 138.69 34.1579 136.644 33.9362 134.092Z" fill="#E4E3DE"/>
<path d="M49.9652 122.732L31.9208 120.031C31.5147 119.97 31.4588 118.959 31.7527 116.996C32.0466 115.032 32.3961 114.081 32.8021 114.142L47.0173 116.27L47.6864 111.802C47.7383 111.454 48.2292 111.281 49.1583 111.281C49.6115 111.29 50.0707 111.329 50.5345 111.398C50.999 111.468 51.4685 111.568 51.9435 111.698C52.8485 111.992 53.2749 112.313 53.2222 112.661L51.8855 121.596C51.8211 122.022 51.5969 122.334 51.2111 122.533C50.8253 122.733 50.41 122.798 49.9652 122.732Z" fill="#E4E3DE"/>
<path d="M45.4425 96.7825C45.5722 96.4343 46.2783 96.4986 47.5615 96.9757C47.9464 97.1188 48.3847 97.3287 48.8759 97.606C49.3681 97.8829 49.5731 98.1307 49.4911 98.3506L48.1921 101.842L50.9416 102.865L52.8235 97.807C52.9391 97.4953 53.4211 97.4344 54.2684 97.6249C54.6367 97.6995 55.0181 97.8096 55.4123 97.9561C55.8064 98.1026 56.2948 98.3473 56.877 98.689C57.4592 99.0308 57.7021 99.3302 57.6066 99.5868L54.1086 108.989C53.8492 109.685 53.4363 109.928 52.8679 109.717L35.19 103.14C34.7135 102.962 34.5539 102.663 34.7104 102.241L38.3725 92.3991C38.5156 92.0142 39.3986 92.1236 41.0208 92.7271C42.6423 93.3302 43.3822 93.8245 43.239 94.2095L41.346 99.2956L44.123 100.328L45.4425 96.7825Z" fill="#E4E3DE"/>
<path d="M69.0683 87.0056C67.8057 88.1466 66.9405 88.5601 66.4721 88.245L63.2166 86.0868L59.756 89.2144L61.5641 92.4836C61.8837 93.0119 61.3903 93.8659 60.0845 95.046C59.3879 95.6754 58.8367 96.1007 58.4313 96.3232C58.0254 96.5446 57.8024 96.6339 57.7636 96.59L48.2999 78.376C48.1953 78.2596 49.136 77.3037 51.1242 75.5073C53.1116 73.7107 54.158 72.8707 54.263 72.9864L71.3634 84.3387C71.4551 84.4403 71.1927 84.822 70.5781 85.483C69.9636 86.144 69.4603 86.6516 69.0683 87.0056ZM57.8022 85.9584L60.0872 83.8938L55.0372 80.2737L54.9063 80.3922L57.8022 85.9584Z" fill="#E4E3DE"/>
<path d="M78.5902 81.245C78.6901 81.5419 77.8603 81.987 76.0998 82.5808C74.3212 83.1806 73.3846 83.3419 73.2907 83.063L67.1798 64.9406C66.9613 64.2926 67.1943 63.8526 67.8805 63.6212L73.1895 61.8309C78.0628 60.1874 81.1397 61.2648 82.4208 65.0638C82.808 66.2123 82.9373 67.3301 82.8083 68.4162C82.6789 69.5013 82.3009 70.4597 81.6723 71.2906L87.1428 75.9466C87.1448 76.4416 86.8349 77.1138 86.213 77.963C85.3701 79.1352 84.5872 79.8428 83.8643 80.0858C83.1418 80.3299 82.5167 80.2512 81.9898 79.8517L77.3244 74.6452L76.463 74.9361L78.5902 81.245ZM73.8196 67.0975L75.2258 71.2667L75.3647 71.2199C77.1253 70.6261 77.7584 69.5977 77.2645 68.134C77.0396 67.4669 76.7016 67.0286 76.2492 66.8203C75.7972 66.6113 75.1815 66.638 74.4032 66.9002L73.8196 67.0975Z" fill="#E4E3DE"/>
<path d="M99.8855 76.1923C98.7246 77.4914 98.6348 78.579 99.6156 79.456C100.251 80.0245 100.894 80.3725 101.543 80.4996C101.742 80.6775 101.6 81.1636 101.115 81.9594C100.631 82.7541 100.279 83.2747 100.06 83.5197C99.8414 83.7651 99.663 83.8975 99.5255 83.9174C98.4316 83.7272 97.2752 83.0867 96.056 81.9966C94.8364 80.9073 94.2056 79.5263 94.1623 77.8539C94.1187 76.1824 94.799 74.5605 96.2026 72.9897C97.6069 71.4194 99.1621 70.5261 100.868 70.311C102.575 70.0958 104.127 70.613 105.526 71.8626C106.924 73.113 107.593 74.3186 107.532 75.4802C107.522 75.7327 107.388 76.001 107.134 76.2866C106.878 76.5711 106.514 76.8717 106.042 77.1882C105.045 77.8233 104.295 78.0347 103.792 77.8244C103.727 77.7899 103.645 77.7282 103.545 77.6396C103.446 77.5503 103.395 77.3616 103.391 77.0719C103.336 76.0933 103.153 75.4644 102.842 75.1858C102.53 74.9079 102.12 74.8265 101.61 74.9434C101.1 75.06 100.525 75.4766 99.8855 76.1923Z" fill="#E4E3DE"/>
<path d="M110.607 82.1092C111.08 81.207 111.551 80.603 112.02 80.2974C112.489 79.9909 112.873 79.9212 113.172 80.0868C114.098 80.6925 115.044 81.7359 116.01 83.2182C116.977 84.6997 117.313 85.9714 117.018 87.0334C116.724 88.0957 115.9 89.0682 114.545 89.9526L111.016 92.2537L111.511 93.0135C111.676 93.2668 111.656 93.5608 111.45 93.8968C111.245 94.2324 110.881 94.5703 110.361 94.91C109.839 95.2502 109.24 95.4553 108.564 95.5248C107.888 95.5944 107.404 95.406 107.113 94.9585C106.589 94.1549 106.382 93.3667 106.493 92.5931C106.527 92.2531 106.631 91.9413 106.806 91.6569C105.496 91.5357 104.37 90.7528 103.427 89.3083C102.718 88.2213 102.508 87.0533 102.797 85.8034C103.085 84.5535 103.758 83.5837 104.816 82.8948C107.243 81.3112 109.403 81.9718 111.297 84.8757L112.098 86.1036L112.322 85.9585C112.709 85.7053 112.917 85.4793 112.946 85.2804C112.976 85.081 112.839 84.7504 112.538 84.2887C112.169 83.7228 111.526 82.9964 110.607 82.1092ZM107.663 86.5774C107.336 86.7903 107.145 87.0426 107.09 87.333C107.035 87.6237 107.097 87.9064 107.277 88.1817C107.456 88.4575 107.731 88.6342 108.1 88.7111L109.82 87.5898L109.412 86.9645C108.946 86.2493 108.363 86.1205 107.663 86.5774Z" fill="#E4E3DE"/>
<path d="M110.674 104.945C110.492 105.019 110.13 104.431 109.589 103.18C109.005 101.666 108.782 100.882 108.919 100.826L116.992 97.5513L116.5 96.4125C116.371 96.1145 116.83 95.7527 117.88 95.3273C118.154 95.2159 118.5 95.1067 118.917 94.9982C119.335 94.8896 119.579 94.9179 119.65 95.0817L120.163 96.2654L122.17 95.4509C122.474 95.3279 122.898 95.895 123.442 97.1528C123.986 98.4114 124.137 99.0899 123.894 99.1882L122.434 99.7806L121.805 100.062L122.626 101.96C122.736 102.213 122.259 102.555 121.194 102.988C120.13 103.419 119.544 103.509 119.434 103.255L118.748 101.67L110.674 104.945Z" fill="#E4E3DE"/>
</g>
<path d="M297.8 176C289.667 176 282.867 174.933 277.4 172.8C272.067 170.533 268.067 166.6 265.4 161C262.733 155.267 261.4 147.2 261.4 136.8V83.4C261.4 72.6 264.733 64.9333 271.4 60.4C278.067 55.7333 286.867 53.4 297.8 53.4C308.733 53.4 317.267 55.6667 323.4 60.2C329.667 64.7333 332.8 72.4667 332.8 83.4V113.8H300.2V117.4H332.8V136.6C332.8 147.133 331.533 155.267 329 161C326.6 166.6 322.8 170.533 317.6 172.8C312.533 174.933 305.933 176 297.8 176ZM297.8 172.4C305.133 172.4 311.067 171.4 315.6 169.4C320.267 167.4 323.733 163.8 326 158.6C328.267 153.4 329.4 146.067 329.4 136.6V121H298.8V150.8C298.8 151.867 298.4 152.4 297.6 152.4C296.933 152.4 296.6 151.867 296.6 150.8V82C296.6 79.6 297 78.4 297.8 78.4C298.467 78.4 298.8 79.6 298.8 82V110.2H329.4V83.4C329.4 73.8 326.6 67 321 63C315.4 59 307.667 57 297.8 57C287.933 57 279.933 59 273.8 63C267.8 67 264.8 73.8 264.8 83.4V136.8C264.8 146.133 266 153.4 268.4 158.6C270.933 163.8 274.6 167.4 279.4 169.4C284.333 171.4 290.467 172.4 297.8 172.4ZM297.8 170.6C290.733 170.6 284.867 169.667 280.2 167.8C275.667 165.933 272.267 162.533 270 157.6C267.733 152.667 266.6 145.733 266.6 136.8V83.4C266.6 74.4667 269.4 68.1333 275 64.4C280.733 60.6667 288.333 58.8 297.8 58.8C307.133 58.8 314.4 60.6667 319.6 64.4C324.933 68 327.6 74.3333 327.6 83.4V108.4H300.4V82C300.4 80.5333 300.2 79.2667 299.8 78.2C299.533 77.1333 298.867 76.6 297.8 76.6C296.6 76.6 295.8 77.1333 295.4 78.2C295.133 79.2667 295 80.5333 295 82V150.6C295 151.267 295.2 152 295.6 152.8C296 153.467 296.667 153.8 297.6 153.8C298.667 153.8 299.4 153.467 299.8 152.8C300.2 152 300.4 151.267 300.4 150.6V122.8H327.6V136.6C327.6 145.533 326.533 152.467 324.4 157.4C322.4 162.333 319.2 165.8 314.8 167.8C310.533 169.667 304.867 170.6 297.8 170.6ZM343.823 174V55.8H379.223V143.4H397.023V174H343.823ZM347.223 170.4H393.823V147.2H376.023V59.4H347.223V170.4ZM348.823 168.6V61.2H374.423V149H392.223V168.6H348.823ZM441.883 176.2C433.883 176.2 427.349 175.267 422.283 173.4C417.216 171.4 413.416 167.733 410.883 162.4C408.483 157.067 407.283 149.2 407.283 138.8V101.8C407.283 91 410.283 83.5333 416.283 79.4C422.283 75.2667 430.816 73.2 441.883 73.2C452.949 73.2 461.483 75.2667 467.483 79.4C473.483 83.5333 476.483 91 476.483 101.8V138.8C476.483 149.2 475.216 157.067 472.683 162.4C470.149 167.733 466.349 171.4 461.283 173.4C456.216 175.267 449.749 176.2 441.883 176.2ZM441.883 172.6C449.083 172.6 454.949 171.733 459.483 170C464.149 168.267 467.549 165 469.683 160.2C471.949 155.267 473.083 148.133 473.083 138.8V133.2H443.083V151C443.083 152.467 442.949 153.467 442.683 154C442.549 154.4 442.283 154.6 441.883 154.6C441.083 154.6 440.683 153.4 440.683 151V128.6H473.083V101.8C473.083 92.2 470.349 85.6667 464.883 82.2C459.549 78.6 451.883 76.8 441.883 76.8C431.883 76.8 424.149 78.6 418.683 82.2C413.349 85.6667 410.683 92.2 410.683 101.8V138.8C410.683 148.133 411.749 155.267 413.883 160.2C416.149 165 419.616 168.267 424.283 170C428.949 171.733 434.816 172.6 441.883 172.6ZM441.883 170.8C435.083 170.8 429.483 170 425.083 168.4C420.683 166.667 417.416 163.533 415.283 159C413.283 154.333 412.283 147.6 412.283 138.8V101.8C412.283 92.8667 414.816 86.8 419.883 83.6C424.949 80.2667 432.283 78.6 441.883 78.6C451.349 78.6 458.616 80.2667 463.683 83.6C468.749 86.8 471.283 92.8667 471.283 101.8V126.8H438.883V151C438.883 153.133 439.149 154.6 439.683 155.4C440.216 156.067 440.949 156.4 441.883 156.4C443.749 156.4 444.683 154.6 444.683 151V135H471.283V138.8C471.283 147.6 470.216 154.333 468.083 159C466.083 163.533 462.883 166.667 458.483 168.4C454.216 170 448.683 170.8 441.883 170.8ZM438.883 114.8H444.683V97.8C444.683 94.4667 443.749 92.8 441.883 92.8C440.949 92.8 440.216 93.1333 439.683 93.8C439.149 94.4667 438.883 95.8 438.883 97.8V114.8ZM440.683 113V97.6C440.683 95.6 441.083 94.6 441.883 94.6C442.683 94.6 443.083 95.6 443.083 97.6V113H440.683ZM507.777 175.2C504.577 175.2 501.243 174.733 497.777 173.8C494.443 172.867 491.643 170.8 489.377 167.6C487.11 164.4 485.977 159.4 485.977 152.6V138.2C485.977 128.067 490.377 120.867 499.177 116.6H487.777V99.6C487.777 90.6667 490.043 84 494.577 79.6C499.11 75.0667 507.577 72.8 519.977 72.8C528.51 72.8 535.31 73.5333 540.377 75C545.443 76.3333 549.11 78.9333 551.377 82.8C553.643 86.6667 554.777 92.2667 554.777 99.6V174H517.977V173.2C515.177 174.533 511.777 175.2 507.777 175.2ZM507.777 171.6C511.243 171.6 514.043 171.133 516.177 170.2C518.31 169.267 520.043 168 521.377 166.4V170.4H551.377V99.6C551.377 93.0667 550.377 88.2 548.377 85C546.377 81.6667 543.043 79.4 538.377 78.2C533.843 77 527.71 76.4 519.977 76.4C509.043 76.4 501.51 78.3333 497.377 82.2C493.243 85.9333 491.177 91.7333 491.177 99.6V113H515.977C515.177 113.533 514.043 114.067 512.577 114.6C511.243 115 509.71 115.533 507.977 116.2C505.443 117.133 502.71 118.4 499.777 120C496.843 121.467 494.377 123.6 492.377 126.4C490.377 129.2 489.377 133.133 489.377 138.2V152.6C489.377 158.2 490.31 162.4 492.177 165.2C494.177 167.867 496.577 169.6 499.377 170.4C502.177 171.2 504.977 171.6 507.777 171.6ZM507.777 169.8C505.243 169.8 502.71 169.467 500.177 168.8C497.643 168 495.51 166.4 493.777 164C492.043 161.467 491.177 157.667 491.177 152.6V138.2C491.177 133.133 492.243 129.2 494.377 126.4C496.643 123.6 499.577 121.4 503.177 119.8C506.777 118.2 510.51 116.733 514.377 115.4C517.843 114.2 520.043 112.733 520.977 111C522.043 109.267 522.577 106.667 522.577 103.2V97.6C522.577 96.1333 522.377 95 521.977 94.2C521.71 93.2667 520.977 92.8 519.777 92.8C518.577 92.8 517.777 93.4 517.377 94.6C516.977 95.8 516.777 97.5333 516.777 99.8V111.2H492.777V99.6C492.777 92.5333 494.71 87.2 498.577 83.6C502.443 80 509.577 78.2 519.977 78.2C527.31 78.2 533.11 78.8 537.377 80C541.777 81.0667 544.91 83.1333 546.777 86.2C548.777 89.2667 549.777 93.7333 549.777 99.6V168.6H523.177V159.8C522.51 162.067 520.977 164.333 518.577 166.6C516.31 168.733 512.71 169.8 507.777 169.8ZM518.577 111.4V99.8C518.577 96.3333 518.977 94.6 519.777 94.6C520.577 94.6 520.977 95.6 520.977 97.6V103.2C520.977 107.067 520.177 109.8 518.577 111.4ZM519.777 154.4C521.377 154.4 522.243 153.6 522.377 152C522.51 151.2 522.577 150.333 522.577 149.4C522.577 148.333 522.577 147.133 522.577 145.8V124.6C520.843 125.667 519.443 127.067 518.377 128.8C517.31 130.4 516.777 132.6 516.777 135.4V147C516.777 149 516.91 150.733 517.177 152.2C517.443 153.667 518.31 154.4 519.777 154.4ZM519.777 152.6C519.11 152.6 518.777 152 518.777 150.8L518.577 147V135.4C518.577 132.333 519.377 129.933 520.977 128.2V150.6C520.977 151.933 520.577 152.6 519.777 152.6ZM566.066 174V75H597.666V79.8C600.732 77.5333 604.266 76.0667 608.266 75.4C612.399 74.6 616.599 74.7333 620.866 75.8V107.8C618.999 107.4 617.266 107.067 615.666 106.8C614.199 106.4 612.399 106.2 610.266 106.2C606.532 106.2 604.132 107.133 603.066 109C601.999 110.733 601.466 114 601.466 118.8V174H566.066ZM569.266 170.4H598.266V118.8C598.266 112.4 599.132 108.133 600.866 106C602.599 103.733 605.732 102.6 610.266 102.6C611.332 102.6 612.532 102.667 613.866 102.8C615.332 102.933 616.599 103.133 617.666 103.4V78.6C613.266 77.5333 609.066 77.7333 605.066 79.2C601.066 80.6667 597.932 83.1333 595.666 86.6L594.266 78.4H569.266V170.4ZM571.066 168.6V80.2H592.866L594.866 91.6C596.466 86.9333 599.266 83.6 603.266 81.6C607.266 79.6 611.466 79.0667 615.866 80V101.4C614.932 101.267 613.999 101.2 613.066 101.2C612.132 101.067 611.199 101 610.266 101C605.199 101 601.666 102.267 599.666 104.8C597.666 107.2 596.666 111.867 596.666 118.8V168.6H571.066ZM667.097 176C658.964 176 652.164 174.933 646.697 172.8C641.364 170.533 637.364 166.6 634.697 161C632.03 155.267 630.697 147.2 630.697 136.8V83.4C630.697 72.6 634.03 64.9333 640.697 60.4C647.364 55.7333 656.164 53.4 667.097 53.4C678.03 53.4 686.564 55.6667 692.697 60.2C698.964 64.7333 702.097 72.4667 702.097 83.4V113.8H669.497V117.4H702.097V136.6C702.097 147.133 700.83 155.267 698.297 161C695.897 166.6 692.097 170.533 686.897 172.8C681.83 174.933 675.23 176 667.097 176ZM667.097 172.4C674.43 172.4 680.364 171.4 684.897 169.4C689.564 167.4 693.03 163.8 695.297 158.6C697.564 153.4 698.697 146.067 698.697 136.6V121H668.097V150.8C668.097 151.867 667.697 152.4 666.897 152.4C666.23 152.4 665.897 151.867 665.897 150.8V82C665.897 79.6 666.297 78.4 667.097 78.4C667.764 78.4 668.097 79.6 668.097 82V110.2H698.697V83.4C698.697 73.8 695.897 67 690.297 63C684.697 59 676.964 57 667.097 57C657.23 57 649.23 59 643.097 63C637.097 67 634.097 73.8 634.097 83.4V136.8C634.097 146.133 635.297 153.4 637.697 158.6C640.23 163.8 643.897 167.4 648.697 169.4C653.63 171.4 659.764 172.4 667.097 172.4ZM667.097 170.6C660.03 170.6 654.164 169.667 649.497 167.8C644.964 165.933 641.564 162.533 639.297 157.6C637.03 152.667 635.897 145.733 635.897 136.8V83.4C635.897 74.4667 638.697 68.1333 644.297 64.4C650.03 60.6667 657.63 58.8 667.097 58.8C676.43 58.8 683.697 60.6667 688.897 64.4C694.23 68 696.897 74.3333 696.897 83.4V108.4H669.697V82C669.697 80.5333 669.497 79.2667 669.097 78.2C668.83 77.1333 668.164 76.6 667.097 76.6C665.897 76.6 665.097 77.1333 664.697 78.2C664.43 79.2667 664.297 80.5333 664.297 82V150.6C664.297 151.267 664.497 152 664.897 152.8C665.297 153.467 665.964 153.8 666.897 153.8C667.964 153.8 668.697 153.467 669.097 152.8C669.497 152 669.697 151.267 669.697 150.6V122.8H696.897V136.6C696.897 145.533 695.83 152.467 693.697 157.4C691.697 162.333 688.497 165.8 684.097 167.8C679.83 169.667 674.164 170.6 667.097 170.6ZM734.12 175.2C730.92 175.2 727.587 174.733 724.12 173.8C720.787 172.867 717.987 170.8 715.72 167.6C713.454 164.4 712.32 159.4 712.32 152.6V138.2C712.32 128.067 716.72 120.867 725.52 116.6H714.12V99.6C714.12 90.6667 716.387 84 720.92 79.6C725.454 75.0667 733.92 72.8 746.32 72.8C754.854 72.8 761.654 73.5333 766.72 75C771.787 76.3333 775.454 78.9333 777.72 82.8C779.987 86.6667 781.12 92.2667 781.12 99.6V174H744.32V173.2C741.52 174.533 738.12 175.2 734.12 175.2ZM734.12 171.6C737.587 171.6 740.387 171.133 742.52 170.2C744.654 169.267 746.387 168 747.72 166.4V170.4H777.72V99.6C777.72 93.0667 776.72 88.2 774.72 85C772.72 81.6667 769.387 79.4 764.72 78.2C760.187 77 754.054 76.4 746.32 76.4C735.387 76.4 727.854 78.3333 723.72 82.2C719.587 85.9333 717.52 91.7333 717.52 99.6V113H742.32C741.52 113.533 740.387 114.067 738.92 114.6C737.587 115 736.054 115.533 734.32 116.2C731.787 117.133 729.054 118.4 726.12 120C723.187 121.467 720.72 123.6 718.72 126.4C716.72 129.2 715.72 133.133 715.72 138.2V152.6C715.72 158.2 716.654 162.4 718.52 165.2C720.52 167.867 722.92 169.6 725.72 170.4C728.52 171.2 731.32 171.6 734.12 171.6ZM734.12 169.8C731.587 169.8 729.054 169.467 726.52 168.8C723.987 168 721.854 166.4 720.12 164C718.387 161.467 717.52 157.667 717.52 152.6V138.2C717.52 133.133 718.587 129.2 720.72 126.4C722.987 123.6 725.92 121.4 729.52 119.8C733.12 118.2 736.854 116.733 740.72 115.4C744.187 114.2 746.387 112.733 747.32 111C748.387 109.267 748.92 106.667 748.92 103.2V97.6C748.92 96.1333 748.72 95 748.32 94.2C748.054 93.2667 747.32 92.8 746.12 92.8C744.92 92.8 744.12 93.4 743.72 94.6C743.32 95.8 743.12 97.5333 743.12 99.8V111.2H719.12V99.6C719.12 92.5333 721.054 87.2 724.92 83.6C728.787 80 735.92 78.2 746.32 78.2C753.654 78.2 759.454 78.8 763.72 80C768.12 81.0667 771.254 83.1333 773.12 86.2C775.12 89.2667 776.12 93.7333 776.12 99.6V168.6H749.52V159.8C748.854 162.067 747.32 164.333 744.92 166.6C742.654 168.733 739.054 169.8 734.12 169.8ZM744.92 111.4V99.8C744.92 96.3333 745.32 94.6 746.12 94.6C746.92 94.6 747.32 95.6 747.32 97.6V103.2C747.32 107.067 746.52 109.8 744.92 111.4ZM746.12 154.4C747.72 154.4 748.587 153.6 748.72 152C748.854 151.2 748.92 150.333 748.92 149.4C748.92 148.333 748.92 147.133 748.92 145.8V124.6C747.187 125.667 745.787 127.067 744.72 128.8C743.654 130.4 743.12 132.6 743.12 135.4V147C743.12 149 743.254 150.733 743.52 152.2C743.787 153.667 744.654 154.4 746.12 154.4ZM746.12 152.6C745.454 152.6 745.12 152 745.12 150.8L744.92 147V135.4C744.92 132.333 745.72 129.933 747.32 128.2V150.6C747.32 151.933 746.92 152.6 746.12 152.6ZM828.809 175C823.476 175 818.543 174.333 814.009 173C809.476 171.667 805.809 169.067 803.009 165.2C800.343 161.2 799.009 155.333 799.009 147.6V100.4H790.809V79L802.209 74.6L805.809 57H834.809V73.2H848.609V100.4H834.809V142.8C834.809 144.8 836.009 145.8 838.409 145.8C839.743 145.8 841.343 145.667 843.209 145.4C845.076 145 846.876 144.733 848.609 144.6V171C847.543 171.4 846.409 171.8 845.209 172.2C844.009 172.467 842.809 172.733 841.609 173C839.609 173.533 837.476 174 835.209 174.4C832.943 174.8 830.809 175 828.809 175ZM828.809 171.2C830.809 171.2 832.743 171.067 834.609 170.8C836.609 170.533 838.409 170.2 840.009 169.8C840.943 169.533 841.809 169.333 842.609 169.2C843.543 168.933 844.476 168.667 845.409 168.4V148.2C843.543 148.333 841.876 148.533 840.409 148.8C838.943 148.933 837.876 149 837.209 149C835.343 149 833.876 148.6 832.809 147.8C831.876 146.867 831.409 145.2 831.409 142.8V96.8H845.409V76.8H831.409V60.6H808.409L804.809 77.4L794.209 81.6V96.8H802.209V147.6C802.209 154.267 803.409 159.333 805.809 162.8C808.343 166.133 811.609 168.4 815.609 169.6C819.743 170.667 824.143 171.2 828.809 171.2ZM828.809 169.4C824.409 169.4 820.343 168.933 816.609 168C812.876 166.933 809.809 164.867 807.409 161.8C805.143 158.6 804.009 153.867 804.009 147.6V95H795.809V82.8L806.209 78.6L809.809 62.4H829.809V78.6H843.609V95H829.809V142.8C829.809 146.133 830.476 148.333 831.809 149.4C833.143 150.467 834.943 151 837.209 151C838.276 151 839.409 150.933 840.609 150.8C841.809 150.533 842.809 150.333 843.609 150.2V167L839.009 168.2C836.076 169 832.676 169.4 828.809 169.4Z" fill="#697DB9"/>
<defs>
<clipPath id="clip0_6_2">
<rect width="211" height="221" fill="white" transform="translate(0 0.5)"/>
</clipPath>
</defs>
</svg>
