<?xml version="1.0" encoding="UTF-8" standalone="no"?>
<!DOCTYPE svg PUBLIC "-//W3C//DTD SVG 1.1//EN" "http://www.w3.org/Graphics/SVG/1.1/DTD/svg11.dtd">
<svg width="100%" height="100%" viewBox="0 0 211 221" version="1.1" xmlns="http://www.w3.org/2000/svg" xmlns:xlink="http://www.w3.org/1999/xlink" xml:space="preserve" xmlns:serif="http://www.serif.com/" style="fill-rule:evenodd;clip-rule:evenodd;stroke-linecap:round;stroke-linejoin:round;stroke-miterlimit:1.22093;">
    <g transform="matrix(0.149408,0,0,0.149408,-14.5457,14.1281)">
        <path d="M443.965,1016.83C443.965,1016.83 536.935,978.614 540.637,978.174" style="fill:none;stroke:black;stroke-width:116.74px;"/>
    </g>
    <g transform="matrix(0.149408,0,0,0.149408,-14.5457,14.1281)">
        <path d="M445.028,931.025C444.203,930.006 532.993,937.627 529.775,938.028" style="fill:none;stroke:black;stroke-width:103.77px;"/>
    </g>
    <g transform="matrix(0.149408,0,0,0.149408,-14.5457,14.1281)">
        <path d="M248.268,429.391C256.605,423.695 295.041,403.338 298.292,395.212C282.522,347.001 312.779,284.028 404.248,222.515C419.15,212.493 471.651,180.774 476.039,178.634C493.151,170.288 590.302,190.57 607.526,183.011C613.329,180.465 559.809,238.286 565.998,217.273C601.348,97.237 597.362,180.711 729.994,254.975C749.169,265.712 780.545,283.877 795.968,294.188C803.58,299.277 830.191,325.844 833.756,329.211C854.387,348.692 936.87,412.315 944.068,518.331C948.149,578.427 955.751,525.041 982.067,543.213C1081.73,612.034 1006.72,842.206 958.615,866.429C945.466,873.05 941.536,872.632 936.867,858.675C930.529,839.733 932.749,784.142 933.691,793.712C935.318,786.039 916.968,668.98 896.334,673.558C872.747,678.792 790.211,768.984 801.465,759.26C789.485,751.623 773.417,750.437 770.873,750.249C724.574,746.832 689.488,754.737 684.494,755.218C645.062,692.08 647.839,690.142 624.504,665.7C612.868,653.512 606.959,647.62 599.813,662.861C589.611,684.618 574.01,822.118 577.925,793.712C577.838,793.834 491.693,873.387 489.883,945.59C488.561,998.368 509.071,1053.35 530.051,1066.87C584.52,1114.93 752.49,1143.22 887.547,1114.02C895.323,1111.78 991.562,1072.84 1011.87,1066.23C1054.19,1067.29 1083.14,1082.75 1083.27,1089.23C1083.61,1106.82 970.542,1190.59 972.602,1180.7C934.213,1213.61 626.864,1259.65 444.354,1123.71C306.503,1021.02 137.087,781.986 248.268,429.391Z" style="fill:rgb(140,140,140);stroke:rgb(140,140,140);stroke-width:6.69px;stroke-linecap:butt;stroke-miterlimit:2;"/>
    </g>
    <g transform="matrix(0.962231,0,0,0.962231,-162.572,-155.332)">
        <clipPath id="_clip1">
            <path d="M295.163,290.844L316.195,360.393L216.944,390.408L195.912,320.859L295.163,290.844Z"/>
        </clipPath>
        <g clip-path="url(#_clip1)">
            <path d="M176.106,303.779C175.398,301.033 177.052,298.228 179.798,297.52C182.545,296.811 185.349,298.466 186.058,301.212C188.242,309.677 194.608,318.552 202.442,326.714C214.662,339.444 230.58,350.361 241.622,354.866C258.403,361.712 274.531,359.377 285.528,358.071C289.072,357.649 292.141,356.938 294.616,356.002C296.948,355.121 299.283,353.718 300.971,352.377C301.637,351.848 302.232,351.438 302.441,351.043C303.767,348.535 306.879,347.576 309.386,348.902C311.893,350.227 312.852,353.339 311.527,355.846C310.15,358.451 304.308,363.326 298.25,365.616C295.112,366.802 291.233,367.742 286.741,368.276C274.462,369.735 256.478,372.027 237.74,364.382C225.72,359.478 208.328,347.688 195.028,333.831C185.849,324.269 178.665,313.696 176.106,303.779Z" style="fill:rgb(101,71,71);"/>
        </g>
    </g>
    <g transform="matrix(-0.0846812,0.123523,-0.12308,-0.0843772,102.06,115.482)">
        <path d="M0,-583.199C217.577,-583.199 407.485,-463.794 507.714,-286.994C555.761,-202.241 583.199,-104.3 583.199,0C583.199,321.877 321.877,583.199 0,583.199C-321.877,583.199 -564.399,389.231 -574.747,31.746C-585.018,-323.061 -321.877,-583.199 0,-583.199Z" style="fill:none;stroke:black;stroke-width:41.27px;stroke-miterlimit:1.5;"/>
    </g>
    <g transform="matrix(0.149408,0,0,0.149408,-14.5457,14.1281)">
        <path d="M596.43,755.218C597.65,751.78 606.536,726.758 609.089,711.413C610.016,705.842 609.339,705.196 603.867,703.632C607.136,703.642 610.16,701.737 613.407,701.357C625.038,699.996 632.827,706.354 634.168,707.448C661.082,729.417 659.76,730.602 684.494,755.218C689.108,754.774 772.787,740.979 801.465,759.26C799.169,759.477 799.412,759.837 773.712,767.061C842.542,744.859 836.592,734.455 849.005,722.747L851.62,718.929C856.156,768.878 806.757,756.533 806.385,755.218C805.197,751.019 826.08,738.566 827.035,712.326C831.748,582.891 776.648,541.45 752.608,523.654C719.05,498.813 646.186,510.508 634.861,520.933C610.72,543.155 601.436,564.677 593.99,597.426C580.088,658.567 594.413,753.387 596.43,755.218Z" style="fill:white;"/>
    </g>
    <g transform="matrix(0.149408,0,0,0.149408,-14.5457,14.1281)">
        <path d="M826.119,968.065C826.035,968.38 887.819,960.865 904.522,968.645" style="fill:none;stroke:black;stroke-width:116.74px;"/>
    </g>
    <g transform="matrix(0.149408,0,0,0.149408,-14.5457,14.1281)">
        <path d="M806.782,1003.31C806.782,1003.31 832.162,1009.07 883.229,1047.55" style="fill:none;stroke:black;stroke-width:116.74px;"/>
    </g>
    <g transform="matrix(0.149408,0,0,0.149408,-30.6164,13.5084)">
        <path d="M759.341,223.091C898.382,226.2 1099.6,456.666 1063.09,602.858C1058.45,621.433 1060.68,623.341 1059.3,642.289C1049.81,771.584 1059.42,890.589 1021.39,923.432" style="fill:none;stroke:rgb(54,54,54);stroke-width:24.97px;"/>
    </g>
    <g transform="matrix(0.149408,0,0,0.149408,-14.5457,14.1281)">
        <path d="M1087.35,343.058C1104.98,350.905 1280.53,513.865 1019.21,951.233C989.358,832.213 945.188,796.861 943.107,792.872C943.114,792.835 948.612,788.961 945.728,779.835C937.898,755.059 922.878,745.76 923.399,698.751C924.306,617.051 1023.25,361.419 1025.98,356.492C1054.47,305.148 1086.2,347.677 1087.35,343.058Z" style="fill:rgb(196,222,225);"/>
    </g>
    <g transform="matrix(0.149408,0,0,0.149408,-14.5457,14.1281)">
        <path d="M1019.21,951.233C1046.11,876.07 1083.57,809.485 1097.26,749.362C1166.33,446.104 1070.42,325.446 1057.77,308.506C1078.72,313.148 1145.54,367.549 1201.09,426.285C1249.58,477.549 1252.1,495.322 1271.06,547.815C1363.27,840.246 1164.91,1042.45 1112.87,1061.79C1100,1072.87 1105.59,1062.8 1046.33,1089.02C999.084,1109.92 1005.05,1062.75 1003.17,1058.34C1021.53,1033.09 1031.07,998.535 1019.21,951.233Z" style="fill:rgb(162,208,228);"/>
    </g>
    <g transform="matrix(0.149408,0,0,0.167664,-14.5457,-0.430254)">
        <path d="M609.247,777.206C599.195,783.28 534.136,828.646 504.95,878.194C491.867,900.404 486.623,940.093 487.168,951.371C489.43,998.153 559.392,1039.48 583.794,1038.83" style="fill:none;stroke:white;stroke-width:44.09px;stroke-miterlimit:1.5;"/>
    </g>
    <path d="M138.404,71.065C133.516,78.023 120.88,112.18 122.176,120.528" style="fill:none;stroke:rgb(101,71,71);stroke-width:2.41px;stroke-miterlimit:1.5;"/>
    <g transform="matrix(0.147221,0,0,0.149408,-13.3183,14.1281)">
        <path d="M589.725,793.712C591.057,795.045 591.135,680.176 604.541,661.945C617.862,643.827 687.6,753.331 686.324,755.218C685.386,756.605 701.758,752.1 739.862,755.218C753.578,756.34 787.474,763.31 796.923,763.532C802.67,765.512 875.945,677.433 900.964,672.898C927.068,668.166 948.897,799.685 952.833,801.893C974.502,814.048 1021.8,851.6 1032.95,950.271C1036.03,977.536 1034.97,1002.76 1031.15,1018.94C1025.76,1041.71 1003.44,1061.11 992.602,1070.58C956.784,1101.9 907.954,1109.61 892.393,1114.02" style="fill:none;stroke:rgb(101,71,71);stroke-width:31.2px;stroke-miterlimit:1.5;"/>
    </g>
    <g transform="matrix(0.149408,0,0,0.149408,-14.5457,14.1281)">
        <path d="M585.902,804.491C585.902,804.491 585.88,671.697 603.083,657.523C620.286,643.35 685.751,753.331 684.494,755.218C683.237,757.104 765.891,755.859 799.76,777.449C799.76,777.449 870.169,677.024 895.992,672.898C921.815,668.772 941.025,788.883 943.107,792.872C945.188,796.861 995.92,830.758 1019.21,951.233C1026.18,987.328 1010.06,1027.15 997.754,1044.24C969.255,1083.8 909.313,1105.06 895.992,1111.64C883.716,1117.71 818.133,1136.62 713.068,1125.89C562.106,1110.46 527.972,1063.97 517.058,1050.54C512.619,1045.08 510.21,1041.16 505.554,1035.99C494.168,1023.37 486.847,1005.87 484.979,979.411C484.205,968.443 484.368,955.937 485.567,941.601C487.143,922.764 494.533,902.084 504.123,882.343C526.635,836.003 585.902,804.491 585.902,804.491Z" style="fill:white;"/>
    </g>
    <g transform="matrix(0.149408,0,0,0.149408,-14.5457,14.1281)">
        <path d="M553.927,800.53C553.927,800.53 560.177,791.716 564.277,784.798C575.112,766.522 569.6,729.849 576.577,694.294C581.334,670.047 590.599,654.283 596.363,649.533C600.566,646.071 608.213,650.268 617.353,658.617C645.626,684.444 688.18,749.997 687.23,751.423C686.552,752.441 707.812,749.735 732.853,750.42C754.214,751.005 778.327,754.058 793.92,763.997C793.92,763.997 875.169,673.276 900.991,669.15C926.814,665.024 939.594,788.475 944.039,792.014C952.826,799.008 1008.2,849.31 1021.75,961.395C969.947,990.855 948.677,988.773 927.901,989.909C889.554,992.007 818.987,984.651 784.78,973.635C681.773,940.463 672.515,874.473 669.9,859.968C653.081,888.248 626.661,931.263 559.555,942.206C528.232,947.313 496.225,950.896 482.528,948.356C482.796,938.09 484.231,927.804 486.635,917.696C492.741,892.027 503.745,866.778 519.078,846.662C532.8,828.659 552.675,802.742 553.927,800.53Z" style="fill:rgb(228,227,222);"/>
    </g>
    <g transform="matrix(0.962231,0,0,0.962231,-159.67,-142.397)">
        <path d="M305.555,330.719C305.585,330.559 305.616,330.409 305.648,330.297L305.904,329.653L306.26,329.145L306.897,328.648L307.196,328.557C307.354,328.26 307.732,327.574 308.02,327.237L308.44,326.823L308.997,326.452L309.668,326.195L310.39,326.091C310.372,326.092 310.332,326.096 310.332,326.096C310.332,326.096 311.246,325.838 311.932,325.689C313.197,325.414 314.762,325.294 316.381,325.891C317.94,326.465 319.606,327.704 321.029,330.329C325.297,338.197 319.535,344.055 313.267,346.407C310.845,347.316 308.383,347.673 306.512,347.464C304.832,347.276 303.558,346.613 302.83,345.681C301.801,344.363 301.444,342.221 301.676,339.904C301.971,336.947 303.127,333.715 304.009,332.223C304.229,331.85 304.446,331.559 304.636,331.354L305.025,331.001L305.428,330.758L305.555,330.719ZM307.192,330.765L307.431,330.884C307.348,330.83 307.269,330.792 307.192,330.765ZM305.787,334.188L305.392,333.995C305.518,334.078 305.65,334.142 305.787,334.188ZM310.776,329.785C310.656,330.01 310.4,330.48 310.247,330.715L309.777,331.3L309.279,331.695L309.162,331.751C309.112,332.08 309.039,332.52 308.973,332.741L308.65,333.456L308.105,334.038L307.48,334.357L307.062,334.419C306.946,334.634 306.819,334.886 306.72,335.119C306.201,336.343 305.685,338.034 305.449,339.683C305.328,340.53 305.278,341.364 305.36,342.106C305.415,342.61 305.509,343.067 305.762,343.391C305.98,343.67 306.423,343.711 306.925,343.768C308.322,343.924 310.152,343.603 311.961,342.925C316.271,341.307 320.695,337.513 317.76,332.102C316.98,330.665 316.154,329.848 315.296,329.463C314.062,328.909 312.861,329.27 312.046,329.493C311.538,329.631 311.105,329.739 310.776,329.785Z" style="fill:rgb(101,71,71);"/>
    </g>
    <g transform="matrix(0.962231,0,0,0.962231,-159.67,-142.397)">
        <path d="M307.463,329.534C308.153,329.08 309.93,328.415 310.929,328.561C314.341,329.058 314.582,328.087 318.671,332.043C320.086,333.412 319.783,338.739 318.223,340.153C311.272,346.458 304.387,348.597 301.567,348.045C298.329,347.411 299.115,335.315 299.171,335.311C300.416,335.218 305.248,330.992 307.463,329.534Z" style="fill:rgb(128,128,128);"/>
    </g>
    <g transform="matrix(0.148088,0.0198142,-0.0198142,0.148088,-23.2222,-10.1885)">
        <path d="M391.168,617.769C406.127,526.264 493.174,309.838 677.815,203.051C761.418,154.699 849.85,137.946 963.749,143.266C1137.74,151.393 1275.64,241.505 1303.1,330.791C1330.43,419.664 1277.27,510.944 1193.3,443.795C1142.96,403.533 1044.81,308.932 987.106,292.946C932.007,277.683 896.361,253.589 747.719,294.002C577.899,340.173 536.527,411.378 529.724,417.469C497.163,446.628 417.493,546.485 391.168,617.769Z" style="fill:rgb(54,54,54);stroke:rgb(54,54,54);stroke-width:6.69px;stroke-linecap:butt;stroke-miterlimit:2;"/>
    </g>
    <g transform="matrix(0.153458,0,0,0.141517,-18.6499,24.0881)">
        <path d="M933.487,1112.44C933.487,1112.44 979.436,1113.48 993.909,1124.1C1061.96,1174.03 992.763,1224.54 951.093,1229.16C929.369,1231.57 830.499,1206.24 810.144,1194.42" style="fill:none;stroke:rgb(101,71,71);stroke-width:34.91px;"/>
    </g>
    <g transform="matrix(1.05463,0,0,0.435223,-188.896,36.1378)">
        <path d="M284.055,337.015C285.78,335.01 292.104,333.967 297.516,334.517C300.849,334.856 303.878,336.289 305.147,337.015C306.352,337.705 308.164,340.91 308.653,342.422C310.141,347.019 308.853,353.506 308.505,354.757C307.468,358.488 307.133,361.577 305.242,366.042C301.617,374.602 298.821,369.63 292.537,366.148C290.536,365.04 287.942,367.621 283.891,367.189C275.076,366.247 257.116,354.01 253.793,351.145C242.044,341.017 262.132,343.274 284.055,337.015Z" style="fill:rgb(140,140,140);"/>
    </g>
    <g transform="matrix(0.962231,0,0,0.962231,-159.67,-142.397)">
        <path d="M295.765,333.788C285.935,353.905 298.167,362.616 298.167,362.616" style="fill:none;"/>
    </g>
    <g transform="matrix(0.962231,0,0,0.962231,-159.67,-142.397)">
        <path d="M253.166,309.64C253.192,309.604 253.218,309.569 253.244,309.533" style="fill:none;stroke:rgb(128,128,128);stroke-width:3.56px;stroke-miterlimit:1.5;"/>
    </g>
    <g transform="matrix(0.962231,0,0,0.962231,-159.67,-142.397)">
        <path d="M239.684,306.247L239.695,306.27" style="fill:none;stroke:rgb(163,217,255);stroke-width:3.56px;stroke-miterlimit:1.5;"/>
    </g>
    <g transform="matrix(0.962231,0,0,0.962231,-159.67,-142.397)">
        <path d="M239.667,306.183C239.803,306.085 239.939,305.988 240.075,305.89" style="fill:none;stroke:rgb(162,208,228);stroke-width:9.1px;stroke-miterlimit:1.5;"/>
    </g>
    <g transform="matrix(0.962231,0,0,0.962231,-159.67,-142.397)">
        <path d="M268.539,307.925L268.413,307.914" style="fill:none;stroke:rgb(162,208,228);stroke-width:9.38px;stroke-miterlimit:1.5;"/>
    </g>
    <g transform="matrix(0.588157,0,0,0.6463,68.3173,24.8797)">
        <g transform="matrix(1,0,0,1,-1.88609,1.6002)">
            <path d="M136.933,212.322C136.735,212.567 136.231,212.495 135.423,212.108C135.087,211.949 134.738,211.748 134.374,211.504C134.01,211.26 133.66,210.969 133.323,210.631C132.701,210.014 132.513,209.554 132.757,209.252L139.232,201.267C139.943,200.389 141.282,200.41 143.246,201.33C143.673,201.527 143.972,201.684 144.146,201.801L148.47,212.504C148.47,212.504 151.696,208.526 151.707,208.511C151.964,208.195 152.524,208.226 153.388,208.607C153.798,208.793 154.201,209.019 154.596,209.285C154.991,209.55 155.375,209.875 155.748,210.258C156.41,210.947 156.607,211.457 156.339,211.788L149.532,220.183C149.427,220.312 148.759,220.225 147.528,219.921C146.298,219.616 145.564,219.385 145.327,219.225C145.09,219.066 144.957,218.944 144.929,218.858L140.415,208.028L136.933,212.322Z" style="fill:rgb(228,227,222);fill-rule:nonzero;"/>
        </g>
        <g transform="matrix(1,0,0,1,-0.681973,1.03206)">
            <path d="M155.48,208.58C154.986,208.322 154.494,207.89 154.004,207.283C153.514,206.677 153.248,206.157 153.205,205.722C154.054,205.382 154.669,204.909 155.05,204.304L155.377,203.517C155.632,202.537 155.173,201.72 154,201.066L147.482,197.662L146.308,199.523C146.142,199.787 145.659,199.782 144.857,199.508C144.47,199.367 144.089,199.199 143.714,199.004C143.339,198.808 142.988,198.593 142.659,198.36C141.995,197.869 141.746,197.491 141.912,197.228L145.403,191.691C145.598,191.381 145.843,191.2 146.137,191.147C146.43,191.094 146.714,191.139 146.986,191.281L159.051,197.581C160.721,198.453 161.671,199.624 161.899,201.094C162.128,202.563 161.795,204.008 160.9,205.427C160.006,206.846 159.079,207.83 158.12,208.381C157.161,208.932 156.281,208.998 155.48,208.58Z" style="fill:rgb(228,227,222);fill-rule:nonzero;"/>
        </g>
        <g transform="matrix(0.997616,0.0628063,-0.0758377,0.997616,14.5607,-9.46854)">
            <path d="M150.446,182.822C150.084,182.682 150.321,181.719 151.156,179.934C151.99,178.149 152.589,177.327 152.95,177.467L165.397,182.288C167.241,183.002 168.465,184.186 169.069,185.838C169.673,187.491 169.481,189.374 168.492,191.488C167.504,193.602 166.098,195.088 164.277,195.947C162.455,196.806 160.523,196.839 158.48,196.048L146.468,191.395C146.106,191.255 146.343,190.293 147.178,188.508C148.013,186.723 148.611,185.9 148.972,186.04L161.202,190.777C161.563,190.917 161.933,190.857 162.312,190.595C162.698,190.317 162.984,189.981 163.168,189.586C163.353,189.191 163.421,188.795 163.372,188.397C163.323,187.999 163.1,187.723 162.702,187.569L150.446,182.822Z" style="fill:rgb(228,227,222);fill-rule:nonzero;"/>
        </g>
        <g transform="matrix(1,0,0,1,-0.934931,-0.106007)">
            <path d="M170.081,170.48L166.846,180.656C166.747,180.965 166.403,181.116 165.812,181.11C165.507,181.104 165.222,181.066 164.958,180.997C164.694,180.927 164.431,180.821 164.17,180.677C163.666,180.396 163.463,180.101 163.562,179.791L166.797,169.615C166.895,169.306 167.24,169.155 167.831,169.161C168.136,169.167 168.42,169.205 168.685,169.275C168.949,169.344 169.212,169.45 169.473,169.594C169.976,169.875 170.179,170.171 170.081,170.48Z" style="fill:rgb(228,227,222);fill-rule:nonzero;"/>
        </g>
        <path d="M157.194,157.982C157.447,156.698 157.868,155.599 158.457,154.687C159.046,153.775 159.679,153.374 160.356,153.485C161.032,153.595 161.823,153.965 162.727,154.593C163.631,155.222 164.052,155.695 163.99,156.012C163.972,156.1 163.899,156.192 163.77,156.289C163.641,156.386 163.473,156.632 163.266,157.025C163.059,157.418 162.926,157.764 162.867,158.063C162.666,159.084 162.9,159.971 163.57,160.725C164.24,161.479 165.392,161.99 167.026,162.256C168.66,162.523 169.937,162.4 170.857,161.886C171.776,161.373 172.333,160.624 172.527,159.639C172.607,159.234 172.633,158.77 172.606,158.248C172.579,157.726 172.47,157.341 172.28,157.092C172.248,157.05 172.243,156.977 172.263,156.871C172.284,156.765 172.541,156.603 173.033,156.383C173.525,156.164 174.149,155.989 174.903,155.857C175.658,155.726 176.228,155.692 176.615,155.755C177.369,155.878 177.865,156.504 178.102,157.632C178.338,158.761 178.315,160.047 178.03,161.49C177.573,163.813 176.298,165.576 174.204,166.778C172.111,167.981 169.426,168.315 166.148,167.78C162.87,167.246 160.445,166.055 158.872,164.209C157.299,162.364 156.74,160.288 157.194,157.982Z" style="fill:rgb(228,227,222);fill-rule:nonzero;"/>
        <g transform="matrix(1,0,0,1,0.18396,-0.998491)">
            <path d="M179.18,149.684C179.356,149.696 179.38,150.447 179.253,151.935C179.126,153.423 178.925,154.158 178.651,154.139L158.524,152.711C158.387,152.702 158.313,152.418 158.301,151.862C158.29,151.305 158.3,150.839 158.332,150.465C158.46,148.968 158.701,148.231 159.053,148.256L164.93,148.673C164.682,147.651 164.581,146.882 164.625,146.365C164.741,145.01 165.229,143.969 166.089,143.241C166.95,142.513 168.458,142.225 170.612,142.378L179.72,143.024C179.897,143.036 179.925,143.738 179.806,145.128C179.613,146.693 179.448,147.47 179.311,147.46L170.673,146.848C169.713,146.78 169.209,147.031 169.16,147.601C169.126,147.993 169.293,148.463 169.66,149.009L179.18,149.684Z" style="fill:rgb(228,227,222);fill-rule:nonzero;"/>
        </g>
        <g transform="matrix(1,0,0,1,0.436048,-0.826284)">
            <path d="M179.765,135.819C179.923,135.82 179.999,136.638 179.996,138.274C179.992,139.91 179.922,140.728 179.784,140.727L165.314,140.701C165.177,140.701 165.11,139.883 165.113,138.247C165.117,136.611 165.178,135.793 165.295,135.793L179.765,135.819ZM163.557,135.79C163.694,135.791 163.761,136.609 163.758,138.245C163.754,139.881 163.693,140.698 163.575,140.698L159.332,140.691C159.135,140.69 159.039,139.872 159.042,138.236C159.046,136.6 159.107,135.782 159.224,135.782L163.557,135.79Z" style="fill:rgb(228,227,222);fill-rule:nonzero;"/>
        </g>
        <g transform="matrix(1,0,0,1,0.124706,-1.73016)">
            <path d="M179.311,127.832C179.448,127.822 179.576,128.458 179.695,129.741C179.803,131.527 179.778,132.426 179.621,132.438L170.107,133.172L170.171,133.866C170.215,134.33 169.812,134.666 168.964,134.875C168.713,134.93 168.46,134.967 168.206,134.987C167.599,135.034 166.982,134.974 166.355,134.807C165.464,134.553 164.987,134.087 164.924,133.41C164.861,132.733 164.98,132.114 165.283,131.552C165.586,130.99 165.905,130.607 166.241,130.401C165.079,129.361 164.426,128.065 164.282,126.515C164.137,124.965 164.493,123.807 165.348,123.042C166.204,122.276 167.679,121.812 169.773,121.651L178.583,120.971C178.818,120.953 179.006,121.706 179.148,123.229C179.29,124.752 179.243,125.523 179.009,125.541L170.522,126.195C169.543,126.271 169.083,126.62 169.141,127.244C169.157,127.422 169.264,127.665 169.46,127.973C169.656,128.281 169.798,128.476 169.884,128.559L179.311,127.832Z" style="fill:rgb(228,227,222);fill-rule:nonzero;"/>
        </g>
        <g transform="matrix(1,0,0,1,-0.0111515,-2.484)">
            <path d="M167.595,119.188C166.758,119.874 166.038,120.279 165.435,120.404C164.831,120.528 164.406,120.46 164.16,120.199C163.433,119.304 162.854,117.989 162.421,116.254C161.989,114.519 162.129,113.202 162.842,112.304C163.555,111.405 164.783,110.776 166.527,110.416L171.068,109.478L170.846,108.589C170.772,108.293 170.906,108.022 171.248,107.777C171.59,107.533 172.096,107.341 172.767,107.203C173.438,107.064 174.137,107.081 174.864,107.251C175.592,107.422 176.021,107.769 176.151,108.292C176.386,109.234 176.297,110.049 175.885,110.739C175.72,111.048 175.492,111.306 175.201,111.513C176.512,112.086 177.378,113.218 177.8,114.909C178.117,116.182 177.886,117.357 177.107,118.435C176.328,119.512 175.258,120.191 173.898,120.472C170.775,121.117 168.789,119.739 167.942,116.339L167.584,114.9L167.296,114.959C166.798,115.062 166.496,115.203 166.389,115.38C166.282,115.558 166.296,115.917 166.431,116.458C166.596,117.121 166.984,118.031 167.595,119.188ZM172.361,116.004C172.783,115.917 173.078,115.746 173.246,115.492C173.414,115.237 173.458,114.948 173.378,114.626C173.297,114.303 173.081,114.041 172.728,113.838L170.515,114.295L170.698,115.027C170.906,115.864 171.461,116.19 172.361,116.004Z" style="fill:rgb(228,227,222);fill-rule:nonzero;"/>
        </g>
    </g>
    <g transform="matrix(0.737409,0.341045,-0.341045,0.737409,64.8222,15.0915)">
        <g transform="matrix(1,-5.55112e-17,0,1,3.90053,0.19723)">
            <path d="M22.821,148.143C21.947,146.618 21.393,145.154 21.157,143.749C20.922,142.345 21.169,141.433 21.9,141.015C22.631,140.596 23.693,140.355 25.086,140.293C26.479,140.23 27.283,140.387 27.498,140.763C27.558,140.868 27.569,141.021 27.532,141.222C27.495,141.424 27.549,141.809 27.694,142.377C27.839,142.946 28.014,143.408 28.217,143.763C28.911,144.974 29.898,145.706 31.179,145.957C32.46,146.208 33.983,145.828 35.748,144.817C37.513,143.806 38.606,142.675 39.025,141.422C39.445,140.169 39.32,138.958 38.65,137.788C38.375,137.308 37.999,136.809 37.523,136.291C37.046,135.774 36.611,135.461 36.216,135.354C36.151,135.336 36.082,135.265 36.01,135.139C35.938,135.014 36.039,134.645 36.311,134.031C36.584,133.417 37.018,132.746 37.613,132.017C38.208,131.288 38.714,130.804 39.132,130.564C39.946,130.098 40.953,130.354 42.151,131.332C43.349,132.31 44.438,133.655 45.419,135.368C46.998,138.125 47.325,140.948 46.399,143.835C45.473,146.723 43.24,149.181 39.7,151.208C36.159,153.236 32.853,153.916 29.78,153.248C26.707,152.581 24.387,150.879 22.821,148.143Z" style="fill:rgb(228,227,222);fill-rule:nonzero;"/>
        </g>
        <path d="M38.759,127.368L17.205,133.673C16.72,133.815 16.135,132.714 15.449,130.369C14.763,128.024 14.662,126.781 15.147,126.639L32.127,121.672L30.566,116.335C30.444,115.919 30.903,115.472 31.941,114.992C32.452,114.768 32.985,114.574 33.539,114.412C34.094,114.25 34.67,114.119 35.268,114.019C36.431,113.88 37.073,114.018 37.194,114.434L40.317,125.106C40.465,125.615 40.376,126.08 40.048,126.502C39.72,126.924 39.29,127.212 38.759,127.368Z" style="fill:rgb(228,227,222);fill-rule:nonzero;"/>
        <path d="M20.299,100.715C20.264,100.259 21.086,99.966 22.766,99.836C23.27,99.797 23.868,99.805 24.56,99.861C25.253,99.916 25.61,100.087 25.632,100.375L25.985,104.947L29.585,104.669L29.074,98.046C29.042,97.638 29.549,97.321 30.594,97.096C31.044,96.989 31.527,96.915 32.043,96.875C32.559,96.835 33.231,96.856 34.058,96.937C34.885,97.018 35.311,97.227 35.337,97.563L36.287,109.874C36.357,110.786 36.021,111.27 35.277,111.328L12.13,113.114C11.506,113.162 11.173,112.91 11.13,112.358L10.136,99.471C10.097,98.967 11.14,98.633 13.264,98.469C15.387,98.305 16.469,98.475 16.508,98.979L17.021,105.639L20.657,105.358L20.299,100.715Z" style="fill:rgb(228,227,222);fill-rule:nonzero;"/>
        <path d="M41.641,77.586C40.82,79.513 40.067,80.422 39.381,80.312L34.629,79.583L32.379,84.865L36.088,87.583C36.718,88.008 36.608,89.217 35.759,91.21C35.306,92.273 34.91,93.033 34.572,93.491C34.233,93.948 34.03,94.163 33.964,94.134L13.981,78.676C13.804,78.6 14.361,77.046 15.654,74.012C16.946,70.978 17.681,69.499 17.858,69.574L42.827,73.421C42.982,73.487 42.886,74.049 42.541,75.105C42.196,76.161 41.896,76.988 41.641,77.586ZM28.514,82.237L30,78.75L22.488,77.315L22.403,77.515L28.514,82.237Z" style="fill:rgb(228,227,222);fill-rule:nonzero;"/>
        <path d="M49.302,66.231C49.567,66.511 48.87,67.437 47.21,69.01C45.533,70.599 44.57,71.263 44.321,71L28.131,53.912C27.552,53.301 27.585,52.689 28.232,52.076L33.238,47.333C37.833,42.979 41.827,42.593 45.221,46.175C46.247,47.258 46.969,48.44 47.386,49.72C47.802,50.999 47.875,52.265 47.602,53.518L56.119,55.893C56.377,56.445 56.378,57.356 56.122,58.626C55.786,60.371 55.277,61.566 54.595,62.211C53.914,62.857 53.175,63.092 52.38,62.918L44.478,59.512L43.666,60.282L49.302,66.231ZM36.663,52.891L40.388,56.822L40.519,56.698C42.179,55.125 42.355,53.649 41.047,52.269C40.451,51.64 39.847,51.325 39.234,51.326C38.621,51.326 37.947,51.674 37.213,52.369L36.663,52.891Z" style="fill:rgb(228,227,222);fill-rule:nonzero;"/>
    </g>
    <g transform="matrix(0.829838,0.299896,-0.290891,0.804921,22.218,-10.9748)">
        <g transform="matrix(0.992786,0.123608,-0.116297,0.992786,8.38642,-13.9918)">
            <path d="M116.117,64.495C115.605,66.461 116.069,67.643 117.509,68.042C118.442,68.301 119.27,68.326 119.992,68.117C120.284,68.198 120.388,68.78 120.304,69.865C120.219,70.949 120.129,71.677 120.032,72.048C119.936,72.419 119.823,72.651 119.694,72.744C118.49,73.121 116.993,73.061 115.203,72.565C113.413,72.07 112.07,70.961 111.173,69.239C110.276,67.518 110.137,65.468 110.756,63.091C111.376,60.714 112.494,58.964 114.111,57.842C115.728,56.72 117.563,56.443 119.616,57.011C121.669,57.58 122.961,58.486 123.492,59.73C123.61,59.999 123.612,60.349 123.5,60.781C123.387,61.212 123.172,61.717 122.855,62.296C122.17,63.483 121.519,64.098 120.903,64.143C120.82,64.141 120.705,64.12 120.559,64.08C120.413,64.039 120.265,63.869 120.113,63.569C119.558,62.577 119.052,62.017 118.595,61.89C118.138,61.764 117.681,61.895 117.225,62.285C116.768,62.675 116.399,63.412 116.117,64.495Z" style="fill:rgb(228,227,222);fill-rule:nonzero;"/>
        </g>
        <path d="M129.872,66.635C130.028,65.456 130.298,64.605 130.68,64.083C131.062,63.56 131.444,63.331 131.827,63.394C133.047,63.692 134.457,64.463 136.058,65.708C137.659,66.952 138.507,68.216 138.602,69.5C138.698,70.784 138.194,72.18 137.09,73.69L134.215,77.62L135.036,78.258C135.309,78.471 135.401,78.802 135.311,79.253C135.222,79.703 134.964,80.219 134.54,80.799C134.115,81.38 133.556,81.843 132.862,82.188C132.168,82.533 131.58,82.518 131.097,82.142C130.229,81.467 129.705,80.683 129.525,79.789C129.43,79.402 129.421,79.018 129.498,78.636C128.055,79.023 126.553,78.61 124.992,77.397C123.818,76.484 123.144,75.284 122.97,73.796C122.796,72.308 123.14,70.975 124.002,69.798C125.979,67.094 128.536,66.962 131.673,69.401L133,70.432L133.182,70.184C133.497,69.752 133.632,69.421 133.586,69.191C133.541,68.96 133.268,68.651 132.77,68.263C132.158,67.788 131.193,67.245 129.872,66.635ZM128.455,72.714C128.188,73.078 128.082,73.431 128.135,73.772C128.189,74.113 128.364,74.399 128.662,74.63C128.959,74.862 129.32,74.947 129.743,74.885L131.144,72.97L130.468,72.445C129.696,71.844 129.025,71.934 128.455,72.714Z" style="fill:rgb(228,227,222);fill-rule:nonzero;"/>
        <g transform="matrix(0.913216,-0.178128,0.163352,0.890115,-1.80205,35.4451)">
            <path d="M137.664,90.75C137.459,90.882 136.909,90.207 136.015,88.725C135.019,86.918 134.598,85.965 134.752,85.866L143.836,80.039L143.022,78.69C142.809,78.337 143.292,77.782 144.473,77.025C144.781,76.827 145.176,76.617 145.658,76.393C146.14,76.169 146.439,76.155 146.556,76.349L147.403,77.751L149.661,76.302C150.003,76.083 150.624,76.718 151.523,78.208C152.422,79.699 152.735,80.532 152.462,80.707L150.819,81.761L150.117,82.248L151.474,84.497C151.655,84.796 151.147,85.33 149.949,86.099C148.752,86.867 148.063,87.101 147.882,86.801L146.748,84.923L137.664,90.75Z" style="fill:rgb(228,227,222);fill-rule:nonzero;"/>
        </g>
    </g>
</svg>
