<svg width="32768" height="18500" viewBox="0 0 32768 18500" fill="none" xmlns="http://www.w3.org/2000/svg">
<path d="M6031.96 11664.2C6031.96 11886.9 5839.47 12071.7 5596.58 12071.7C5353.69 12071.7 5161.2 11886.9 5161.2 11664.2C5161.2 11441.6 5353.69 11256.8 5596.58 11256.8C5839.47 11256.8 6031.96 11441.6 6031.96 11664.2Z" fill="#F7D6D6" stroke="#C47D7D" stroke-width="100"/>
<path d="M6509.97 11255.7C6509.97 11478.3 6317.47 11663.1 6074.58 11663.1C5831.69 11663.1 5639.2 11478.3 5639.2 11255.7C5639.2 11033 5831.69 10848.2 6074.58 10848.2C6317.47 10848.2 6509.97 11033 6509.97 11255.7Z" fill="#F7D6D6" stroke="#C47D7D" stroke-width="100"/>
<path d="M6847.87 10765.6C6847.87 10988.3 6655.37 11173 6412.48 11173C6169.59 11173 5977.1 10988.3 5977.1 10765.6C5977.1 10543 6169.59 10358.2 6412.48 10358.2C6655.37 10358.2 6847.87 10543 6847.87 10765.6Z" fill="#F7D6D6" stroke="#C47D7D" stroke-width="100"/>
<path d="M5116.23 10190.4C5116.23 10413 4923.73 10597.8 4680.84 10597.8C4437.95 10597.8 4245.46 10413 4245.46 10190.4C4245.46 9967.71 4437.95 9782.93 4680.84 9782.93C4923.73 9782.93 5116.23 9967.71 5116.23 10190.4Z" fill="#F7D6D6" stroke="#C47D7D" stroke-width="100"/>
<path d="M5493.94 10541C5493.94 10763.6 5301.45 10948.4 5058.56 10948.4C4815.67 10948.4 4623.17 10763.6 4623.17 10541C4623.17 10318.3 4815.67 10133.5 5058.56 10133.5C5301.45 10133.5 5493.94 10318.3 5493.94 10541Z" fill="#F7D6D6" stroke="#C47D7D" stroke-width="100"/>
<path d="M6035.15 10230.7C6035.15 10453.4 6227.64 10638.2 6470.53 10638.2C6713.42 10638.2 6905.91 10453.4 6905.91 10230.7C6905.91 10008.1 6713.42 9823.28 6470.53 9823.28C6227.64 9823.28 6035.15 10008.1 6035.15 10230.7Z" fill="#F7D6D6" stroke="#C47D7D" stroke-width="100"/>
<path d="M5657.43 10581.3C5657.43 10804 5849.92 10988.8 6092.81 10988.8C6335.7 10988.8 6528.2 10804 6528.2 10581.3C6528.2 10358.7 6335.7 10173.9 6092.81 10173.9C5849.92 10173.9 5657.43 10358.7 5657.43 10581.3Z" fill="#F7D6D6" stroke="#C47D7D" stroke-width="100"/>
<path d="M6050.6 10864.8C6050.6 11087.4 5858.1 11272.2 5615.21 11272.2C5372.32 11272.2 5179.83 11087.4 5179.83 10864.8C5179.83 10642.1 5372.32 10457.3 5615.21 10457.3C5858.1 10457.3 6050.6 10642.1 6050.6 10864.8Z" fill="#F7D6D6" stroke="#C47D7D" stroke-width="100"/>
<path d="M5116.23 9641.65C5116.23 9864.31 4923.73 10049.1 4680.84 10049.1C4437.95 10049.1 4245.46 9864.31 4245.46 9641.65C4245.46 9418.99 4437.95 9234.22 4680.84 9234.22C4923.73 9234.22 5116.23 9418.99 5116.23 9641.65Z" fill="#B3DFF5" stroke="#7AA0B3" stroke-width="100"/>
<path d="M5493.94 9992.25C5493.94 10214.9 5301.45 10399.7 5058.56 10399.7C4815.67 10399.7 4623.17 10214.9 4623.17 9992.25C4623.17 9769.59 4815.67 9584.81 5058.56 9584.81C5301.45 9584.81 5493.94 9769.59 5493.94 9992.25Z" fill="#B3DFF5" stroke="#7AA0B3" stroke-width="100"/>
<path d="M6035.15 9682.01C6035.15 9904.66 6227.64 10089.4 6470.53 10089.4C6713.42 10089.4 6905.91 9904.66 6905.91 9682.01C6905.91 9459.35 6713.42 9274.57 6470.53 9274.57C6227.64 9274.57 6035.15 9459.35 6035.15 9682.01Z" fill="#B3DFF5" stroke="#7AA0B3" stroke-width="100"/>
<path d="M5657.43 10032.6C5657.43 10255.3 5849.92 10440 6092.81 10440C6335.7 10440 6528.2 10255.3 6528.2 10032.6C6528.2 9809.94 6335.7 9625.16 6092.81 9625.16C5849.92 9625.16 5657.43 9809.94 5657.43 10032.6Z" fill="#B3DFF5" stroke="#7AA0B3" stroke-width="100"/>
<path d="M6050.6 10316.1C6050.6 10538.7 5858.1 10723.5 5615.21 10723.5C5372.32 10723.5 5179.83 10538.7 5179.83 10316.1C5179.83 10093.4 5372.32 9908.62 5615.21 9908.62C5858.1 9908.62 6050.6 10093.4 6050.6 10316.1Z" fill="#B3DFF5" stroke="#7AA0B3" stroke-width="100"/>
<path d="M5076.54 9250.71C5076.54 9473.37 4884.04 9658.14 4641.15 9658.14C4398.26 9658.14 4205.77 9473.37 4205.77 9250.71C4205.77 9028.05 4398.26 8843.27 4641.15 8843.27C4884.04 8843.27 5076.54 9028.05 5076.54 9250.71Z" fill="#F5F5B3" stroke="#B5B583" stroke-width="100"/>
<path d="M5454.25 9601.3C5454.25 9823.96 5261.76 10008.7 5018.87 10008.7C4775.98 10008.7 4583.48 9823.96 4583.48 9601.3C4583.48 9378.64 4775.98 9193.86 5018.87 9193.86C5261.76 9193.86 5454.25 9378.64 5454.25 9601.3Z" fill="#F5F5B3" stroke="#B5B583" stroke-width="100"/>
<path d="M5995.45 9291.06C5995.45 9513.72 6187.95 9698.49 6430.84 9698.49C6673.73 9698.49 6866.22 9513.72 6866.22 9291.06C6866.22 9068.4 6673.73 8883.62 6430.84 8883.62C6187.95 8883.62 5995.45 9068.4 5995.45 9291.06Z" fill="#F5F5B3" stroke="#B5B583" stroke-width="100"/>
<path d="M5617.74 9641.65C5617.74 9864.31 5810.23 10049.1 6053.12 10049.1C6296.01 10049.1 6488.51 9864.31 6488.51 9641.65C6488.51 9418.99 6296.01 9234.22 6053.12 9234.22C5810.23 9234.22 5617.74 9418.99 5617.74 9641.65Z" fill="#F5F5B3" stroke="#B5B583" stroke-width="100"/>
<path d="M6010.91 9925.11C6010.91 10147.8 5818.41 10332.5 5575.52 10332.5C5332.63 10332.5 5140.14 10147.8 5140.14 9925.11C5140.14 9702.45 5332.63 9517.67 5575.52 9517.67C5818.41 9517.67 6010.91 9702.45 6010.91 9925.11Z" fill="#F5F5B3" stroke="#B5B583" stroke-width="100"/>
<path d="M5116.23 8747.31C5116.23 8969.96 4923.73 9154.74 4680.84 9154.74C4437.95 9154.74 4245.46 8969.96 4245.46 8747.31C4245.46 8524.65 4437.95 8339.87 4680.84 8339.87C4923.73 8339.87 5116.23 8524.65 5116.23 8747.31Z" fill="#F5F5B3" stroke="#B5B583" stroke-width="100"/>
<path d="M5493.94 9097.9C5493.94 9320.56 5301.45 9505.34 5058.56 9505.34C4815.67 9505.34 4623.17 9320.56 4623.17 9097.9C4623.17 8875.24 4815.67 8690.46 5058.56 8690.46C5301.45 8690.46 5493.94 8875.24 5493.94 9097.9Z" fill="#F5F5B3" stroke="#B5B583" stroke-width="100"/>
<path d="M6035.15 8787.66C6035.15 9010.32 6227.64 9195.09 6470.53 9195.09C6713.42 9195.09 6905.91 9010.32 6905.91 8787.66C6905.91 8565 6713.42 8380.22 6470.53 8380.22C6227.64 8380.22 6035.15 8565 6035.15 8787.66Z" fill="#F5F5B3" stroke="#B5B583" stroke-width="100"/>
<path d="M5657.43 9138.25C5657.43 9360.91 5849.92 9545.69 6092.81 9545.69C6335.7 9545.69 6528.2 9360.91 6528.2 9138.25C6528.2 8915.59 6335.7 8730.82 6092.81 8730.82C5849.92 8730.82 5657.43 8915.59 5657.43 9138.25Z" fill="#F5F5B3" stroke="#B5B583" stroke-width="100"/>
<path d="M6050.6 9421.7C6050.6 9644.36 5858.1 9829.14 5615.21 9829.14C5372.32 9829.14 5179.83 9644.36 5179.83 9421.7C5179.83 9199.05 5372.32 9014.27 5615.21 9014.27C5858.1 9014.27 6050.6 9199.05 6050.6 9421.7Z" fill="#FCFCA6" stroke="#B5B583" stroke-width="100"/>
<path d="M5155.92 8243.9C5155.92 8466.56 4963.42 8651.34 4720.53 8651.34C4477.64 8651.34 4285.15 8466.56 4285.15 8243.9C4285.15 8021.25 4477.64 7836.47 4720.53 7836.47C4963.42 7836.47 5155.92 8021.25 5155.92 8243.9Z" fill="#B3DFF5" stroke="#7AA0B3" stroke-width="100"/>
<path d="M5533.63 8594.5C5533.63 8817.16 5341.14 9001.94 5098.25 9001.94C4855.36 9001.94 4662.86 8817.16 4662.86 8594.5C4662.86 8371.84 4855.36 8187.06 5098.25 8187.06C5341.14 8187.06 5533.63 8371.84 5533.63 8594.5Z" fill="#B3DFF5" stroke="#7AA0B3" stroke-width="100"/>
<path d="M6074.83 8284.26C6074.83 8506.91 6267.33 8691.69 6510.22 8691.69C6753.11 8691.69 6945.6 8506.91 6945.6 8284.26C6945.6 8061.6 6753.11 7876.82 6510.22 7876.82C6267.33 7876.82 6074.83 8061.6 6074.83 8284.26Z" fill="#B3DFF5" stroke="#7AA0B3" stroke-width="100"/>
<path d="M5697.12 8634.85C5697.12 8857.51 5889.61 9042.29 6132.5 9042.29C6375.4 9042.29 6567.89 8857.51 6567.89 8634.85C6567.89 8412.19 6375.4 8227.41 6132.5 8227.41C5889.61 8227.41 5697.12 8412.19 5697.12 8634.85Z" fill="#B3DFF5" stroke="#7AA0B3" stroke-width="100"/>
<path d="M6090.29 8918.3C6090.29 9140.96 5897.79 9325.74 5654.9 9325.74C5412.01 9325.74 5219.52 9140.96 5219.52 8918.3C5219.52 8695.64 5412.01 8510.87 5654.9 8510.87C5897.79 8510.87 6090.29 8695.64 6090.29 8918.3Z" fill="#B3DFF5" stroke="#7AA0B3" stroke-width="100"/>
<path d="M5612.68 7780.86C5612.68 8003.51 5420.19 8188.29 5177.3 8188.29C4934.41 8188.29 4741.91 8003.51 4741.91 7780.86C4741.91 7558.2 4934.41 7373.42 5177.3 7373.42C5420.19 7373.42 5612.68 7558.2 5612.68 7780.86Z" fill="#F7D6D6" stroke="#C47D7D" stroke-width="100"/>
<path d="M6468 7735.54C6468 7958.2 6275.51 8142.98 6032.62 8142.98C5789.73 8142.98 5597.23 7958.2 5597.23 7735.54C5597.23 7512.88 5789.73 7328.11 6032.62 7328.11C6275.51 7328.11 6468 7512.88 6468 7735.54Z" fill="#F7D6D6" stroke="#C47D7D" stroke-width="100"/>
<path d="M5295.82 7191.79C5295.82 7414.45 5103.33 7599.23 4860.44 7599.23C4617.55 7599.23 4425.06 7414.45 4425.06 7191.79C4425.06 6969.13 4617.55 6784.35 4860.44 6784.35C5103.33 6784.35 5295.82 6969.13 5295.82 7191.79Z" fill="#F7D6D6" stroke="#C47D7D" stroke-width="100"/>
<path d="M5633.73 6742.48C5633.73 6965.14 5441.23 7149.92 5198.34 7149.92C4955.45 7149.92 4762.96 6965.14 4762.96 6742.48C4762.96 6519.82 4955.45 6335.04 5198.34 6335.04C5441.23 6335.04 5633.73 6519.82 5633.73 6742.48Z" fill="#F7D6D6" stroke="#C47D7D" stroke-width="100"/>
<path d="M6111.73 6293.17C6111.73 6515.83 5919.24 6700.61 5676.34 6700.61C5433.45 6700.61 5240.96 6515.83 5240.96 6293.17C5240.96 6070.51 5433.45 5885.73 5676.34 5885.73C5919.24 5885.73 6111.73 6070.51 6111.73 6293.17Z" fill="#F7D6D6" stroke="#C47D7D" stroke-width="100"/>
<path d="M5155.92 7740.5C5155.92 7963.16 4963.42 8147.94 4720.53 8147.94C4477.64 8147.94 4285.15 7963.16 4285.15 7740.5C4285.15 7517.85 4477.64 7333.07 4720.53 7333.07C4963.42 7333.07 5155.92 7517.85 5155.92 7740.5Z" fill="#F7D6D6" stroke="#C47D7D" stroke-width="100"/>
<path d="M5533.63 8091.1C5533.63 8313.76 5341.14 8498.54 5098.25 8498.54C4855.36 8498.54 4662.86 8313.76 4662.86 8091.1C4662.86 7868.44 4855.36 7683.66 5098.25 7683.66C5341.14 7683.66 5533.63 7868.44 5533.63 8091.1Z" fill="#F7D6D6" stroke="#C47D7D" stroke-width="100"/>
<path d="M6074.83 7780.86C6074.83 8003.51 6267.33 8188.29 6510.22 8188.29C6753.11 8188.29 6945.6 8003.51 6945.6 7780.86C6945.6 7558.2 6753.11 7373.42 6510.22 7373.42C6267.33 7373.42 6074.83 7558.2 6074.83 7780.86Z" fill="#F7D6D6" stroke="#C47D7D" stroke-width="100"/>
<path d="M5697.12 8131.45C5697.12 8354.11 5889.61 8538.89 6132.5 8538.89C6375.4 8538.89 6567.89 8354.11 6567.89 8131.45C6567.89 7908.79 6375.4 7724.01 6132.5 7724.01C5889.61 7724.01 5697.12 7908.79 5697.12 8131.45Z" fill="#F7D6D6" stroke="#C47D7D" stroke-width="100"/>
<path d="M6090.29 8414.9C6090.29 8637.56 5897.79 8822.34 5654.9 8822.34C5412.01 8822.34 5219.52 8637.56 5219.52 8414.9C5219.52 8192.24 5412.01 8007.47 5654.9 8007.47C5897.79 8007.47 6090.29 8192.24 6090.29 8414.9Z" fill="#F7D6D6" stroke="#C47D7D" stroke-width="100"/>
<path fill-rule="evenodd" clip-rule="evenodd" d="M8175.11 5258.69H12375.8C12635.6 5258.69 12846.1 5530.87 12846.1 5866.63C12846.1 6202.38 12635.6 6474.57 12375.8 6474.57H8175.11V6438.04C8416.69 6414.2 8606.58 6169.93 8606.58 5872.12C8606.58 5574.3 8416.69 5330.03 8175.11 5306.19V5258.69Z" fill="#BFDAF8"/>
<mask id="mask0_115_48" style="mask-type:luminance" maskUnits="userSpaceOnUse" x="8175" y="5258" width="4672" height="1217">
<path fill-rule="evenodd" clip-rule="evenodd" d="M8175.11 5258.69H12375.8C12635.6 5258.69 12846.1 5530.87 12846.1 5866.63C12846.1 6202.38 12635.6 6474.57 12375.8 6474.57H8175.11V6438.04C8416.69 6414.2 8606.58 6169.93 8606.58 5872.12C8606.58 5574.3 8416.69 5330.03 8175.11 5306.19V5258.69Z" fill="white"/>
</mask>
<g mask="url(#mask0_115_48)">
<path d="M8175.11 5258.69V5174.25H8090.68V5258.69H8175.11ZM8175.11 6474.57H8090.68V6559H8175.11V6474.57ZM8175.11 6438.04L8166.82 6354.01L8090.68 6361.53V6438.04H8175.11ZM8175.11 5306.19H8090.68V5382.7L8166.82 5390.22L8175.11 5306.19ZM12375.8 5174.25H8175.11V5343.12H12375.8V5174.25ZM12375.8 5343.12C12570 5343.12 12761.7 5556.06 12761.7 5866.63H12930.6C12930.6 5505.68 12701.1 5174.25 12375.8 5174.25V5343.12ZM12761.7 5866.63C12761.7 6177.19 12570 6390.13 12375.8 6390.13V6559C12701.1 6559 12930.6 6227.58 12930.6 5866.63H12761.7ZM8175.11 6559H12375.8V6390.13H8175.11V6559ZM8090.68 6438.04V6474.57H8259.55V6438.04H8090.68ZM8522.15 5872.12C8522.15 6139.51 8353.37 6335.6 8166.82 6354.01L8183.41 6522.07C8480.01 6492.79 8691.02 6200.35 8691.02 5872.12H8522.15ZM8166.82 5390.22C8353.37 5408.63 8522.15 5604.72 8522.15 5872.12H8691.02C8691.02 5543.88 8480.01 5251.44 8183.41 5222.16L8166.82 5390.22ZM8090.68 5258.69V5306.19H8259.55V5258.69H8090.68Z" fill="#94C1F3"/>
</g>
<path d="M9585.92 6186.22C9534.72 6186.22 9487.59 6174.26 9444.53 6150.33C9401.46 6125.93 9367.49 6092.44 9342.61 6049.85C9317.73 6006.79 9305.29 5958.94 9305.29 5906.31C9305.29 5850.81 9317.73 5801.77 9342.61 5759.18C9367.49 5716.6 9400.99 5683.82 9443.09 5660.86C9485.2 5637.41 9531.37 5625.69 9581.61 5625.69C9629.93 5625.69 9670.6 5634.3 9703.62 5651.53C9737.11 5668.27 9768.69 5691.96 9798.36 5722.58C9799.31 5723.54 9800.75 5724.01 9802.66 5724.01C9805.53 5724.01 9810.56 5721.86 9817.73 5717.55L9826.35 5728.32L9727.3 5806.55L9718.69 5795.79C9721.56 5793.87 9723.71 5791.48 9725.15 5788.61C9727.06 5785.26 9727.06 5782.87 9725.15 5781.43C9705.05 5761.81 9684 5746.98 9661.99 5736.93C9640.46 5726.41 9614.14 5721.14 9583.04 5721.14C9550.51 5721.14 9520.6 5729.28 9493.33 5745.55C9466.06 5761.34 9444.53 5783.34 9428.74 5811.57C9412.95 5839.8 9405.05 5871.38 9405.05 5906.31C9405.05 5939.81 9413.43 5970.43 9430.17 5998.18C9446.92 6025.45 9469.17 6046.98 9496.92 6062.77C9524.67 6078.56 9554.34 6086.46 9585.92 6086.46C9615.58 6086.46 9640.94 6081.43 9661.99 6071.38C9683.04 6060.86 9702.9 6045.31 9721.56 6024.73L9723 6021.86C9723 6019.47 9721.8 6016.84 9719.41 6013.97C9717.49 6010.62 9715.34 6008.23 9712.95 6006.79L9722.28 5996.74L9829.22 6086.46L9820.61 6097.22C9817.73 6094.83 9814.15 6092.68 9809.84 6090.76C9805.53 6088.85 9802.66 6088.85 9801.23 6090.76C9771.08 6123.3 9739.5 6147.46 9706.49 6163.25C9673.48 6178.56 9633.28 6186.22 9585.92 6186.22ZM10287.6 6160.38C10289.5 6163.73 10296 6165.4 10307 6165.4V6179.04H10161.3V6165.4C10168 6165.4 10172.5 6164.21 10174.9 6161.82C10177.3 6159.42 10177.5 6157.03 10175.6 6154.64L10055 5951.53H9981.12V6157.51C9981.12 6159.9 9983.03 6161.82 9986.86 6163.25C9990.69 6164.69 9994.28 6165.4 9997.63 6165.4V6179.04H9868.44V6165.4C9871.79 6165.4 9875.38 6164.69 9879.21 6163.25C9883.03 6161.82 9884.95 6159.9 9884.95 6157.51V5662.29C9884.95 5659.9 9883.03 5657.99 9879.21 5656.55C9875.86 5655.11 9872.51 5654.4 9869.16 5654.4V5640.76H10088.1C10151.2 5640.76 10198.8 5655.11 10230.9 5683.82C10263.4 5712.05 10279.7 5748.66 10279.7 5793.63C10279.7 5835.26 10268.2 5868.75 10245.2 5894.11C10222.7 5919.47 10193.6 5936.46 10157.7 5945.07L10287.6 6160.38ZM9981.12 5724.01V5864.69H10098.8C10128.5 5864.69 10150.7 5857.75 10165.6 5843.87C10180.4 5830 10187.8 5813.25 10187.8 5793.63C10187.8 5774.49 10179.4 5758.23 10162.7 5744.83C10146 5730.95 10125.4 5724.01 10101 5724.01H9981.12ZM10863.7 5654.4H10859.4C10850.3 5654.4 10844.8 5655.83 10842.8 5658.7L10649.8 5935.74V6157.51C10649.8 6159.9 10651.7 6161.82 10655.5 6163.25C10659.8 6164.69 10663.9 6165.4 10667.7 6165.4V6179.04H10527.1V6165.4C10530.9 6165.4 10534.7 6164.69 10538.5 6163.25C10542.8 6161.82 10545 6159.9 10545 6157.51V5940.04L10349.1 5658.7C10347.6 5656.79 10344.5 5655.59 10339.7 5655.11C10335.4 5654.64 10331.6 5654.4 10328.2 5654.4V5640.76H10476.1V5654.4C10470.4 5654.4 10467.5 5655.59 10467.5 5657.99C10467.5 5659.9 10468.2 5662.05 10469.6 5664.44L10594.5 5840.28L10718 5664.44L10719.4 5661.57C10719.4 5659.18 10718 5657.51 10715.1 5656.55C10712.7 5655.11 10709.1 5654.4 10704.3 5654.4V5640.76H10863.7V5654.4ZM11432.5 6158.95C11434 6163.25 11439.7 6165.4 11449.8 6165.4V6179.04H11304.1V6165.4C11310.3 6165.4 11314.6 6163.97 11317 6161.1C11319.4 6158.23 11319.9 6155.36 11318.4 6152.49L11278.9 6051.29H11045L11005.5 6152.49L11004.8 6154.64C11004.8 6157.51 11006 6160.14 11008.4 6162.53C11011.2 6164.45 11014.8 6165.4 11019.1 6165.4V6179.04H10877.7V6165.4C10887.3 6165.4 10893.1 6163.25 10895 6158.95L11094.5 5673.77C11095.9 5670.9 11096.6 5668.27 11096.6 5665.88C11096.6 5661.57 11094.7 5658.7 11090.9 5657.27C11087.1 5655.35 11083 5654.4 11078.7 5654.4V5640.76H11245.9V5654.4C11241.6 5654.4 11237.6 5655.35 11233.7 5657.27C11229.9 5658.7 11228 5661.57 11228 5665.88C11228 5668.27 11228.7 5670.9 11230.1 5673.77L11432.5 6158.95ZM11162 5752.72L11077.3 5968.75H11246.6L11162 5752.72ZM12019.2 6158.95C12020.6 6163.25 12026.4 6165.4 12036.4 6165.4V6179.04H11890.7V6165.4C11896.9 6165.4 11901.2 6163.97 11903.6 6161.1C11906 6158.23 11906.5 6155.36 11905.1 6152.49L11865.6 6051.29H11631.6L11592.1 6152.49L11591.4 6154.64C11591.4 6157.51 11592.6 6160.14 11595 6162.53C11597.9 6164.45 11601.5 6165.4 11605.8 6165.4V6179.04H11464.4V6165.4C11474 6165.4 11479.7 6163.25 11481.6 6158.95L11681.1 5673.77C11682.6 5670.9 11683.3 5668.27 11683.3 5665.88C11683.3 5661.57 11681.4 5658.7 11677.5 5657.27C11673.7 5655.35 11669.7 5654.4 11665.3 5654.4V5640.76H11832.6V5654.4C11828.3 5654.4 11824.2 5655.35 11820.4 5657.27C11816.5 5658.7 11814.6 5661.57 11814.6 5665.88C11814.6 5668.27 11815.3 5670.9 11816.8 5673.77L12019.2 6158.95ZM11748.6 5752.72L11663.9 5968.75H11833.3L11748.6 5752.72Z" fill="#464646"/>
<path fill-rule="evenodd" clip-rule="evenodd" d="M15599.6 8347.36H21241.4C21590.2 8347.36 21873 8712.92 21873 9163.86C21873 9614.8 21590.2 9980.36 21241.4 9980.36H15599.6V9931.3C15924 9899.28 16179.1 9571.21 16179.1 9171.23C16179.1 8771.25 15924 8443.19 15599.6 8411.16V8347.36Z" fill="#FFD2EE"/>
<mask id="mask1_115_48" style="mask-type:luminance" maskUnits="userSpaceOnUse" x="15599" y="8347" width="6274" height="1634">
<path fill-rule="evenodd" clip-rule="evenodd" d="M15599.6 8347.36H21241.4C21590.2 8347.36 21873 8712.92 21873 9163.86C21873 9614.8 21590.2 9980.36 21241.4 9980.36H15599.6V9931.3C15924 9899.28 16179.1 9571.21 16179.1 9171.23C16179.1 8771.25 15924 8443.19 15599.6 8411.16V8347.36Z" fill="white"/>
</mask>
<g mask="url(#mask1_115_48)">
<path d="M15599.6 8347.36V8262.93H15515.2V8347.36H15599.6ZM15599.6 9980.36H15515.2V10064.8H15599.6V9980.36ZM15599.6 9931.3L15591.3 9847.27L15515.2 9854.79V9931.3H15599.6ZM15599.6 8411.16H15515.2V8487.68L15591.3 8495.19L15599.6 8411.16ZM21241.4 8262.93H15599.6V8431.8H21241.4V8262.93ZM21241.4 8431.8C21524.7 8431.8 21788.6 8738.11 21788.6 9163.86H21957.5C21957.5 8687.73 21655.7 8262.93 21241.4 8262.93V8431.8ZM21788.6 9163.86C21788.6 9589.61 21524.7 9895.92 21241.4 9895.92V10064.8C21655.7 10064.8 21957.5 9639.99 21957.5 9163.86H21788.6ZM15599.6 10064.8H21241.4V9895.92H15599.6V10064.8ZM15515.2 9931.3V9980.36H15684V9931.3H15515.2ZM16094.6 9171.23C16094.6 9540.79 15860.7 9820.68 15591.3 9847.27L15607.9 10015.3C15987.4 9977.87 16263.5 9601.63 16263.5 9171.23H16094.6ZM15591.3 8495.19C15860.7 8521.78 16094.6 8801.67 16094.6 9171.23H16263.5C16263.5 8740.83 15987.4 8364.59 15607.9 8327.14L15591.3 8495.19ZM15515.2 8347.36V8411.16H15684V8347.36H15515.2Z" fill="#DF9EC6"/>
</g>
<path d="M17199.4 9326.82V9441.66H17185.7C17185.7 9438.31 17185 9434.96 17183.6 9431.61C17182.1 9428.26 17180.2 9426.58 17177.8 9426.58H16812.5V9412.95C16815.9 9412.95 16819.2 9412.23 16822.6 9410.79C16826.4 9409.36 16828.3 9407.45 16828.3 9405.05V8909.83C16828.3 8907.44 16826.4 8905.53 16822.6 8904.09C16819.2 8902.66 16815.9 8901.94 16812.5 8901.94V8888.3H17159.2C17161.6 8888.3 17163.5 8886.63 17164.9 8883.28C17166.3 8879.93 17167.1 8876.58 17167.1 8873.23H17180.7V8988.06H17167.1C17167.1 8984.72 17166.3 8981.37 17164.9 8978.02C17163.5 8974.67 17161.6 8972.99 17159.2 8972.99H16920.9V9099.31H17124C17126.4 9099.31 17128.3 9097.63 17129.7 9094.29C17131.2 9090.94 17131.9 9087.59 17131.9 9084.24H17145.5V9199.07H17131.9C17131.9 9195.72 17131.2 9192.37 17129.7 9189.02C17128.3 9185.67 17126.4 9184 17124 9184H16920.9V9341.89H17177.8C17180.2 9341.89 17182.1 9340.22 17183.6 9336.87C17185 9333.52 17185.7 9330.17 17185.7 9326.82H17199.4ZM17471.5 9110.67V9154.15L17385.8 9228.03C17401.3 9230.85 17415.1 9237.04 17427.2 9246.61C17439.3 9256.18 17448.7 9268.14 17455.5 9282.49C17462.2 9296.57 17465.6 9312.05 17465.6 9328.93C17465.6 9347.23 17461.2 9364.54 17452.5 9380.86C17443.8 9396.9 17430.7 9409.85 17413.3 9419.7C17395.8 9429.55 17374.7 9434.48 17349.9 9434.48C17325.7 9434.48 17303.5 9427.72 17283.2 9414.21C17263 9400.7 17247.1 9380.58 17235.5 9353.84C17235.2 9352.72 17233.8 9352.15 17231.3 9352.15C17228.5 9352.15 17226.2 9352.58 17224.5 9353.42L17221.6 9346.24L17293.8 9314.16L17297.2 9321.76C17294.9 9322.6 17292.6 9324.01 17290.4 9325.98C17288.1 9327.67 17287.3 9329.21 17287.9 9330.62C17292.6 9345.26 17300.5 9357.36 17311.5 9366.93C17322.8 9376.22 17335.6 9380.86 17349.9 9380.86C17360.9 9380.86 17370.8 9378.47 17379.5 9373.68C17388.5 9368.62 17395.4 9362 17400.2 9353.84C17405.2 9345.68 17407.8 9337.1 17407.8 9328.09C17407.8 9312.89 17402.6 9300.37 17392.1 9290.51C17382 9280.38 17369.3 9275.32 17354.1 9275.32C17347.4 9275.32 17340.9 9276.3 17334.7 9278.27C17333.6 9278.55 17333 9279.26 17333 9280.38C17333 9281.79 17333.9 9283.34 17335.6 9285.03L17329.7 9290.51L17321.2 9280.8L17300.5 9258.85L17286.2 9243.23L17292.1 9237.74C17293.5 9239.15 17295.2 9240.42 17297.2 9241.54C17299.1 9242.39 17300.7 9242.39 17301.8 9241.54L17393 9161.33H17266.8C17265.3 9161.33 17264.2 9162.31 17263.4 9164.28C17262.5 9166.25 17262.1 9168.22 17262.1 9170.19H17254.1V9101.8H17262.1C17262.1 9103.77 17262.5 9105.74 17263.4 9107.71C17264.2 9109.68 17265.3 9110.67 17266.8 9110.67H17471.5ZM17732.6 9477.54L17685.2 9517.02L17645 9549.31L17635.7 9537.83C17639.5 9534.96 17642.4 9531.37 17644.3 9527.06C17646.2 9522.76 17647.2 9518.93 17647.2 9515.58C17647.2 9512.71 17646.5 9510.56 17645 9509.12C17614.9 9472.76 17590.7 9428.5 17572.5 9376.34C17554.8 9323.71 17546 9269.41 17546 9213.42C17546 9156.01 17555.3 9100.51 17574 9046.92C17593.1 8992.85 17618.5 8947.87 17650 8911.99C17651 8911.03 17651.5 8909.83 17651.5 8908.4C17651.5 8905.05 17648.4 8900.26 17642.2 8894.04L17652.2 8882.56L17732.6 8949.31L17759.1 8970.84L17750.5 8980.89C17747.2 8978.02 17742.9 8976.58 17737.6 8976.58C17733.3 8976.58 17730 8977.78 17727.6 8980.17C17705.6 9010.31 17687.1 9046.68 17672.3 9089.26C17657.5 9131.37 17650 9172.75 17650 9213.42C17650 9254.09 17657.5 9295.72 17672.3 9338.31C17687.1 9380.41 17705.6 9416.54 17727.6 9446.68C17729 9448.12 17731.4 9448.83 17734.7 9448.83C17741.9 9448.83 17748.6 9446.68 17754.8 9442.37L17763.4 9452.42L17732.6 9477.54ZM18233.1 9408.64C18235 9411.99 18241.4 9413.67 18252.4 9413.67V9427.3H18106.7V9413.67C18113.4 9413.67 18118 9412.47 18120.4 9410.08C18122.8 9407.68 18123 9405.29 18121.1 9402.9L18000.5 9199.79H17926.6V9405.77C17926.6 9408.16 17928.5 9410.08 17932.3 9411.51C17936.2 9412.95 17939.8 9413.67 17943.1 9413.67V9427.3H17813.9V9413.67C17817.3 9413.67 17820.9 9412.95 17824.7 9411.51C17828.5 9410.08 17830.4 9408.16 17830.4 9405.77V8910.55C17830.4 8908.16 17828.5 8906.25 17824.7 8904.81C17821.3 8903.37 17818 8902.66 17814.6 8902.66V8889.02H18033.5C18096.7 8889.02 18144.3 8903.37 18176.4 8932.08C18208.9 8960.31 18225.2 8996.92 18225.2 9041.89C18225.2 9083.52 18213.7 9117.01 18190.7 9142.37C18168.2 9167.73 18139 9184.72 18103.2 9193.33L18233.1 9408.64ZM17926.6 8972.27V9112.95H18044.3C18074 9112.95 18096.2 9106.01 18111 9092.13C18125.9 9078.26 18133.3 9061.51 18133.3 9041.89C18133.3 9022.75 18124.9 9006.49 18108.2 8993.09C18091.4 8979.21 18070.9 8972.27 18046.5 8972.27H17926.6ZM18787.6 8902.66C18784.3 8902.66 18780.7 8903.37 18776.8 8904.81C18773 8906.25 18771.1 8908.16 18771.1 8910.55V9405.77C18771.1 9408.16 18772.8 9410.08 18776.1 9411.51C18779.9 9412.95 18783.5 9413.67 18786.9 9413.67V9427.3H18660.6V9413.67C18672.1 9413.67 18675.6 9410.56 18671.3 9404.33L18416.5 9052.66V9405.77C18416.5 9408.16 18418.5 9410.08 18422.3 9411.51C18426.1 9412.95 18429.9 9413.67 18433.8 9413.67V9427.3H18302.4V9413.67C18306.3 9413.67 18310.1 9412.95 18313.9 9411.51C18317.7 9410.08 18319.7 9408.16 18319.7 9405.77V8910.55C18319.7 8908.16 18317.7 8906.25 18313.9 8904.81C18310.6 8903.37 18307.2 8902.66 18303.9 8902.66V8889.02H18433.8V8902.66C18422.3 8902.66 18418.7 8905.77 18423 8911.99L18685 9275.15L18675.6 8910.55C18675.6 8908.16 18673.5 8906.25 18669.2 8904.81C18665.4 8903.37 18661.8 8902.66 18658.4 8902.66V8889.02H18787.6V8902.66ZM19223.5 8873.95V8988.78H19209.9C19209.9 8985.43 19209.2 8982.08 19207.7 8978.73C19206.3 8975.38 19204.4 8973.71 19202 8973.71H18969.4V9100.74H19157.5C19159.9 9100.74 19161.8 9099.07 19163.2 9095.72C19164.7 9092.37 19165.4 9089.02 19165.4 9085.67H19179V9200.51H19165.4C19165.4 9197.16 19164.7 9193.81 19163.2 9190.46C19161.8 9187.11 19159.9 9185.43 19157.5 9185.43H18969.4V9405.77C18969.4 9408.16 18971.1 9410.08 18974.5 9411.51C18978.3 9412.95 18982.1 9413.67 18986 9413.67V9427.3H18859.6V9413.67C18863.5 9413.67 18867.1 9412.95 18870.4 9411.51C18874.2 9410.08 18876.1 9408.16 18876.1 9405.77V8910.55C18876.1 8908.16 18874.2 8906.25 18870.4 8904.81C18867.1 8903.37 18863.7 8902.66 18860.4 8902.66V8889.02H19202C19204.4 8889.02 19206.3 8887.35 19207.7 8884C19209.2 8880.65 19209.9 8877.3 19209.9 8873.95H19223.5ZM19545.9 9405.77C19545.9 9408.16 19547.8 9410.08 19551.6 9411.51C19555.4 9412.95 19559.3 9413.67 19563.1 9413.67V9427.3H19430.3V9413.67C19434.1 9413.67 19438 9412.95 19441.8 9411.51C19445.6 9410.08 19447.5 9408.16 19447.5 9405.77V8975.15H19372.9C19370.5 8975.15 19368.6 8976.82 19367.2 8980.17C19365.7 8983.52 19365 8986.87 19365 8990.22H19351.4V8873.95H19365C19365 8877.3 19365.7 8880.65 19367.2 8884C19368.6 8887.35 19370.5 8889.02 19372.9 8889.02H19561.7V8902.66C19558.3 8902.66 19554.7 8903.37 19550.9 8904.81C19547.5 8906.25 19545.9 8908.16 19545.9 8910.55V9405.77ZM20012.7 9405.77C20012.7 9408.16 20014.6 9410.08 20018.4 9411.51C20022.2 9412.95 20026.1 9413.67 20029.9 9413.67V9427.3H19897.1V9413.67C19900.9 9413.67 19904.8 9412.95 19908.6 9411.51C19912.4 9410.08 19914.3 9408.16 19914.3 9405.77V8975.15H19839.7C19837.3 8975.15 19835.4 8976.82 19834 8980.17C19832.5 8983.52 19831.8 8986.87 19831.8 8990.22H19818.2V8873.95H19831.8C19831.8 8877.3 19832.5 8880.65 19834 8884C19835.4 8887.35 19837.3 8889.02 19839.7 8889.02H20028.5V8902.66C20025.1 8902.66 20021.5 8903.37 20017.7 8904.81C20014.3 8906.25 20012.7 8908.16 20012.7 8910.55V9405.77ZM20628 9217.01V9329.69H20614.4C20614.4 9326.82 20613.7 9323.71 20612.2 9320.36C20610.8 9317.01 20608.9 9315.34 20606.5 9315.34H20539V9405.77C20539 9408.16 20540.7 9410.08 20544 9411.51C20547.9 9412.95 20551.5 9413.67 20554.8 9413.67V9427.3H20434.2V9413.67C20437.6 9413.67 20440.9 9412.95 20444.3 9411.51C20448.1 9410.08 20450 9408.16 20450 9405.77V9315.34H20203.1C20200.7 9315.34 20198.8 9317.25 20197.4 9321.08C20196 9324.43 20195.2 9327.78 20195.2 9331.13H20181.6V9231.37L20423.5 8889.02H20554.8V8902.66C20551.5 8902.66 20547.9 8903.37 20544 8904.81C20540.7 8906.25 20539 8908.16 20539 8910.55V9231.37H20606.5C20608.9 9231.37 20610.8 9229.69 20612.2 9226.34C20613.7 9222.99 20614.4 9219.88 20614.4 9217.01H20628ZM20450 8993.81L20282.1 9231.37H20450V8993.81ZM20737.4 9518.45L20690 9478.98L20649.8 9446.68L20659.9 9434.48C20665.6 9439.74 20672.8 9442.37 20681.4 9442.37C20686.7 9442.37 20690 9441.42 20691.5 9439.5C20713 9409.36 20730.7 9373.71 20744.6 9332.56C20758.9 9290.94 20766.1 9250.03 20766.1 9209.84C20766.1 9169.17 20758.7 9127.78 20743.9 9085.67C20729 9043.09 20710.6 9006.72 20688.6 8976.58C20687.2 8975.15 20684.8 8974.43 20681.4 8974.43C20674.2 8974.43 20667.5 8976.58 20661.3 8980.89L20652.7 8970.84L20683.6 8945.72L20730.9 8906.25L20771.1 8873.95L20780.5 8885.43C20776.6 8888.3 20773.8 8891.89 20771.8 8896.2C20769.9 8900.5 20769 8904.33 20769 8907.68C20769 8910.55 20769.7 8912.71 20771.1 8914.14C20801.3 8950.5 20825.2 8995 20842.9 9047.63C20861.1 9099.79 20870.2 9153.85 20870.2 9209.84C20870.2 9266.3 20860.8 9321.32 20842.2 9374.91C20823.5 9428.02 20798.9 9472.52 20768.3 9508.4C20766.3 9510.79 20766.3 9515.1 20768.3 9521.32C20770.2 9527.54 20772.8 9532.33 20776.1 9535.68L20767.5 9545.01L20737.4 9518.45Z" fill="#464646"/>
<path fill-rule="evenodd" clip-rule="evenodd" d="M11330.5 8555.92H15531.2C15790.9 8555.92 16001.5 8828.1 16001.5 9163.86C16001.5 9499.62 15790.9 9771.8 15531.2 9771.8H11330.5V9735.27C11572.1 9711.43 11762 9467.16 11762 9169.35C11762 8871.53 11572.1 8627.27 11330.5 8603.42V8555.92Z" fill="#BFDAF8"/>
<mask id="mask2_115_48" style="mask-type:luminance" maskUnits="userSpaceOnUse" x="11330" y="8555" width="4672" height="1217">
<path fill-rule="evenodd" clip-rule="evenodd" d="M11330.5 8555.92H15531.2C15790.9 8555.92 16001.5 8828.1 16001.5 9163.86C16001.5 9499.62 15790.9 9771.8 15531.2 9771.8H11330.5V9735.27C11572.1 9711.43 11762 9467.16 11762 9169.35C11762 8871.53 11572.1 8627.27 11330.5 8603.42V8555.92Z" fill="white"/>
</mask>
<g mask="url(#mask2_115_48)">
<path d="M11330.5 8555.92V8471.48H11246.1V8555.92H11330.5ZM11330.5 9771.8H11246.1V9856.24H11330.5V9771.8ZM11330.5 9735.27L11322.2 9651.25L11246.1 9658.76V9735.27H11330.5ZM11330.5 8603.42H11246.1V8679.94L11322.2 8687.45L11330.5 8603.42ZM15531.2 8471.48H11330.5V8640.36H15531.2V8471.48ZM15531.2 8640.36C15725.4 8640.36 15917.1 8853.3 15917.1 9163.86H16085.9C16085.9 8802.91 15856.4 8471.48 15531.2 8471.48V8640.36ZM15917.1 9163.86C15917.1 9474.42 15725.4 9687.37 15531.2 9687.37V9856.24C15856.4 9856.24 16085.9 9524.81 16085.9 9163.86H15917.1ZM11330.5 9856.24H15531.2V9687.37H11330.5V9856.24ZM11246.1 9735.27V9771.8H11414.9V9735.27H11246.1ZM11677.5 9169.35C11677.5 9436.74 11508.7 9632.83 11322.2 9651.25L11338.8 9819.3C11635.4 9790.03 11846.4 9497.58 11846.4 9169.35H11677.5ZM11322.2 8687.45C11508.7 8705.86 11677.5 8901.95 11677.5 9169.35H11846.4C11846.4 8841.11 11635.4 8548.67 11338.8 8519.4L11322.2 8687.45ZM11246.1 8555.92V8603.42H11414.9V8555.92H11246.1Z" fill="#94C1F3"/>
</g>
<path d="M12587.6 9471.63C12536.4 9471.63 12489.3 9459.67 12446.2 9435.75C12403.2 9411.34 12369.2 9377.85 12344.3 9335.27C12319.4 9292.2 12307 9244.36 12307 9191.72C12307 9136.22 12319.4 9087.18 12344.3 9044.59C12369.2 9002.01 12402.7 8969.24 12444.8 8946.27C12486.9 8922.82 12533.1 8911.1 12583.3 8911.1C12631.6 8911.1 12672.3 8919.71 12705.3 8936.94C12738.8 8953.68 12770.4 8977.37 12800.1 9007.99C12801 9008.95 12802.5 9009.43 12804.4 9009.43C12807.2 9009.43 12812.3 9007.27 12819.4 9002.97L12828.1 9013.73L12729 9091.96L12720.4 9081.2C12723.3 9079.28 12725.4 9076.89 12726.9 9074.02C12728.8 9070.67 12728.8 9068.28 12726.9 9066.84C12706.8 9047.23 12685.7 9032.39 12663.7 9022.35C12642.2 9011.82 12615.9 9006.56 12584.8 9006.56C12552.2 9006.56 12522.3 9014.69 12495 9030.96C12467.8 9046.75 12446.2 9068.76 12430.4 9096.99C12414.7 9125.22 12406.8 9156.8 12406.8 9191.72C12406.8 9225.22 12415.1 9255.84 12431.9 9283.59C12448.6 9310.86 12470.9 9332.4 12498.6 9348.18C12526.4 9363.97 12556 9371.87 12587.6 9371.87C12617.3 9371.87 12642.6 9366.85 12663.7 9356.8C12684.8 9346.27 12704.6 9330.72 12723.3 9310.15L12724.7 9307.28C12724.7 9304.88 12723.5 9302.25 12721.1 9299.38C12719.2 9296.03 12717 9293.64 12714.7 9292.2L12724 9282.16L12830.9 9371.87L12822.3 9382.63C12819.4 9380.24 12815.9 9378.09 12811.5 9376.18C12807.2 9374.26 12804.4 9374.26 12802.9 9376.18C12772.8 9408.71 12741.2 9432.87 12708.2 9448.66C12675.2 9463.98 12635 9471.63 12587.6 9471.63ZM13289.3 9445.79C13291.2 9449.14 13297.7 9450.82 13308.7 9450.82V9464.45H13163V9450.82C13169.7 9450.82 13174.2 9449.62 13176.6 9447.23C13179 9444.84 13179.2 9442.44 13177.3 9440.05L13056.8 9236.94H12982.8V9442.92C12982.8 9445.31 12984.7 9447.23 12988.6 9448.66C12992.4 9450.1 12996 9450.82 12999.3 9450.82V9464.45H12870.1V9450.82C12873.5 9450.82 12877.1 9450.1 12880.9 9448.66C12884.7 9447.23 12886.7 9445.31 12886.7 9442.92V8947.7C12886.7 8945.31 12884.7 8943.4 12880.9 8941.96C12877.6 8940.53 12874.2 8939.81 12870.9 8939.81V8926.17H13089.8C13152.9 8926.17 13200.5 8940.53 13232.6 8969.24C13265.1 8997.47 13281.4 9034.07 13281.4 9079.04C13281.4 9120.67 13269.9 9154.16 13246.9 9179.52C13224.5 9204.88 13195.3 9221.87 13159.4 9230.48L13289.3 9445.79ZM12982.8 9009.43V9150.1H13100.5C13130.2 9150.1 13152.4 9143.16 13167.3 9129.28C13182.1 9115.41 13189.5 9098.66 13189.5 9079.04C13189.5 9059.91 13181.2 9043.64 13164.4 9030.24C13147.7 9016.36 13127.1 9009.43 13102.7 9009.43H12982.8ZM13865.4 8939.81H13861.1C13852 8939.81 13846.5 8941.24 13844.6 8944.12L13651.5 9221.15V9442.92C13651.5 9445.31 13653.4 9447.23 13657.2 9448.66C13661.5 9450.1 13665.6 9450.82 13669.4 9450.82V9464.45H13528.8V9450.82C13532.6 9450.82 13536.4 9450.1 13540.2 9448.66C13544.6 9447.23 13546.7 9445.31 13546.7 9442.92V9225.46L13350.8 8944.12C13349.3 8942.2 13346.2 8941.01 13341.4 8940.53C13337.1 8940.05 13333.3 8939.81 13330 8939.81V8926.17H13477.8V8939.81C13472.1 8939.81 13469.2 8941.01 13469.2 8943.4C13469.2 8945.31 13469.9 8947.46 13471.3 8949.86L13596.2 9125.7L13719.7 8949.86L13721.1 8946.99C13721.1 8944.59 13719.7 8942.92 13716.8 8941.96C13714.4 8940.53 13710.8 8939.81 13706 8939.81V8926.17H13865.4V8939.81ZM14434.2 9444.36C14435.7 9448.66 14441.4 9450.82 14451.5 9450.82V9464.45H14305.8V9450.82C14312 9450.82 14316.3 9449.38 14318.7 9446.51C14321.1 9443.64 14321.6 9440.77 14320.1 9437.9L14280.6 9336.7H14046.7L14007.2 9437.9L14006.5 9440.05C14006.5 9442.92 14007.7 9445.55 14010.1 9447.95C14012.9 9449.86 14016.5 9450.82 14020.8 9450.82V9464.45H13879.5V9450.82C13889 9450.82 13894.8 9448.66 13896.7 9444.36L14096.2 8959.19C14097.6 8956.32 14098.4 8953.68 14098.4 8951.29C14098.4 8946.99 14096.4 8944.12 14092.6 8942.68C14088.8 8940.77 14084.7 8939.81 14080.4 8939.81V8926.17H14247.6V8939.81C14243.3 8939.81 14239.3 8940.77 14235.4 8942.68C14231.6 8944.12 14229.7 8946.99 14229.7 8951.29C14229.7 8953.68 14230.4 8956.32 14231.8 8959.19L14434.2 9444.36ZM14163.7 9038.14L14079 9254.17H14248.4L14163.7 9038.14ZM15020.9 9444.36C15022.3 9448.66 15028.1 9450.82 15038.1 9450.82V9464.45H14892.4V9450.82C14898.6 9450.82 14902.9 9449.38 14905.3 9446.51C14907.7 9443.64 14908.2 9440.77 14906.8 9437.9L14867.3 9336.7H14633.3L14593.8 9437.9L14593.1 9440.05C14593.1 9442.92 14594.3 9445.55 14596.7 9447.95C14599.6 9449.86 14603.2 9450.82 14607.5 9450.82V9464.45H14466.1V9450.82C14475.7 9450.82 14481.4 9448.66 14483.3 9444.36L14682.8 8959.19C14684.3 8956.32 14685 8953.68 14685 8951.29C14685 8946.99 14683.1 8944.12 14679.3 8942.68C14675.4 8940.77 14671.4 8939.81 14667.1 8939.81V8926.17H14834.3V8939.81C14830 8939.81 14825.9 8940.77 14822.1 8942.68C14818.2 8944.12 14816.3 8946.99 14816.3 8951.29C14816.3 8953.68 14817.1 8956.32 14818.5 8959.19L15020.9 9444.36ZM14750.3 9038.14L14665.6 9254.17H14835L14750.3 9038.14Z" fill="#464646"/>
<path d="M11517.9 4604.31C11517.9 5075.73 11111.2 5462.18 10603.9 5462.18C10096.7 5462.18 9689.9 5075.73 9689.9 4604.31C9689.9 4132.89 10096.7 3746.43 10603.9 3746.43C11111.2 3746.43 11517.9 4132.89 11517.9 4604.31Z" fill="#FFFFE0" stroke="#D2C09B" stroke-width="100"/>
<path d="M10384.3 4924.61C10340.2 4924.61 10301 4915.52 10266.6 4897.34C10232.1 4879.16 10205.3 4852.84 10186.2 4818.39C10167 4783.47 10157.5 4742.56 10157.5 4695.67V4399.97C10157.5 4397.58 10155.3 4395.66 10151 4394.23C10147.2 4392.79 10143.3 4392.08 10139.5 4392.08V4378.44H10278V4392.08C10274.2 4392.08 10270.1 4392.79 10265.8 4394.23C10262 4395.66 10260.1 4397.58 10260.1 4399.97V4674.13C10260.1 4725.81 10270.4 4765.52 10291 4793.27C10312 4821.03 10343.1 4834.9 10384.3 4834.9C10429.2 4834.9 10459.1 4820.55 10474 4791.84C10489.3 4763.13 10496.9 4725.81 10496.9 4679.88V4399.97C10496.9 4397.58 10494.8 4395.66 10490.5 4394.23C10486.7 4392.79 10482.8 4392.08 10479 4392.08V4378.44H10618.2V4392.08C10614.4 4392.08 10610.3 4392.79 10606 4394.23C10602.2 4395.66 10600.3 4397.58 10600.3 4399.97V4682.75C10600.3 4758.82 10582.8 4818.15 10547.9 4860.74C10513.4 4903.32 10458.9 4924.61 10384.3 4924.61ZM10896.4 4577.96C10930.4 4577.96 10961.2 4585.38 10989 4600.21C11016.8 4614.56 11038.5 4634.9 11054.3 4661.22C11070.6 4687.53 11078.7 4717.91 11078.7 4752.36C11078.7 4787.29 11070.8 4817.92 11055 4844.23C11039.2 4870.07 11017.5 4890.16 10989.7 4904.52C10962.4 4918.87 10931.3 4926.05 10896.4 4926.05C10856.2 4926.05 10821.3 4914.09 10791.6 4890.16V4916.72H10686.8V4903.08C10690.2 4903.08 10693.5 4902.37 10696.9 4900.93C10700.7 4899.49 10702.6 4897.58 10702.6 4895.19V4399.97C10702.6 4397.58 10700.7 4395.66 10696.9 4394.23C10693.5 4392.79 10690.2 4392.08 10686.8 4392.08V4378.44H10807.4V4392.08C10804.1 4392.08 10800.5 4392.79 10796.7 4394.23C10793.3 4395.66 10791.6 4397.58 10791.6 4399.97V4611.69C10820.3 4589.21 10855.3 4577.96 10896.4 4577.96ZM10890.7 4849.97C10919.4 4849.97 10943.3 4841.12 10962.4 4823.42C10982.1 4805.71 10991.9 4782.03 10991.9 4752.36C10991.9 4724.61 10982.3 4701.65 10963.2 4683.46C10944 4664.8 10919.9 4655.47 10890.7 4655.47C10861 4655.47 10836.6 4664.8 10817.5 4683.46C10798.3 4702.13 10788.8 4725.81 10788.8 4754.52C10788.8 4771.26 10793.1 4787.05 10801.7 4801.89C10810.8 4816.24 10823.2 4827.96 10839 4837.05C10854.8 4845.67 10872 4849.97 10890.7 4849.97Z" fill="#464646"/>
<path d="M10562.1 3513.39C10562.1 3984.81 10155.3 4371.26 9648.1 4371.26C9140.86 4371.26 8734.08 3984.81 8734.08 3513.39C8734.08 3041.97 9140.86 2655.52 9648.1 2655.52C10155.3 2655.52 10562.1 3041.97 10562.1 3513.39Z" fill="#FFFFE0" stroke="#D2C09B" stroke-width="100"/>
<path d="M9428.44 3833.7C9384.42 3833.7 9345.19 3824.61 9310.74 3806.43C9276.29 3788.24 9249.49 3761.93 9230.35 3727.48C9211.22 3692.55 9201.65 3651.64 9201.65 3604.75V3309.05C9201.65 3306.66 9199.49 3304.75 9195.19 3303.31C9191.36 3301.88 9187.53 3301.16 9183.7 3301.16V3287.52H9322.22V3301.16C9318.39 3301.16 9314.33 3301.88 9310.02 3303.31C9306.19 3304.75 9304.28 3306.66 9304.28 3309.05V3583.22C9304.28 3634.89 9314.57 3674.61 9335.14 3702.36C9356.19 3730.11 9387.29 3743.99 9428.44 3743.99C9473.42 3743.99 9503.32 3729.63 9518.15 3700.92C9533.47 3672.21 9541.12 3634.89 9541.12 3588.96V3309.05C9541.12 3306.66 9538.97 3304.75 9534.66 3303.31C9530.83 3301.88 9527.01 3301.16 9523.18 3301.16V3287.52H9662.41V3301.16C9658.59 3301.16 9654.52 3301.88 9650.21 3303.31C9646.39 3304.75 9644.47 3306.66 9644.47 3309.05V3591.83C9644.47 3667.91 9627.01 3727.24 9592.08 3769.82C9557.63 3812.41 9503.08 3833.7 9428.44 3833.7ZM9940.6 3487.05C9974.57 3487.05 10005.4 3494.46 10033.2 3509.3C10060.9 3523.65 10082.7 3543.98 10098.5 3570.3C10114.8 3596.62 10122.9 3627 10122.9 3661.45C10122.9 3696.38 10115 3727 10099.2 3753.32C10083.4 3779.15 10061.7 3799.25 10033.9 3813.6C10006.6 3827.96 9975.53 3835.13 9940.6 3835.13C9900.41 3835.13 9865.48 3823.17 9835.81 3799.25V3825.8H9731.03V3812.17C9734.38 3812.17 9737.73 3811.45 9741.08 3810.01C9744.9 3808.58 9746.82 3806.67 9746.82 3804.27V3309.05C9746.82 3306.66 9744.9 3304.75 9741.08 3303.31C9737.73 3301.88 9734.38 3301.16 9731.03 3301.16V3287.52H9851.6V3301.16C9848.25 3301.16 9844.67 3301.88 9840.84 3303.31C9837.49 3304.75 9835.81 3306.66 9835.81 3309.05V3520.78C9864.52 3498.29 9899.45 3487.05 9940.6 3487.05ZM9934.86 3759.06C9963.57 3759.06 9987.49 3750.21 10006.6 3732.5C10026.2 3714.8 10036.1 3691.11 10036.1 3661.45C10036.1 3633.7 10026.5 3610.73 10007.3 3592.55C9988.21 3573.89 9964.04 3564.56 9934.86 3564.56C9905.19 3564.56 9880.79 3573.89 9861.65 3592.55C9842.51 3611.21 9832.94 3634.89 9832.94 3663.6C9832.94 3680.35 9837.25 3696.14 9845.86 3710.97C9854.95 3725.33 9867.39 3737.05 9883.18 3746.14C9898.97 3754.75 9916.2 3759.06 9934.86 3759.06Z" fill="#464646"/>
<path d="M9948.27 2338.88C9948.27 2810.3 9541.49 3196.75 9034.25 3196.75C8527.01 3196.75 8120.23 2810.3 8120.23 2338.88C8120.23 1867.46 8527.01 1481.01 9034.25 1481.01C9541.49 1481.01 9948.27 1867.46 9948.27 2338.88Z" fill="#FFFFE0" stroke="#D2C09B" stroke-width="100"/>
<path d="M8814.59 2659.19C8770.57 2659.19 8731.34 2650.1 8696.89 2631.92C8662.44 2613.74 8635.64 2587.42 8616.5 2552.97C8597.36 2518.04 8587.79 2477.13 8587.79 2430.24V2134.55C8587.79 2132.15 8585.64 2130.24 8581.34 2128.81C8577.51 2127.37 8573.68 2126.65 8569.85 2126.65V2113.02H8708.37V2126.65C8704.54 2126.65 8700.47 2127.37 8696.17 2128.81C8692.34 2130.24 8690.43 2132.15 8690.43 2134.55V2408.71C8690.43 2460.39 8700.71 2500.1 8721.29 2527.85C8742.34 2555.6 8773.44 2569.48 8814.59 2569.48C8859.57 2569.48 8889.47 2555.12 8904.3 2526.42C8919.61 2497.71 8927.27 2460.39 8927.27 2414.45V2134.55C8927.27 2132.15 8925.12 2130.24 8920.81 2128.81C8916.98 2127.37 8913.16 2126.65 8909.33 2126.65V2113.02H9048.56V2126.65C9044.74 2126.65 9040.67 2127.37 9036.36 2128.81C9032.53 2130.24 9030.62 2132.15 9030.62 2134.55V2417.32C9030.62 2493.4 9013.16 2552.73 8978.23 2595.32C8943.78 2637.9 8889.23 2659.19 8814.59 2659.19ZM9326.75 2312.54C9360.72 2312.54 9391.58 2319.95 9419.33 2334.79C9447.08 2349.14 9468.85 2369.48 9484.64 2395.79C9500.91 2422.11 9509.05 2452.49 9509.05 2486.94C9509.05 2521.87 9501.15 2552.49 9485.36 2578.81C9469.57 2604.65 9447.8 2624.74 9420.05 2639.1C9392.78 2653.45 9361.68 2660.63 9326.75 2660.63C9286.56 2660.63 9251.63 2648.67 9221.96 2624.74V2651.3H9117.18V2637.66C9120.53 2637.66 9123.88 2636.94 9127.22 2635.51C9131.05 2634.07 9132.97 2632.16 9132.97 2629.77V2134.55C9132.97 2132.15 9131.05 2130.24 9127.22 2128.81C9123.88 2127.37 9120.53 2126.65 9117.18 2126.65V2113.02H9237.75V2126.65C9234.4 2126.65 9230.81 2127.37 9226.99 2128.81C9223.64 2130.24 9221.96 2132.15 9221.96 2134.55V2346.27C9250.67 2323.78 9285.6 2312.54 9326.75 2312.54ZM9321.01 2584.55C9349.71 2584.55 9373.64 2575.7 9392.78 2557.99C9412.39 2540.29 9422.2 2516.61 9422.2 2486.94C9422.2 2459.19 9412.63 2436.22 9393.49 2418.04C9374.36 2399.38 9350.19 2390.05 9321.01 2390.05C9291.34 2390.05 9266.94 2399.38 9247.8 2418.04C9228.66 2436.7 9219.09 2460.39 9219.09 2489.09C9219.09 2505.84 9223.4 2521.63 9232.01 2536.46C9241.1 2550.82 9253.54 2562.54 9269.33 2571.63C9285.12 2580.24 9302.35 2584.55 9321.01 2584.55Z" fill="#464646"/>
<path d="M14658.1 5504.42C15127.4 5458.39 16001.3 6030.39 16384.4 6576.76C16767.5 7123.12 16953 7761.02 16953.1 8061.55" stroke="#D5D1D1" stroke-width="100"/>
<path d="M6473.86 6432.81L6944.92 6307.29L6600.7 5962.1L6473.86 6432.81ZM6771.37 6195.7C6854.7 6119.83 6945.49 6044.66 7027.4 5992.69L6982.16 5921.39C6894.16 5977.23 6799.18 6056.2 6714.53 6133.26L6771.37 6195.7ZM7027.4 5992.69C7141.63 5920.22 7303.2 5851.85 7438.18 5801.16C7505.29 5775.95 7565.11 5755.38 7608.13 5741.12C7629.64 5733.99 7646.92 5728.44 7658.8 5724.68C7664.74 5722.81 7669.33 5721.38 7672.41 5720.42C7673.95 5719.95 7675.12 5719.59 7675.89 5719.35C7676.28 5719.23 7676.57 5719.15 7676.75 5719.09C7676.85 5719.06 7676.91 5719.04 7676.96 5719.03C7676.98 5719.02 7676.99 5719.02 7677 5719.01H7677.01C7677.01 5719.01 7677.01 5719.01 7664.75 5678.61C7652.49 5638.21 7652.49 5638.21 7652.48 5638.22C7652.47 5638.22 7652.47 5638.22 7652.46 5638.22C7652.44 5638.23 7652.42 5638.24 7652.39 5638.24C7652.33 5638.26 7652.24 5638.29 7652.13 5638.32C7651.91 5638.39 7651.58 5638.49 7651.16 5638.62C7650.31 5638.88 7649.07 5639.26 7647.45 5639.76C7644.21 5640.76 7639.46 5642.24 7633.35 5644.18C7621.14 5648.04 7603.47 5653.71 7581.56 5660.97C7537.75 5675.5 7476.86 5696.44 7408.5 5722.11C7272.55 5773.17 7104.14 5844.01 6982.16 5921.39L7027.4 5992.69Z" fill="#7F7F7F"/>
<path d="M4163.55 13255.6L4365.23 12811.8L3880.03 12859.1L4163.55 13255.6ZM4168.79 12873.9C4147.43 12614.4 4129.98 12295.9 4153.62 12138.4L4070.12 12125.9C4044.74 12295 4063.51 12624.1 4084.64 12880.9L4168.79 12873.9ZM4153.62 12138.4C4182.99 11942.6 4224.12 11739.2 4257.98 11584.5C4274.89 11507.2 4289.96 11442.2 4300.8 11396.5C4306.22 11373.7 4310.58 11355.7 4313.58 11343.4C4315.08 11337.3 4316.24 11332.6 4317.02 11329.5C4317.41 11327.9 4317.71 11326.7 4317.91 11325.9C4318.01 11325.5 4318.08 11325.2 4318.13 11325C4318.15 11324.9 4318.17 11324.8 4318.18 11324.8C4318.19 11324.8 4318.19 11324.7 4318.2 11324.7C4318.2 11324.7 4318.2 11324.7 4277.25 11314.5C4236.3 11304.2 4236.3 11304.2 4236.3 11304.2H4236.29C4236.29 11304.2 4236.28 11304.2 4236.28 11304.3C4236.26 11304.3 4236.24 11304.4 4236.22 11304.5C4236.16 11304.7 4236.08 11305 4235.98 11305.5C4235.77 11306.3 4235.46 11307.5 4235.06 11309.1C4234.26 11312.4 4233.08 11317.2 4231.56 11323.4C4228.52 11335.8 4224.11 11354 4218.65 11377C4207.72 11423.1 4192.53 11488.6 4175.49 11566.5C4141.44 11722.1 4099.88 11927.5 4070.12 12125.9L4153.62 12138.4Z" fill="#7F7F7F"/>
<path d="M13463.2 5678.17L13920.7 5846.64L13837.9 5366.24L13463.2 5678.17ZM13844.5 5655.28C14114 5611.56 14466 5560.52 14691.2 5550.91L14687.6 5466.55C14456.8 5476.4 14100 5528.28 13831 5571.93L13844.5 5655.28ZM14691.2 5550.91C14894.3 5542.23 15233.7 5557.55 15524.2 5575.24C15669 5584.06 15801.1 5593.43 15896.9 5600.6C15944.8 5604.18 15983.7 5607.21 16010.5 5609.35C16024 5610.41 16034.4 5611.26 16041.5 5611.83C16045 5612.12 16047.7 5612.34 16049.5 5612.49C16050.4 5612.56 16051.1 5612.62 16051.5 5612.66C16051.8 5612.68 16051.9 5612.69 16052.1 5612.7C16052.1 5612.71 16052.2 5612.71 16052.2 5612.71C16052.2 5612.71 16052.2 5612.71 16055.7 5570.64C16059.2 5528.57 16059.2 5528.57 16059.2 5528.57C16059.1 5528.56 16059.1 5528.56 16059 5528.55C16058.9 5528.54 16058.7 5528.53 16058.5 5528.51C16058 5528.47 16057.4 5528.41 16056.4 5528.34C16054.6 5528.19 16051.9 5527.96 16048.3 5527.67C16041.2 5527.1 16030.7 5526.25 16017.2 5525.18C15990.2 5523.03 15951.3 5519.99 15903.2 5516.4C15807.1 5509.21 15674.7 5499.81 15529.3 5490.96C15239.4 5473.3 14895.7 5457.66 14687.6 5466.55L14691.2 5550.91Z" fill="#7F7F7F"/>
<path d="M23448.7 6807.95C23854.5 7048.18 24221.3 8026.03 24207.5 8693.2C24193.7 9360.36 23966.3 9984.58 23788.7 10227" stroke="#D5D1D1" stroke-width="100"/>
<path d="M21875.5 5976.68L22157.7 6374.16L22360.8 5930.99L21875.5 5976.68ZM22203 6173.21C22511.9 6318.58 22949.8 6534.76 23197.7 6701.65L23244.9 6631.6C22990.7 6460.55 22547 6241.81 22238.9 6096.81L22203 6173.21ZM23197.7 6701.65C23403.3 6840.02 23720.5 7108.41 23987.8 7343.79C24121.1 7461.17 24241.4 7569.82 24328.4 7649.14C24371.9 7688.79 24407.1 7721.1 24431.3 7743.49C24443.5 7754.68 24452.9 7763.39 24459.3 7769.3C24462.5 7772.26 24464.9 7774.51 24466.5 7776.02C24467.3 7776.78 24467.9 7777.35 24468.4 7777.73C24468.6 7777.92 24468.7 7778.07 24468.8 7778.16C24468.9 7778.21 24468.9 7778.24 24468.9 7778.27C24468.9 7778.28 24469 7778.29 24469 7778.29C24469 7778.3 24469 7778.3 24497.7 7747.4C24526.5 7716.49 24526.5 7716.49 24526.5 7716.48C24526.5 7716.48 24526.5 7716.47 24526.5 7716.45C24526.4 7716.43 24526.4 7716.39 24526.3 7716.34C24526.2 7716.24 24526.1 7716.09 24525.9 7715.9C24525.4 7715.51 24524.8 7714.92 24524 7714.16C24522.3 7712.62 24519.9 7710.35 24516.7 7707.37C24510.2 7701.42 24500.8 7692.66 24488.6 7681.42C24464.2 7658.93 24428.9 7626.51 24385.3 7586.74C24298 7507.2 24177.3 7398.21 24043.6 7280.42C23776.8 7045.49 23455.7 6773.5 23244.9 6631.6L23197.7 6701.65Z" fill="#7F7F7F"/>
<path d="M26869.1 12117.6C27052.7 12516.2 26898.8 13224 26608.6 13519C26318.4 13813.9 25896.5 13937.3 25670 13921.6" stroke="#D5D1D1" stroke-width="100"/>
<path d="M26882.8 12042.6C26939.5 12490.3 27554.5 13087 28053.1 13242.3C28551.7 13397.5 29082.3 13338.3 29315.2 13230.1" stroke="#D5D1D1" stroke-width="100"/>
<path d="M26524.2 11153.2L26457.9 11636.2L26909.3 11452.1L26524.2 11153.2ZM26628.5 11520.7C26747.5 11818.7 26908 12237 26983.6 12504.6L27064.8 12481.7C26987.9 12209.2 26825.7 11787 26706.9 11489.4L26628.5 11520.7ZM26983.6 12504.6C27047.7 12731.6 27125.5 13116.9 27187.5 13447C27218.4 13611.7 27245.4 13762.2 27264.5 13871.5C27274.1 13926.1 27281.8 13970.4 27287 14001.1C27289.6 14016.4 27291.7 14028.3 27293 14036.4C27293.7 14040.4 27294.2 14043.5 27294.6 14045.6C27294.8 14046.6 27294.9 14047.4 27295 14047.9C27295 14048.2 27295.1 14048.4 27295.1 14048.5C27295.1 14048.6 27295.1 14048.6 27295.1 14048.6C27295.1 14048.7 27295.1 14048.7 27295.1 14048.7C27295.1 14048.7 27295.1 14048.7 27336.7 14041.7C27378.4 14034.7 27378.4 14034.7 27378.4 14034.7C27378.4 14034.6 27378.4 14034.6 27378.4 14034.5C27378.3 14034.4 27378.3 14034.2 27378.2 14033.9C27378.2 14033.4 27378 14032.6 27377.9 14031.5C27377.5 14029.4 27377 14026.3 27376.3 14022.3C27374.9 14014.2 27372.9 14002.2 27370.2 13986.8C27365 13956.1 27357.3 13911.6 27347.7 13856.9C27328.5 13747.4 27301.5 13596.6 27270.5 13431.4C27208.6 13101.8 27130.1 12712.8 27064.8 12481.7L26983.6 12504.6Z" fill="#7F7F7F"/>
<path d="M5718.02 14655.6C5718.02 15021.2 5402.52 15321.8 5007.91 15321.8C4613.3 15321.8 4297.8 15021.2 4297.8 14655.6C4297.8 14290 4613.3 13989.4 5007.91 13989.4C5402.52 13989.4 5718.02 14290 5718.02 14655.6Z" fill="#D0EFFF" stroke="#4ABBF4" stroke-width="100"/>
<path d="M3554.76 14313.6C3554.76 14490.3 3401.83 14637.9 3207.73 14637.9C3013.63 14637.9 2860.7 14490.3 2860.7 14313.6C2860.7 14136.9 3013.63 13989.4 3207.73 13989.4C3401.83 13989.4 3554.76 14136.9 3554.76 14313.6Z" fill="#D0EFFF" stroke="#4ABBF4" stroke-width="100"/>
<path d="M4058.85 14946.9C4058.85 15068.6 3953.34 15171.5 3817.78 15171.5C3682.23 15171.5 3576.72 15068.6 3576.72 14946.9C3576.72 14825.2 3682.23 14722.3 3817.78 14722.3C3953.34 14722.3 4058.85 14825.2 4058.85 14946.9Z" fill="#D0EFFF" stroke="#4ABBF4" stroke-width="100"/>
<path d="M6124.16 16212.2C6124.16 16463.7 5906.77 16671.9 5633.16 16671.9C5359.55 16671.9 5142.16 16463.7 5142.16 16212.2C5142.16 15960.6 5359.55 15752.4 5633.16 15752.4C5906.77 15752.4 6124.16 15960.6 6124.16 16212.2Z" fill="#D0EFFF" stroke="#4ABBF4" stroke-width="100"/>
<path d="M4291.89 13876.2C4291.89 13979.2 4202.32 14067.1 4086.29 14067.1C3970.26 14067.1 3880.69 13979.2 3880.69 13876.2C3880.69 13773.3 3970.26 13685.4 4086.29 13685.4C4202.32 13685.4 4291.89 13773.3 4291.89 13876.2Z" fill="#D0EFFF" stroke="#4ABBF4" stroke-width="100"/>
<path d="M4307.93 15857.5C4307.93 16027.4 4160.71 16169.5 3973.57 16169.5C3786.43 16169.5 3639.2 16027.4 3639.2 15857.5C3639.2 15687.6 3786.43 15545.5 3973.57 15545.5C4160.71 15545.5 4307.93 15687.6 4307.93 15857.5Z" fill="#D0EFFF" stroke="#4ABBF4" stroke-width="100"/>
<path d="M5867.47 13642.8C5867.47 13782.4 5746.47 13899.9 5591.79 13899.9C5437.1 13899.9 5316.1 13782.4 5316.1 13642.8C5316.1 13503.1 5437.1 13385.7 5591.79 13385.7C5746.47 13385.7 5867.47 13503.1 5867.47 13642.8Z" fill="#D0EFFF" stroke="#4ABBF4" stroke-width="100"/>
<path d="M6997.23 14735C6997.23 14942 6818.2 15114.1 6591.93 15114.1C6365.66 15114.1 6186.64 14942 6186.64 14735C6186.64 14527.9 6365.66 14355.8 6591.93 14355.8C6818.2 14355.8 6997.23 14527.9 6997.23 14735Z" fill="#D0EFFF" stroke="#4ABBF4" stroke-width="100"/>
<path fill-rule="evenodd" clip-rule="evenodd" d="M17664.9 4338.33C17431.7 4338.33 17242.7 4527.35 17242.7 4760.51V6005.38C17325.2 5969.46 17416.3 5949.55 17512.1 5949.55H18383.9C18756.9 5949.55 19059.3 6251.97 19059.3 6625.04V6807.35H19583.3C19816.5 6807.35 20005.5 6618.33 20005.5 6385.16V4760.51C20005.5 4527.35 19816.5 4338.33 19583.3 4338.33H17664.9Z" fill="#FFD4D4"/>
<mask id="mask3_115_48" style="mask-type:luminance" maskUnits="userSpaceOnUse" x="17242" y="4338" width="2764" height="2470">
<path fill-rule="evenodd" clip-rule="evenodd" d="M17664.9 4338.33C17431.7 4338.33 17242.7 4527.35 17242.7 4760.51V6005.38C17325.2 5969.46 17416.3 5949.55 17512.1 5949.55H18383.9C18756.9 5949.55 19059.3 6251.97 19059.3 6625.04V6807.35H19583.3C19816.5 6807.35 20005.5 6618.33 20005.5 6385.16V4760.51C20005.5 4527.35 19816.5 4338.33 19583.3 4338.33H17664.9Z" fill="white"/>
</mask>
<g mask="url(#mask3_115_48)">
<path d="M17242.7 6005.38H17158.3V6134.22L17276.4 6082.8L17242.7 6005.38ZM19059.3 6807.35H18974.9V6891.78H19059.3V6807.35ZM17327.2 4760.51C17327.2 4573.98 17478.4 4422.77 17664.9 4422.77V4253.9C17385.1 4253.9 17158.3 4480.72 17158.3 4760.51H17327.2ZM17327.2 6005.38V4760.51H17158.3V6005.38H17327.2ZM17276.4 6082.8C17348.5 6051.43 17428.1 6033.98 17512.1 6033.98V5865.11C17404.5 5865.11 17302 5887.5 17209 5927.96L17276.4 6082.8ZM17512.1 6033.98H18383.9V5865.11H17512.1V6033.98ZM18383.9 6033.98C18710.3 6033.98 18974.9 6298.61 18974.9 6625.04H19143.8C19143.8 6205.34 18803.6 5865.11 18383.9 5865.11V6033.98ZM18974.9 6625.04V6807.35H19143.8V6625.04H18974.9ZM19583.3 6722.91H19059.3V6891.78H19583.3V6722.91ZM19921 6385.16C19921 6571.7 19769.8 6722.91 19583.3 6722.91V6891.78C19863.1 6891.78 20089.9 6664.96 20089.9 6385.16H19921ZM19921 4760.51V6385.16H20089.9V4760.51H19921ZM19583.3 4422.77C19769.8 4422.77 19921 4573.98 19921 4760.51H20089.9C20089.9 4480.72 19863.1 4253.9 19583.3 4253.9V4422.77ZM17664.9 4422.77H19583.3V4253.9H17664.9V4422.77Z" fill="#EE9292"/>
</g>
<path d="M18740 5482.57V5597.4H18726.4C18726.4 5594.05 18725.7 5590.7 18724.2 5587.35C18722.8 5584 18720.9 5582.33 18718.5 5582.33H18353.2V5568.69C18356.5 5568.69 18359.9 5567.97 18363.2 5566.54C18367.1 5565.1 18369 5563.19 18369 5560.8V5065.58C18369 5063.18 18367.1 5061.27 18363.2 5059.84C18359.9 5058.4 18356.5 5057.68 18353.2 5057.68V5044.05H18699.8C18702.2 5044.05 18704.1 5042.37 18705.6 5039.02C18707 5035.67 18707.7 5032.32 18707.7 5028.97H18721.4V5143.81H18707.7C18707.7 5140.46 18707 5137.11 18705.6 5133.76C18704.1 5130.41 18702.2 5128.74 18699.8 5128.74H18461.6V5255.05H18664.7C18667.1 5255.05 18669 5253.38 18670.4 5250.03C18671.9 5246.68 18672.6 5243.33 18672.6 5239.98H18686.2V5354.81H18672.6C18672.6 5351.46 18671.9 5348.11 18670.4 5344.77C18669 5341.42 18667.1 5339.74 18664.7 5339.74H18461.6V5497.64H18718.5C18720.9 5497.64 18722.8 5495.96 18724.2 5492.61C18725.7 5489.26 18726.4 5485.91 18726.4 5482.57H18740ZM19010.1 5523.52V5591.91H19002.1C19002.1 5589.94 19001.6 5587.97 19000.8 5586C18999.9 5584.03 18998.8 5583.04 18997.4 5583.04H18782.5V5569.96L18907.9 5433.17C18920 5419.94 18929.7 5407.98 18937 5397.28C18944.4 5386.59 18948 5375.33 18948 5363.51C18948 5347.47 18943.1 5334.24 18933.2 5323.83C18923.4 5313.41 18910.7 5308.2 18895.2 5308.2C18881.5 5308.2 18869.2 5312.99 18858.5 5322.56C18848.1 5332.13 18842.6 5344.23 18842 5358.87C18842.3 5360.27 18843.7 5361.4 18846.3 5362.24C18848.8 5363.09 18851.2 5363.51 18853.4 5363.51V5371.53H18774.1V5363.51C18776 5363.51 18778.3 5363.09 18780.8 5362.24C18783.4 5361.4 18784.6 5360.27 18784.6 5358.87C18786.3 5340.01 18791.8 5322.98 18801.1 5307.78C18810.4 5292.3 18823.2 5280.06 18839.5 5271.05C18856.1 5262.05 18875.5 5257.54 18897.8 5257.54C18921.1 5257.54 18940.8 5262.75 18956.9 5273.16C18972.9 5283.3 18984.9 5296.66 18992.8 5313.27C19000.9 5329.59 19005 5346.76 19005 5364.78C19005 5377.72 19002.9 5389.4 18998.7 5399.82C18994.7 5410.23 18988.8 5420.65 18980.9 5431.06C18973.1 5441.47 18961.4 5455.12 18945.9 5472.01L18891 5532.38H18997.4C18998.8 5532.38 18999.9 5531.4 19000.8 5529.43C19001.6 5527.46 19002.1 5525.49 19002.1 5523.52H19010.1Z" fill="#464646"/>
<path fill-rule="evenodd" clip-rule="evenodd" d="M22301 10014C22072 9970.09 21850.7 10120.1 21806.8 10349.1L21593.8 11458.5C21691.7 11430.9 21797.4 11425.1 21904.1 11445.6L22583.4 11576C22949.8 11646.3 23189.8 12000.3 23119.4 12366.7L23098.2 12477.5L23537.4 12561.8C23766.4 12605.8 23987.7 12455.8 24031.6 12226.8L24300.2 10827.7C24344.2 10598.7 24194.2 10377.5 23965.2 10333.5L22301 10014Z" fill="#FFD4D4"/>
<mask id="mask4_115_48" style="mask-type:luminance" maskUnits="userSpaceOnUse" x="21593" y="10006" width="2715" height="2564">
<path fill-rule="evenodd" clip-rule="evenodd" d="M22301 10014C22072 9970.09 21850.7 10120.1 21806.8 10349.1L21593.8 11458.5C21691.7 11430.9 21797.4 11425.1 21904.1 11445.6L22583.4 11576C22949.8 11646.3 23189.8 12000.3 23119.4 12366.7L23098.2 12477.5L23537.4 12561.8C23766.4 12605.8 23987.7 12455.8 24031.6 12226.8L24300.2 10827.7C24344.2 10598.7 24194.2 10377.5 23965.2 10333.5L22301 10014Z" fill="white"/>
</mask>
<g mask="url(#mask4_115_48)">
<path d="M21593.8 11458.5L21510.9 11442.6L21485.1 11576.9L21616.7 11539.8L21593.8 11458.5ZM23098.2 12477.5L23015.2 12461.6L22999.3 12544.5L23082.2 12560.4L23098.2 12477.5ZM21889.7 10365C21924.9 10181.8 22101.9 10061.8 22285.1 10097L22316.9 9931.12C22042.1 9878.37 21776.6 10058.4 21723.9 10333.1L21889.7 10365ZM21676.7 11474.5L21889.7 10365L21723.9 10333.1L21510.9 11442.6L21676.7 11474.5ZM21616.7 11539.8C21702.3 11515.7 21794.6 11510.6 21888.1 11528.5L21920 11362.7C21800.1 11339.6 21681.1 11346.2 21570.9 11377.3L21616.7 11539.8ZM21888.1 11528.5L22567.5 11658.9L22599.3 11493.1L21920 11362.7L21888.1 11528.5ZM22567.5 11658.9C22888.1 11720.5 23098 12030.2 23036.5 12350.8L23202.3 12382.6C23281.5 11970.5 23011.5 11572.2 22599.3 11493.1L22567.5 11658.9ZM23036.5 12350.8L23015.2 12461.6L23181.1 12493.4L23202.3 12382.6L23036.5 12350.8ZM23553.4 12478.9L23114.1 12394.6L23082.2 12560.4L23521.5 12644.8L23553.4 12478.9ZM23948.7 12210.9C23913.5 12394.1 23736.5 12514.1 23553.4 12478.9L23521.5 12644.8C23796.3 12697.5 24061.8 12517.5 24114.6 12242.7L23948.7 12210.9ZM24217.3 10811.8L23948.7 12210.9L24114.6 12242.7L24383.1 10843.6L24217.3 10811.8ZM23949.3 10416.4C24132.5 10451.6 24252.5 10628.6 24217.3 10811.8L24383.1 10843.6C24435.9 10568.9 24255.9 10303.3 23981.1 10250.6L23949.3 10416.4ZM22285.1 10097L23949.3 10416.4L23981.1 10250.6L22316.9 9931.12L22285.1 10097Z" fill="#EE9292"/>
</g>
<path d="M23061.9 11291.2L23040.3 11404L23026.9 11401.5C23027.5 11398.2 23027.5 11394.7 23026.7 11391.2C23025.9 11387.6 23024.3 11385.6 23022 11385.2L22663.2 11316.3L22665.8 11302.9C22669.1 11303.5 22672.5 11303.5 22676.1 11302.7C22680.1 11302 22682.3 11300.5 22682.8 11298.1L22776.2 10811.8C22776.6 10809.4 22775.1 10807.2 22771.6 10805.1C22768.6 10803 22765.4 10801.7 22762.1 10801.1L22764.7 10787.7L23105.1 10853C23107.5 10853.5 23109.7 10852.2 23111.7 10849.2C23113.8 10846.1 23115.1 10843 23115.7 10839.7L23129.1 10842.3L23107.5 10955L23094.1 10952.5C23094.7 10949.2 23094.6 10945.8 23093.9 10942.2C23093.1 10938.6 23091.5 10936.6 23089.2 10936.2L22855.2 10891.3L22831.4 11015.3L23030.8 11053.6C23033.2 11054.1 23035.4 11052.8 23037.4 11049.8C23039.5 11046.7 23040.8 11043.6 23041.4 11040.3L23054.8 11042.9L23033.2 11155.6L23019.8 11153.1C23020.4 11149.8 23020.3 11146.4 23019.5 11142.8C23018.8 11139.2 23017.2 11137.2 23014.9 11136.8L22815.4 11098.5L22785.6 11253.6L23038 11302C23040.3 11302.4 23042.5 11301.2 23044.5 11298.1C23046.6 11295.1 23047.9 11292 23048.5 11288.7L23061.9 11291.2ZM23319.4 11382.4L23306.5 11449.5L23298.6 11448C23299 11446.1 23299 11444.1 23298.5 11442C23298.1 11439.9 23297.1 11438.7 23295.8 11438.4L23084.7 11397.9L23087.2 11385.1L23236.1 11274.4C23250.5 11263.7 23262.3 11253.8 23271.5 11244.6C23280.7 11235.5 23286.4 11225.1 23288.6 11213.5C23291.7 11197.8 23289.3 11183.9 23281.6 11171.8C23273.9 11159.7 23262.4 11152.2 23247.2 11149.3C23233.7 11146.7 23220.8 11149.1 23208.5 11156.4C23196.4 11163.9 23188.8 11174.7 23185.4 11189C23185.5 11190.4 23186.6 11191.8 23189 11193.1C23191.3 11194.4 23193.6 11195.3 23195.8 11195.7L23194.3 11203.6L23116.3 11188.6L23117.8 11180.7C23119.8 11181.1 23122 11181.1 23124.7 11180.8C23127.3 11180.4 23128.8 11179.6 23129.1 11178.2C23134.3 11160 23142.9 11144.3 23154.9 11131.1C23166.9 11117.7 23181.8 11108.1 23199.5 11102.3C23217.5 11096.6 23237.4 11095.8 23259.3 11100C23282.2 11104.4 23300.6 11113.2 23314.4 11126.5C23328.2 11139.5 23337.4 11154.8 23342.1 11172.6C23347 11190.2 23347.8 11207.8 23344.4 11225.5C23341.9 11238.2 23337.7 11249.3 23331.5 11258.7C23325.7 11268.2 23317.9 11277.3 23308.2 11286.1C23298.5 11294.8 23284.5 11306 23266.1 11319.7L23200.8 11368.6L23305.3 11388.7C23306.7 11389 23308 11388.2 23309.2 11386.4C23310.4 11384.7 23311.2 11382.8 23311.5 11380.9L23319.4 11382.4Z" fill="#464646"/>
<path d="M21413.9 5167.5C21413.9 5638.91 21007.1 6025.37 20499.8 6025.37C19992.6 6025.37 19585.8 5638.91 19585.8 5167.5C19585.8 4696.08 19992.6 4309.62 20499.8 4309.62C21007.1 4309.62 21413.9 4696.08 21413.9 5167.5Z" fill="#FFFFE0" stroke="#D2C09B" stroke-width="100"/>
<path d="M20280.2 5487.8C20236.2 5487.8 20196.9 5478.71 20162.5 5460.53C20128 5442.35 20101.2 5416.03 20082.1 5381.58C20063 5346.65 20053.4 5305.75 20053.4 5258.86V4963.16C20053.4 4960.77 20051.2 4958.85 20046.9 4957.42C20043.1 4955.98 20039.3 4955.26 20035.4 4955.26V4941.63H20174V4955.26C20170.1 4955.26 20166.1 4955.98 20161.8 4957.42C20157.9 4958.85 20156 4960.77 20156 4963.16V5237.32C20156 5289 20166.3 5328.71 20186.9 5356.46C20207.9 5384.21 20239 5398.09 20280.2 5398.09C20325.2 5398.09 20355.1 5383.74 20369.9 5355.03C20385.2 5326.32 20392.9 5289 20392.9 5243.07V4963.16C20392.9 4960.77 20390.7 4958.85 20386.4 4957.42C20382.6 4955.98 20378.7 4955.26 20374.9 4955.26V4941.63H20514.2V4955.26C20510.3 4955.26 20506.3 4955.98 20502 4957.42C20498.1 4958.85 20496.2 4960.77 20496.2 4963.16V5245.94C20496.2 5322.01 20478.7 5381.34 20443.8 5423.93C20409.4 5466.51 20354.8 5487.8 20280.2 5487.8ZM20792.3 5141.15C20826.3 5141.15 20857.2 5148.57 20884.9 5163.4C20912.7 5177.75 20934.4 5198.09 20950.2 5224.41C20966.5 5250.72 20974.6 5281.1 20974.6 5315.55C20974.6 5350.48 20966.7 5381.1 20951 5407.42C20935.2 5433.26 20913.4 5453.35 20885.6 5467.71C20858.4 5482.06 20827.3 5489.24 20792.3 5489.24C20752.1 5489.24 20717.2 5477.28 20687.6 5453.35V5479.91H20582.8V5466.27C20586.1 5466.27 20589.5 5465.56 20592.8 5464.12C20596.6 5462.68 20598.6 5460.77 20598.6 5458.38V4963.16C20598.6 4960.77 20596.6 4958.85 20592.8 4957.42C20589.5 4955.98 20586.1 4955.26 20582.8 4955.26V4941.63H20703.3V4955.26C20700 4955.26 20696.4 4955.98 20692.6 4957.42C20689.2 4958.85 20687.6 4960.77 20687.6 4963.16V5174.88C20716.3 5152.4 20751.2 5141.15 20792.3 5141.15ZM20786.6 5413.16C20815.3 5413.16 20839.2 5404.31 20858.4 5386.61C20878 5368.9 20887.8 5345.22 20887.8 5315.55C20887.8 5287.8 20878.2 5264.84 20859.1 5246.65C20839.9 5227.99 20815.8 5218.66 20786.6 5218.66C20756.9 5218.66 20732.5 5227.99 20713.4 5246.65C20694.3 5265.31 20684.7 5289 20684.7 5317.71C20684.7 5334.45 20689 5350.24 20697.6 5365.08C20706.7 5379.43 20719.1 5391.15 20734.9 5400.24C20750.7 5408.86 20767.9 5413.16 20786.6 5413.16Z" fill="#464646"/>
<path d="M27771.4 9551.39C27618.9 10345.7 26809.6 10862.4 25959.5 10699.2C25109.3 10536 24548.9 9756.36 24701.4 8962.06C24853.9 8167.75 25663.1 7651.09 26513.3 7814.29C27363.4 7977.49 27923.9 8757.09 27771.4 9551.39Z" fill="#DBFCCF" stroke="#AAD09C" stroke-width="100"/>
<path d="M26252.9 9419.38L26231.2 9532.16L26217.9 9529.58C26218.5 9526.3 26218.4 9522.87 26217.6 9519.31C26216.9 9515.75 26215.3 9513.75 26212.9 9513.29L25854.2 9444.42L25856.7 9431.03C25860 9431.66 25863.5 9431.59 25867 9430.81C25871.1 9430.12 25873.3 9428.61 25873.7 9426.26L25967.1 8939.92C25967.6 8937.57 25966 8935.33 25962.5 8933.2C25959.5 8931.16 25956.4 8929.82 25953.1 8929.19L25955.7 8915.8L26296.1 8981.15C26298.4 8981.6 26300.6 8980.32 26302.7 8977.3C26304.7 8974.28 26306.1 8971.12 26306.7 8967.83L26320.1 8970.41L26298.4 9083.18L26285 9080.61C26285.7 9077.32 26285.6 9073.9 26284.8 9070.34C26284 9066.78 26282.5 9064.77 26280.1 9064.32L26046.1 9019.4L26022.3 9143.45L26221.8 9181.74C26224.1 9182.19 26226.3 9180.91 26228.4 9177.89C26230.4 9174.87 26231.7 9171.72 26232.4 9168.43L26245.8 9171L26224.1 9283.77L26210.7 9281.2C26211.4 9277.91 26211.3 9274.49 26210.5 9270.93C26209.7 9267.37 26208.2 9265.36 26205.8 9264.91L26006.3 9226.62L25976.6 9381.68L26228.9 9430.12C26231.3 9430.57 26233.5 9429.29 26235.5 9426.27C26237.5 9423.25 26238.9 9420.1 26239.5 9416.81L26252.9 9419.38ZM26428.6 9542.52C26428.3 9543.9 26429.2 9545.22 26431.2 9546.48C26433.3 9547.73 26435.4 9548.57 26437.6 9548.99L26436.1 9556.87L26359.4 9542.15L26360.9 9534.27C26363.2 9534.69 26365.4 9534.7 26367.8 9534.3C26370.2 9533.89 26371.5 9533 26371.8 9531.62L26419.5 9282.85L26376.4 9274.57C26375 9274.31 26373.7 9275.06 26372.5 9276.84C26371.3 9278.62 26370.5 9280.47 26370.2 9282.41L26362.3 9280.89L26375.2 9213.73L26383.1 9215.24C26382.7 9217.17 26382.7 9219.19 26383.2 9221.28C26383.7 9223.38 26384.6 9224.56 26386 9224.82L26495 9245.75L26493.5 9253.63C26491.5 9253.26 26489.4 9253.28 26487 9253.68C26484.9 9254.14 26483.8 9255.06 26483.5 9256.44L26428.6 9542.52Z" fill="#464646"/>
<path d="M29112 16440.2C28726.9 17151.5 27799.5 17399.8 27038.2 16987.7C26276.9 16575.5 25977.9 15663.2 26362.9 14951.9C26748 14240.6 27675.5 13992.3 28436.7 14404.4C29198 14816.6 29497 15728.9 29112 16440.2Z" fill="#DBFCCF" stroke="#AAD09C" stroke-width="100"/>
<path d="M27704.1 15856.1L27649.4 15957.1L27637.4 15950.6C27639 15947.7 27640 15944.4 27640.3 15940.7C27640.7 15937.1 27639.8 15934.7 27637.7 15933.6L27316.4 15759.7L27322.9 15747.7C27325.9 15749.3 27329.1 15750.2 27332.8 15750.6C27336.8 15751.1 27339.4 15750.4 27340.6 15748.3L27576.3 15312.8C27577.5 15310.7 27576.7 15308.1 27574 15305C27571.8 15302.1 27569.1 15299.9 27566.2 15298.3L27572.7 15286.3L27877.5 15451.3C27879.6 15452.5 27882.1 15451.9 27885 15449.7C27887.8 15447.4 27890.1 15444.8 27891.7 15441.9L27903.7 15448.3L27849 15549.3L27837 15542.8C27838.6 15539.9 27839.5 15536.6 27839.9 15533C27840.2 15529.3 27839.3 15527 27837.2 15525.8L27627.7 15412.4L27567.5 15523.5L27746.2 15620.2C27748.3 15621.3 27750.7 15620.7 27753.6 15618.5C27756.5 15616.2 27758.7 15613.6 27760.3 15610.7L27772.3 15617.2L27717.6 15718.1L27705.6 15711.7C27707.2 15708.7 27708.2 15705.4 27708.5 15701.8C27708.8 15698.2 27707.9 15695.8 27705.8 15694.6L27527.2 15597.9L27452 15736.8L27678 15859.1C27680.1 15860.3 27682.6 15859.7 27685.4 15857.4C27688.3 15855.2 27690.5 15852.6 27692.1 15849.6L27704.1 15856.1ZM27834.4 16026.5C27833.8 16027.8 27834.2 16029.3 27835.8 16031.1C27837.4 16032.9 27839.2 16034.4 27841.1 16035.4L27837.3 16042.5L27768.6 16005.3L27772.4 15998.3C27774.4 15999.3 27776.6 16000 27779 16000.4C27781.4 16000.7 27782.9 16000.2 27783.6 15999L27904.2 15776.2L27865.6 15755.3C27864.3 15754.7 27862.9 15755 27861.2 15756.3C27859.5 15757.7 27858.2 15759.2 27857.3 15760.9L27850.2 15757.1L27882.8 15697L27889.8 15700.8C27888.9 15702.5 27888.3 15704.4 27888.1 15706.6C27887.9 15708.7 27888.4 15710.1 27889.7 15710.8L27987.3 15763.6L27983.5 15770.7C27981.8 15769.8 27979.7 15769.1 27977.3 15768.8C27975.2 15768.6 27973.8 15769.1 27973.1 15770.4L27834.4 16026.5Z" fill="#464646"/>
<path d="M26867.6 7374.18C26778.7 7837.15 26306.4 8139.99 25808.3 8044.36C25310.1 7948.73 24983.5 7492.52 25072.4 7029.56C25161.2 6566.59 25633.6 6263.75 26131.7 6359.38C26629.9 6455.01 26956.5 6911.22 26867.6 7374.18Z" fill="#FFFFE0" stroke="#D2C09B" stroke-width="100"/>
<path d="M25693.9 7475.02C25650.7 7466.73 25613.8 7450.4 25583.4 7426.05C25553 7401.7 25531.7 7370.8 25519.4 7333.36C25507.2 7295.45 25505.5 7253.47 25514.3 7207.42L25570.1 6917.03C25570.5 6914.68 25568.8 6912.4 25564.8 6910.17C25561.3 6908.04 25557.7 6906.62 25553.9 6905.9L25556.5 6892.5L25692.5 6918.62L25690 6932.01C25686.2 6931.29 25682.1 6931.23 25677.6 6931.82C25673.5 6932.51 25671.3 6934.03 25670.9 6936.38L25619.2 7205.63C25609.4 7256.38 25612 7297.32 25627 7328.45C25642.5 7359.67 25670.4 7379.16 25710.8 7386.92C25755 7395.4 25787 7386.94 25807 7361.54C25827.5 7336.24 25842 7301.03 25850.7 7255.92L25903.4 6981.03C25903.9 6978.68 25902.1 6976.4 25898.2 6974.17C25894.7 6972.04 25891.1 6970.62 25887.3 6969.89L25889.9 6956.5L26026.6 6982.75L26024.1 6996.14C26020.3 6995.42 26016.2 6995.36 26011.7 6995.96C26007.6 6996.65 26005.4 6998.16 26004.9 7000.51L25951.6 7278.22C25937.3 7352.93 25909 7407.91 25866.6 7443.14C25824.8 7478.47 25767.2 7489.1 25693.9 7475.02ZM26262.2 7231.14C26295.6 7237.55 26324.5 7250.65 26348.9 7270.44C26373.5 7289.77 26391 7313.85 26401.6 7342.67C26412.6 7371.58 26414.9 7402.95 26408.4 7436.78C26401.8 7471.09 26388.2 7499.67 26367.8 7522.54C26347.4 7544.94 26322.2 7560.57 26292.3 7569.43C26262.8 7578.39 26230.9 7579.57 26196.6 7572.99C26157.1 7565.41 26125.1 7547.08 26100.4 7517.99L26095.4 7544.07L25992.5 7524.32L25995.1 7510.92C25998.4 7511.55 26001.8 7511.48 26005.4 7510.7C26009.4 7510.02 26011.6 7508.5 26012.1 7506.15L26105.5 7019.81C26105.9 7017.46 26104.4 7015.22 26100.9 7013.09C26097.9 7011.05 26094.7 7009.71 26091.4 7009.08L26094 6995.69L26212.4 7018.42L26209.9 7031.81C26206.6 7031.18 26202.9 7031.21 26198.9 7031.89C26195.3 7032.67 26193.3 7034.24 26192.9 7036.59L26152.9 7244.51C26185.4 7227.84 26221.8 7223.38 26262.2 7231.14ZM26205.3 7497.19C26233.5 7502.6 26258.6 7498.42 26280.8 7484.64C26303.4 7470.96 26317.5 7449.55 26323.1 7420.41C26328.3 7393.16 26323.2 7368.8 26307.9 7347.34C26292.6 7325.4 26270.6 7311.68 26242 7306.18C26212.8 7300.59 26187.1 7305.15 26164.8 7319.87C26142.5 7334.59 26128.6 7356.04 26123.2 7384.24C26120 7400.68 26121.3 7417 26127 7433.19C26133.2 7449 26143.2 7462.86 26157 7474.76C26170.9 7486.2 26187 7493.67 26205.3 7497.19Z" fill="#464646"/>
<path d="M25383.5 14567.1C25159.1 14981.7 24617.4 15127.9 24171.3 14886.4C23725.2 14644.9 23551.5 14111.4 23776 13696.8C24000.4 13282.2 24542.1 13136.1 24988.2 13377.6C25434.2 13619.1 25608 14152.6 25383.5 14567.1Z" fill="#FFFFE0" stroke="#D2C09B" stroke-width="100"/>
<path d="M24234.1 14309.1C24195.4 14288.1 24165.2 14261.4 24143.6 14229C24121.9 14196.6 24110.9 14160.8 24110.4 14121.3C24110.2 14081.5 24121.3 14041 24143.6 13999.7L24284.4 13739.7C24285.6 13737.6 24284.6 13734.9 24281.5 13731.6C24278.8 13728.5 24275.8 13726.1 24272.4 13724.2L24278.9 13712.2L24400.7 13778.2L24394.2 13790.2C24390.8 13788.4 24386.9 13787.1 24382.4 13786.3C24378.4 13785.7 24375.8 13786.5 24374.7 13788.6L24244.1 14029.7C24219.5 14075.1 24209.7 14114.9 24214.6 14149.1C24219.9 14183.6 24240.6 14210.6 24276.8 14230.2C24316.3 14251.6 24349.5 14253.2 24376.2 14235C24403.3 14217.1 24427.8 14187.9 24449.7 14147.5L24582.9 13901.3C24584.1 13899.2 24583.1 13896.5 24580 13893.2C24577.3 13890.1 24574.3 13887.7 24570.9 13885.9L24577.4 13873.9L24699.9 13940.2L24693.4 13952.1C24690 13950.3 24686.1 13949 24681.6 13948.2C24677.6 13947.7 24675 13948.4 24673.8 13950.5L24539.2 14199.2C24503 14266.1 24459.4 14310 24408.4 14330.8C24357.8 14351.8 24299.7 14344.6 24234.1 14309.1ZM24849.5 14248.1C24879.4 14264.2 24903 14285.4 24920.3 14311.7C24937.9 14337.5 24947.4 14365.8 24948.7 14396.4C24950.5 14427.3 24943.2 14457.9 24926.8 14488.2C24910.2 14518.9 24888.6 14542.1 24862.2 14557.7C24836 14572.9 24807.3 14580.2 24776.1 14579.6C24745.3 14579.3 24714.5 14570.8 24683.8 14554.2C24648.4 14535 24623.4 14507.9 24608.7 14472.7L24596.1 14496.1L24503.9 14446.2L24510.4 14434.2C24513.4 14435.8 24516.7 14436.7 24520.3 14437.1C24524.3 14437.6 24526.9 14436.9 24528.1 14434.8L24763.8 13999.3C24765 13997.2 24764.2 13994.6 24761.5 13991.5C24759.3 13988.6 24756.7 13986.4 24753.7 13984.8L24760.2 13972.8L24866.2 14030.2L24859.7 14042.2C24856.8 14040.6 24853.3 14039.5 24849.2 14039C24845.6 14038.7 24843.2 14039.5 24842.1 14041.6L24741.3 14227.8C24777.2 14221.7 24813.3 14228.5 24849.5 14248.1ZM24714.9 14484.5C24740.2 14498.2 24765.4 14501.8 24790.7 14495.3C24816.4 14489.1 24836.3 14473 24850.4 14446.9C24863.6 14422.5 24866.1 14397.7 24858 14372.6C24850 14347.1 24833.2 14327.4 24807.5 14313.5C24781.5 14299.4 24755.6 14295.9 24729.8 14303.2C24704.1 14310.5 24684.4 14326.8 24670.8 14352.1C24662.8 14366.8 24659.1 14382.7 24659.6 14399.9C24660.7 14416.8 24666.1 14433.1 24675.7 14448.6C24685.4 14463.7 24698.5 14475.6 24714.9 14484.5Z" fill="#464646"/>
<path d="M29738.4 13793.9C29737.6 13798.4 29741.6 13803 29750.5 13807.8L29744 13819.8L29615.8 13750.4L29622.3 13738.4C29627.8 13741.4 29632.3 13742.2 29635.7 13740.8C29639.2 13739.4 29641 13737.1 29641.1 13733.9L29654.6 13626.1L29448.8 13514.7L29365.9 13584.9L29364.3 13586.5C29362.9 13589 29362.7 13591.9 29363.7 13595.1C29365.3 13598.2 29368 13600.7 29371.8 13602.8L29365.3 13614.8L29240.9 13547.4L29247.4 13535.5C29255.8 13540 29261.9 13540.9 29265.7 13538L29672.1 13206.3C29674.7 13204.5 29676.6 13202.5 29677.7 13200.4C29679.8 13196.6 29679.5 13193.2 29676.8 13190.1C29674.3 13186.6 29671.2 13183.8 29667.4 13181.8L29673.9 13169.8L29821 13249.4L29814.5 13261.4C29810.7 13259.3 29806.7 13258.2 29802.4 13258.1C29798.3 13257.5 29795.3 13259.1 29793.2 13262.9C29792.1 13265 29791.5 13267.7 29791.4 13270.9L29738.4 13793.9ZM29693.8 13307.9L29516.5 13457.5L29665.5 13538.2L29693.8 13307.9ZM30428.9 13562.2L30376.3 13659.4L30364.3 13652.9C30365.7 13650.4 30366.5 13647.3 30366.9 13643.7C30367.2 13640 30366.3 13637.6 30364.2 13636.5L30223.4 13560.3L30016.4 13942.8C30015.2 13944.9 30016 13947.5 30018.7 13950.6C30021.4 13953.6 30024.4 13956.1 30027.8 13957.9L30021.3 13969.9L29905.1 13907L29911.6 13895.1C29915 13896.9 29918.7 13898.1 29922.8 13898.6C29926.8 13899.2 29929.4 13898.4 29930.5 13896.3L30137.6 13513.8L29996.2 13437.3C29994.1 13436.2 29991.7 13436.7 29988.8 13439C29985.9 13441.2 29983.8 13443.6 29982.5 13446.2L29970.5 13439.7L30023.1 13342.5L30035.1 13349C30033.7 13351.5 30032.9 13354.6 30032.5 13358.2C30032.2 13361.8 30033.1 13364.2 30035.2 13365.3L30403.1 13564.6C30405.3 13565.7 30407.7 13565.1 30410.6 13562.9C30413.4 13560.6 30415.6 13558.2 30416.9 13555.7L30428.9 13562.2ZM30664.3 13706C30697.6 13724 30723.3 13745.8 30741.5 13771.4C30759.8 13797.1 30769.5 13824.4 30770.7 13853.3C30772.5 13882 30765.9 13910.3 30750.9 13938.1C30734.3 13968.8 30712.8 13990.9 30686.4 14004.4C30660.3 14017.4 30632.3 14023 30602.4 14020.9C30572.7 14018.4 30544.2 14009.8 30516.8 13995L30407 13935.5L30315.4 14104.7C30314.3 14106.8 30315.1 14109.4 30317.8 14112.5C30320.4 14115.6 30323.3 14117.9 30326.2 14119.5L30319.7 14131.5L30206.7 14070.3L30213.2 14058.3C30216.2 14059.9 30219.7 14061 30223.7 14061.6C30227.8 14062.1 30230.4 14061.4 30231.5 14059.2L30467.3 13623.8C30468.4 13621.7 30467.6 13619.1 30465 13616C30462.7 13613.1 30460.1 13610.9 30457.2 13609.3L30463.6 13597.3L30664.3 13706ZM30565.3 13917.6C30580 13925.6 30594.8 13929.5 30609.5 13929.3C30624.6 13928.7 30637.7 13925 30649.1 13918.1C30660.4 13911.2 30669.1 13902.2 30675 13891.3C30683.9 13874.9 30684.8 13856.6 30677.8 13836.5C30670.7 13816.3 30656.7 13800.6 30635.6 13789.2L30520.1 13726.6L30450.4 13855.4L30565.3 13917.6Z" fill="#464646"/>
</svg>
